<?xml version="1.0" encoding="UTF-8"?>
<svg id="Layer_1" data-name="Layer 1" xmlns="http://www.w3.org/2000/svg" viewBox="0 0 576 576">
  <defs>
    <style>
      .cls-1, .cls-2, .cls-3 {
        fill: #fff;
      }

      .cls-4, .cls-5, .cls-6 {
        fill: #9bd2a5;
      }

      .cls-5, .cls-7, .cls-8, .cls-3, .cls-9, .cls-10, .cls-11, .cls-12, .cls-6, .cls-13, .cls-14 {
        stroke-linecap: round;
        stroke-linejoin: round;
      }

      .cls-5, .cls-8, .cls-3, .cls-9, .cls-10, .cls-11, .cls-12, .cls-13 {
        stroke: #263238;
      }

      .cls-7, .cls-9, .cls-14 {
        fill: none;
      }

      .cls-7, .cls-6 {
        stroke: #fff;
      }

      .cls-2 {
        opacity: .7;
      }

      .cls-8 {
        fill: #5b5857;
      }

      .cls-10 {
        fill: #898686;
      }

      .cls-11 {
        fill: #c8c6c6;
      }

      .cls-12, .cls-15 {
        fill: #263238;
      }

      .cls-13 {
        fill: #918e8e;
      }

      .cls-14 {
        stroke: #9f9b9b;
      }
    </style>
  </defs>
  <g>
    <path class="cls-4" d="m529.97,301.39c-2.07-23.99-9.24-47.56-19.55-69.4-30.78-65.22-94.04-122.19-169.88-119.32-48.63,1.84-96.87,8.14-145.24,13.13-41.29,4.26-82.36,8.16-114.88,36.83-14.07,12.41-25.41,27.99-32.38,45.44-19.38,48.52-4.9,105.8,26.41,147.62,31.31,41.82,77.18,70.36,124.35,92.84,19.23,9.16,40.81,17.66,61.33,11.94,12.64-3.52,23.22-12.06,35.22-17.38,40.35-17.89,87.15,3.16,131.06-1.38,26.08-2.69,51.08-14.87,69.28-33.75,21.74-22.55,33.26-53.84,34.72-85.13.33-7.16.17-14.32-.45-21.45Z"/>
    <path class="cls-2" d="m529.97,301.39c-2.07-23.99-9.24-47.56-19.55-69.4-30.78-65.22-94.04-122.19-169.88-119.32-48.63,1.84-96.87,8.14-145.24,13.13-41.29,4.26-82.36,8.16-114.88,36.83-14.07,12.41-25.41,27.99-32.38,45.44-19.38,48.52-4.9,105.8,26.41,147.62,31.31,41.82,77.18,70.36,124.35,92.84,19.23,9.16,40.81,17.66,61.33,11.94,12.64-3.52,23.22-12.06,35.22-17.38,40.35-17.89,87.15,3.16,131.06-1.38,26.08-2.69,51.08-14.87,69.28-33.75,21.74-22.55,33.26-53.84,34.72-85.13.33-7.16.17-14.32-.45-21.45Z"/>
  </g>
  <g>
    <line class="cls-9" x1="176.83" y1="147.51" x2="183.81" y2="154.48"/>
    <line class="cls-9" x1="183.81" y1="147.51" x2="176.83" y2="154.48"/>
  </g>
  <g>
    <line class="cls-9" x1="524.36" y1="276.35" x2="531.34" y2="283.33"/>
    <line class="cls-9" x1="531.34" y1="276.35" x2="524.36" y2="283.33"/>
  </g>
  <g>
    <line class="cls-9" x1="121.66" y1="388.51" x2="128.64" y2="395.48"/>
    <line class="cls-9" x1="128.64" y1="388.51" x2="121.66" y2="395.48"/>
  </g>
  <g>
    <line class="cls-9" x1="330.39" y1="121.91" x2="337.36" y2="128.89"/>
    <line class="cls-9" x1="337.36" y1="121.91" x2="330.39" y2="128.89"/>
  </g>
  <g>
    <line class="cls-9" x1="334.88" y1="441.4" x2="341.86" y2="448.38"/>
    <line class="cls-9" x1="341.86" y1="441.4" x2="334.88" y2="448.38"/>
  </g>
  <g>
    <line class="cls-9" x1="409.2" y1="415.81" x2="414.71" y2="421.32"/>
    <line class="cls-9" x1="414.71" y1="415.81" x2="409.2" y2="421.32"/>
  </g>
  <g>
    <line class="cls-9" x1="501.23" y1="138.81" x2="506.74" y2="144.32"/>
    <line class="cls-9" x1="506.74" y1="138.81" x2="501.23" y2="144.32"/>
  </g>
  <path class="cls-9" d="m267.89,156.88c0-2.43-1.97-4.39-4.39-4.39s-4.39,1.97-4.39,4.39,1.97,4.39,4.39,4.39,4.39-1.97,4.39-4.39Z"/>
  <path class="cls-9" d="m56.88,141.82c0-2.43-1.97-4.39-4.39-4.39s-4.39,1.97-4.39,4.39,1.97,4.39,4.39,4.39,4.39-1.97,4.39-4.39Z"/>
  <path class="cls-9" d="m491.32,409.03c0-2.43-1.97-4.39-4.39-4.39s-4.39,1.97-4.39,4.39,1.97,4.39,4.39,4.39,4.39-1.97,4.39-4.39Z"/>
  <path class="cls-9" d="m129.27,450.43c0-2.43-1.97-4.39-4.39-4.39s-4.39,1.97-4.39,4.39,1.97,4.39,4.39,4.39,4.39-1.97,4.39-4.39Z"/>
  <path class="cls-9" d="m57.13,281.83c0-2.43-1.97-4.39-4.39-4.39s-4.39,1.97-4.39,4.39,1.97,4.39,4.39,4.39,4.39-1.97,4.39-4.39Z"/>
  <path class="cls-9" d="m270.78,369.89c0-2.43-1.97-4.39-4.39-4.39s-4.39,1.97-4.39,4.39,1.97,4.39,4.39,4.39,4.39-1.97,4.39-4.39Z"/>
  <g>
    <line class="cls-9" x1="542.88" y1="367.15" x2="551" y2="368.54"/>
    <polyline class="cls-9" points="133.9 378.26 381.72 339.67 537.71 366.27"/>
    <line class="cls-9" x1="26" y1="395.06" x2="123.13" y2="379.94"/>
  </g>
  <g>
    <polygon class="cls-11" points="445.63 161.51 295.75 179.55 296.05 366.58 447.1 390.66 513.11 376.98 513.4 169.74 445.63 161.51"/>
    <line class="cls-9" x1="506.29" y1="371.2" x2="458.27" y2="363.94"/>
    <g>
      <ellipse class="cls-1" cx="477.36" cy="221.03" rx="21.64" ry="29.71"/>
      <ellipse class="cls-4" cx="477.36" cy="221.03" rx="19.6" ry="26.91"/>
      <ellipse class="cls-12" cx="477.36" cy="221.03" rx="7.19" ry="9.87"/>
    </g>
    <polygon class="cls-12" points="431.36 218.11 339.87 220.61 339.87 302.32 433.43 312.51 433.43 219.98 431.36 218.11"/>
    <g>
      <ellipse class="cls-1" cx="332.64" cy="254.68" rx="21.64" ry="29.71"/>
      <ellipse class="cls-4" cx="332.64" cy="254.68" rx="19.6" ry="26.91"/>
      <ellipse class="cls-12" cx="332.64" cy="254.68" rx="7.19" ry="9.87"/>
    </g>
    <g>
      <ellipse class="cls-1" cx="477.36" cy="281.42" rx="21.64" ry="29.71"/>
      <ellipse class="cls-4" cx="477.36" cy="281.42" rx="19.6" ry="26.91"/>
      <ellipse class="cls-12" cx="477.36" cy="281.42" rx="7.19" ry="9.87"/>
    </g>
    <g>
      <ellipse class="cls-1" cx="477.36" cy="341.82" rx="21.64" ry="29.71"/>
      <ellipse class="cls-4" cx="477.36" cy="341.82" rx="19.6" ry="26.91"/>
      <ellipse class="cls-12" cx="477.36" cy="341.82" rx="7.19" ry="9.87"/>
    </g>
    <path class="cls-3" d="m399.12,250.23c-.39,0-.79-.09-1.16-.27-3.54-1.77-8.8-7.18-12.5-12.86-3.56-5.46-7.24-13.45-4.57-20.53,1.3-3.44,6.51-9.26,36.7-20.01,16.17-5.76,32.03-10.22,32.19-10.27,1.38-.39,2.81.42,3.2,1.8.39,1.38-.42,2.82-1.8,3.2-25.64,7.19-62.89,20.36-65.43,27.11-2,5.31,1.68,12.21,4.06,15.86,3.83,5.88,8.52,10.07,10.47,11.05,1.28.64,1.8,2.2,1.16,3.48-.45.91-1.37,1.44-2.33,1.44Z"/>
    <path class="cls-3" d="m397.25,265.62c-.5,0-1-.14-1.45-.45-7.38-4.98-10.14-15.4-8.19-30.96.89-7.15,4.25-13.62,10.26-19.77,8.07-8.26,21.19-16.02,38.98-23.08,39.68-15.75,58.31-10.49,59.09-10.26,1.37.41,2.16,1.86,1.74,3.23-.41,1.37-1.84,2.15-3.22,1.75-.25-.07-18.06-4.83-55.7,10.11-29.14,11.57-44.19,24.21-46,38.66-1.68,13.46.32,22.21,5.95,26.01,1.19.8,1.5,2.42.7,3.61-.5.74-1.32,1.14-2.16,1.14Z"/>
    <polygon class="cls-3" points="394.33 287.62 394.33 292.12 410.67 292.12 412.92 289.31 419.96 289.31 419.96 230.43 412.92 229.02 409.54 225.92 396.58 225.92 394.33 232.68 394.33 287.62"/>
    <rect class="cls-6" x="394.33" y="232.68" width="11.55" height="54.93"/>
    <g>
      <polygon class="cls-3" points="439.97 260.01 413.2 258.04 413.2 283.11 438.84 286.77 439.97 260.01"/>
      <line class="cls-9" x1="413.51" y1="261.09" x2="439.65" y2="263.31"/>
      <line class="cls-9" x1="413.23" y1="265.4" x2="439.51" y2="268.32"/>
      <line class="cls-9" x1="413.37" y1="269.57" x2="439.23" y2="272.63"/>
      <line class="cls-9" x1="413.23" y1="273.74" x2="439.23" y2="277.08"/>
      <line class="cls-9" x1="412.95" y1="277.36" x2="438.81" y2="280.97"/>
      <line class="cls-9" x1="413.09" y1="280.7" x2="438.67" y2="284.73"/>
    </g>
    <polygon class="cls-12" points="413.2 258.04 413.2 242.87 414.9 243.85 414.9 258.03 413.2 258.04"/>
    <polygon class="cls-12" points="310.32 294.42 310.32 356.18 314.6 356.63 314.6 295.1 310.32 294.42"/>
    <polygon class="cls-13" points="314.6 295.1 365 292.5 365 299.7 440.38 308.02 440.38 334.58 426.88 338.4 364.32 330.3 364.32 346.05 437.68 356.85 437.68 377.33 314.6 356.63 314.6 295.1"/>
    <polygon class="cls-13" points="365 299.7 314.37 303.2 413.6 310.5 440.38 308.02 365 299.7"/>
    <polygon class="cls-12" points="413.6 310.5 413.6 336.38 426.88 338.4 440.38 334.58 440.38 308.02 413.6 310.5"/>
    <polygon class="cls-12" points="314.37 303.2 314.37 325.69 364.32 330.3 413.6 336.38 413.6 310.5 314.37 303.2"/>
    <polyline class="cls-7" points="335.36 326.83 340.98 316.29 381.37 320.33 384.18 323.31"/>
    <g>
      <path class="cls-3" d="m389.3,313.2s-5.18,2.7-4.05,13.05c1.13,10.35,11.25,23.63,18.9,28.35,7.65,4.73,25.65,7.43,28.35,7.2,2.7-.23,4.28-.45,4.28-.45v-10.35s-6.53,1.8-13.5,0-20.48-20.93-22.05-24.98c-1.58-4.05,2.03-8.33,2.03-8.33v-3.38l-13.95-1.13Z"/>
      <path class="cls-9" d="m396.05,314.1s-4.5,2.25-2.48,12.15c2.03,9.9,10.58,21.83,20.25,28.13,9.68,6.3,18.45,4.95,18.45,4.95"/>
      <path class="cls-9" d="m403.25,314.32s-4.65,3.77-4.29,10.33c.36,6.57,10.58,17.33,15.05,22.07"/>
      <path class="cls-9" d="m397.69,315.99s-2.19,4.01-.91,11.04c1.28,7.02,12.86,20.8,20.52,25.72"/>
      <path class="cls-9" d="m392.12,313.35s-2.65,1.37-2.37,9.03c.27,7.66,6.38,20.16,14.41,28.18"/>
      <path class="cls-9" d="m387.2,323.83s-.91,7.75,7.75,19.79"/>
      <path class="cls-9" d="m420.85,353.48s7.75,1.73,15.14,2.19"/>
    </g>
    <polygon class="cls-3" points="310.32 294.42 345.13 291.96 365 292.5 314.6 295.1 310.32 294.42"/>
    <polygon class="cls-12" points="314.91 339.7 353.16 334.59 353.16 344.38 314.76 352.26 314.6 356.63 364.32 346.05 364.32 330.3 349.95 329.05 314.61 331.38 314.91 339.7"/>
    <g>
      <path class="cls-1" d="m317.45,360.19v9.13c0,2.33,14.58,4.21,32.57,4.21s32.57-1.89,32.57-4.21v-9.13h-65.14Z"/>
      <ellipse class="cls-4" cx="350.02" cy="360.19" rx="32.57" ry="4.21"/>
      <path class="cls-12" d="m355.91,359.4c0,.73-3.85,1.32-8.6,1.32s-8.6-.59-8.6-1.32,3.85-1.32,8.6-1.32,8.6.59,8.6,1.32Z"/>
    </g>
    <g>
      <path class="cls-1" d="m387.13,365.57l-.26,9.13c-.07,2.33,14.46,7.44,32.44,7.96,17.98.52,32.61-.95,32.68-3.28l.26-11.94-65.12-1.87Z"/>
      <path class="cls-4" d="m452.25,367.45c-.07,2.33-14.7,3.79-32.68,3.28-17.98-.52-32.5-2.82-32.44-5.15.07-2.33,14.7-3.79,32.68-3.28,17.98.52,32.5,2.82,32.44,5.15Z"/>
      <path class="cls-12" d="m425.59,365.89c-.02.73-3.89,1.21-8.64,1.07-4.75-.14-8.58-.84-8.56-1.56.02-.73,3.89-1.21,8.64-1.07,4.75.14,8.58.84,8.56,1.56Z"/>
    </g>
    <polygon class="cls-15" points="314.1 178.27 314.1 188.43 352.83 193.15 473.74 182.76 473.74 167.18 445.63 161.51 314.1 178.27"/>
    <polygon class="cls-1" points="314.1 188.43 432.41 175.68 473.74 182.76 352.83 193.15 314.1 188.43"/>
    <rect class="cls-3" x="371.47" y="247.43" width="20.38" height="26.2" rx="7.11" ry="7.11"/>
    <rect class="cls-4" x="374.89" y="251.82" width="13.54" height="17.41" rx="5.04" ry="5.04"/>
    <path class="cls-12" d="m445.91,156.36l.89,238.46,68.39-14.87.59-212.89-69.87-10.7Zm65.12,217.65l-56.2,11,.59-218.84,55.6,9.22v198.62Z"/>
    <path class="cls-8" d="m445.91,156.36l-154.02,20.22v192.67l154.91,25.57-.89-238.46Zm-146.29,207.54l-1.19-181.97,137.07-14.87.89,219.73-136.78-22.89Z"/>
    <line class="cls-9" x1="353.92" y1="196.37" x2="353.92" y2="216.06"/>
  </g>
  <g>
    <path class="cls-12" d="m201.68,423.47s39.1,10.25,42.67,10.01c3.58-.24,163.06-34.09,164.25-34.81,1.19-.72,3.1-4.53,3.1-4.53l-5.72-2.15s-52.45-10.25-55.07-9.77c-2.62.48-172.36,26.7-174.03,28.37-1.67,1.67-4.05,3.34-3.34,4.05.72.72,28.13,8.82,28.13,8.82Z"/>
    <g>
      <polyline class="cls-14" points="183.56 413.22 239.53 426.32 405.46 392.67"/>
      <polyline class="cls-14" points="242.57 427.74 245.01 429.36 409.34 395.11"/>
      <polyline class="cls-14" points="193.66 413.34 195.72 411.47 237.32 421.59 237.51 424.59"/>
      <polyline class="cls-14" points="237.32 421.59 244.79 420.48 247.11 423.33"/>
      <polyline class="cls-14" points="247.82 422.89 248.53 420.39 254.86 418.87 257 421.28 257.89 418.61 273.05 415.57 275.28 418.25"/>
      <polyline class="cls-14" points="277.6 417.18 278.76 414.77 284.28 413.35 286.6 415.84"/>
      <polyline class="cls-14" points="287.49 415.49 288.21 412.72 292.58 411.83 294.89 413.52 296.23 411.12 301.14 410.31 302.83 411.74"/>
      <polyline class="cls-14" points="195.72 411.47 202.44 410.49 204.49 411.21 205.29 409.51 207.07 409.33 210.2 409.33 212.51 408.8 214.39 407.64 219.11 407.64 222.94 407.55 223.75 406.57 229.36 405.77 233.11 406.39 234.98 404.07 240.6 403.81 242.56 403.9 243.9 402.91 258.43 400.69 261.37 401.04 262.89 399.35 276.08 397.74 281.34 398.55 282.41 399.88"/>
      <line class="cls-14" x1="272.07" y1="402.38" x2="281.08" y2="400.51"/>
      <polyline class="cls-14" points="283.22 400.42 295.43 403.56 286.96 405.59 274.83 403.09"/>
      <line class="cls-14" x1="286.96" y1="405.59" x2="286.96" y2="409.96"/>
      <polyline class="cls-14" points="301.14 410.31 293.38 408.53 288.56 409.07 287.94 410.49"/>
      <polyline class="cls-14" points="292.58 411.83 283.93 409.96 280.9 411.21 280.45 411.92"/>
      <line class="cls-14" x1="288.21" y1="412.72" x2="283.39" y2="411.65"/>
      <line class="cls-14" x1="296.23" y1="411.12" x2="290.44" y2="410.05"/>
      <polyline class="cls-14" points="278.76 414.77 271.36 412.28 277.42 411.38 283.57 412.72"/>
      <polygon class="cls-14" points="270.73 408.53 276.53 410.31 282.5 408.98 276.97 407.19 270.73 408.53"/>
      <polyline class="cls-14" points="270.73 408.53 268.68 410.76 271.18 411.65"/>
      <line class="cls-14" x1="282.5" y1="408.98" x2="283.93" y2="409.96"/>
      <line class="cls-14" x1="273.05" y1="415.57" x2="235.78" y2="407.02"/>
      <line class="cls-14" x1="206.36" y1="411.74" x2="243.18" y2="420.21"/>
      <line class="cls-14" x1="207.52" y1="410.4" x2="247.37" y2="419.77"/>
      <line class="cls-14" x1="213.32" y1="409.6" x2="253.44" y2="418.34"/>
      <polyline class="cls-14" points="222.77 408.17 254.77 415.31 262.08 413.88"/>
      <polyline class="cls-14" points="289.3 409.06 290.82 405.8 309.62 402.05 315.31 403.44 389.96 389.98 397.05 391.21 399.58 393.57"/>
      <polyline class="cls-14" points="397.05 391.21 323.4 406.13 324.21 408.5"/>
      <polyline class="cls-14" points="327.23 401.4 334.08 403.6 335.96 405.56"/>
      <polyline class="cls-14" points="337.18 399.44 345.01 401.81 346.48 403.52"/>
      <polyline class="cls-14" points="376.91 392.51 383.51 394.06 385.06 395.37"/>
      <polyline class="cls-14" points="385.47 391.04 390.94 392.67 392 394.06"/>
      <polyline class="cls-14" points="298.52 408.99 300.15 407.19 307.17 409.23 320.54 406.7 313.77 404.5"/>
      <line class="cls-14" x1="320.54" y1="406.7" x2="321.6" y2="408.99"/>
      <line class="cls-14" x1="323.4" y1="406.13" x2="317.77" y2="404.26"/>
      <line class="cls-14" x1="300.15" y1="407.19" x2="311.98" y2="404.91"/>
      <line class="cls-14" x1="291.42" y1="406.21" x2="295.75" y2="407.52"/>
      <polyline class="cls-14" points="221.71 411.19 222.75 409.8 226.21 409.02"/>
      <polyline class="cls-14" points="230.2 413.35 231.06 411.96 234.18 411.01"/>
      <polyline class="cls-14" points="239.9 414.82 240.77 413.96 244.75 413.26"/>
      <line class="cls-14" x1="227.34" y1="418.81" x2="230.8" y2="417.77"/>
      <line class="cls-14" x1="220.58" y1="417.08" x2="222.92" y2="416.21"/>
      <line class="cls-14" x1="203.6" y1="412.74" x2="207.68" y2="412.4"/>
      <line class="cls-14" x1="209.93" y1="414.3" x2="214.17" y2="413.78"/>
      <polyline class="cls-14" points="243.45 408.76 245.44 407.03 250.12 408.24 250.12 409.28"/>
      <polyline class="cls-14" points="250.81 408.33 255.84 407.2 257.66 408.5 258.78 406.25 264.07 405.12 266.15 407.11 267.36 404.86 272.73 404 274.81 405.9"/>
      <polyline class="cls-14" points="247.26 406.42 267.19 402.61 270.91 403.39"/>
      <line class="cls-14" x1="255.84" y1="407.2" x2="252.11" y2="405.73"/>
      <line class="cls-14" x1="258.78" y1="406.25" x2="255.32" y2="405.29"/>
      <line class="cls-14" x1="267.36" y1="404.86" x2="262.77" y2="403.91"/>
      <line class="cls-14" x1="242.56" y1="403.9" x2="249.95" y2="405.81"/>
      <line class="cls-14" x1="244.49" y1="403.13" x2="252.89" y2="405.38"/>
      <line class="cls-14" x1="251.07" y1="402.26" x2="258.26" y2="404.43"/>
      <polyline class="cls-14" points="253.76 401.66 260.69 404.17 264.07 405.12"/>
      <line class="cls-14" x1="262.16" y1="401.4" x2="265.45" y2="402.35"/>
      <polyline class="cls-14" points="262.89 399.35 270.13 400.88 270.65 402.7"/>
      <line class="cls-14" x1="278.02" y1="397.07" x2="357.19" y2="384.16"/>
      <line class="cls-14" x1="284.97" y1="399.45" x2="365.65" y2="385.81"/>
      <line class="cls-14" x1="291.15" y1="401.63" x2="374.4" y2="387.09"/>
      <line class="cls-14" x1="311.74" y1="401.38" x2="383.02" y2="388.64"/>
      <line class="cls-14" x1="345.56" y1="385.94" x2="378.03" y2="391.87"/>
      <line class="cls-14" x1="353.55" y1="384.83" x2="382.76" y2="390.75"/>
      <line class="cls-14" x1="365.92" y1="394.36" x2="340.83" y2="387.23"/>
      <line class="cls-14" x1="357.76" y1="395.91" x2="334.99" y2="388.78"/>
      <line class="cls-14" x1="345.13" y1="398.31" x2="323.22" y2="390.24"/>
      <line class="cls-14" x1="338.17" y1="399.6" x2="316.86" y2="391.44"/>
      <line class="cls-14" x1="330.26" y1="401.06" x2="309.56" y2="392.56"/>
      <line class="cls-14" x1="321.5" y1="402.44" x2="301.83" y2="393.68"/>
      <line class="cls-14" x1="310.16" y1="402.52" x2="293.84" y2="394.96"/>
      <line class="cls-14" x1="302.52" y1="403.47" x2="286.45" y2="396.08"/>
      <line class="cls-14" x1="225.54" y1="404.76" x2="227.43" y2="402.61"/>
      <line class="cls-14" x1="234.04" y1="401.49" x2="237.74" y2="402.87"/>
      <line class="cls-14" x1="241.95" y1="400.38" x2="245.9" y2="401.67"/>
      <line class="cls-14" x1="251.4" y1="398.57" x2="256.38" y2="400.29"/>
      <line class="cls-14" x1="260.68" y1="397.03" x2="266.09" y2="398.31"/>
      <line class="cls-14" x1="268.24" y1="395.74" x2="273.73" y2="397.46"/>
      <line class="cls-14" x1="276.48" y1="394.36" x2="280.78" y2="395.65"/>
      <line class="cls-14" x1="295.38" y1="391.44" x2="298.99" y2="392.56"/>
      <line class="cls-14" x1="302.94" y1="390.15" x2="307.07" y2="391.18"/>
      <line class="cls-14" x1="309.65" y1="388.95" x2="313.77" y2="389.72"/>
      <line class="cls-14" x1="319.01" y1="387.66" x2="323.39" y2="388.95"/>
      <line class="cls-14" x1="327.43" y1="386.37" x2="332.41" y2="387.4"/>
      <line class="cls-14" x1="333.7" y1="385.17" x2="338.68" y2="386.37"/>
      <line class="cls-14" x1="340.75" y1="384.14" x2="344.96" y2="385.26"/>
    </g>
  </g>
  <g>
    <path class="cls-10" d="m206.21,427.28s-8.58-11.2-22.65-14.07c-14.07-2.86-21.69,2.15-28.61,5.96-6.91,3.81-13.59,6.91-12.87,9.77.72,2.86,3.1,5.48,5.24,6.44,2.15.95,22.89,8.34,32.66,9.3,9.77.95,21.46-1.67,25.03-5.24s1.19-12.16,1.19-12.16Z"/>
    <path class="cls-8" d="m204.05,424.86c-3.38-3.46-10.56-9.63-20.49-11.64-14.07-2.86-21.69,2.15-28.61,5.96-1.31.73-2.62,1.42-3.87,2.1,1.47-.35,11.64-2.61,16.5.04,5.24,2.86,14.78,6.91,25.03,6.91,5.82,0,9.41-1.69,11.43-3.37Z"/>
    <path class="cls-12" d="m206.88,434.98c-3.49,2.14-8.67,4.22-15.45,3.99-13.59-.48-19.07-9.3-27.65-14.07-8.58-4.77-21.69,4.05-21.69,4.05.72,2.86,3.1,5.48,5.24,6.44,2.15.95,22.89,8.34,32.66,9.3,9.77.95,21.46-1.67,25.03-5.24,1.13-1.13,1.66-2.76,1.87-4.46Z"/>
  </g>
  <polygon class="cls-10" points="65.6 166.67 61.99 168.85 81.91 360.11 85.22 358.73 65.6 166.67"/>
  <g>
    <g>
      <path class="cls-10" d="m179.36,348.48l-15.58,45.24,36.06-7.68s-6.4-4.48-5.55-11.31c.85-6.83,9.6-27.74,9.6-27.74l-24.54,1.49Z"/>
      <path class="cls-12" d="m194.3,374.72c.85-6.83,9.6-27.74,9.6-27.74l-17.27,1.05c-1.38,3.98-9.24,25.71-9.62,31.81-.36,5.72,3.03,9.04,4.51,10.09l18.32-3.9s-6.4-4.48-5.55-11.31Z"/>
    </g>
    <polygon class="cls-12" points="65.6 166.67 85.22 358.73 308 338.01 288.38 192.57 65.6 166.67"/>
    <g>
      <polygon class="cls-5" points="73.38 174.44 92.25 350.22 300.97 332.09 284.31 199.6 73.38 174.44"/>
      <g>
        <g>
          <ellipse class="cls-3" cx="197.62" cy="240.85" rx="17.63" ry="20.93" transform="translate(-95.87 136.32) rotate(-31.03)"/>
          <path class="cls-3" d="m199.65,238.95c3.22-.65,4.74-4.17,3.38-7.86-1.35-3.7-5.06-6.17-8.28-5.52s-4.74,4.17-3.38,7.86c1.35,3.7,5.06,6.17,8.28,5.52Z"/>
          <path class="cls-3" d="m215.68,248.42c-5.41-6.15-12.96-9.84-19.81-8.99-6.76.84-11.09,5.91-11.87,12.69,5.01,6.61,12.99,10.18,20.3,8.37,5.93-1.48,10.01-6.15,11.38-12.07Z"/>
        </g>
        <polygon class="cls-3" points="234.31 280.93 171.41 280.93 169.68 269.98 232.58 269.98 234.31 280.93"/>
      </g>
    </g>
    <polygon class="cls-3" points="81.91 360.11 306.95 339.19 308 338.01 85.22 358.73 81.91 360.11"/>
    <path class="cls-12" d="m151.32,412.16s4.73-4.51,9.35-6.6c4.62-2.09,24.09-9.46,46.3-11.22,22.22-1.76,74.79-2.75,78.31-2.86,3.52-.11,7.59-.44,8.03-1.65.44-1.21.64-6.58.64-6.58l-15.58,5.76-1.56-1.49s-17.16-1.65-48.61.88c-31.45,2.53-50.59,7.37-63.46,11.44-12.87,4.07-13.42,12.32-13.42,12.32Z"/>
    <path class="cls-8" d="m132.63,403.53l19.84,6.83s7.47-10.88,43.74-16.64c36.27-5.76,82.15-4.69,82.15-4.69l15.58-5.76s-59.53-3.41-98.16,1.71c-38.62,5.12-58.25,12.59-63.16,18.56Z"/>
  </g>
  <path class="cls-12" d="m132.63,403.53s-6.4,7.9-4.69,8.54c1.71.64,21.12.85,22.62.21,1.49-.64,1.92-1.92,1.92-1.92l-19.84-6.83Z"/>
  <g>
    <path class="cls-3" d="m58.49,412.46l3.91,32.86c0,6.07,10.18,10.98,22.74,10.98s22.74-4.92,22.74-10.98l3.91-32.86h-53.28Z"/>
    <ellipse class="cls-3" cx="85.14" cy="412.46" rx="26.64" ry="7.55"/>
    <ellipse class="cls-15" cx="85.14" cy="412.46" rx="20.76" ry="5.88"/>
    <g>
      <path class="cls-15" d="m39.37,338.76c2.47.68,8.12-.27,8.13-.27.06-.01-1.76-3.54-1.9-3.75-1.62-2.42-6.18-6.15-9.33-5.26-2.26.65-3.21,3.14-2.38,5.24.85,2.14,3.37,3.46,5.47,4.04Z"/>
      <path class="cls-15" d="m96.94,331.69c.05.02.49-3.92.48-4.17-.02-2.92-1.76-8.54-4.88-9.53-2.24-.71-4.41.85-4.87,3.06-.47,2.26.9,4.75,2.34,6.39,1.68,1.93,6.93,4.25,6.93,4.25Z"/>
      <path class="cls-15" d="m110.9,308.67c-3.26.12-6.45,5.08-7.24,7.89-.07.24-.7,4.16-.64,4.15,0,0,.06,0,.07-.01-.51.78-1.04,1.62-1.61,2.55-1.03,1.73-2.19,3.69-3.29,5.91-1.11,2.21-2.26,4.65-3.24,7.33-.98,2.68-1.88,5.55-2.43,8.63,0,.03,0,.07-.01.11-.12-.95-.55-3.59-.6-3.79-.79-2.81-3.96-7.77-7.22-7.9-2.35-.09-4.03,1.98-3.89,4.24.14,2.3,2.12,4.34,3.94,5.54,2.05,1.36,7.31,2.2,7.73,2.26-.49,2.94-.75,5.99-.85,9.09-.06,1.77-.06,3.56-.04,5.36-.13-.82-.25-1.55-.28-1.65-.79-2.81-3.96-7.77-7.22-7.9-2.35-.09-4.03,1.98-3.89,4.24.14,2.3,2.12,4.34,3.94,5.54,1.84,1.22,6.31,2.03,7.5,2.22.01.69.02,1.38.04,2.06.08,3.3.18,6.59.18,9.83,0,1.14-.04,2.26-.08,3.38-.12-.73-.22-1.34-.25-1.43-.79-2.81-3.96-7.77-7.22-7.9-2.35-.09-4.03,1.98-3.89,4.24.14,2.3,2.12,4.34,3.94,5.54,1.76,1.16,5.88,1.95,7.29,2.19-.07,1.15-.15,2.3-.27,3.41-.1.76-.15,1.49-.29,2.24-.13.75-.25,1.49-.38,2.22-.29,1.41-.58,2.86-.9,4.22-.21.95-.44,1.85-.66,2.76.01-1.13,0-3.35-.03-3.54-.23-1.92-1.37-4.94-3.04-6.94-.03-.28-.09-.56-.18-.84-.67-2.15-2.98-3.49-5.15-2.57-3,1.28-4.19,7.06-3.92,9.96.02.17.4,2.01.66,3.17-.26-.66-.5-1.3-.77-1.97-.53-1.33-1.09-2.65-1.7-4.07-.32-.67-.63-1.36-.96-2.04-.3-.69-.71-1.38-1.07-2.08-.86-1.6-1.82-3.18-2.81-4.75,1.17-.47,5.29-2.18,6.82-3.74,1.52-1.56,3.02-3.97,2.68-6.25-.34-2.23-2.42-3.91-4.7-3.32-3.16.82-5.21,6.34-5.38,9.25-.01.18.1,2.28.18,3.44-.61-.94-1.2-1.88-1.85-2.81-1.86-2.68-3.82-5.34-5.76-8.01-.6-.81-1.18-1.63-1.77-2.45.42-.16,5.36-2.09,7.07-3.85,1.52-1.56,3.02-3.97,2.68-6.25-.34-2.23-2.42-3.9-4.7-3.32-3.16.82-5.21,6.34-5.38,9.25-.01.22.15,3.25.23,4.01-1.29-1.8-2.57-3.61-3.75-5.44-1.64-2.53-3.1-5.1-4.34-7.69.19-.07,5.36-2.06,7.11-3.86,1.52-1.56,3.02-3.97,2.68-6.25-.34-2.23-2.42-3.91-4.7-3.32-3.16.82-5.21,6.34-5.38,9.25-.01.19.11,2.5.19,3.59-.1.03-.08.02-.18.05-1.29-2.8-2.19-5.67-2.9-8.4-.41-1.58-.72-3.11-.98-4.61,1-.27,5.56-1.56,7.31-3.01,1.68-1.38,3.44-3.62,3.35-5.92-.09-2.26-1.98-4.15-4.31-3.81-3.23.46-5.87,5.73-6.37,8.6-.03.16-.12,1.78-.18,2.96-.11-.68-.23-1.38-.33-2.03-.35-2.45-.52-4.71-.65-6.71-.07-1.14-.11-2.17-.13-3.14.84-.78,4.2-3.96,5.08-6.01.86-2,1.39-4.79.24-6.8-1.12-1.96-3.67-2.77-5.58-1.4-2.66,1.9-2.57,7.79-1.69,10.57.08.24,1.71,3.86,1.75,3.82,0,0,.04-.04.05-.05,0,.93.02,1.93.06,3.02.09,2.01.21,4.28.51,6.74.29,2.46.68,5.13,1.34,7.9.66,2.78,1.49,5.67,2.74,8.54.01.03.03.06.05.1-.62-.73-2.44-2.69-2.59-2.83-2.21-1.91-7.59-4.3-10.38-2.61-2.01,1.22-2.27,3.88-.91,5.68,1.39,1.84,4.16,2.45,6.34,2.45,2.46,0,7.31-2.2,7.69-2.38,1.21,2.72,2.67,5.41,4.3,8.05.93,1.51,1.91,3.01,2.92,4.49-.56-.61-1.07-1.15-1.14-1.22-2.21-1.91-7.59-4.3-10.38-2.61-2.01,1.22-2.27,3.88-.91,5.68,1.39,1.84,4.16,2.45,6.34,2.45,2.21,0,6.38-1.79,7.48-2.28.39.57.78,1.14,1.17,1.7,1.89,2.71,3.79,5.4,5.57,8.1.63.95,1.21,1.91,1.8,2.87-.5-.54-.92-.99-.99-1.05-2.21-1.91-7.59-4.3-10.38-2.61-2.01,1.22-2.27,3.88-.91,5.68,1.39,1.84,4.16,2.45,6.34,2.45,2.11,0,5.98-1.62,7.28-2.2.57,1,1.15,2,1.65,2.99.33.69.7,1.32.99,2.03.31.69.61,1.38.91,2.06.53,1.33,1.09,2.71,1.57,4.02.35.91.66,1.79.97,2.67-.61-.95-1.86-2.8-1.98-2.94-1.89-2.22-6.85-5.4-9.87-4.15-2.17.9-2.83,3.49-1.76,5.48,1.09,2.03,3.75,3.05,5.9,3.38,2.37.36,7.31-1,7.92-1.17.52,1.46,1.01,2.88,1.45,4.23,1.53,4.63,2.63,8.55,3.36,11.32l2.19-.32c-.02-.06-.03-.12-.05-.18-.8-2.79-2.01-6.76-3.67-11.45-.52-1.48-1.11-3.06-1.72-4.67.36-.2,2.37-1.38,4.12-2.72,1.91,1.55,6.46,3.03,7.05,3.22-.37,1.5-.75,2.96-1.12,4.33-1.28,4.71-2.53,8.58-3.44,11.3l2.4-.35c.82-2.68,1.86-6.25,2.91-10.46.38-1.52.76-3.16,1.14-4.84.63.04,5.75.33,7.99-.53,2.03-.78,4.41-2.34,5.05-4.55.63-2.17-.56-4.56-2.88-4.98-3.21-.59-7.39,3.57-8.76,6.14-.08.15-.78,1.9-1.2,3,.15-.69.3-1.36.45-2.07.3-1.4.55-2.81.83-4.33.11-.74.22-1.48.33-2.23.13-.74.16-1.54.25-2.32.16-1.81.24-3.65.28-5.51,1.23.26,5.61,1.1,7.75.64,2.13-.46,4.71-1.64,5.68-3.74.95-2.05.14-4.59-2.09-5.36-3.09-1.07-7.84,2.41-9.59,4.75-.11.15-1.18,1.96-1.74,2.97.01-1.12.03-2.23,0-3.36-.07-3.26-.24-6.56-.39-9.86-.05-1.01-.08-2.01-.12-3.02.44.1,5.62,1.21,8.02.69,2.13-.46,4.71-1.64,5.68-3.74.95-2.05.13-4.59-2.09-5.36-3.09-1.07-7.84,2.41-9.59,4.75-.13.18-1.67,2.79-2.02,3.47-.09-2.22-.15-4.43-.13-6.61.03-3.01.22-5.96.63-8.81.2.05,5.61,1.24,8.06.7,2.13-.46,4.71-1.64,5.68-3.74.95-2.05.13-4.59-2.09-5.36-3.09-1.07-7.84,2.41-9.59,4.75-.12.15-1.28,2.14-1.82,3.1-.1-.03-.08-.03-.18-.06.47-3.04,1.3-5.93,2.22-8.6.53-1.55,1.12-2.99,1.72-4.39.98.33,5.5,1.76,7.76,1.53,2.17-.23,4.86-1.12,6.06-3.09,1.17-1.93.64-4.55-1.49-5.56-2.95-1.4-8.06,1.54-10.06,3.66-.11.12-1.08,1.41-1.78,2.37.28-.63.56-1.28.85-1.87,1.06-2.23,2.16-4.21,3.16-5.96.57-.99,1.11-1.87,1.62-2.69,1.13-.18,5.69-.99,7.55-2.22,1.82-1.2,3.8-3.23,3.95-5.53.15-2.25-1.53-4.33-3.88-4.25Z"/>
    </g>
  </g>
</svg>