<?xml version="1.0" encoding="utf-8"?>
<!-- Generator: Adobe Illustrator 27.5.0, SVG Export Plug-In . SVG Version: 6.00 Build 0)  -->
<svg version="1.1" xmlns="http://www.w3.org/2000/svg" xmlns:xlink="http://www.w3.org/1999/xlink" x="0px" y="0px"
	 viewBox="0 0 3710 3710" style="enable-background:new 0 0 3710 3710;" xml:space="preserve">
<g id="Background">
	<g>
		<g>
			<rect style="fill:#FFFFFF;" width="3710" height="3710"/>
		</g>
	</g>
</g>
<g id="Illustration">
	<g>
		<linearGradient id="SVGID_1_" gradientUnits="userSpaceOnUse" x1="3447.3784" y1="3283.127" x2="1372.207" y2="1467.3534">
			<stop  offset="0" style="stop-color:#B37CFF"/>
			<stop  offset="1" style="stop-color:#F895E7"/>
		</linearGradient>
		<path style="opacity:0.3;fill:url(#SVGID_1_);" d="M3094.707,2340.115c-268.196,631.493-982.607,985.26-1602.146,889.833
			c-100.812-15.529-377.189-61.783-621.883-280c-471.052-420.083-571.791-1251.902-191.807-1838.105
			c276.562-426.653,772.326-668.508,1243.4-656.41c101.469,2.606,490.342,18.666,832.093,300.467
			c50.196,41.391,160.91,139.748,260.689,295.784C3249.354,1418.085,3269.494,1928.563,3094.707,2340.115z"/>
		<g>
			<g style="opacity:0.9;">
				
					<linearGradient id="SVGID_00000019666851931140645920000005514100497142138040_" gradientUnits="userSpaceOnUse" x1="-1843.3651" y1="689.7209" x2="-1310.7544" y2="3768.6582" gradientTransform="matrix(-0.9916 -0.1295 -0.1295 0.9916 1243.9709 -255.9298)">
					<stop  offset="0" style="stop-color:#CB236D"/>
					<stop  offset="1" style="stop-color:#4C246D"/>
				</linearGradient>
				<path style="fill:url(#SVGID_00000019666851931140645920000005514100497142138040_);" d="M2949.33,746.322
					c59.028,260.017,353.643,1776.455-733.415,2049.656c0,0-399.246-995.149,702.914-2066.921
					C2928.472,719.681,2945.474,729.336,2949.33,746.322z"/>
				<path style="opacity:0.45;fill:#FFFFFF;" d="M2895.354,969.637c-10.689,74.864-22.74,149.596-35.372,224.19
					c-12.667,74.598-26.096,149.064-40.292,223.382c-28.328,148.645-59.871,296.675-95.287,443.751
					c-17.901,73.489-36.734,146.744-56.878,219.628c-20.395,72.813-42.067,145.252-65.51,217.1
					c-23.753,71.737-49.441,142.823-78.107,212.643c-28.767,69.733-79.947,131.899-117.862,196.883
					c-2.058,3.512,18.674,14.547,22.186,16.606c3.512,2.058,8.028,0.879,10.087-2.633l0.024-0.042
					c38.103-66.021,69.613-135.352,98.223-205.625c28.5-70.351,53.951-141.837,77.443-213.915
					c23.179-72.179,44.562-144.893,64.656-217.947c19.842-73.122,38.362-146.581,55.943-220.255
					c34.774-147.439,65.652-295.752,93.306-444.644c13.859-74.44,26.948-149.021,39.275-223.726
					c12.293-74.718,23.996-149.506,34.353-224.553c0.236-1.708-0.958-3.284-2.667-3.52c-1.708-0.236-3.284,0.958-3.52,2.666
					L2895.354,969.637z"/>
			</g>
			<g>
				
					<linearGradient id="SVGID_00000033366574644953663480000007703121081018192829_" gradientUnits="userSpaceOnUse" x1="-1137.1787" y1="3811.051" x2="-2582.0667" y2="1481.5387" gradientTransform="matrix(-0.9916 -0.1295 -0.1295 0.9916 1243.9709 -255.9298)">
					<stop  offset="0" style="stop-color:#A737D5"/>
					<stop  offset="1" style="stop-color:#EF497A"/>
				</linearGradient>
				<path style="fill:url(#SVGID_00000033366574644953663480000007703121081018192829_);" d="M3263.721,1559.623
					c0.179-15.003-16.467-20.786-22.432-7.776c-57.666,125.775-217.541,449.629-395.378,593.087
					c-289.56,233.583-568.436,679.49-469.527,980.505C2376.383,3125.439,3244.201,3194.301,3263.721,1559.623z"/>
				<path style="opacity:0.43;fill:#FFFFFF;" d="M3199.749,1744.747c-0.961,3.067-2.369,6.951-3.622,10.521l-3.979,10.873
					l-8.167,21.659l-16.683,43.142c-11.309,28.656-22.917,57.135-34.741,85.474c-23.553,56.735-47.894,112.972-73.199,168.543
					c-50.827,110.972-103.979,220.379-162.021,325.861c-29.21,52.561-58.557,105.026-89.742,155.866
					c-31.177,50.829-63.356,100.757-97.123,149.066c-67.226,96.888-140.633,187.651-222.075,267.454
					c-1.111,1.068-1.274,3.041-0.366,4.406c0.883,1.325,2.477,1.57,3.584,0.608c42.425-37.732,82.383-79.363,120.776-122.946
					c38.094-43.99,73.975-90.655,108.783-138.42c68.679-96.54,131.537-198.989,189.343-305.362
					c28.986-53.134,56.486-107.426,83.323-162.169c26.808-54.769,52.622-110.26,77.05-166.655
					c24.505-56.336,48.328-113.115,70.795-170.704c11.179-28.827,22.135-57.782,32.79-86.906
					c5.282-14.587,10.571-29.171,15.66-43.869l7.504-22.123l3.654-11.127c1.173-3.824,2.378-7.243,3.534-11.719
					c0.42-1.628-0.34-3.389-1.698-3.932c-1.308-0.523-2.692,0.27-3.169,1.783L3199.749,1744.747z"/>
			</g>
		</g>
		<g style="opacity:0.9;">
			
				<linearGradient id="SVGID_00000171706453067880220820000012548976697982099889_" gradientUnits="userSpaceOnUse" x1="1219.7518" y1="3324.0581" x2="2005.5115" y2="-298.1022" gradientTransform="matrix(-0.9977 0.0672 0.0672 0.9977 2481.1853 438.535)">
				<stop  offset="0" style="stop-color:#CB236D"/>
				<stop  offset="1" style="stop-color:#4C246D"/>
			</linearGradient>
			<path style="fill:url(#SVGID_00000171706453067880220820000012548976697982099889_);" d="M663.394,991.105
				c-73.878,225.293-450.264,1553.929,733.065,2131.075c0,0,472.955-810.903-698.99-2138.16
				C687.216,972.409,668.22,976.386,663.394,991.105z"/>
			<path style="opacity:0.45;fill:#FFFFFF;" d="M695.959,1251.456c15.618,74.17,32.75,147.927,50.522,221.563
				c17.806,73.619,36.461,147.034,55.973,220.223c39.019,146.379,81.315,291.916,128.074,436.07
				c46.863,144.098,97.95,286.954,156.775,426.786c29.187,69.999,60.926,138.982,95.28,206.695
				c34.449,67.648,71.631,134.079,114.028,197.382c2.505,3.74,7.568,4.741,11.308,2.237c3.74-2.506,4.742-7.569,2.236-11.309
				l-0.023-0.035l-0.02-0.03c-42.22-62.337-79.479-128.076-114.064-195.138c-34.497-67.132-66.456-135.646-95.901-205.251
				c-59.34-139.034-111.065-281.331-158.592-424.948c-47.428-143.676-90.428-288.829-130.166-434.864
				c-19.871-73.019-38.889-146.274-57.061-219.738c-18.134-73.463-35.645-147.129-51.611-221.051l-0.006-0.031
				c-0.403-1.864-2.24-3.049-4.104-2.646C696.751,1247.77,695.568,1249.598,695.959,1251.456z"/>
		</g>
		<g>
			
				<linearGradient id="SVGID_00000132087585566030657180000001257023530548628116_" gradientUnits="userSpaceOnUse" x1="2104.1714" y1="266.3727" x2="1964.981" y2="1182.0988">
				<stop  offset="0" style="stop-color:#2B3582"/>
				<stop  offset="1" style="stop-color:#150E42"/>
			</linearGradient>
			<path style="fill:url(#SVGID_00000132087585566030657180000001257023530548628116_);" d="M2364.895,1712.521h-808.433
				c-29.821,0-54.22-24.399-54.22-54.22V762.513c0-29.821,24.399-54.22,54.22-54.22h808.433c29.821,0,54.22,24.399,54.22,54.22
				v895.788C2419.115,1688.122,2394.715,1712.521,2364.895,1712.521z"/>
			<g>
				
					<linearGradient id="SVGID_00000115498705755427050400000014637081828488171149_" gradientUnits="userSpaceOnUse" x1="1999.6111" y1="748.728" x2="1582.6731" y2="1891.0908">
					<stop  offset="0" style="stop-color:#53D8FF"/>
					<stop  offset="1" style="stop-color:#3840F7"/>
				</linearGradient>
				<path style="fill:url(#SVGID_00000115498705755427050400000014637081828488171149_);" d="M2263.332,1267.211H1653.86
					c-3.972,0-7.192-3.22-7.192-7.192V462.192c0-3.972,3.22-7.192,7.192-7.192h609.472c3.972,0,7.192,3.22,7.192,7.192v797.828
					C2270.523,1263.991,2267.303,1267.211,2263.332,1267.211z"/>
				<path style="opacity:0.37;fill:#FFFFFF;" d="M2236.48,1303.151h-559.273c-3.972,0-7.192-3.22-7.192-7.192V498.132
					c0-3.972,3.22-7.192,7.192-7.192h559.273c3.972,0,7.192,3.22,7.192,7.192v797.828
					C2243.672,1299.932,2240.452,1303.151,2236.48,1303.151z"/>
				<g style="opacity:0.5;">
					<path style="fill:#FFFFFF;" d="M2051.581,573.422h-339.417c-1.549,0-2.805-1.256-2.805-2.805v-15.156
						c0-1.549,1.256-2.805,2.805-2.805h339.417c1.549,0,2.805,1.256,2.805,2.805v15.156
						C2054.386,572.166,2053.13,573.422,2051.581,573.422z"/>
					<path style="fill:#FFFFFF;" d="M2053.977,629.329H1714.56c-1.549,0-2.805-1.256-2.805-2.805v-15.156
						c0-1.549,1.256-2.805,2.805-2.805h339.418c1.549,0,2.805,1.256,2.805,2.805v15.156
						C2056.782,628.073,2055.526,629.329,2053.977,629.329z"/>
					<path style="fill:#FFFFFF;" d="M2052.779,688.326h-339.418c-1.549,0-2.805-1.256-2.805-2.805v-15.156
						c0-1.549,1.256-2.805,2.805-2.805h339.418c1.549,0,2.805,1.256,2.805,2.805v15.156
						C2055.584,687.071,2054.328,688.326,2052.779,688.326z"/>
					<path style="fill:#FFFFFF;" d="M2058.503,1054.918h-339.417c-1.549,0-2.805-1.256-2.805-2.805v-15.156
						c0-1.549,1.256-2.805,2.805-2.805h339.417c1.549,0,2.805,1.256,2.805,2.805v15.156
						C2061.308,1053.662,2060.052,1054.918,2058.503,1054.918z"/>
					<path style="fill:#FFFFFF;" d="M2058.503,1128.479h-339.417c-1.549,0-2.805-1.256-2.805-2.805v-15.156
						c0-1.549,1.256-2.805,2.805-2.805h339.417c1.549,0,2.805,1.256,2.805,2.805v15.156
						C2061.308,1127.224,2060.052,1128.479,2058.503,1128.479z"/>
					<path style="fill:#FFFFFF;" d="M2055.175,744.234h-339.418c-1.549,0-2.805-1.256-2.805-2.805v-15.156
						c0-1.549,1.256-2.805,2.805-2.805h339.418c1.549,0,2.805,1.256,2.805,2.805v15.156
						C2057.98,742.978,2056.724,744.234,2055.175,744.234z"/>
					<path style="fill:#FFFFFF;" d="M2192.947,807.329h-480.783c-1.549,0-2.805-1.256-2.805-2.805v-15.156
						c0-1.549,1.256-2.805,2.805-2.805l480.783,0c1.549,0,2.805,1.256,2.805,2.805v15.156
						C2195.751,806.073,2194.496,807.329,2192.947,807.329z"/>
					<path style="fill:#FFFFFF;" d="M2053.977,865.632H1714.56c-1.549,0-2.805-1.256-2.805-2.805v-15.156
						c0-1.549,1.256-2.805,2.805-2.805h339.418c1.549,0,2.805,1.256,2.805,2.805v15.156
						C2056.782,864.376,2055.526,865.632,2053.977,865.632z"/>
					<path style="fill:#FFFFFF;" d="M2052.779,932.721h-339.418c-1.549,0-2.805-1.256-2.805-2.805V914.76
						c0-1.549,1.256-2.805,2.805-2.805h339.418c1.549,0,2.805,1.256,2.805,2.805v15.156
						C2055.584,931.465,2054.328,932.721,2052.779,932.721z"/>
					<path style="fill:#FFFFFF;" d="M2200.135,868.294h-123.242c-1.549,0-2.805-1.256-2.805-2.805v-15.156
						c0-1.549,1.256-2.805,2.805-2.805h123.242c1.549,0,2.805,1.256,2.805,2.805v15.156
						C2202.939,867.038,2201.684,868.294,2200.135,868.294z"/>
					<path style="fill:#FFFFFF;" d="M1867.087,990.121h-148.001c-1.549,0-2.805-1.256-2.805-2.805V972.16
						c0-1.549,1.256-2.805,2.805-2.805h148.001c1.549,0,2.805,1.256,2.805,2.805v15.156
						C1869.892,988.865,1868.636,990.121,1867.087,990.121z"/>
				</g>
			</g>
			<g>
				<g>
					
						<linearGradient id="SVGID_00000013158490635234364620000006273449133992650643_" gradientUnits="userSpaceOnUse" x1="4522.2188" y1="2176.0649" x2="5970.0659" y2="2176.0649" gradientTransform="matrix(-1 0 0 1 7226.8052 0)">
						<stop  offset="0" style="stop-color:#2B3582"/>
						<stop  offset="1" style="stop-color:#150E42"/>
					</linearGradient>
					<path style="fill:url(#SVGID_00000013158490635234364620000006273449133992650643_);" d="M2680.903,1291.292
						c7.624,313.941,32.345,1396.843,20.544,1780.59c-1.25,40.654-33.171,73.285-72.989,74.616
						c-196.937,6.579-918.898,23.257-1241.021,9.459c-67.094-2.875-120.449-58.36-121.84-126.907
						c-6.695-329.522-21.463-1256.341,13.639-1680.917c4.207-50.87,43.313-91.38,93.068-96.463
						c214.474-21.906,939.539-75.452,1217.835-57.014C2640.328,1197.981,2679.658,1239.956,2680.903,1291.292z"/>
					
						<linearGradient id="SVGID_00000170247262250447320610000013432934430468031620_" gradientUnits="userSpaceOnUse" x1="5142.9624" y1="1975.1927" x2="5284.584" y2="1388.1495" gradientTransform="matrix(-1 0 0 1 7226.8052 0)">
						<stop  offset="0" style="stop-color:#A737D5"/>
						<stop  offset="1" style="stop-color:#EF497A"/>
					</linearGradient>
					<path style="fill:url(#SVGID_00000170247262250447320610000013432934430468031620_);" d="M2554.031,1429.709v266.053
						c0,51.02-32.368,92.38-72.296,92.38h-994.792c-39.928,0-72.296-41.36-72.296-92.38v-266.053c0-51.02,32.368-92.38,72.296-92.38
						h994.792C2521.663,1337.329,2554.031,1378.689,2554.031,1429.709z"/>
					<path style="opacity:0.2;fill:#FFFFFF;" d="M1467.476,1421.24c8.953-11.498,21.093-18.007,33.745-18.09l931.014-6.181
						c24.89-0.166,45.556,24.168,47.444,55.859l15.735,264.12c1.289,21.627-26.775,39.436-62.245,39.502l-915.255,1.666
						c-35.416,0.064-64.451-17.591-64.449-39.188l0.025-254.484C1453.491,1448.279,1458.522,1432.735,1467.476,1421.24z"/>
				</g>
				
					<linearGradient id="SVGID_00000096778553244861502740000006358434062503914378_" gradientUnits="userSpaceOnUse" x1="4754.9756" y1="3648.0706" x2="5840.6426" y2="2602.8645" gradientTransform="matrix(-1 0 0 1 7226.8052 0)">
					<stop  offset="0" style="stop-color:#FDF53F"/>
					<stop  offset="1" style="stop-color:#D93C65"/>
				</linearGradient>
				<path style="fill:url(#SVGID_00000096778553244861502740000006358434062503914378_);" d="M1486.795,2827.385
					c0,45.516,36.898,82.413,82.414,82.413h100.33c45.516,0,82.414-36.897,82.414-82.413l0,0c0-45.517-36.898-82.414-82.414-82.414
					h-100.33C1523.693,2744.971,1486.795,2781.868,1486.795,2827.385L1486.795,2827.385z"/>
				
					<linearGradient id="SVGID_00000020394134722472493880000011817606312802928525_" gradientUnits="userSpaceOnUse" x1="2553.1929" y1="2421.6296" x2="2226.4988" y2="3047.1306">
					<stop  offset="0" style="stop-color:#53D8FF"/>
					<stop  offset="1" style="stop-color:#3840F7"/>
				</linearGradient>
				<path style="fill:url(#SVGID_00000020394134722472493880000011817606312802928525_);" d="M2208.691,2827.385
					c0,45.516,36.898,82.414,82.414,82.414h100.33c45.516,0,82.414-36.898,82.414-82.414l0,0c0-45.516-36.898-82.414-82.414-82.414
					h-100.33C2245.589,2744.971,2208.691,2781.869,2208.691,2827.385L2208.691,2827.385z"/>
				
					<linearGradient id="SVGID_00000157305289809208085440000013005768222982025904_" gradientUnits="userSpaceOnUse" x1="4824.2837" y1="3231.321" x2="5909.9512" y2="2186.1145" gradientTransform="matrix(-1 0 0 1 7226.8052 0)">
					<stop  offset="0" style="stop-color:#FDF53F"/>
					<stop  offset="1" style="stop-color:#D93C65"/>
				</linearGradient>
				<path style="fill:url(#SVGID_00000157305289809208085440000013005768222982025904_);" d="M1850.369,2827.385
					c0,45.516,36.898,82.414,82.414,82.414h100.33c45.516,0,82.414-36.898,82.414-82.414l0,0c0-45.516-36.898-82.414-82.414-82.414
					h-100.33C1887.267,2744.971,1850.369,2781.869,1850.369,2827.385L1850.369,2827.385z"/>
				
					<linearGradient id="SVGID_00000059270166140395086890000000563283538642028944_" gradientUnits="userSpaceOnUse" x1="2262.55" y1="2211.1292" x2="3152.3313" y2="1354.5087">
					<stop  offset="0" style="stop-color:#53D8FF"/>
					<stop  offset="1" style="stop-color:#3840F7"/>
				</linearGradient>
				<path style="opacity:0.63;fill:url(#SVGID_00000059270166140395086890000000563283538642028944_);" d="M2463.402,2145.213
					h-130.373c-9.612,0-17.477-7.864-17.477-17.477v-94.432c0-9.612,7.865-17.477,17.477-17.477h130.373
					c9.612,0,17.477,7.865,17.477,17.477v94.432C2480.878,2137.348,2473.014,2145.213,2463.402,2145.213z"/>
				
					<linearGradient id="SVGID_00000010302626099471088950000004613930853520957323_" gradientUnits="userSpaceOnUse" x1="2262.55" y1="2431.5632" x2="3152.3313" y2="1574.9427">
					<stop  offset="0" style="stop-color:#53D8FF"/>
					<stop  offset="1" style="stop-color:#3840F7"/>
				</linearGradient>
				<path style="opacity:0.63;fill:url(#SVGID_00000010302626099471088950000004613930853520957323_);" d="M2463.402,2365.647
					h-130.373c-9.612,0-17.477-7.864-17.477-17.477v-94.432c0-9.612,7.865-17.477,17.477-17.477h130.373
					c9.612,0,17.477,7.865,17.477,17.477v94.432C2480.878,2357.782,2473.014,2365.647,2463.402,2365.647z"/>
				
					<linearGradient id="SVGID_00000134218511157132971540000016426945498848734380_" gradientUnits="userSpaceOnUse" x1="2262.55" y1="2651.9976" x2="3152.3313" y2="1795.3768">
					<stop  offset="0" style="stop-color:#53D8FF"/>
					<stop  offset="1" style="stop-color:#3840F7"/>
				</linearGradient>
				<path style="opacity:0.63;fill:url(#SVGID_00000134218511157132971540000016426945498848734380_);" d="M2463.402,2586.081
					h-130.373c-9.612,0-17.477-7.864-17.477-17.477v-94.432c0-9.612,7.865-17.477,17.477-17.477h130.373
					c9.612,0,17.477,7.865,17.477,17.477v94.432C2480.878,2578.217,2473.014,2586.081,2463.402,2586.081z"/>
				
					<linearGradient id="SVGID_00000161600446133092608450000013021437058810689665_" gradientUnits="userSpaceOnUse" x1="1994.1957" y1="2211.1292" x2="2883.9768" y2="1354.5087">
					<stop  offset="0" style="stop-color:#53D8FF"/>
					<stop  offset="1" style="stop-color:#3840F7"/>
				</linearGradient>
				<path style="opacity:0.63;fill:url(#SVGID_00000161600446133092608450000013021437058810689665_);" d="M2195.047,2145.213
					h-130.372c-9.612,0-17.477-7.864-17.477-17.477v-94.432c0-9.612,7.865-17.477,17.477-17.477h130.372
					c9.612,0,17.477,7.865,17.477,17.477v94.432C2212.523,2137.348,2204.659,2145.213,2195.047,2145.213z"/>
				
					<linearGradient id="SVGID_00000057133143350774066520000000208257068625220013_" gradientUnits="userSpaceOnUse" x1="1994.1957" y1="2431.5632" x2="2883.9768" y2="1574.9427">
					<stop  offset="0" style="stop-color:#53D8FF"/>
					<stop  offset="1" style="stop-color:#3840F7"/>
				</linearGradient>
				<path style="opacity:0.63;fill:url(#SVGID_00000057133143350774066520000000208257068625220013_);" d="M2195.047,2365.647
					h-130.372c-9.612,0-17.477-7.864-17.477-17.477v-94.432c0-9.612,7.865-17.477,17.477-17.477h130.372
					c9.612,0,17.477,7.865,17.477,17.477v94.432C2212.523,2357.782,2204.659,2365.647,2195.047,2365.647z"/>
				
					<linearGradient id="SVGID_00000080206712961134619470000006985337741276808080_" gradientUnits="userSpaceOnUse" x1="1991.7996" y1="2651.9976" x2="2881.5808" y2="1795.3768">
					<stop  offset="0" style="stop-color:#53D8FF"/>
					<stop  offset="1" style="stop-color:#3840F7"/>
				</linearGradient>
				<path style="opacity:0.63;fill:url(#SVGID_00000080206712961134619470000006985337741276808080_);" d="M2192.651,2586.081
					h-130.372c-9.612,0-17.477-7.864-17.477-17.477v-94.432c0-9.612,7.865-17.477,17.477-17.477h130.372
					c9.612,0,17.477,7.865,17.477,17.477v94.432C2210.127,2578.217,2202.263,2586.081,2192.651,2586.081z"/>
				
					<linearGradient id="SVGID_00000134217908129240886330000010411643619367306117_" gradientUnits="userSpaceOnUse" x1="1723.4451" y1="2211.1292" x2="2613.2263" y2="1354.5087">
					<stop  offset="0" style="stop-color:#53D8FF"/>
					<stop  offset="1" style="stop-color:#3840F7"/>
				</linearGradient>
				<path style="opacity:0.63;fill:url(#SVGID_00000134217908129240886330000010411643619367306117_);" d="M1924.296,2145.213
					h-130.372c-9.612,0-17.477-7.864-17.477-17.477v-94.432c0-9.612,7.865-17.477,17.477-17.477h130.372
					c9.612,0,17.477,7.865,17.477,17.477v94.432C1941.773,2137.348,1933.908,2145.213,1924.296,2145.213z"/>
				
					<linearGradient id="SVGID_00000031179491373431163820000000938157562019389887_" gradientUnits="userSpaceOnUse" x1="1723.4451" y1="2431.5632" x2="2613.2263" y2="1574.9427">
					<stop  offset="0" style="stop-color:#53D8FF"/>
					<stop  offset="1" style="stop-color:#3840F7"/>
				</linearGradient>
				<path style="opacity:0.63;fill:url(#SVGID_00000031179491373431163820000000938157562019389887_);" d="M1924.296,2365.647
					h-130.372c-9.612,0-17.477-7.864-17.477-17.477v-94.432c0-9.612,7.865-17.477,17.477-17.477h130.372
					c9.612,0,17.477,7.865,17.477,17.477v94.432C1941.773,2357.782,1933.908,2365.647,1924.296,2365.647z"/>
				
					<linearGradient id="SVGID_00000054975137335585926450000010560146339540292264_" gradientUnits="userSpaceOnUse" x1="1723.4451" y1="2651.9976" x2="2613.2263" y2="1795.3768">
					<stop  offset="0" style="stop-color:#53D8FF"/>
					<stop  offset="1" style="stop-color:#3840F7"/>
				</linearGradient>
				<path style="opacity:0.63;fill:url(#SVGID_00000054975137335585926450000010560146339540292264_);" d="M1924.296,2586.081
					h-130.372c-9.612,0-17.477-7.864-17.477-17.477v-94.432c0-9.612,7.865-17.477,17.477-17.477h130.372
					c9.612,0,17.477,7.865,17.477,17.477v94.432C1941.773,2578.217,1933.908,2586.081,1924.296,2586.081z"/>
				
					<linearGradient id="SVGID_00000016786401973151833140000013641541892156367290_" gradientUnits="userSpaceOnUse" x1="1428.3402" y1="2211.1292" x2="2318.1213" y2="1354.5087">
					<stop  offset="0" style="stop-color:#53D8FF"/>
					<stop  offset="1" style="stop-color:#3840F7"/>
				</linearGradient>
				<path style="opacity:0.63;fill:url(#SVGID_00000016786401973151833140000013641541892156367290_);" d="M1629.192,2145.213
					h-130.372c-9.612,0-17.477-7.864-17.477-17.477v-94.432c0-9.612,7.865-17.477,17.477-17.477h130.372
					c9.612,0,17.477,7.865,17.477,17.477v94.432C1646.668,2137.348,1638.804,2145.213,1629.192,2145.213z"/>
				
					<linearGradient id="SVGID_00000088833815625745928120000017891206338269602995_" gradientUnits="userSpaceOnUse" x1="1428.3402" y1="2431.5632" x2="2318.1213" y2="1574.9427">
					<stop  offset="0" style="stop-color:#53D8FF"/>
					<stop  offset="1" style="stop-color:#3840F7"/>
				</linearGradient>
				<path style="opacity:0.63;fill:url(#SVGID_00000088833815625745928120000017891206338269602995_);" d="M1629.192,2365.647
					h-130.372c-9.612,0-17.477-7.864-17.477-17.477v-94.432c0-9.612,7.865-17.477,17.477-17.477h130.372
					c9.612,0,17.477,7.865,17.477,17.477v94.432C1646.668,2357.782,1638.804,2365.647,1629.192,2365.647z"/>
				
					<linearGradient id="SVGID_00000010299350744415485370000010623595783398271926_" gradientUnits="userSpaceOnUse" x1="1428.3402" y1="2651.9976" x2="2318.1213" y2="1795.3768">
					<stop  offset="0" style="stop-color:#53D8FF"/>
					<stop  offset="1" style="stop-color:#3840F7"/>
				</linearGradient>
				<path style="opacity:0.63;fill:url(#SVGID_00000010299350744415485370000010623595783398271926_);" d="M1629.192,2586.081
					h-130.372c-9.612,0-17.477-7.864-17.477-17.477v-94.432c0-9.612,7.865-17.477,17.477-17.477h130.372
					c9.612,0,17.477,7.865,17.477,17.477v94.432C1646.668,2578.217,1638.804,2586.081,1629.192,2586.081z"/>
				
					<linearGradient id="SVGID_00000053547504621210076800000011575534923454549421_" gradientUnits="userSpaceOnUse" x1="1920.8358" y1="1193.9674" x2="1386.4991" y2="2230.4194">
					<stop  offset="0" style="stop-color:#53D8FF"/>
					<stop  offset="1" style="stop-color:#3840F7"/>
				</linearGradient>
				<path style="opacity:0.63;fill:url(#SVGID_00000053547504621210076800000011575534923454549421_);" d="M1625.566,1953.531
					h-165.462c-3.916,0-7.12-3.204-7.12-7.12v-38.472c0-3.916,3.204-7.12,7.12-7.12h165.462c3.916,0,7.12,3.204,7.12,7.12v38.472
					C1632.686,1950.327,1629.482,1953.531,1625.566,1953.531z"/>
				
					<linearGradient id="SVGID_00000081620269300437211150000008620439007321740680_" gradientUnits="userSpaceOnUse" x1="2149.8628" y1="1330.6696" x2="1615.526" y2="2367.1216">
					<stop  offset="0" style="stop-color:#53D8FF"/>
					<stop  offset="1" style="stop-color:#3840F7"/>
				</linearGradient>
				<path style="opacity:0.63;fill:url(#SVGID_00000081620269300437211150000008620439007321740680_);" d="M1925.069,1953.531
					h-165.462c-3.916,0-7.12-3.204-7.12-7.12v-38.472c0-3.916,3.204-7.12,7.12-7.12h165.462c3.916,0,7.12,3.204,7.12,7.12v38.472
					C1932.189,1950.327,1928.985,1953.531,1925.069,1953.531z"/>
				
					<linearGradient id="SVGID_00000045601818805904763660000007414572799956487343_" gradientUnits="userSpaceOnUse" x1="2360.5669" y1="1456.4365" x2="1826.2302" y2="2492.8884">
					<stop  offset="0" style="stop-color:#53D8FF"/>
					<stop  offset="1" style="stop-color:#3840F7"/>
				</linearGradient>
				<path style="opacity:0.63;fill:url(#SVGID_00000045601818805904763660000007414572799956487343_);" d="M2200.611,1953.531
					H2035.15c-3.916,0-7.12-3.204-7.12-7.12v-38.472c0-3.916,3.204-7.12,7.12-7.12h165.461c3.916,0,7.12,3.204,7.12,7.12v38.472
					C2207.731,1950.327,2204.527,1953.531,2200.611,1953.531z"/>
				
					<linearGradient id="SVGID_00000130646006610468083160000018420645894601655458_" gradientUnits="userSpaceOnUse" x1="2589.5938" y1="1593.1387" x2="2055.2571" y2="2629.5906">
					<stop  offset="0" style="stop-color:#53D8FF"/>
					<stop  offset="1" style="stop-color:#3840F7"/>
				</linearGradient>
				<path style="opacity:0.63;fill:url(#SVGID_00000130646006610468083160000018420645894601655458_);" d="M2500.114,1953.531
					h-165.462c-3.916,0-7.12-3.204-7.12-7.12v-38.472c0-3.916,3.204-7.12,7.12-7.12h165.462c3.916,0,7.12,3.204,7.12,7.12v38.472
					C2507.234,1950.327,2504.03,1953.531,2500.114,1953.531z"/>
			</g>
		</g>
		<g>
			<g>
				
					<linearGradient id="SVGID_00000027593587388164240370000007700184658996251525_" gradientUnits="userSpaceOnUse" x1="446.4985" y1="1026.2161" x2="584.1156" y2="866.4821">
					<stop  offset="0" style="stop-color:#FDF53F"/>
					<stop  offset="1" style="stop-color:#D93C65"/>
				</linearGradient>
				
					<circle style="fill:url(#SVGID_00000027593587388164240370000007700184658996251525_);" cx="586.895" cy="863.256" r="102.598"/>
				
					<linearGradient id="SVGID_00000142155381620518203230000016348202146187796102_" gradientUnits="userSpaceOnUse" x1="661.8781" y1="749.978" x2="254.9406" y2="1364.7445">
					<stop  offset="0" style="stop-color:#FDF53F"/>
					<stop  offset="1" style="stop-color:#D93C65"/>
				</linearGradient>
				<circle style="fill:url(#SVGID_00000142155381620518203230000016348202146187796102_);" cx="586.895" cy="863.256" r="99.187"/>
				<path style="fill:#FFFFFF;" d="M505.103,825.906c-0.583,0-1.176-0.132-1.732-0.414c-1.9-0.958-2.662-3.275-1.702-5.175
					c16.336-32.366,48.992-52.474,85.226-52.474c5.788,0,11.577,0.521,17.208,1.546c2.093,0.382,3.482,2.387,3.1,4.481
					c-0.38,2.094-2.38,3.476-4.481,3.1c-5.177-0.945-10.502-1.422-15.828-1.422c-33.309,0-63.33,18.486-78.348,48.241
					C507.869,825.133,506.512,825.906,505.103,825.906z"/>
				
					<ellipse transform="matrix(0.7071 -0.7071 0.7071 0.7071 -439.4116 670.0005)" style="opacity:0.78;fill:#FFFFFF;" cx="589.056" cy="865.417" rx="83.95" ry="83.95"/>
				<g>
					
						<linearGradient id="SVGID_00000052097790862022109740000005262668001069605816_" gradientUnits="userSpaceOnUse" x1="649.7388" y1="767.5931" x2="433.0533" y2="1131.3722">
						<stop  offset="0" style="stop-color:#FDF53F"/>
						<stop  offset="1" style="stop-color:#D93C65"/>
					</linearGradient>
					<path style="fill:url(#SVGID_00000052097790862022109740000005262668001069605816_);" d="M580.818,927.826v-9.133
						c-9.521-0.381-18.939-2.628-25.627-5.557c-2.389-1.045-3.606-3.726-2.92-6.241l2.32-8.508c0.851-3.121,4.245-4.735,7.229-3.485
						c6.635,2.782,14.827,4.982,23.661,4.982c9.171,0,16.01-3.109,16.01-9.482c0-5.75-5.285-9.169-18.03-12.589
						c-18.185-4.974-31.242-12.901-31.242-28.911c0-14.456,10.57-25.492,28.911-28.444v-9.134c0-2.939,2.382-5.322,5.321-5.322
						h5.367c2.939,0,5.321,2.383,5.321,5.322v8.201c8.81,0.352,15.223,1.859,20.313,3.647c2.607,0.916,4.032,3.725,3.309,6.393
						l-2.133,7.868c-0.823,3.034-4.066,4.696-7.006,3.584c-4.686-1.772-11.311-3.617-19.923-3.617
						c-10.881,0-13.988,4.508-13.988,8.549c0,4.974,6.528,8.393,20.672,12.746c20.206,6.062,28.599,14.455,28.599,29.532
						c0,13.834-10.259,26.269-30.154,29.377v10.221c0,2.939-2.382,5.322-5.322,5.322h-5.367
						C583.201,933.148,580.818,930.765,580.818,927.826z"/>
				</g>
			</g>
			<g>
				
					<linearGradient id="SVGID_00000183957914738943322310000010769189961727511226_" gradientUnits="userSpaceOnUse" x1="634.5378" y1="1025.2715" x2="874.1052" y2="747.2025">
					<stop  offset="0" style="stop-color:#FDF53F"/>
					<stop  offset="1" style="stop-color:#D93C65"/>
				</linearGradient>
				
					<circle style="fill:url(#SVGID_00000183957914738943322310000010769189961727511226_);" cx="878.944" cy="741.586" r="178.607"/>
				
					<linearGradient id="SVGID_00000119107595465129464660000009110416401655712921_" gradientUnits="userSpaceOnUse" x1="1009.4766" y1="544.3889" x2="301.0689" y2="1614.5911">
					<stop  offset="0" style="stop-color:#FDF53F"/>
					<stop  offset="1" style="stop-color:#D93C65"/>
				</linearGradient>
				
					<circle style="fill:url(#SVGID_00000119107595465129464660000009110416401655712921_);" cx="878.944" cy="741.586" r="172.667"/>
				<path style="fill:#FFFFFF;" d="M736.561,673.712c-0.583,0-1.176-0.132-1.732-0.414c-1.9-0.957-2.662-3.275-1.702-5.175
					c27.953-55.38,83.828-89.781,145.818-89.781c9.887,0,19.795,0.891,29.445,2.649c2.094,0.382,3.482,2.387,3.1,4.48
					c-0.38,2.092-2.38,3.469-4.481,3.1c-9.197-1.676-18.638-2.524-28.065-2.524c-59.067,0-112.304,32.78-138.941,85.549
					C739.327,672.939,737.97,673.712,736.561,673.712z"/>
				
					<ellipse transform="matrix(0.7071 -0.7071 0.7071 0.7071 -268.5016 842.4752)" style="opacity:0.78;fill:#FFFFFF;" cx="882.707" cy="745.348" rx="146.142" ry="146.142"/>
				<g>
					
						<linearGradient id="SVGID_00000115502152447153987050000010591029906553597849_" gradientUnits="userSpaceOnUse" x1="988.344" y1="575.0535" x2="611.1315" y2="1208.3308">
						<stop  offset="0" style="stop-color:#FDF53F"/>
						<stop  offset="1" style="stop-color:#D93C65"/>
					</linearGradient>
					<path style="fill:url(#SVGID_00000115502152447153987050000010591029906553597849_);" d="M868.365,853.992v-15.899
						c-16.575-0.664-32.969-4.576-44.613-9.672c-4.158-1.82-6.277-6.486-5.083-10.865l4.039-14.81
						c1.482-5.433,7.39-8.243,12.584-6.066c11.55,4.842,25.812,8.673,41.191,8.673c15.964,0,27.87-5.413,27.87-16.507
						c0-10.011-9.2-15.963-31.388-21.916c-31.657-8.659-54.387-22.459-54.387-50.329c0-25.165,18.401-44.376,50.329-49.516v-15.901
						c0-5.117,4.148-9.264,9.264-9.264h9.341c5.117,0,9.264,4.148,9.264,9.264v14.276c15.337,0.614,26.502,3.236,35.361,6.35
						c4.539,1.595,7.02,6.485,5.761,11.128l-3.715,13.697c-1.432,5.282-7.077,8.175-12.196,6.239
						c-8.157-3.085-19.69-6.297-34.682-6.297c-18.941,0-24.351,7.846-24.351,14.882c0,8.658,11.364,14.611,35.986,22.188
						c35.177,10.552,49.787,25.164,49.787,51.41c0,24.082-17.858,45.729-52.492,51.141v17.793c0,5.117-4.148,9.264-9.264,9.264
						h-9.342C872.513,863.256,868.365,859.108,868.365,853.992z"/>
				</g>
			</g>
			<g>
				
					<linearGradient id="SVGID_00000147183961658200170830000014604741060766796423_" gradientUnits="userSpaceOnUse" x1="750.631" y1="1432.4224" x2="997.1432" y2="1146.2925">
					<stop  offset="0" style="stop-color:#FDF53F"/>
					<stop  offset="1" style="stop-color:#D93C65"/>
				</linearGradient>
				
					<circle style="fill:url(#SVGID_00000147183961658200170830000014604741060766796423_);" cx="1002.123" cy="1140.513" r="183.784"/>
				
					<linearGradient id="SVGID_00000053508469853447881400000012019732145983798433_" gradientUnits="userSpaceOnUse" x1="1136.4386" y1="937.5996" x2="407.4957" y2="2038.8245">
					<stop  offset="0" style="stop-color:#FDF53F"/>
					<stop  offset="1" style="stop-color:#D93C65"/>
				</linearGradient>
				
					<circle style="fill:url(#SVGID_00000053508469853447881400000012019732145983798433_);" cx="1002.123" cy="1140.513" r="177.673"/>
				<path style="fill:#FFFFFF;" d="M855.612,1070.56c-0.583,0-1.176-0.132-1.732-0.414c-1.9-0.958-2.662-3.275-1.702-5.175
					c28.745-56.945,86.2-92.321,149.945-92.321c10.173,0,20.359,0.916,30.28,2.722c2.094,0.382,3.48,2.387,3.1,4.481
					c-0.38,2.091-2.376,3.472-4.481,3.1c-9.466-1.723-19.189-2.598-28.899-2.598c-60.82,0-115.64,33.753-143.068,88.089
					C858.376,1069.787,857.02,1070.56,855.612,1070.56z"/>
				
					<ellipse transform="matrix(0.7071 -0.7071 0.7071 0.7071 -514.5532 1046.5273)" style="opacity:0.78;fill:#FFFFFF;" cx="1005.994" cy="1144.384" rx="150.378" ry="150.378"/>
				<g>
					
						<linearGradient id="SVGID_00000080191737328306915580000011431779590872719538_" gradientUnits="userSpaceOnUse" x1="1114.6935" y1="969.1531" x2="726.546" y2="1620.7885">
						<stop  offset="0" style="stop-color:#FDF53F"/>
						<stop  offset="1" style="stop-color:#D93C65"/>
					</linearGradient>
					<path style="fill:url(#SVGID_00000080191737328306915580000011431779590872719538_);" d="M991.237,1256.178v-16.36
						c-17.055-0.683-33.924-4.708-45.906-9.953c-4.278-1.873-6.459-6.675-5.23-11.18l4.156-15.239
						c1.524-5.59,7.605-8.482,12.948-6.242c11.886,4.982,26.56,8.924,42.385,8.924c16.427,0,28.678-5.569,28.678-16.985
						c0-10.301-9.466-16.426-32.297-22.551c-32.576-8.909-55.964-23.11-55.964-51.788c0-25.895,18.934-45.663,51.788-50.952v-16.362
						c0-5.265,4.268-9.533,9.533-9.533h9.612c5.265,0,9.532,4.268,9.532,9.533v14.691c15.782,0.631,27.27,3.33,36.387,6.534
						c4.671,1.641,7.224,6.673,5.927,11.451l-3.822,14.093c-1.474,5.435-7.282,8.412-12.549,6.421
						c-8.394-3.175-20.261-6.48-35.687-6.48c-19.491,0-25.058,8.074-25.058,15.313c0,8.909,11.693,15.034,37.03,22.831
						c36.196,10.859,51.23,25.893,51.23,52.901c0,24.78-18.375,47.054-54.014,52.623v18.31c0,5.265-4.268,9.533-9.533,9.533h-9.614
						C995.505,1265.71,991.237,1261.442,991.237,1256.178z"/>
				</g>
			</g>
			<g>
				
					<linearGradient id="SVGID_00000064316000137140464880000014772278445816068524_" gradientUnits="userSpaceOnUse" x1="1053.6268" y1="1104.0428" x2="1234.2444" y2="894.3977">
					<stop  offset="0" style="stop-color:#FDF53F"/>
					<stop  offset="1" style="stop-color:#D93C65"/>
				</linearGradient>
				
					<circle style="fill:url(#SVGID_00000064316000137140464880000014772278445816068524_);" cx="1237.892" cy="890.163" r="134.657"/>
				
					<linearGradient id="SVGID_00000174581528494857641350000008904094089783591609_" gradientUnits="userSpaceOnUse" x1="1336.3049" y1="741.4904" x2="802.2141" y2="1548.3494">
					<stop  offset="0" style="stop-color:#FDF53F"/>
					<stop  offset="1" style="stop-color:#D93C65"/>
				</linearGradient>
				
					<circle style="fill:url(#SVGID_00000174581528494857641350000008904094089783591609_);" cx="1237.892" cy="890.163" r="130.18"/>
				<path style="fill:#FFFFFF;" d="M1130.545,839.939c-0.583,0-1.176-0.132-1.733-0.414c-1.9-0.958-2.662-3.275-1.702-5.175
					c21.236-42.073,63.685-68.209,110.783-68.209c7.521,0,15.047,0.677,22.372,2.013c2.092,0.382,3.48,2.389,3.098,4.481
					c-0.384,2.095-2.372,3.482-4.483,3.1c-6.868-1.253-13.929-1.889-20.987-1.889c-44.173,0-83.986,24.515-103.905,63.977
					C1133.311,839.166,1131.954,839.939,1130.545,839.939z"/>
				
					<ellipse transform="matrix(0.9732 -0.2298 0.2298 0.9732 -171.9787 308.9503)" style="opacity:0.78;fill:#FFFFFF;" cx="1240.729" cy="893" rx="110.181" ry="110.181"/>
				<g>
					
						<linearGradient id="SVGID_00000013186189619131191130000004103506639634206643_" gradientUnits="userSpaceOnUse" x1="1320.3727" y1="764.6093" x2="1035.9805" y2="1242.0566">
						<stop  offset="0" style="stop-color:#FDF53F"/>
						<stop  offset="1" style="stop-color:#D93C65"/>
					</linearGradient>
					<path style="fill:url(#SVGID_00000013186189619131191130000004103506639634206643_);" d="M1229.917,974.909v-11.987
						c-12.496-0.501-24.856-3.45-33.635-7.293c-3.134-1.372-4.732-4.89-3.832-8.192l3.045-11.166
						c1.118-4.096,5.572-6.215,9.488-4.574c8.709,3.651,19.461,6.539,31.055,6.539c12.036,0,21.012-4.081,21.012-12.445
						c0-7.547-6.936-12.035-23.665-16.523c-23.867-6.528-41.004-16.933-41.004-37.945c0-18.973,13.872-33.457,37.945-37.332v-11.989
						c0-3.858,3.127-6.985,6.984-6.985h7.042c3.858,0,6.985,3.127,6.985,6.985v10.763c11.563,0.463,19.98,2.44,26.66,4.788
						c3.422,1.202,5.292,4.889,4.343,8.39l-2.8,10.326c-1.08,3.982-5.335,6.163-9.195,4.704c-6.151-2.326-14.845-4.747-26.148-4.747
						c-14.28,0-18.359,5.915-18.359,11.22c0,6.528,8.568,11.016,27.132,16.728c26.52,7.956,37.536,18.972,37.536,38.76
						c0,18.156-13.463,34.476-39.576,38.557v13.415c0,3.857-3.127,6.985-6.984,6.985h-7.044
						C1233.044,981.894,1229.917,978.767,1229.917,974.909z"/>
				</g>
			</g>
		</g>
		<g>
			
				<linearGradient id="SVGID_00000098179226481974468160000007742285413232832421_" gradientUnits="userSpaceOnUse" x1="-2310.4868" y1="893.0424" x2="-2406.8613" y2="1188.4506" gradientTransform="matrix(-0.7738 -0.6335 -0.6335 0.7738 -171.3945 -47.8667)">
				<stop  offset="0" style="stop-color:#F9B776"/>
				<stop  offset="1" style="stop-color:#F47960"/>
			</linearGradient>
			<path style="fill:url(#SVGID_00000098179226481974468160000007742285413232832421_);" d="M1085.119,2217.328
				c0,0-4.375,190.405-204.576,223.795l-35.941-35.481c0,0,173.361-58.943,218.488-182.122l-9.639-65.325l6.794-43.232
				L1085.119,2217.328z"/>
			<g>
				
					<linearGradient id="SVGID_00000005268502609548420350000006990620264140509058_" gradientUnits="userSpaceOnUse" x1="2274.1665" y1="2292.562" x2="-1660.2699" y2="2925.3979" gradientTransform="matrix(0.9969 -0.0783 0.0783 0.9969 -414.6373 65.9929)">
					<stop  offset="0" style="stop-color:#FDF53F"/>
					<stop  offset="1" style="stop-color:#D93C65"/>
				</linearGradient>
				<path style="fill:url(#SVGID_00000005268502609548420350000006990620264140509058_);" d="M1747.019,2297.441
					c-186.653,126.474-350.306,132.355-542.36,49.911c-12.428-5.335-20.671-17.355-21.087-30.873l-0.241-7.833
					c-0.737-23.938,22.42-41.422,45.238-34.148c165.283,52.685,288.542,79.015,481.315-35.697
					c21.218-12.626,48.465,0.411,52.042,24.841l0,0C1763.858,2276.834,1758.056,2289.963,1747.019,2297.441z"/>
				
					<linearGradient id="SVGID_00000078751275693541728190000017341292303428609164_" gradientUnits="userSpaceOnUse" x1="2280.3982" y1="2331.3086" x2="-1654.0367" y2="2964.1445" gradientTransform="matrix(0.9969 -0.0783 0.0783 0.9969 -414.6373 65.9929)">
					<stop  offset="0" style="stop-color:#FDF53F"/>
					<stop  offset="1" style="stop-color:#D93C65"/>
				</linearGradient>
				<path style="fill:url(#SVGID_00000078751275693541728190000017341292303428609164_);" d="M1717.07,2390.406l95.853-161.333
					c2.919-4.914-0.461-11.165-6.171-11.413l-180.374-7.827c-6.711-0.291-11.241,6.767-8.18,12.747
					c45.259,53.411,72.779,109.364,85.686,167.41C1706.585,2395.268,1714.042,2395.503,1717.07,2390.406z"/>
			</g>
			<g>
				
					<linearGradient id="SVGID_00000015326047569569578250000007890411245558164634_" gradientUnits="userSpaceOnUse" x1="2087.3726" y1="832.4897" x2="1374.3245" y2="1820.3593">
					<stop  offset="0" style="stop-color:#53D8FF"/>
					<stop  offset="1" style="stop-color:#3840F7"/>
				</linearGradient>
				<path style="fill:url(#SVGID_00000015326047569569578250000007890411245558164634_);" d="M1884.284,1527.376l5.821,499.06
					l0.896,77.273c0.356,10.079-7.618,18.62-17.696,18.976l-991.469,35.001c-10.079,0.356-18.635-7.602-18.991-17.681l-3.845-77.169
					l-24.517-492.304c-0.356-10.079,10.827-30.167,32.63-29.452l968.091-59.286c12.639-0.761,25.05,3.664,34.325,12.291
					C1878.801,1502.697,1884.138,1514.732,1884.284,1527.376z"/>
				
					<linearGradient id="SVGID_00000105423209099029041880000016956623424562418077_" gradientUnits="userSpaceOnUse" x1="1462.9642" y1="1545.5123" x2="1113.8674" y2="2577.9482">
					<stop  offset="0" style="stop-color:#53D8FF"/>
					<stop  offset="1" style="stop-color:#3840F7"/>
				</linearGradient>
				<path style="fill:url(#SVGID_00000105423209099029041880000016956623424562418077_);" d="M1866.206,2088.977
					c0.332,9.401-7.256,17.371-16.862,17.71l-944.483,33.342c-9.606,0.339-17.737-7.076-18.069-16.477l-26.63-531.438
					c-0.332-9.401,10.327-28.155,31.097-27.507l922.227-55.983c12.042-0.731,23.856,3.402,32.686,11.435
					c8.829,8.033,13.902,19.263,14.033,31.07L1866.206,2088.977z"/>
				<path style="fill:#FFFFFF;" d="M1743.13,2115.998c-1.687,0-3.083-1.338-3.143-3.038c-0.062-1.737,1.296-3.195,3.033-3.254
					l105.73-3.73c12.689-0.449,24.704-13.406,24.253-26.161l-11.415-323.386c-0.062-1.737,1.296-3.194,3.033-3.254
					c1.808-0.156,3.196,1.298,3.256,3.035l11.415,323.385c0.574,16.219-14.16,32.097-30.319,32.67l-105.73,3.73
					C1743.205,2115.998,1743.167,2115.998,1743.13,2115.998z"/>
				<path style="fill:#FFFFFF;" d="M867.963,1794.655c-1.687,0-3.083-1.338-3.143-3.038l-6.843-193.835
					c-0.349-9.883,3.088-19.988,9.434-27.725c6.707-8.176,15.794-12.871,25.59-13.214l83.987-2.968
					c1.837-0.176,3.194,1.298,3.256,3.035c0.062,1.737-1.296,3.194-3.033,3.254l-83.988,2.968
					c-7.963,0.28-15.401,4.156-20.945,10.918c-5.387,6.568-8.307,15.137-8.011,23.512l6.843,193.835
					c0.062,1.737-1.296,3.194-3.033,3.254C868.037,1794.655,867.999,1794.655,867.963,1794.655z"/>
				<g>
					
						<linearGradient id="SVGID_00000103223895198448564170000017976163409338345903_" gradientUnits="userSpaceOnUse" x1="161.6315" y1="1982.2251" x2="-245.6172" y2="2137.196" gradientTransform="matrix(0.9994 -0.0353 0.0353 0.9994 1148.4005 -306.2733)">
						<stop  offset="0" style="stop-color:#E92556"/>
						<stop  offset="1" style="stop-color:#F9C342"/>
					</linearGradient>
					<path style="fill:url(#SVGID_00000103223895198448564170000017976163409338345903_);" d="M1106.15,1767.917
						c-0.358-10.13-8.859-18.052-18.99-17.695l-122.464,4.323c-10.13,0.358-18.052,8.859-17.695,18.99l3.288,93.147
						c0.358,10.13,8.859,18.052,18.99,17.695l122.463-4.323c10.13-0.358,18.052-8.859,17.695-18.99L1106.15,1767.917z"/>
					<g>
						<path style="opacity:0.8;fill:#FFFFFF;" d="M1005.08,1844.322c-2.209,0-4.307-0.825-5.935-2.339
							c-1.704-1.587-2.687-3.747-2.77-6.073l-1.085-30.74c-0.17-4.805,3.602-8.854,8.409-9.024l34.926-1.231
							c2.318-0.05,4.547,0.745,6.254,2.333c1.705,1.59,2.689,3.747,2.77,6.076l1.085,30.736c0.17,4.805-3.602,8.854-8.407,9.024
							l-34.927,1.231C1005.293,1844.318,1005.186,1844.322,1005.08,1844.322z M1038.937,1801.204c-0.03,0-0.06,0-0.09,0
							l-34.926,1.231c-1.338,0.05-2.389,1.175-2.343,2.516l1.085,30.736c0.023,0.646,0.298,1.248,0.772,1.69
							c0.474,0.439,1.111,0.642,1.74,0.649l34.927-1.231c1.338-0.05,2.387-1.175,2.341-2.516l-1.085-30.736l0,0
							c-0.023-0.649-0.298-1.248-0.772-1.69C1040.135,1801.433,1039.553,1801.204,1038.937,1801.204z"/>
						<g>
							<path style="fill:#FFFFFF;" d="M948.424,1816.973c-1.687,0-3.083-1.338-3.143-3.038c-0.062-1.737,1.296-3.194,3.033-3.254
								l50.256-1.774c1.8-0.106,3.194,1.298,3.256,3.035c0.062,1.737-1.296,3.194-3.033,3.254l-50.256,1.774
								C948.499,1816.973,948.46,1816.973,948.424,1816.973z"/>
							<path style="fill:#FFFFFF;" d="M948.866,1829.538c-1.687,0-3.083-1.338-3.143-3.038c-0.062-1.737,1.296-3.194,3.033-3.254
								l50.257-1.774c1.825-0.133,3.196,1.298,3.256,3.035c0.062,1.737-1.296,3.195-3.033,3.254l-50.257,1.774
								C948.941,1829.538,948.903,1829.538,948.866,1829.538z"/>
						</g>
						<g>
							<path style="fill:#FFFFFF;" d="M1053.126,1813.279c-1.687,0-3.083-1.338-3.143-3.038c-0.062-1.737,1.296-3.194,3.033-3.254
								l54.445-1.923c1.812-0.18,3.196,1.294,3.256,3.035c0.062,1.737-1.296,3.194-3.033,3.254l-54.445,1.923
								C1053.201,1813.279,1053.163,1813.279,1053.126,1813.279z"/>
							<path style="fill:#FFFFFF;" d="M1053.568,1825.841c-1.687,0-3.083-1.338-3.143-3.038c-0.062-1.737,1.296-3.195,3.033-3.255
								l54.447-1.92c0.038-0.003,0.077-0.003,0.113-0.003c1.687,0,3.083,1.338,3.143,3.038c0.062,1.737-1.296,3.194-3.033,3.254
								l-54.447,1.92C1053.643,1825.841,1053.605,1825.841,1053.568,1825.841z"/>
						</g>
						<g>
							<g>
								<path style="fill:#FFFFFF;" d="M1009.679,1802.428c-1.383,0-2.65-0.918-3.033-2.316l-12.403-45.198
									c-0.461-1.674,0.526-3.407,2.201-3.867c1.679-0.456,3.409,0.526,3.868,2.203l12.403,45.198
									c0.461,1.674-0.526,3.407-2.201,3.867C1010.234,1802.392,1009.955,1802.428,1009.679,1802.428z"/>
								<path style="fill:#FFFFFF;" d="M1038.869,1801.397c-0.213,0-0.429-0.023-0.645-0.067c-1.702-0.356-2.794-2.023-2.439-3.724
									l9.585-45.973c0.354-1.7,2.026-2.785,3.724-2.439c1.702,0.356,2.793,2.023,2.439,3.724l-9.585,45.973
									C1041.638,1800.375,1040.328,1801.397,1038.869,1801.397z"/>
							</g>
							<g>
								<path style="fill:#FFFFFF;" d="M1001.895,1887.966c-0.205,0-0.413-0.02-0.621-0.063c-1.704-0.339-2.81-1.996-2.469-3.7
									l9.186-45.956c0.343-1.707,2.008-2.822,3.704-2.469c1.704,0.339,2.81,1.996,2.469,3.7l-9.186,45.956
									C1004.679,1886.931,1003.365,1887.966,1001.895,1887.966z"/>
								<path style="fill:#FFFFFF;" d="M1053.064,1886.159c-1.373,0-2.634-0.905-3.026-2.289l-12.803-45.181
									c-0.474-1.674,0.498-3.414,2.17-3.887c1.675-0.466,3.414,0.499,3.887,2.17l12.803,45.181
									c0.474,1.674-0.497,3.414-2.17,3.886C1053.637,1886.119,1053.349,1886.159,1053.064,1886.159z"/>
							</g>
						</g>
					</g>
				</g>
				<path style="opacity:0.47;fill:#FFFFFF;" d="M1101.333,1631.467c0.425,12.03-8.983,22.126-21.013,22.551l-136.525,4.82
					c-12.03,0.425-22.126-8.983-22.551-21.013l-0.088-2.505c-0.425-12.03,8.983-22.126,21.013-22.551l136.525-4.82
					c12.03-0.425,22.126,8.983,22.551,21.013L1101.333,1631.467z"/>
				<g style="opacity:0.47;">
					<path style="fill:#FFFFFF;" d="M1125.465,1958.693c0.405,11.478-8.571,21.112-20.05,21.517l-151.086,5.334
						c-11.478,0.405-21.112-8.571-21.517-20.05l-0.011-0.314c-0.405-11.478,8.571-21.112,20.05-21.517l151.086-5.334
						c11.478-0.405,21.112,8.571,21.517,20.05L1125.465,1958.693z"/>
					<path style="fill:#FFFFFF;" d="M1343.246,1951.005c0.405,11.478-8.572,21.112-20.05,21.517l-151.086,5.333
						c-11.478,0.405-21.112-8.571-21.517-20.05l-0.011-0.314c-0.405-11.478,8.571-21.112,20.05-21.517l151.086-5.334
						c11.478-0.405,21.112,8.571,21.517,20.05L1343.246,1951.005z"/>
					<path style="fill:#FFFFFF;" d="M1561.028,1943.317c0.405,11.478-8.572,21.112-20.05,21.517l-151.086,5.333
						c-11.478,0.405-21.112-8.571-21.517-20.05l-0.011-0.314c-0.405-11.478,8.571-21.112,20.05-21.517l151.086-5.334
						c11.478-0.405,21.112,8.571,21.517,20.05L1561.028,1943.317z"/>
					<path style="fill:#FFFFFF;" d="M1782.997,1935.481c0.405,11.478-8.571,21.112-20.05,21.517l-151.086,5.334
						c-11.478,0.405-21.112-8.571-21.517-20.05l-0.011-0.314c-0.405-11.478,8.571-21.112,20.05-21.517l151.086-5.334
						c11.478-0.405,21.112,8.572,21.517,20.05L1782.997,1935.481z"/>
				</g>
				<g style="opacity:0.47;">
					<path style="fill:#FFFFFF;" d="M1271.116,2045.876c0.322,9.126-6.815,16.785-15.941,17.107l-281.059,9.922
						c-9.126,0.322-16.785-6.815-17.108-15.941l-0.016-0.457c-0.322-9.126,6.815-16.785,15.941-17.107l281.059-9.922
						c9.126-0.322,16.785,6.815,17.108,15.941L1271.116,2045.876z"/>
					<path style="fill:#FFFFFF;" d="M1760.828,2020.201c0.322,9.126-6.815,16.785-15.941,17.108l-121.911,4.304
						c-9.126,0.322-16.785-6.815-17.108-15.941l-0.016-0.456c-0.322-9.126,6.815-16.785,15.941-17.108l121.911-4.304
						c9.126-0.322,16.785,6.815,17.108,15.941L1760.828,2020.201z"/>
				</g>
			</g>
			<g>
				
					<linearGradient id="SVGID_00000173862594872102615260000016519369857356354226_" gradientUnits="userSpaceOnUse" x1="2126.5327" y1="1601.1238" x2="2493.0002" y2="1138.4117" gradientTransform="matrix(0.9761 -0.2173 0.2173 0.9761 -1033.4843 253.7242)">
					<stop  offset="0" style="stop-color:#FDF53F"/>
					<stop  offset="1" style="stop-color:#D93C65"/>
				</linearGradient>
				<path style="fill:url(#SVGID_00000173862594872102615260000016519369857356354226_);" d="M1068.06,1482.984
					c166.102-161.839,330.74-197.412,540.12-148.694c13.549,3.152,24.071,13.831,26.939,27.443l1.662,7.887
					c5.079,24.104-15.204,45.999-39.625,42.764c-176.888-23.432-306.456-27.784-480.883,123.254
					c-19.199,16.624-49.147,8.355-57.19-15.734l0,0C1054.739,1506.897,1058.238,1492.554,1068.06,1482.984z"/>
				
					<linearGradient id="SVGID_00000134237582026367791820000009768245519119721644_" gradientUnits="userSpaceOnUse" x1="1992.5935" y1="1495.0441" x2="2359.0598" y2="1032.3337" gradientTransform="matrix(0.9761 -0.2173 0.2173 0.9761 -1033.4843 253.7242)">
					<stop  offset="0" style="stop-color:#FDF53F"/>
					<stop  offset="1" style="stop-color:#D93C65"/>
				</linearGradient>
				<path style="fill:url(#SVGID_00000134237582026367791820000009768245519119721644_);" d="M1081.559,1383.435l-67.855,180.701
					c-2.067,5.504,2.487,11.222,8.314,10.439l184.049-24.72c6.848-0.92,10.157-8.886,5.976-14.386
					c-55.493-45.889-93.483-97.562-117.057-154C1091.295,1376.615,1083.703,1377.726,1081.559,1383.435z"/>
			</g>
			<g>
				
					<linearGradient id="SVGID_00000104668043930064582120000011345329572051732364_" gradientUnits="userSpaceOnUse" x1="-1847.5695" y1="3033.6145" x2="-1670.01" y2="3033.6145" gradientTransform="matrix(-1 0 0 1 -956.0194 0)">
					<stop  offset="0" style="stop-color:#F9B776"/>
					<stop  offset="1" style="stop-color:#F47960"/>
				</linearGradient>
				<path style="fill:url(#SVGID_00000104668043930064582120000011345329572051732364_);" d="M891.55,2869.701
					c0,0-94.984,207.02-144.818,292.767c0,0-9.898,53.954,0,70.92l8.435,3.749l-39.367-1.172c0,0-3.497-72.573-0.766-76.627
					c2.731-4.054,8.194-3.788,8.194-3.788s16.88-133.736,65.767-162.277l47.377-163.18L891.55,2869.701z"/>
				
					<linearGradient id="SVGID_00000126304262504447458790000003174639030673777312_" gradientUnits="userSpaceOnUse" x1="-1603.5093" y1="2636.5374" x2="-1691.4421" y2="3208.0986" gradientTransform="matrix(-1 0 0 1 -956.0194 0)">
					<stop  offset="0" style="stop-color:#53D8FF"/>
					<stop  offset="1" style="stop-color:#3840F7"/>
				</linearGradient>
				<path style="fill:url(#SVGID_00000126304262504447458790000003174639030673777312_);" d="M771.98,3247.301
					c0.058,0.949-30.74,0.515-47.471,0.21c-6.178-0.113-11.444-4.455-12.761-10.492l-12.634-66.379
					c-1.201-6.308,2.805-12.435,9.065-13.866l7.052-1.612c0,0,10.061,13.801,6.894,26.794c-3.167,12.993-5.985,46.651,2.018,50.573
					c8.003,3.922,31.025,4.607,31.025,4.607S771.453,3238.752,771.98,3247.301z"/>
				
					<linearGradient id="SVGID_00000033326962732745002050000016065245629831773375_" gradientUnits="userSpaceOnUse" x1="-1789.5662" y1="2607.9158" x2="-1877.4991" y2="3179.4773" gradientTransform="matrix(-1 0 0 1 -956.0194 0)">
					<stop  offset="0" style="stop-color:#53D8FF"/>
					<stop  offset="1" style="stop-color:#3840F7"/>
				</linearGradient>
				<path style="fill:url(#SVGID_00000033326962732745002050000016065245629831773375_);" d="M981.578,3248.505
					c3.115,1.775,1.831,6.531-1.755,6.495c-27.998-0.281-90.736-1.167-96.31-3.485c-7.198-2.993,2.623-28.856,12.958-37.61
					l57.067,18.625L981.578,3248.505z"/>
				
					<linearGradient id="SVGID_00000078752462615776373020000008949737864445044619_" gradientUnits="userSpaceOnUse" x1="-1955.3118" y1="3046.8171" x2="-1852.4905" y2="3046.8171" gradientTransform="matrix(-1 0 0 1 -956.0194 0)">
					<stop  offset="0" style="stop-color:#F9B776"/>
					<stop  offset="1" style="stop-color:#F47960"/>
				</linearGradient>
				<path style="fill:url(#SVGID_00000078752462615776373020000008949737864445044619_);" d="M999.292,2856.498
					c0,0-61.381,296.939-78.745,354.862l41.076,25.777c0,0-20.584-3.501-35.849-4.607s-29.304-18.625-29.304-18.625l4.921-7.849
					c0,0,15.393-295.322,11.645-328.856L999.292,2856.498z"/>
				
					<linearGradient id="SVGID_00000148629220922983031600000016275364123480881853_" gradientUnits="userSpaceOnUse" x1="-2176.8071" y1="2275.3867" x2="-1975.516" y2="2275.3867" gradientTransform="matrix(-1 0 0 1 -956.0194 0)">
					<stop  offset="0" style="stop-color:#F9B776"/>
					<stop  offset="1" style="stop-color:#F47960"/>
				</linearGradient>
				<path style="fill:url(#SVGID_00000148629220922983031600000016275364123480881853_);" d="M1151.661,2163.886
					c0,0,8.466,154.465-132.164,233.397l33.858,77.219c0,0,127.322-77.011,122.614-287.052c-0.135-6.028,2.039-11.881,5.976-16.448
					l27.06-31.393c10.31-11.961,14.163-28.186,10.33-43.505l-3.562-14.238c-1.193-4.766-6.622-7.06-10.87-4.592l-2.83,1.644
					c-9.009,5.232-16.144,13.164-20.398,22.674l-13.287,29.702c-4.963,11.095-16.407,17.831-28.516,16.785l-8.216-0.709
					L1151.661,2163.886z"/>
				
					<linearGradient id="SVGID_00000105428363235994438940000011026292253616989090_" gradientUnits="userSpaceOnUse" x1="-1956.2263" y1="2384.8125" x2="-1578.8485" y2="3132.2405" gradientTransform="matrix(-1 0 0 1 -956.0194 0)">
					<stop  offset="0" style="stop-color:#FDF53F"/>
					<stop  offset="1" style="stop-color:#D93C65"/>
				</linearGradient>
				<path style="fill:url(#SVGID_00000105428363235994438940000011026292253616989090_);" d="M1024.391,2385.708
					c-23.527,6.524-103.234,27.492-152.994,26.635l30.552,172.406l-2.431,28.12l99.611-0.446c0,0,28.041-65.123,50.165-97.591
					c6.39-9.377,1.634-20.562-1.987-31.315l4.976-3.313c5.063-3.371,7.259-9.704,5.37-15.485l-24.257-74.216
					C1032.134,2386.764,1028.195,2384.653,1024.391,2385.708z"/>
				
					<linearGradient id="SVGID_00000155843793158046925520000013676220805517508536_" gradientUnits="userSpaceOnUse" x1="-2046.0928" y1="2582.3149" x2="-1716.3455" y2="2954.1965" gradientTransform="matrix(-1 0 0 1 -956.0194 0)">
					<stop  offset="0" style="stop-color:#53D8FF"/>
					<stop  offset="1" style="stop-color:#3840F7"/>
				</linearGradient>
				<path style="fill:url(#SVGID_00000155843793158046925520000013676220805517508536_);" d="M1007.11,2597.709l-1.96,17.036
					c0,0,28.15,84.302-14.075,281.201c0,0-91.45,25.907-166.612-36.086c0,0,21.202-185.842,26.993-194.499
					c28.845-43.117,48.061-52.491,48.061-52.491l0.867-18.612C900.384,2594.259,980.774,2608.793,1007.11,2597.709z"/>
				
					<linearGradient id="SVGID_00000022537190593455492110000010934664566278243756_" gradientUnits="userSpaceOnUse" x1="-1924.1412" y1="2374.2112" x2="-1861.22" y2="2374.2112" gradientTransform="matrix(-1 0 0 1 -956.0194 0)">
					<stop  offset="0" style="stop-color:#F9B776"/>
					<stop  offset="1" style="stop-color:#F47960"/>
				</linearGradient>
				<path style="fill:url(#SVGID_00000022537190593455492110000010934664566278243756_);" d="M968.118,2399.604
					c0.349-0.462-20.796-63.841-20.796-63.841l-30.288,2.748l-11.832,71.9C905.201,2410.411,952.669,2419.992,968.118,2399.604z"/>
				
					<linearGradient id="SVGID_00000016041255482878132980000001270802538247485608_" gradientUnits="userSpaceOnUse" x1="-1824.14" y1="2292.8992" x2="-1366.1577" y2="2324.042" gradientTransform="matrix(-1 0 0 1 -956.0194 0)">
					<stop  offset="0" style="stop-color:#F9B776"/>
					<stop  offset="1" style="stop-color:#F47960"/>
				</linearGradient>
				<path style="fill:url(#SVGID_00000016041255482878132980000001270802538247485608_);" d="M924.284,2235.813
					c2.02,1.257,64.723,27.171,51.251,92.268c-0.796,3.847-3.363,7.107-6.951,8.708c-9.201,4.104-29.011,11.132-52.704,8.724
					c-32.848-3.338-54.372-60.658-53.456-77.339C863.339,2251.494,904.267,2223.349,924.284,2235.813z"/>
				
					<linearGradient id="SVGID_00000101075848968006338530000009691923396699850368_" gradientUnits="userSpaceOnUse" x1="-1748.8636" y1="2265.2927" x2="-1910.0732" y2="2587.7112" gradientTransform="matrix(-1 0 0 1 -956.0194 0)">
					<stop  offset="0" style="stop-color:#2B3582"/>
					<stop  offset="1" style="stop-color:#150E42"/>
				</linearGradient>
				<path style="fill:url(#SVGID_00000101075848968006338530000009691923396699850368_);" d="M905.201,2210.505
					c1.649,0.217,36.236,12.262,19.084,37.325c-17.152,25.063-23.586,39.816-15.474,50.822c7.391,10.027,23.764,4.312,22.335,25.172
					c-0.286,4.175,1.52,8.229,4.986,10.575c15.429,10.444,53.071,42.589,15.777,88.434c-3.031,3.726-3.656,8.87-1.317,13.065
					c10.923,19.592,33.867,76.987-49.199,108.824c-82.083,31.46-111.719-22.196-119.999-43.642
					c-1.791-4.638-6.358-7.478-11.324-7.244c-9.019,0.426-21.801-1.074-21.213-13.128c0.357-7.321,4.925-13.882,10.323-19.142
					c5.343-5.206,4.288-14.322-2.199-18.007c-4.9-2.784-9.236-7.13-11.066-13.911c-4.974-18.433,4.957-73.549,57.786-82.889
					c4.407-0.779,9.021-4.911,9.663-9.34c0.01-0.066,0.02-0.132,0.031-0.198c0.708-4.283-0.741-8.663-4.242-11.231
					c-8.435-6.188-19.254-18.647-10.467-38.626c7.793-17.72,22.74-23.698,33.842-25.602c6.518-1.118,10.804-7.283,9.43-13.752
					C838.213,2230.383,841.477,2202.15,905.201,2210.505z"/>
			</g>
		</g>
		<g>
			
				<linearGradient id="SVGID_00000013159330083505980240000012599413674344443554_" gradientUnits="userSpaceOnUse" x1="-1112.7177" y1="2528.1006" x2="-870.2192" y2="2528.1006" gradientTransform="matrix(-1 0 0 1 1563.63 0)">
				<stop  offset="0" style="stop-color:#2B3582"/>
				<stop  offset="1" style="stop-color:#150E42"/>
			</linearGradient>
			<path style="fill:url(#SVGID_00000013159330083505980240000012599413674344443554_);" d="M2442.373,2631.278
				c-0.111,0-0.221-0.003-0.334-0.007c-4.702-0.183-8.365-4.139-8.182-8.841c0.206-5.328,5.719-130.998,63.97-179.004
				c18.616-15.34,40.551-21.186,65.181-17.373c49.086,7.597,84.256,44.502,101.708,106.727
				c12.801,45.65,11.638,88.446,11.583,90.243c-0.145,4.702-4.051,8.422-8.775,8.249c-4.702-0.143-8.397-4.07-8.256-8.771
				c0.05-1.637,3.739-163.731-98.866-179.61c-19.904-3.081-36.831,1.397-51.74,13.683c-52.422,43.201-57.734,165.288-57.782,166.516
				C2450.701,2627.678,2446.927,2631.278,2442.373,2631.278z"/>
			
				<linearGradient id="SVGID_00000118357104308307726520000012981192747157417628_" gradientUnits="userSpaceOnUse" x1="-1193.1128" y1="2748.2754" x2="-631.6953" y2="3621.5925" gradientTransform="matrix(-1 0 0 1 1563.63 0)">
				<stop  offset="0" style="stop-color:#FDF53F"/>
				<stop  offset="1" style="stop-color:#D93C65"/>
			</linearGradient>
			<path style="fill:url(#SVGID_00000118357104308307726520000012981192747157417628_);" d="M2877.179,3162.729l-85.418-579.086
				l-320.884-5.304l-103.425,616.575h481.942C2866.536,3194.914,2879.68,3179.689,2877.179,3162.729z"/>
			
				<linearGradient id="SVGID_00000173138717920885270110000003275577807206336159_" gradientUnits="userSpaceOnUse" x1="-1585.1686" y1="1914.8356" x2="-446.6259" y2="3373.1055" gradientTransform="matrix(-1 0 0 1 1563.63 0)">
				<stop  offset="0" style="stop-color:#FDF53F"/>
				<stop  offset="1" style="stop-color:#D93C65"/>
			</linearGradient>
			<path style="fill:url(#SVGID_00000173138717920885270110000003275577807206336159_);" d="M2408.556,2583.643l62.32-5.304
				l-103.425,616.575h-61.869c-12.544,0-21.918-11.528-19.361-23.808L2408.556,2583.643z"/>
			
				<linearGradient id="SVGID_00000028324592347206258730000014121161154048969396_" gradientUnits="userSpaceOnUse" x1="-1181.6674" y1="2526.7781" x2="-939.1705" y2="2526.7781" gradientTransform="matrix(-1 0 0 1 1563.63 0)">
				<stop  offset="0" style="stop-color:#2B3582"/>
				<stop  offset="1" style="stop-color:#150E42"/>
			</linearGradient>
			<path style="fill:url(#SVGID_00000028324592347206258730000014121161154048969396_);" d="M2511.326,2629.95
				c-0.113,0-0.223-0.003-0.336-0.007c-4.702-0.183-8.365-4.139-8.182-8.841c0.206-5.327,5.718-130.995,63.97-179.001
				c18.613-15.343,40.544-21.183,65.181-17.373c49.086,7.597,84.254,44.502,101.706,106.724
				c12.801,45.65,11.638,88.446,11.583,90.242c-0.145,4.702-4.094,8.515-8.775,8.249c-4.702-0.143-8.397-4.07-8.256-8.771
				c0.05-1.637,3.739-163.728-98.864-179.607c-19.898-3.081-36.829,1.398-51.741,13.683
				c-52.42,43.201-57.733,165.285-57.781,166.513C2519.653,2626.35,2515.878,2629.95,2511.326,2629.95z"/>
		</g>
	</g>
</g>
</svg>
