<?xml version="1.0" encoding="utf-8"?>
<!-- Generator: Adobe Illustrator 27.5.0, SVG Export Plug-In . SVG Version: 6.00 Build 0)  -->
<svg version="1.1" id="Layer_1" xmlns="http://www.w3.org/2000/svg" xmlns:xlink="http://www.w3.org/1999/xlink" x="0px" y="0px"
	 viewBox="0 0 1200 1200" style="enable-background:new 0 0 1200 1200;" xml:space="preserve">
<rect x="1" y="1.999" style="fill:#FFFFFF;" width="1200" height="1200.001"/>
<g>
	
		<ellipse transform="matrix(0.7071 -0.7071 0.7071 0.7071 -251.2655 627.6083)" style="fill:#F76031;" cx="631.958" cy="617.109" rx="388.596" ry="388.597"/>
	<g>
		<rect x="454.439" y="755.556" style="fill:#199FA5;" width="209.062" height="113.184"/>
		<g>
			<path style="fill:#FFFFFF;" d="M657.33,863.142H460.611V761.154H657.33V863.142z"/>
		</g>
		<g>
			<path style="fill:#199FA5;" d="M651.791,792.833c-14.875,0-27.293-12.398-27.325-27.268H492.486
				c-0.294,14.413-12.191,26.361-26.584,26.75v38.935c14.792,0.132,27.095,12.499,27.095,27.318c0,0.054-0.008,0.108-0.008,0.164
				h131.508c-0.005-0.216-0.035-0.428-0.035-0.646c0-14.898,12.432-27.329,27.329-27.329c0.085,0,0.165,0.012,0.248,0.012v-37.946
				C651.956,792.822,651.876,792.833,651.791,792.833z"/>
		</g>
		<g>
			<g>
				<path style="fill:#FFFFFF;" d="M525.726,812.148c0,18.334,14.915,33.247,33.241,33.247c18.335,0,33.25-14.913,33.25-33.247
					c0-18.334-14.915-33.249-33.25-33.249C540.641,778.899,525.726,793.815,525.726,812.148z"/>
				<path style="fill:#199FA5;" d="M589.25,811.874c0,16.603-13.462,30.072-30.076,30.072c-16.603,0-30.068-13.469-30.068-30.072
					c0-16.608,13.465-30.075,30.068-30.075C575.788,781.799,589.25,795.266,589.25,811.874z"/>
				<path style="fill:#FFFFFF;" d="M562.671,807.625c-2.057-0.748-4.432-1.727-4.432-2.604c0-1.153,1.619-1.329,2.587-1.329
					c2.815,0,4.616,0.866,5.698,1.384l1.236,0.595l0.394-1.307l1.544-5.808l-0.858-0.406c-1.139-0.533-2.971-1.21-5.666-1.439
					c0-1.1,0-3.904,0-3.904h-6.517c0,0,0,3.284,0,4.368c-4.524,1.177-7.313,4.381-7.313,8.583c0,5.42,4.576,7.656,8.563,8.999
					c3.386,1.142,3.857,1.967,3.857,2.685c0,1.068-1.538,1.544-3.06,1.544c-2.968,0-5.435-1.107-6.639-1.764l-1.286-0.705
					l-1.877,7.338l0.769,0.427c1.739,0.96,4.302,1.639,6.769,1.859c0,1.171,0,4.25,0,4.25h6.516c0,0,0-3.561,0-4.701
					c4.764-1.152,7.704-4.462,7.704-8.854C570.66,812.339,568.269,809.586,562.671,807.625z"/>
			</g>
		</g>
	</g>
	<g>
		<rect x="467.519" y="766.273" style="fill:#199FA5;" width="209.063" height="113.184"/>
		<g>
			<path style="fill:#FFFFFF;" d="M670.41,873.859H473.692V771.871H670.41V873.859z"/>
		</g>
		<g>
			<path style="fill:#199FA5;" d="M664.871,803.551c-14.875,0-27.292-12.398-27.325-27.269H505.567
				c-0.295,14.413-12.192,26.361-26.585,26.75v38.935c14.792,0.131,27.094,12.498,27.094,27.317c0,0.055-0.006,0.108-0.009,0.165
				h131.51c-0.005-0.217-0.034-0.429-0.034-0.647c0-14.898,12.432-27.329,27.328-27.329c0.085,0,0.166,0.013,0.248,0.013v-37.947
				C665.037,803.54,664.956,803.551,664.871,803.551z"/>
		</g>
		<g>
			<g>
				<path style="fill:#FFFFFF;" d="M538.805,822.866c0,18.334,14.915,33.247,33.244,33.247c18.334,0,33.247-14.913,33.247-33.247
					c0-18.335-14.913-33.249-33.247-33.249C553.72,789.617,538.805,804.531,538.805,822.866z"/>
				<path style="fill:#199FA5;" d="M602.331,822.592c0,16.602-13.463,30.071-30.076,30.071c-16.604,0-30.067-13.469-30.067-30.071
					c0-16.609,13.463-30.075,30.067-30.075C588.868,792.517,602.331,805.982,602.331,822.592z"/>
				<path style="fill:#FFFFFF;" d="M575.753,818.343c-2.058-0.749-4.433-1.727-4.433-2.604c0-1.153,1.62-1.329,2.584-1.329
					c2.818,0,4.62,0.865,5.699,1.383l1.238,0.596l0.392-1.308l1.546-5.807l-0.858-0.406c-1.142-0.534-2.973-1.211-5.666-1.44
					c0-1.099,0-3.903,0-3.903h-6.519c0,0,0,3.284,0,4.368c-4.524,1.177-7.313,4.381-7.313,8.583c0,5.42,4.579,7.656,8.565,8.998
					c3.386,1.143,3.853,1.968,3.853,2.686c0,1.068-1.535,1.544-3.06,1.544c-2.967,0-5.435-1.106-6.636-1.764l-1.285-0.705
					l-1.878,7.338l0.769,0.427c1.736,0.959,4.299,1.639,6.766,1.858c0,1.172,0,4.25,0,4.25h6.517c0,0,0-3.56,0-4.701
					c4.764-1.152,7.704-4.462,7.704-8.853C583.739,823.056,581.351,820.304,575.753,818.343z"/>
			</g>
		</g>
	</g>
	<rect x="260.752" y="380.488" style="fill:#FFD11D;" width="199.527" height="15.453"/>
	<rect x="260.752" y="395.941" style="fill:#F9F9F9;" width="199.527" height="278.668"/>
	<g>
		<rect x="277.932" y="452.117" style="fill:#B0B0B0;" width="74.747" height="6.575"/>
		<rect x="277.932" y="479.022" style="fill:#B0B0B0;" width="165.166" height="6.573"/>
		<rect x="277.932" y="493.967" style="fill:#B0B0B0;" width="165.166" height="6.577"/>
		<rect x="277.932" y="508.913" style="fill:#B0B0B0;" width="165.166" height="6.573"/>
		<rect x="277.932" y="523.858" style="fill:#B0B0B0;" width="165.166" height="6.58"/>
	</g>
	<g>
		<rect x="277.932" y="538.827" style="fill:#B0B0B0;" width="165.166" height="6.573"/>
		<rect x="277.932" y="553.773" style="fill:#B0B0B0;" width="165.166" height="6.576"/>
		<rect x="277.932" y="568.719" style="fill:#B0B0B0;" width="165.166" height="6.572"/>
		<rect x="277.932" y="583.663" style="fill:#B0B0B0;" width="165.166" height="6.581"/>
	</g>
	<g>
		<rect x="277.932" y="598.535" style="fill:#B0B0B0;" width="165.166" height="6.578"/>
		<rect x="277.932" y="613.482" style="fill:#B0B0B0;" width="165.166" height="6.57"/>
		<rect x="277.932" y="628.427" style="fill:#B0B0B0;" width="165.166" height="6.58"/>
	</g>
	<rect x="293.104" y="415.921" style="fill:#FFD11D;" width="199.526" height="15.454"/>
	<rect x="293.104" y="431.375" style="fill:#FFFFFF;" width="199.526" height="278.67"/>
	<g>
		<rect x="310.284" y="487.551" style="fill:#B0B0B0;" width="74.746" height="6.576"/>
		<rect x="310.284" y="514.456" style="fill:#B0B0B0;" width="165.165" height="6.572"/>
		<rect x="310.284" y="529.401" style="fill:#B0B0B0;" width="165.165" height="6.577"/>
		<rect x="310.284" y="544.347" style="fill:#B0B0B0;" width="165.165" height="6.573"/>
		<rect x="310.284" y="559.292" style="fill:#B0B0B0;" width="165.165" height="6.58"/>
	</g>
	<g>
		<rect x="310.284" y="574.262" style="fill:#B0B0B0;" width="165.165" height="6.573"/>
		<rect x="310.284" y="589.207" style="fill:#B0B0B0;" width="165.165" height="6.576"/>
		<rect x="310.284" y="604.154" style="fill:#B0B0B0;" width="165.165" height="6.57"/>
		<rect x="310.284" y="619.097" style="fill:#B0B0B0;" width="165.165" height="6.58"/>
	</g>
	<g>
		<rect x="310.284" y="633.969" style="fill:#B0B0B0;" width="165.165" height="6.577"/>
		<rect x="310.284" y="648.914" style="fill:#B0B0B0;" width="165.165" height="6.574"/>
		<rect x="310.284" y="663.86" style="fill:#B0B0B0;" width="165.165" height="6.581"/>
	</g>
	<rect x="325.456" y="451.446" style="fill:#FFD11D;" width="199.526" height="15.454"/>
	<rect x="325.456" y="466.899" style="fill:#F9F9F9;" width="199.526" height="278.67"/>
	<g>
		<rect x="342.636" y="523.075" style="fill:#B0B0B0;" width="74.745" height="6.575"/>
		<rect x="342.636" y="549.981" style="fill:#B0B0B0;" width="165.166" height="6.573"/>
		<rect x="342.636" y="564.926" style="fill:#B0B0B0;" width="165.166" height="6.576"/>
		<rect x="342.636" y="579.871" style="fill:#B0B0B0;" width="165.166" height="6.573"/>
		<rect x="342.636" y="594.816" style="fill:#B0B0B0;" width="165.166" height="6.579"/>
	</g>
	<g>
		<rect x="342.636" y="609.785" style="fill:#B0B0B0;" width="165.166" height="6.574"/>
		<rect x="342.636" y="624.729" style="fill:#B0B0B0;" width="165.166" height="6.577"/>
		<rect x="342.636" y="639.675" style="fill:#B0B0B0;" width="165.166" height="6.574"/>
		<rect x="342.636" y="654.621" style="fill:#B0B0B0;" width="165.166" height="6.582"/>
	</g>
	<g>
		<rect x="342.636" y="669.493" style="fill:#B0B0B0;" width="165.166" height="6.577"/>
		<rect x="342.636" y="684.441" style="fill:#B0B0B0;" width="165.166" height="6.571"/>
		<rect x="342.636" y="699.385" style="fill:#B0B0B0;" width="165.166" height="6.581"/>
	</g>
	<g>
		<path style="fill:#52767F;" d="M944.01,741.916H780.932c-9.011,0-16.313,7.303-16.313,16.316v103.246
			c0,9.008,7.303,16.311,16.313,16.311H944.01V741.916z"/>
		<path style="opacity:0.3;fill:#FFFFFF;" d="M819.593,741.916v102.07c0,8.767-13.604,8.767-13.604,0v-102.07h-25.057
			c-9.011,0-16.313,7.303-16.313,16.316v103.246c0,9.008,7.303,16.311,16.313,16.311h50.842V741.916H819.593z"/>
		<g>
			<g>
				<path style="fill:#EBE5EE;" d="M896.481,700.931c0-6.948-5.631-12.588-12.58-12.588H701.444c-6.948,0-12.579,5.64-12.579,12.588
					v106.572c0,6.947,5.631,12.58,12.579,12.58h182.457c6.949,0,12.58-5.633,12.58-12.58V700.931z"/>
				<rect x="688.865" y="788.024" style="fill:#161D21;" width="207.616" height="18.149"/>
				<rect x="700.718" y="737.446" style="fill:#F76031;" width="147.371" height="19.435"/>
				<rect x="700.718" y="763.756" style="fill:#F76031;" width="147.371" height="4.74"/>
				<rect x="700.718" y="725.583" style="fill:#F76031;" width="73.686" height="5.781"/>
				<rect x="700.718" y="716.281" style="fill:#F76031;" width="73.686" height="5.783"/>
			</g>
			<path style="opacity:0.2;fill:#FFFFFF;" d="M883.901,820.083h-90.763c0.004-0.174,0.021-0.335,0.021-0.51v-131.23h90.742
				c6.949,0,12.58,5.64,12.58,12.588v106.572C896.481,814.45,890.851,820.083,883.901,820.083z"/>
		</g>
		<path style="fill:#52767F;" d="M998.589,741.916H944.01h-4.531H832.041c-9.008,0-16.31,7.303-16.31,16.316v103.246
			c0,9.008,7.302,16.311,16.31,16.311h107.437h4.531h54.579c9.008,0,16.313-7.304,16.313-16.311V758.232
			C1014.902,749.219,1007.597,741.916,998.589,741.916z"/>
		<path style="opacity:0.3;fill:#FFFFFF;" d="M855.953,741.916h-23.912c-9.008,0-16.31,7.303-16.31,16.316v103.246
			c0,9.008,7.302,16.311,16.31,16.311h23.912V741.916z"/>
		<path style="fill:#FFD11D;" d="M844.438,768.5c0,3.908-3.17,7.08-7.083,7.08c-3.911,0-7.087-3.172-7.087-7.08
			c0-3.918,3.176-7.09,7.087-7.09C841.268,761.41,844.438,764.582,844.438,768.5z"/>
	</g>
	<g>
		<g>
			<path style="fill:#FFFFFF;" d="M533.08,948.828c0,18.333,14.916,33.247,33.243,33.247c18.334,0,33.249-14.914,33.249-33.247
				c0-18.334-14.915-33.249-33.249-33.249C547.996,915.579,533.08,930.494,533.08,948.828z"/>
			<path style="fill:#FFD11D;" d="M598.403,948.554c0,17.595-14.268,31.869-31.874,31.869c-17.596,0-31.865-14.275-31.865-31.869
				c0-17.601,14.27-31.872,31.865-31.872C584.136,916.682,598.403,930.953,598.403,948.554z"/>
			<path style="fill:#FFFFFF;" d="M570.027,944.305c-2.058-0.748-4.433-1.727-4.433-2.604c0-1.153,1.62-1.329,2.586-1.329
				c2.816,0,4.618,0.866,5.698,1.384l1.238,0.595l0.393-1.307l1.545-5.808l-0.859-0.406c-1.14-0.534-2.972-1.21-5.666-1.44
				c0-1.099,0-3.903,0-3.903h-6.518c0,0,0,3.284,0,4.368c-4.524,1.177-7.313,4.381-7.313,8.583c0,5.42,4.578,7.656,8.565,8.999
				c3.386,1.143,3.854,1.967,3.854,2.686c0,1.068-1.537,1.544-3.06,1.544c-2.968,0-5.436-1.107-6.638-1.765l-1.285-0.704
				l-1.878,7.337l0.769,0.427c1.737,0.96,4.3,1.639,6.768,1.859c0,1.172,0,4.25,0,4.25h6.516c0,0,0-3.559,0-4.7
				c4.764-1.152,7.704-4.463,7.704-8.853C578.015,949.019,575.625,946.266,570.027,944.305z"/>
		</g>
		<path style="opacity:0.2;fill:#FFFFFF;" d="M566.323,915.579c-0.084,0-0.169,0.003-0.253,0.003v66.49
			c0.084,0,0.169,0.003,0.253,0.003c18.334,0,33.249-14.914,33.249-33.247C599.572,930.494,584.657,915.579,566.323,915.579z"/>
	</g>
	<g>
		<g>
			<path style="fill:#FFFFFF;" d="M591.88,873.639c0,18.333,14.916,33.248,33.243,33.248c18.335,0,33.249-14.915,33.249-33.248
				c0-18.334-14.914-33.248-33.249-33.248C606.796,840.391,591.88,855.305,591.88,873.639z"/>
			<path style="fill:#FFD11D;" d="M657.204,873.364c0,17.596-14.268,31.87-31.874,31.87c-17.597,0-31.865-14.274-31.865-31.87
				c0-17.601,14.269-31.872,31.865-31.872C642.936,841.492,657.204,855.764,657.204,873.364z"/>
			<path style="fill:#FFFFFF;" d="M628.827,869.116c-2.057-0.749-4.432-1.728-4.432-2.604c0-1.154,1.619-1.329,2.585-1.329
				c2.817,0,4.619,0.865,5.699,1.383l1.237,0.596l0.393-1.308l1.545-5.807l-0.858-0.406c-1.141-0.534-2.972-1.211-5.666-1.44
				c0-1.1,0-3.903,0-3.903h-6.518c0,0,0,3.283,0,4.368c-4.524,1.177-7.313,4.38-7.313,8.583c0,5.42,4.577,7.656,8.563,8.998
				c3.386,1.143,3.855,1.968,3.855,2.687c0,1.067-1.536,1.543-3.06,1.543c-2.967,0-5.435-1.107-6.637-1.765l-1.286-0.704
				l-1.877,7.337l0.768,0.427c1.738,0.961,4.301,1.639,6.768,1.86c0,1.171,0,4.25,0,4.25h6.517c0,0,0-3.56,0-4.701
				c4.764-1.152,7.704-4.462,7.704-8.854C636.815,873.829,634.425,871.076,628.827,869.116z"/>
		</g>
		<path style="opacity:0.2;fill:#FFFFFF;" d="M625.123,840.391c-0.084,0-0.168,0.002-0.252,0.002v66.491
			c0.084,0,0.168,0.003,0.252,0.003c18.335,0,33.249-14.915,33.249-33.248C658.372,855.305,643.458,840.391,625.123,840.391z"/>
	</g>
	<g>
		<g>
			<path style="fill:#FFFFFF;" d="M653.098,913.9c0,18.332,14.916,33.247,33.243,33.247c18.335,0,33.249-14.915,33.249-33.247
				c0-18.335-14.914-33.249-33.249-33.249C668.014,880.651,653.098,895.565,653.098,913.9z"/>
			<path style="fill:#FFD11D;" d="M718.421,913.625c0,17.596-14.268,31.87-31.873,31.87c-17.597,0-31.866-14.274-31.866-31.87
				c0-17.601,14.27-31.872,31.866-31.872C704.153,881.753,718.421,896.024,718.421,913.625z"/>
			<path style="fill:#FFFFFF;" d="M690.045,909.377c-2.058-0.749-4.433-1.728-4.433-2.604c0-1.154,1.62-1.329,2.586-1.329
				c2.816,0,4.618,0.865,5.698,1.383l1.238,0.596l0.393-1.308l1.545-5.807l-0.859-0.406c-1.14-0.534-2.971-1.211-5.665-1.441
				c0-1.1,0-3.903,0-3.903h-6.518c0,0,0,3.284,0,4.368c-4.524,1.177-7.313,4.38-7.313,8.583c0,5.42,4.577,7.656,8.564,8.998
				c3.386,1.144,3.854,1.968,3.854,2.687c0,1.068-1.536,1.543-3.06,1.543c-2.968,0-5.435-1.106-6.638-1.765l-1.285-0.704
				l-1.878,7.338l0.769,0.426c1.737,0.961,4.3,1.639,6.768,1.86c0,1.171,0,4.25,0,4.25h6.517c0,0,0-3.56,0-4.701
				c4.764-1.152,7.703-4.462,7.703-8.853C698.032,914.09,695.643,911.337,690.045,909.377z"/>
		</g>
		<path style="opacity:0.2;fill:#FFFFFF;" d="M686.341,880.651c-0.084,0-0.168,0.003-0.253,0.003v66.49
			c0.085,0,0.169,0.003,0.253,0.003c18.335,0,33.249-14.915,33.249-33.247C719.59,895.565,704.676,880.651,686.341,880.651z"/>
	</g>
	<g>
		<path style="fill:#52767F;" d="M412.577,701.601h-67.694h-5.62H206.009c-11.174,0-20.23,9.058-20.23,20.235v128.059
			c0,11.173,9.056,20.23,20.23,20.23h133.254h5.62h67.694c11.172,0,20.235-9.057,20.235-20.23V721.836
			C432.812,710.658,423.749,701.601,412.577,701.601z"/>
		<path style="fill:#52767F;" d="M412.577,715.389h-67.694h-5.62H206.009c-11.174,0-20.23,9.058-20.23,20.235v128.059
			c0,11.173,9.056,20.229,20.23,20.229h133.254h5.62h67.694c11.172,0,20.235-9.057,20.235-20.229V735.624
			C432.812,724.446,423.749,715.389,412.577,715.389z"/>
		<path style="fill:#52767F;" d="M412.577,711.056H206.009c-13.543,0-24.563,11.022-24.563,24.568v128.059
			c0,13.543,11.02,24.563,24.563,24.563h206.568c13.546,0,24.566-11.02,24.566-24.563V735.624
			C437.144,722.078,426.123,711.056,412.577,711.056z M428.479,819.931h-47.026c-7.065,0-12.813-5.748-12.813-12.814v-14.934
			c0-7.066,5.748-12.815,12.813-12.815h47.026V819.931z M412.577,879.58H206.009c-8.766,0-15.898-7.133-15.898-15.897V735.624
			c0-8.77,7.132-15.902,15.898-15.902h206.568c8.768,0,15.902,7.133,15.902,15.902v35.08h-47.026
			c-11.843,0-21.478,9.635-21.478,21.479v14.934c0,11.844,9.635,21.479,21.478,21.479h47.026v35.086
			C428.479,872.447,421.345,879.58,412.577,879.58z"/>
		<path style="fill:#EBE5EE;" d="M410.249,713.052H208.336c-13.239,0-24.01,10.774-24.01,24.015v125.173
			c0,13.239,10.771,24.011,24.01,24.011h201.914c13.242,0,24.015-10.771,24.015-24.011V737.066
			C434.265,723.826,423.492,713.052,410.249,713.052z M429.131,822.333h-49.702c-7.902,0-14.329-6.431-14.329-14.334v-16.698
			c0-7.902,6.427-14.332,14.329-14.332h49.702V822.333z M412.577,879.58H206.009c-8.766,0-15.898-7.133-15.898-15.897V735.624
			c0-8.77,7.132-15.902,15.898-15.902h206.568c8.768,0,15.902,7.133,15.902,15.902v35.08h-47.026
			c-11.843,0-21.478,9.635-21.478,21.479v14.934c0,11.844,9.635,21.479,21.478,21.479h47.026v35.086
			C428.479,872.447,421.345,879.58,412.577,879.58z"/>
		<path style="fill:#EBE5EE;" d="M394.756,799.655c0,4.847-3.931,8.782-8.784,8.782c-4.853,0-8.791-3.935-8.791-8.782
			c0-4.858,3.939-8.791,8.791-8.791C390.826,790.864,394.756,794.797,394.756,799.655z"/>
	</g>
	<g>
		<path style="fill:#FF641D;" d="M498.404,654.631c0,0.505-0.533,0.924-1.188,0.924h-18.585c-0.653,0-1.189-0.419-1.189-0.924
			v-26.402c0-0.503,0.536-0.924,1.189-0.924h18.585c0.654,0,1.188,0.421,1.188,0.924V654.631z"/>
		<path style="fill:#FFFFFF;" d="M496.035,627.305h-6.712v28.25h6.712c0.65,0,1.182-0.419,1.182-0.924v-26.402
			C497.217,627.726,496.685,627.305,496.035,627.305z"/>
		<polygon style="fill:#FFD11D;" points="785.093,627.305 770.271,627.305 575.34,627.305 543.171,627.305 492.324,627.305 
			492.324,655.555 543.171,655.555 575.34,655.555 770.271,655.555 785.093,655.555 849.635,655.555 849.635,627.305 		"/>
		<polygon style="fill:#161D21;" points="785.093,637.64 770.271,637.64 575.34,637.64 543.171,637.64 492.324,637.64 
			492.324,645.212 543.171,645.212 575.34,645.212 770.271,645.212 785.093,645.212 849.635,645.212 849.635,637.64 		"/>
		<polygon style="fill:#FFFFFF;" points="849.458,655.636 839.448,641.431 849.455,627.226 895.245,641.431 		"/>
		<polygon style="fill:#161D21;" points="876.149,635.507 876.149,647.352 895.245,641.431 		"/>
	</g>
	<g>
		<g>
			<g>
				<g>
					<polygon style="fill:#B0B0B0;" points="779.723,198.295 551.065,198.295 551.065,589.93 869.507,589.93 869.507,297.622 					
						"/>
				</g>
				<g>
					<polygon style="fill:#FFFFFF;" points="779.723,198.295 551.065,198.295 551.065,589.93 869.507,589.93 869.507,297.622 
						779.723,297.622 					"/>
				</g>
			</g>
			<rect x="551.065" y="198.295" style="fill:#FFD11D;" width="228.588" height="20.565"/>
		</g>
		<g>
			<rect x="587.279" y="494.978" style="fill:#B0B0B0;" width="111.334" height="11.114"/>
			<rect x="587.279" y="522.136" style="fill:#B0B0B0;" width="246.013" height="11.111"/>
			<rect x="587.279" y="547.399" style="fill:#B0B0B0;" width="246.013" height="11.115"/>
		</g>
		<g>
			<polygon style="fill:#F76031;" points="603.74,367.444 600.611,367.444 587.279,367.444 587.279,418.746 600.611,418.746 
				603.74,418.746 611.507,418.746 611.507,367.444 			"/>
			<polygon style="fill:#F76031;" points="629.978,306.692 626.851,306.692 619.083,306.692 619.083,418.746 626.851,418.746 
				629.978,418.746 643.31,418.746 643.31,306.692 			"/>
			<polygon style="fill:#F76031;" points="660.896,394.75 657.769,394.75 650.003,394.75 650.003,418.746 657.769,418.746 
				660.896,418.746 674.228,418.746 674.228,394.75 			"/>
			<polygon style="fill:#F76031;" points="692.698,342.131 689.573,342.131 681.805,342.131 681.805,418.746 689.573,418.746 
				692.698,418.746 706.03,418.746 706.03,342.131 			"/>
			<polygon style="fill:#FFD11D;" points="722.733,362.72 719.603,362.72 711.84,362.72 711.84,418.746 719.603,418.746 
				722.733,418.746 736.063,418.746 736.063,362.72 			"/>
			<polygon style="fill:#FFD11D;" points="753.652,328.968 750.524,328.968 742.761,328.968 742.761,418.746 750.524,418.746 
				753.652,418.746 766.983,418.746 766.983,328.968 			"/>
			<polygon style="fill:#FFD11D;" points="785.736,306.692 782.606,306.692 774.84,306.692 774.84,418.746 782.606,418.746 
				785.736,418.746 799.065,418.746 799.065,306.692 			"/>
			<polygon style="fill:#FFD11D;" points="817.033,317.557 813.896,317.557 806.133,317.557 806.133,418.746 813.896,418.746 
				817.033,418.746 830.358,418.746 830.358,317.557 			"/>
		</g>
		<g>
			<rect x="587.279" y="438.924" style="fill:#B0B0B0;" width="117.047" height="37.905"/>
		</g>
		<g>
			<rect x="713.313" y="438.924" style="fill:#B0B0B0;" width="117.046" height="37.905"/>
		</g>
	</g>
</g>
</svg>
