<?xml version="1.0" encoding="utf-8"?>
<!-- Generator: Adobe Illustrator 27.5.0, SVG Export Plug-In . SVG Version: 6.00 Build 0)  -->
<svg version="1.1" xmlns="http://www.w3.org/2000/svg" xmlns:xlink="http://www.w3.org/1999/xlink" x="0px" y="0px"
	 viewBox="0 0 500 500" style="enable-background:new 0 0 500 500;" xml:space="preserve">
<g id="Background_Complete">
	<g>
		<rect y="382.398" style="fill:#EBEBEB;" width="500" height="0.25"/>
		<rect x="416.779" y="398.494" style="fill:#EBEBEB;" width="33.122" height="0.25"/>
		<rect x="322.527" y="401.208" style="fill:#EBEBEB;" width="8.693" height="0.25"/>
		<rect x="396.586" y="389.208" style="fill:#EBEBEB;" width="19.192" height="0.25"/>
		<rect x="52.459" y="390.888" style="fill:#EBEBEB;" width="43.193" height="0.25"/>
		<rect x="104.556" y="390.888" style="fill:#EBEBEB;" width="6.333" height="0.25"/>
		<rect x="131.471" y="395.111" style="fill:#EBEBEB;" width="93.676" height="0.25"/>
		<path style="fill:#EBEBEB;" d="M237.014,337.8H43.915c-3.147,0-5.708-2.561-5.708-5.708V60.66c0-3.147,2.561-5.708,5.708-5.708
			h193.099c3.146,0,5.707,2.561,5.707,5.708v271.432C242.721,335.239,240.16,337.8,237.014,337.8z M43.915,55.203
			c-3.01,0-5.458,2.448-5.458,5.458v271.432c0,3.01,2.448,5.458,5.458,5.458h193.099c3.009,0,5.457-2.448,5.457-5.458V60.66
			c0-3.009-2.448-5.458-5.457-5.458H43.915z"/>
		<path style="fill:#EBEBEB;" d="M453.31,337.8H260.212c-3.147,0-5.707-2.561-5.707-5.708V60.66c0-3.147,2.561-5.708,5.707-5.708
			H453.31c3.148,0,5.708,2.561,5.708,5.708v271.432C459.019,335.239,456.458,337.8,453.31,337.8z M260.212,55.203
			c-3.009,0-5.457,2.448-5.457,5.458v271.432c0,3.01,2.448,5.458,5.457,5.458H453.31c3.01,0,5.458-2.448,5.458-5.458V60.66
			c0-3.009-2.448-5.458-5.458-5.458H260.212z"/>
	</g>
	<g>
		<g>
			
				<rect x="94.513" y="103.158" transform="matrix(-1.836970e-16 1 -1 -1.836970e-16 325.8861 24.7292)" style="fill:#E0E0E0;" width="112.132" height="144.3"/>
			<rect x="80.428" y="121.242" style="fill:#EBEBEB;" width="140.3" height="108.132"/>
			<rect x="92.23" y="134.528" style="fill:#F5F5F5;" width="16.352" height="23.114"/>
			<rect x="112.67" y="141.352" style="fill:#F5F5F5;" width="17.209" height="24.74"/>
			
				<rect x="91.802" y="192.715" transform="matrix(0.9915 0.1304 -0.1304 0.9915 27.6053 -11.3435)" style="fill:#F5F5F5;" width="17.209" height="24.74"/>
			<rect x="135.302" y="191.699" style="fill:#F5F5F5;" width="17.209" height="24.74"/>
			<rect x="114.736" y="189.095" style="fill:#F5F5F5;" width="17.209" height="24.74"/>
			<rect x="171.417" y="136.209" style="fill:#F5F5F5;" width="10.681" height="10.681"/>
			
				<rect x="185.377" y="137.198" transform="matrix(0.9339 0.3574 -0.3574 0.9339 63.5419 -58.7493)" style="fill:#F5F5F5;" width="10.681" height="10.681"/>
			<circle style="fill:#E0E0E0;" cx="176.132" cy="137.561" r="0.626"/>
			<circle style="fill:#E0E0E0;" cx="188.428" cy="137.561" r="0.626"/>
			<path style="fill:#E0E0E0;" d="M121.901,143.165c0,0.346-0.28,0.626-0.626,0.626c-0.346,0-0.626-0.281-0.626-0.626
				c0-0.346,0.28-0.626,0.626-0.626C121.62,142.539,121.901,142.819,121.901,143.165z"/>
			<path style="fill:#E0E0E0;" d="M101.033,136.209c0,0.346-0.28,0.626-0.626,0.626c-0.346,0-0.626-0.28-0.626-0.626
				c0-0.346,0.28-0.626,0.626-0.626C100.752,135.583,101.033,135.863,101.033,136.209z"/>
			<circle style="fill:#E0E0E0;" cx="94.538" cy="193.473" r="0.626"/>
			<path style="fill:#E0E0E0;" d="M123.967,190.506c0,0.346-0.28,0.626-0.626,0.626c-0.346,0-0.626-0.28-0.626-0.626
				c0-0.346,0.28-0.626,0.626-0.626C123.686,189.879,123.967,190.16,123.967,190.506z"/>
			<path style="fill:#E0E0E0;" d="M144.532,192.846c0,0.346-0.28,0.626-0.626,0.626c-0.346,0-0.626-0.281-0.626-0.626
				s0.28-0.626,0.626-0.626C144.252,192.22,144.532,192.5,144.532,192.846z"/>
			<rect x="175.505" y="169.637" style="fill:#E0E0E0;" width="34.286" height="21.494"/>
			<rect x="168.121" y="194.099" style="fill:#E0E0E0;" width="29.934" height="23.628"/>
		</g>
		<g>
			
				<ellipse transform="matrix(0.9732 -0.2298 0.2298 0.9732 -17.8298 37.2152)" style="fill:#E0E0E0;" cx="150.897" cy="95.173" rx="14.799" ry="14.799"/>
			
				<ellipse transform="matrix(0.9871 -0.1602 0.1602 0.9871 -13.2967 25.4)" style="fill:#F0F0F0;" cx="150.897" cy="95.173" rx="12.583" ry="12.583"/>
			
				<polyline style="fill:#F0F0F0;stroke:#E0E0E0;stroke-width:2;stroke-linecap:round;stroke-linejoin:round;stroke-miterlimit:10;" points="
				151.491,86.542 151.491,95.338 157.32,92.039 			"/>
		</g>
		<g>
			<g>
				<path style="fill:#E0E0E0;" d="M90.853,363.022c0.809-1.358-0.332-3.402-1.913-3.426c0.693-1.949,0.009-4.305-1.619-5.581
					c-0.205-0.161-0.441-0.312-0.703-0.312c-0.28-0.001-0.528,0.17-0.755,0.333c-1.49,1.07-2.98,2.141-4.47,3.211
					c-0.341,0.245-0.694,0.504-0.887,0.877c-0.913,1.77,2.38,4.038,1.026,5.499c-0.389,0.419-1.015,0.506-1.5,0.809
					c-1.064,0.665-1.192,2.125-1.688,3.278c-0.496,1.152-2.224,2.047-2.886,0.981c0.488-1.105-0.989-2.058-2.19-2.198
					c-1.184-0.138-2.453-0.206-3.117-1.332c-1.703,1.488-5.515-2.664-5.428-4.338c-1.4,0.107-2.353,1.417-2.66,2.728
					c-0.318,1.36-0.121,2.778-0.143,4.173c-0.043,2.711-0.918,5.366-0.87,8.077c0.037,2.11,0.852,4.452,2.784,5.301
					c0.93,0.408,1.98,0.409,2.995,0.402c7.33-0.047,14.661-0.094,21.992-0.141c0.528-0.003,1.079-0.012,1.546-0.257
					c0.992-0.518,1.202-1.821,1.294-2.937c0.394-4.778,0.787-9.555,1.181-14.333C92.18,363.564,91.516,363.293,90.853,363.022z"/>
			</g>
			<g>
				<g>
					<path style="fill:#E6E6E6;" d="M92.137,339.777h-2.469h-6.799h-2.478H73.6h-2.478h-6.791h-2.477h-3.84l0.281,3.448l0.201,2.461
						l0.521,6.406l0.297,3.68l0.393,4.899l0.168,2.101l0.056,0.625l0.2,2.469l0.273,3.383l0.168,2.101l0.176,2.133l0.2,2.469
						l0.152,1.868l0.168,2.101l0.072,0.914h4.49h3.792h5.476h3.792h5.476h3.792h4.498l0.072-0.914l0.168-2.093l0.152-1.884
						l0.2-2.469l0.177-2.125l0.168-2.101l0.272-3.391l0.2-2.461l0.048-0.625l0.168-2.101l0.401-4.899l0.297-3.672l0.513-6.414
						l0.2-2.461l0.281-3.448H92.137z M94.189,342.038L94.189,342.038l-0.658-0.658h0.714L94.189,342.038z M94.021,344.131
						l-0.064,0.834l-3.055,3.055l-3.504-3.504l3.135-3.135h0.738L94.021,344.131z M93.139,355.051l-2.237,2.237l-3.504-3.504
						l3.504-3.496l2.421,2.421L93.139,355.051z M60.667,352.709L60.667,352.709l2.421-2.421l3.504,3.496l-3.504,3.504l-2.229-2.237
						L60.667,352.709z M89.771,349.15l-3.504,3.504l-3.504-3.504l3.504-3.504L89.771,349.15z M84.263,341.38h4.009l-2.004,2.004
						L84.263,341.38z M85.129,353.784l-3.496,3.504l-3.504-3.504l3.504-3.496L85.129,353.784z M73.496,358.418l3.504-3.496
						l3.496,3.496l-3.496,3.504L73.496,358.418z M75.861,363.052l-3.504,3.504l-3.496-3.496l3.504-3.504L75.861,363.052z
						 M81.633,359.556l3.496,3.504l-3.496,3.496l-3.504-3.504L81.633,359.556z M76.999,352.653l-3.504-3.504l3.504-3.504
						l3.496,3.504L76.999,352.653z M75.861,353.784l-3.495,3.504l-3.504-3.504l3.504-3.496L75.861,353.784z M67.723,352.653
						l-3.496-3.504l3.496-3.504l3.504,3.504L67.723,352.653z M67.723,354.922l3.504,3.496l-3.504,3.504l-3.496-3.504L67.723,354.922
						z M71.227,367.694l-3.504,3.496l-3.496-3.496l3.496-3.504L71.227,367.694z M72.357,368.825l3.504,3.504l-3.495,3.504
						l-3.504-3.504L72.357,368.825z M73.496,367.694l3.504-3.504l3.496,3.504l-3.496,3.496L73.496,367.694z M81.633,368.825
						l3.496,3.504l-3.496,3.504l-3.504-3.504L81.633,368.825z M86.268,373.459l3.504,3.504l-2.269,2.269h-2.47l-2.269-2.269
						L86.268,373.459z M82.764,367.694l3.504-3.504l3.504,3.504l-3.504,3.496L82.764,367.694z M82.764,358.418l3.504-3.496
						l3.504,3.496l-3.504,3.504L82.764,358.418z M85.129,344.516l-3.496,3.504l-3.504-3.504l3.135-3.135h0.738L85.129,344.516z
						 M76.999,343.385l-2.004-2.004h4.001L76.999,343.385z M75.861,344.516l-3.495,3.504l-3.504-3.504l3.135-3.135h0.738
						L75.861,344.516z M69.728,341.38l-2.005,2.004l-1.996-2.004H69.728z M63.458,341.38l3.135,3.135l-3.504,3.504l-3.047-3.055
						l-0.064-0.834l2.742-2.75H63.458z M60.459,341.38l-0.649,0.65v0l-0.056-0.65H60.459z M60.243,347.434l1.716,1.716l-1.459,1.459
						L60.243,347.434z M61.197,359.18l-0.136-1.66v0l0.898,0.898L61.197,359.18L61.197,359.18z M61.365,361.288l1.724-1.732
						l3.504,3.504l-3.504,3.496l-1.411-1.411L61.365,361.288z M61.886,367.767l-0.008-0.152l0.08,0.08L61.886,367.767
						L61.886,367.767z M62.495,375.231l-0.441-5.372l1.034-1.034l3.504,3.504l-3.504,3.496L62.495,375.231L62.495,375.231z
						 M62.816,379.232l-0.064-0.802l0.337-0.337l1.139,1.138H62.816z M64.227,376.963l3.496-3.504l3.504,3.504l-2.269,2.269h-2.47
						L64.227,376.963z M71.227,379.232l1.139-1.138l1.138,1.138H71.227z M75.765,379.232l-2.269-2.269l3.504-3.504l3.496,3.504
						l-2.261,2.269H75.765z M80.495,379.232l1.138-1.138l1.139,1.138H80.495z M91.175,379.232h-1.411l1.138-1.138l0.337,0.337
						L91.175,379.232z M91.503,375.231l-0.601,0.593l-3.504-3.496l3.504-3.504l1.034,1.034L91.503,375.231z M92.121,367.606
						l-0.016,0.16l-0.072-0.072L92.121,367.606L92.121,367.606z M92.321,365.145l-1.419,1.411l-3.504-3.496l3.504-3.504l1.732,1.732
						L92.321,365.145z M92.802,359.188l-0.77-0.77l0.906-0.898L92.802,359.188z M93.756,347.426l-0.257,3.191l-1.467-1.467
						L93.756,347.426L93.756,347.426z"/>
				</g>
			</g>
			<path style="fill:#F0F0F0;" d="M57.472,342.81h39.049c0.908,0,1.643-0.736,1.643-1.643v-1.177c0-0.908-0.736-1.643-1.643-1.643
				H57.472c-0.907,0-1.643,0.736-1.643,1.643v1.177C55.829,342.075,56.565,342.81,57.472,342.81z"/>
			<path style="fill:#F0F0F0;" d="M93.468,382.899H60.525c-0.908,0-1.643-0.736-1.643-1.643v-1.177c0-0.908,0.736-1.643,1.643-1.643
				h32.943c0.908,0,1.643,0.736,1.643,1.643v1.177C95.111,382.163,94.376,382.899,93.468,382.899z"/>
		</g>
		<g>
			<path style="fill:#EBEBEB;" d="M411.19,346.951l10.631-30.64c0,0-14.745,10.931-14.647-1.188
				c0.098-12.12,6.717-2.708,9.015-7.185c2.298-4.477-6.541-4.429-3.44-11.218c3.102-6.789,11.917,3.642,13.474-2.372
				c1.557-6.015,4.039-9.073,10.459-8.533c0,0,3.469,7.913-0.783,13.629c-4.253,5.716,10.519,1.137,9.018,6.888
				c-1.501,5.75-6.433,10.77-8.605,6.72c-2.172-4.05-4.929,3.71-1.216,5.708c3.713,1.998-4.854,10.658-6.734,6.119
				c-1.88-4.539-4.827-8.581-4.827-8.581l-9.797,32.782L411.19,346.951z"/>
			<path style="fill:#E6E6E6;" d="M400.233,347.222l-11.985-19.594c0,0,11.854,5.336,9.955-3.035
				c-1.899-8.371-5.057-0.859-7.324-3.609c-2.267-2.751,3.857-4.053,0.685-8.282s-7.695,4.32-9.681,0.394
				c-1.986-3.926-4.165-5.668-8.526-4.324c0,0-1.205,5.999,2.601,9.312c3.806,3.313-7.106,2.376-5.199,6.128
				c1.907,3.752,6.078,6.48,6.97,3.35c0.891-3.13,3.971,1.822,1.704,3.766c-2.267,1.943,4.969,6.641,5.584,3.216
				c0.615-3.425,2.043-6.667,2.043-6.667l11.732,21.203L400.233,347.222z"/>
			<path style="fill:#F5F5F5;" d="M408.306,347.41l-5.488-31.564c0,0,12.636,13.004,14.469,1.172
				c1.833-11.832-6.118-3.709-7.646-8.44c-1.528-4.731,7.082-3.277,5.139-10.389c-1.943-7.113-12.198,1.654-12.759-4.457
				c-0.561-6.112-2.494-9.488-8.839-9.984c0,0-4.642,7.163-1.405,13.413s-10.436-0.565-9.888,5.28
				c0.548,5.845,4.558,11.524,7.32,7.922c2.763-3.603,4.215,4.402,0.277,5.759c-3.938,1.357,3.037,11.163,5.592,7.037
				c2.555-4.126,6.072-7.598,6.072-7.598l4.335,33.52L408.306,347.41z"/>
			<g>
				<path style="fill:#EBEBEB;" d="M415.104,382.899h-18.841c-1.317,0-2.407-1.025-2.488-2.34l-1.997-32.495
					c-0.088-1.434,1.051-2.646,2.488-2.646h22.835c1.437,0,2.576,1.211,2.488,2.646l-1.997,32.495
					C417.511,381.874,416.421,382.899,415.104,382.899z"/>
				<path style="fill:#F5F5F5;" d="M419.353,349.08h-27.571c-1.266,0-2.331-0.949-2.476-2.207v0
					c-0.171-1.48,0.986-2.779,2.476-2.779h27.571c1.49,0,2.647,1.299,2.476,2.779v0C421.684,348.131,420.619,349.08,419.353,349.08z
					"/>
			</g>
		</g>
	</g>
</g>
<g id="Background_Simple" style="display:none;">
	<g style="display:inline;">
		<path style="fill:#407BFF;" d="M228.842,84.597c11.968-1.105,25.521,0.835,37.42,4.589c23.37,7.373,42.926,24.427,54.155,46.1
			c10.691,20.636,16.021,49.215,36.845,62.356c12.455,7.859,28.088,9.662,41.488,16.078c23.388,11.199,31.834,41.25,27.689,65.205
			c-4.716,27.254-26.772,39.849-51.976,45.018c-23.758,4.872-48.477,4.415-71.83,11.371c-27.414,8.166-48.428,29.921-74.177,42.125
			c-30.377,14.398-67.447,9.938-94.592-9.71c-44.569-32.259-31.272-90.269-17.728-134.942
			C133.4,175.845,163.444,90.638,228.842,84.597z"/>
		<path style="opacity:0.9;fill:#FFFFFF;" d="M228.842,84.597c11.968-1.105,25.521,0.835,37.42,4.589
			c23.37,7.373,42.926,24.427,54.155,46.1c10.691,20.636,16.021,49.215,36.845,62.356c12.455,7.859,28.088,9.662,41.488,16.078
			c23.388,11.199,31.834,41.25,27.689,65.205c-4.716,27.254-26.772,39.849-51.976,45.018c-23.758,4.872-48.477,4.415-71.83,11.371
			c-27.414,8.166-48.428,29.921-74.177,42.125c-30.377,14.398-67.447,9.938-94.592-9.71
			c-44.569-32.259-31.272-90.269-17.728-134.942C133.4,175.845,163.444,90.638,228.842,84.597z"/>
	</g>
</g>
<g id="Shadow_1_">
	<ellipse id="_x3C_Path_x3E__359_" style="fill:#F5F5F5;" cx="250" cy="416.238" rx="193.889" ry="11.323"/>
</g>
<g id="Machine">
	<g>
		<g>
			<g>
				<g>
					<path style="fill:#263238;" d="M378.093,187.539h12c0-11.782-3.687-28.92-14.078-38.445
						c-11.134-10.208-36.686-8.149-39.563-7.881l1.114,11.948c8.828-0.812,24.876-0.231,30.34,4.778
						C375.948,165.31,378.093,180.013,378.093,187.539z"/>
				</g>
				<g style="opacity:0.2;enable-background:new    ;">
					<path style="fill:#FFFFFF;" d="M378.093,187.539h12c0-11.782-3.687-28.92-14.078-38.445
						c-11.134-10.208-36.686-8.149-39.563-7.881l1.114,11.948c8.828-0.812,24.876-0.231,30.34,4.778
						C375.948,165.31,378.093,180.013,378.093,187.539z"/>
				</g>
				<g>
					<g>
						<polygon style="fill:#263238;" points="378.093,187.539 390.093,187.539 390.091,186.988 378.091,187.093 						"/>
					</g>
					<g>
						<path style="fill:#263238;" d="M377.735,181.624l11.923-1.362c0.042,0.374,0.082,0.744,0.118,1.11l-11.942,1.17
							C377.803,182.24,377.77,181.934,377.735,181.624z M376.847,176.145l11.742-2.472c0.077,0.364,0.15,0.728,0.221,1.089
							l-11.779,2.29C376.972,176.752,376.91,176.449,376.847,176.145z M375.447,170.85l11.418-3.691
							c0.116,0.359,0.229,0.719,0.337,1.079l-11.485,3.477C375.63,171.425,375.54,171.138,375.447,170.85z M373.498,165.882
							l10.848-5.13c0.165,0.348,0.326,0.699,0.483,1.052l-10.964,4.879C373.745,166.415,373.623,166.148,373.498,165.882z
							 M370.959,161.461l9.833-6.878c0.23,0.329,0.456,0.662,0.676,0.999l-10.042,6.569
							C371.273,161.919,371.117,161.689,370.959,161.461z M367.861,157.898l8.006-8.94l0.145,0.131
							c0.273,0.25,0.542,0.505,0.806,0.765l-8.426,8.545C368.234,158.244,368.074,158.092,367.861,157.898z M364.337,155.796
							l4.656-11.06c0.393,0.166,0.78,0.338,1.16,0.517l-5.114,10.855C364.809,156,364.575,155.896,364.337,155.796z
							 M359.514,154.298l2.644-11.705c0.38,0.086,0.758,0.176,1.133,0.27l-2.927,11.638
							C360.083,154.43,359.8,154.362,359.514,154.298z M354.122,153.399l1.363-11.922c0.371,0.042,0.742,0.088,1.113,0.137
							l-1.563,11.897C354.731,153.472,354.427,153.434,354.122,153.399z M348.462,152.966l0.488-11.99
							c0.356,0.015,0.718,0.031,1.082,0.05l-0.614,11.984C349.096,152.993,348.778,152.979,348.462,152.966z M342.476,140.913
							l1.068-0.016l0.134,11.999l-0.97,0.015L342.476,140.913z"/>
					</g>
					<g>
						<polygon style="fill:#263238;" points="337.566,153.161 337.967,153.128 337.039,141.164 336.452,141.213 						"/>
					</g>
				</g>
			</g>
			<g>
				<g>
					<path style="fill:#263238;" d="M260.452,187.539h-12c0-11.782,3.687-28.92,14.078-38.445
						c11.134-10.208,36.686-8.149,39.563-7.881l-1.114,11.948c-8.828-0.812-24.875-0.231-30.34,4.778
						C262.597,165.31,260.452,180.013,260.452,187.539z"/>
				</g>
				<g style="opacity:0.2;enable-background:new    ;">
					<path style="fill:#FFFFFF;" d="M260.452,187.539h-12c0-11.782,3.687-28.92,14.078-38.445
						c11.134-10.208,36.686-8.149,39.563-7.881l-1.114,11.948c-8.828-0.812-24.875-0.231-30.34,4.778
						C262.597,165.31,260.452,180.013,260.452,187.539z"/>
				</g>
				<g>
					<g>
						<polygon style="fill:#263238;" points="260.452,187.539 248.452,187.539 248.454,186.988 260.454,187.093 						"/>
					</g>
					<g>
						<path style="fill:#263238;" d="M260.712,182.542l-11.942-1.17c0.036-0.366,0.075-0.736,0.118-1.11l11.923,1.362
							C260.775,181.934,260.742,182.24,260.712,182.542z M261.514,177.053l-11.779-2.29c0.07-0.362,0.144-0.725,0.221-1.089
							l11.742,2.472C261.634,176.449,261.573,176.752,261.514,177.053z M262.828,171.714l-11.485-3.477
							c0.109-0.36,0.221-0.72,0.337-1.079l11.418,3.691C263.005,171.138,262.915,171.425,262.828,171.714z M264.68,166.683
							l-10.964-4.879c0.157-0.352,0.318-0.704,0.483-1.052l10.848,5.13C264.922,166.148,264.8,166.415,264.68,166.683z
							 M267.119,162.152l-10.042-6.569c0.22-0.337,0.446-0.67,0.676-0.999l9.833,6.878
							C267.427,161.689,267.272,161.919,267.119,162.152z M270.154,158.399l-8.426-8.545c0.264-0.26,0.533-0.515,0.806-0.765
							l0.145-0.131l8.006,8.94C270.471,158.092,270.311,158.244,270.154,158.399z M273.506,156.108l-5.114-10.855
							c0.379-0.179,0.767-0.351,1.16-0.517l4.656,11.06C273.97,155.896,273.736,156,273.506,156.108z M278.181,154.501
							l-2.927-11.638c0.375-0.094,0.753-0.185,1.133-0.27l2.644,11.705C278.745,154.362,278.462,154.43,278.181,154.501z
							 M283.509,153.512l-1.563-11.897c0.372-0.049,0.743-0.095,1.113-0.137l1.363,11.922
							C284.118,153.434,283.814,153.472,283.509,153.512z M289.127,153.01l-0.614-11.984c0.364-0.019,0.725-0.035,1.082-0.05
							l0.488,11.99C289.767,152.979,289.449,152.993,289.127,153.01z M295.837,152.911l-0.97-0.015l0.134-11.999l1.068,0.016
							L295.837,152.911z"/>
					</g>
					<g>
						<polygon style="fill:#263238;" points="300.979,153.161 300.578,153.128 301.506,141.164 302.093,141.213 						"/>
					</g>
				</g>
			</g>
			<g>
				<path style="fill:#407BFF;" d="M254.219,185.033L254.219,185.033c-16.97,0-30.727,13.757-30.727,30.727v22.574h61.454V215.76
					C284.945,198.79,271.189,185.033,254.219,185.033z"/>
				<path style="opacity:0.8;fill:#FFFFFF;" d="M254.219,185.033L254.219,185.033c-16.97,0-30.727,13.757-30.727,30.727v22.574
					h61.454V215.76C284.945,198.79,271.189,185.033,254.219,185.033z"/>
			</g>
			<g>
				<rect x="223.067" y="240.626" style="fill:#263238;" width="62.303" height="178.557"/>
				<rect x="223.067" y="240.626" style="opacity:0.4;fill:#FFFFFF;enable-background:new    ;" width="62.303" height="178.557"/>
				<path style="fill:#263238;" d="M286.776,243h-65.114c-1.289,0-2.333-1.045-2.333-2.333l0,0c0-1.288,1.045-2.333,2.333-2.333
					h65.114c1.289,0,2.333,1.045,2.333,2.333l0,0C289.109,241.955,288.064,243,286.776,243z"/>
				<path style="opacity:0.2;fill:#FFFFFF;enable-background:new    ;" d="M286.776,243h-65.114c-1.289,0-2.333-1.045-2.333-2.333
					l0,0c0-1.288,1.045-2.333,2.333-2.333h65.114c1.289,0,2.333,1.045,2.333,2.333l0,0C289.109,241.955,288.064,243,286.776,243z"/>
			</g>
			<g>
				<path style="fill:#407BFF;" d="M271.99,204.454v23.523c0,1.339-0.983,2.441-2.263,2.628c-0.127,0.025-0.263,0.034-0.398,0.034
					h-30.22c-1.467,0-2.662-1.187-2.662-2.662v-23.523c0-0.415,0.093-0.814,0.271-1.161c0.424-0.89,1.339-1.509,2.391-1.509h11.842
					c0.577,0,1.119-0.186,1.568-0.509c0.441-0.314,0.788-0.771,0.966-1.322c0.364-1.102,1.382-1.839,2.535-1.839h6.307
					c1.153,0,2.179,0.737,2.535,1.839c0.356,1.093,1.382,1.831,2.534,1.831h1.933C270.795,201.784,271.99,202.979,271.99,204.454z"
					/>
				<path style="opacity:0.3;fill:#FFFFFF;enable-background:new    ;" d="M269.727,205.565v25.04
					c-0.013,0.013-0.021,0.021-0.034,0.034h-30.584c-1.467,0-2.662-1.187-2.662-2.662v-23.523c0-0.415,0.093-0.814,0.271-1.161
					h30.736C268.709,203.293,269.727,204.31,269.727,205.565z"/>
			</g>
			<path style="fill:#263238;" d="M263.974,186.988h-19.512c-0.616,0-1.115-0.499-1.115-1.115v0c0-0.616,0.499-1.115,1.115-1.115
				h19.512c0.616,0,1.115,0.499,1.115,1.115v0C265.09,186.489,264.59,186.988,263.974,186.988z"/>
			<g>
				<path style="fill:#407BFF;" d="M384.219,185.033L384.219,185.033c-16.97,0-30.727,13.757-30.727,30.727v22.574h61.454V215.76
					C414.945,198.79,401.189,185.033,384.219,185.033z"/>
				<path style="opacity:0.8;fill:#FFFFFF;" d="M384.219,185.033L384.219,185.033c-16.97,0-30.727,13.757-30.727,30.727v22.574
					h61.454V215.76C414.945,198.79,401.189,185.033,384.219,185.033z"/>
			</g>
			<g>
				<rect x="353.067" y="240.626" style="fill:#263238;" width="62.303" height="178.557"/>
				<rect x="353.07" y="240.63" style="opacity:0.4;fill:#FFFFFF;enable-background:new    ;" width="62.3" height="178.55"/>
				<path style="fill:#263238;" d="M416.776,243h-65.114c-1.289,0-2.333-1.045-2.333-2.333l0,0c0-1.288,1.045-2.333,2.333-2.333
					h65.114c1.289,0,2.333,1.045,2.333,2.333l0,0C419.109,241.955,418.064,243,416.776,243z"/>
				<path style="opacity:0.2;fill:#FFFFFF;enable-background:new    ;" d="M416.776,243h-65.114c-1.289,0-2.333-1.045-2.333-2.333
					l0,0c0-1.288,1.045-2.333,2.333-2.333h65.114c1.289,0,2.333,1.045,2.333,2.333l0,0C419.109,241.955,418.064,243,416.776,243z"/>
			</g>
			<g>
				<path style="fill:#407BFF;" d="M401.99,204.454v23.523c0,1.339-0.983,2.441-2.263,2.628c-0.127,0.025-0.263,0.034-0.398,0.034
					h-30.22c-1.466,0-2.662-1.187-2.662-2.662v-23.523c0-0.415,0.093-0.814,0.271-1.161c0.424-0.89,1.339-1.509,2.391-1.509h11.842
					c0.577,0,1.119-0.186,1.568-0.509c0.441-0.314,0.788-0.771,0.966-1.322c0.364-1.102,1.382-1.839,2.535-1.839h6.307
					c1.153,0,2.179,0.737,2.535,1.839c0.356,1.093,1.382,1.831,2.534,1.831h1.933C400.795,201.784,401.99,202.979,401.99,204.454z"
					/>
				<path style="opacity:0.5;fill:#FFFFFF;" d="M401.99,204.454v23.523c0,1.339-0.983,2.441-2.263,2.628
					c-0.127,0.025-0.263,0.034-0.398,0.034h-30.22c-1.466,0-2.662-1.187-2.662-2.662v-23.523c0-0.415,0.093-0.814,0.271-1.161
					c0.424-0.89,1.339-1.509,2.391-1.509h11.842c0.577,0,1.119-0.186,1.568-0.509c0.441-0.314,0.788-0.771,0.966-1.322
					c0.364-1.102,1.382-1.839,2.535-1.839h6.307c1.153,0,2.179,0.737,2.535,1.839c0.356,1.093,1.382,1.831,2.534,1.831h1.933
					C400.795,201.784,401.99,202.979,401.99,204.454z"/>
				<g>
					<g>
						
							<path style="fill:none;stroke:#407BFF;stroke-width:0.5;stroke-linecap:round;stroke-linejoin:round;stroke-dasharray:3.0581,2.0387;" d="
							M401.99,204.454v23.523c0,1.339-0.983,2.441-2.263,2.628c-0.127,0.025-0.263,0.034-0.398,0.034h-30.22
							c-1.466,0-2.662-1.187-2.662-2.662v-23.523c0-0.415,0.093-0.814,0.271-1.161c0.424-0.89,1.339-1.509,2.39-1.509h11.842
							c0.576,0,1.119-0.186,1.568-0.509c0.441-0.314,0.788-0.771,0.966-1.322c0.365-1.102,1.382-1.84,2.535-1.84h6.307
							c1.153,0,2.179,0.738,2.535,1.84c0.356,1.093,1.382,1.831,2.535,1.831h1.933C400.795,201.784,401.99,202.979,401.99,204.454z"
							/>
					</g>
					
						<path style="fill:none;stroke:#407BFF;stroke-width:0.5;stroke-linecap:round;stroke-linejoin:round;stroke-miterlimit:10;stroke-dasharray:3,2;" d="
						M399.727,205.565v25.04c-0.013,0.013-0.021,0.021-0.034,0.034h-30.584c-1.466,0-2.662-1.187-2.662-2.662v-23.523
						c0-0.415,0.093-0.814,0.271-1.161h30.736C398.709,203.293,399.727,204.31,399.727,205.565z"/>
				</g>
				<path style="opacity:0.3;fill:#FFFFFF;enable-background:new    ;" d="M399.727,205.565v25.04
					c-0.013,0.013-0.021,0.021-0.034,0.034h-30.584c-1.466,0-2.662-1.187-2.662-2.662v-23.523c0-0.415,0.093-0.814,0.271-1.161
					h30.736C398.709,203.293,399.727,204.31,399.727,205.565z"/>
			</g>
			<path style="fill:#263238;" d="M393.974,186.988h-19.512c-0.616,0-1.115-0.499-1.115-1.115v0c0-0.616,0.499-1.115,1.115-1.115
				h19.512c0.616,0,1.115,0.499,1.115,1.115v0C395.09,186.489,394.59,186.988,393.974,186.988z"/>
			<g>
				<path style="opacity:0.3;fill:#FFFFFF;enable-background:new    ;" d="M402.47,259.943h-36.339
					c-2.411,0-4.366-1.955-4.366-4.366l0,0c0-2.411,1.955-4.366,4.366-4.366h36.339c2.411,0,4.366,1.955,4.366,4.366l0,0
					C406.836,257.989,404.881,259.943,402.47,259.943z"/>
				<g>
					<path style="fill:#263238;" d="M365.263,253.911h1.527c1.2,0,2.008,0.771,2.008,1.874c0,1.104-0.809,1.875-2.008,1.875h-1.527
						V253.911z M366.768,257.317c0.996,0,1.639-0.632,1.639-1.532c0-0.9-0.643-1.531-1.639-1.531h-1.109v3.064H366.768z"/>
					<path style="fill:#263238;" d="M369.66,256.059v-2.147h0.396v2.132c0,0.889,0.418,1.296,1.146,1.296
						c0.733,0,1.151-0.407,1.151-1.296v-2.132h0.386v2.147c0,1.077-0.579,1.634-1.537,1.634
						C370.243,257.692,369.66,257.136,369.66,256.059z"/>
					<path style="fill:#263238;" d="M376.873,255.196c0,0.798-0.578,1.28-1.532,1.28h-1.007v1.184h-0.397v-3.749h1.403
						C376.295,253.911,376.873,254.394,376.873,255.196z M376.477,255.196c0-0.6-0.397-0.942-1.147-0.942h-0.996v1.874h0.996
						C376.081,256.128,376.477,255.785,376.477,255.196z"/>
					<path style="fill:#263238;" d="M377.734,253.911h0.396v3.406h2.1v0.343h-2.496V253.911z"/>
					<path style="fill:#263238;" d="M380.893,253.911h0.396v3.749h-0.396V253.911z"/>
					<path style="fill:#263238;" d="M382.18,255.785c0-1.098,0.835-1.906,1.966-1.906c0.546,0,1.039,0.182,1.371,0.546l-0.252,0.252
						c-0.305-0.311-0.68-0.444-1.108-0.444c-0.905,0-1.585,0.664-1.585,1.553c0,0.89,0.68,1.554,1.585,1.554
						c0.428,0,0.803-0.134,1.108-0.45l0.252,0.252c-0.332,0.364-0.825,0.552-1.376,0.552
						C383.015,257.692,382.18,256.884,382.18,255.785z"/>
					<path style="fill:#263238;" d="M388.622,256.658h-2.089l-0.45,1.002h-0.413l1.714-3.749h0.391l1.714,3.749h-0.418
						L388.622,256.658z M388.478,256.337l-0.9-2.014l-0.9,2.014H388.478z"/>
					<path style="fill:#263238;" d="M390.656,254.254h-1.317v-0.343h3.031v0.343h-1.317v3.406h-0.396V254.254z"/>
					<path style="fill:#263238;" d="M395.656,257.317v0.343h-2.651v-3.749h2.571v0.343h-2.174v1.334h1.939v0.337h-1.939v1.393
						H395.656z"/>
					<path style="fill:#263238;" d="M398.704,253.911v3.749h-0.385v-3.406h-0.884v-0.343H398.704z"/>
					<path style="fill:#263238;" d="M399.605,257.393c0-0.166,0.129-0.289,0.284-0.289c0.155,0,0.289,0.123,0.289,0.289
						c0,0.166-0.134,0.294-0.289,0.294C399.734,257.686,399.605,257.559,399.605,257.393z"/>
					<path style="fill:#263238;" d="M400.678,255.785c0-1.194,0.627-1.906,1.495-1.906c0.868,0,1.5,0.712,1.5,1.906
						c0,1.194-0.632,1.907-1.5,1.907C401.305,257.692,400.678,256.979,400.678,255.785z M403.275,255.785
						c0-1.001-0.45-1.553-1.103-1.553c-0.654,0-1.104,0.552-1.104,1.553c0,1.002,0.45,1.554,1.104,1.554
						C402.826,257.339,403.275,256.787,403.275,255.785z"/>
				</g>
			</g>
			<g>
				<path style="opacity:0.3;fill:#FFFFFF;enable-background:new    ;" d="M272.795,259.943h-36.339
					c-2.411,0-4.366-1.955-4.366-4.366l0,0c0-2.411,1.954-4.366,4.366-4.366h36.339c2.411,0,4.366,1.955,4.366,4.366l0,0
					C277.161,257.989,275.206,259.943,272.795,259.943z"/>
				<g>
					<path style="fill:#263238;" d="M247.755,253.911v3.749h-0.38v-2.999l-1.473,2.522h-0.188l-1.473-2.507v2.983h-0.38v-3.749
						h0.327l1.628,2.779l1.612-2.779H247.755z"/>
					<path style="fill:#263238;" d="M251.333,256.658h-2.089l-0.45,1.002h-0.413l1.714-3.749h0.391l1.714,3.749h-0.418
						L251.333,256.658z M251.189,256.337l-0.9-2.014l-0.9,2.014H251.189z"/>
					<path style="fill:#263238;" d="M252.468,257.205l0.155-0.306c0.268,0.263,0.744,0.455,1.237,0.455
						c0.702,0,1.007-0.294,1.007-0.664c0-1.028-2.309-0.396-2.309-1.783c0-0.552,0.428-1.028,1.382-1.028
						c0.423,0,0.862,0.123,1.162,0.332l-0.134,0.316c-0.321-0.209-0.696-0.311-1.028-0.311c-0.686,0-0.991,0.305-0.991,0.68
						c0,1.028,2.308,0.407,2.308,1.772c0,0.552-0.439,1.023-1.398,1.023C253.298,257.692,252.746,257.494,252.468,257.205z"/>
					<path style="fill:#263238;" d="M256.799,254.254h-1.317v-0.343h3.031v0.343h-1.317v3.406h-0.397V254.254z"/>
					<path style="fill:#263238;" d="M261.799,257.317v0.343h-2.651v-3.749h2.571v0.343h-2.174v1.334h1.939v0.337h-1.939v1.393
						H261.799z"/>
					<path style="fill:#263238;" d="M265.295,257.66l-0.857-1.205c-0.096,0.011-0.192,0.016-0.3,0.016h-1.007v1.189h-0.396v-3.749
						h1.403c0.954,0,1.532,0.482,1.532,1.285c0,0.589-0.31,1.002-0.857,1.179l0.916,1.285H265.295z M265.274,255.196
						c0-0.6-0.396-0.942-1.146-0.942h-0.996v1.88h0.996C264.877,256.134,265.274,255.785,265.274,255.196z"/>
				</g>
			</g>
			<rect x="235.044" y="339.176" style="opacity:0.2;enable-background:new    ;" width="39.164" height="62.032"/>
			<rect x="365.044" y="339.176" style="opacity:0.2;enable-background:new    ;" width="39.164" height="62.032"/>
			<g>
				<path style="fill:#407BFF;" d="M404.516,228.963c0,2.627-2.13,4.757-4.757,4.757c-2.627,0-4.757-2.13-4.757-4.757
					c0-2.627,2.13-4.757,4.757-4.757C402.386,224.206,404.516,226.336,404.516,228.963z"/>
				
					<line style="fill:none;stroke:#FFFFFF;stroke-linecap:round;stroke-linejoin:round;stroke-miterlimit:10;" x1="399.759" y1="226.441" x2="399.759" y2="231.485"/>
				
					<line style="fill:none;stroke:#FFFFFF;stroke-linecap:round;stroke-linejoin:round;stroke-miterlimit:10;" x1="402.28" y1="228.963" x2="397.237" y2="228.963"/>
			</g>
		</g>
		<g>
			<polygon style="fill:#263238;" points="339.483,133.066 334.667,133.066 334.667,120.604 339.483,123.604 			"/>
			<path style="fill:#263238;" d="M345.878,419.184h-53.407V133.528c0-1.827,1.481-3.308,3.308-3.308h46.79
				c1.827,0,3.308,1.481,3.308,3.308V419.184z"/>
			<path style="opacity:0.4;fill:#FFFFFF;enable-background:new    ;" d="M345.878,419.184h-53.407V133.528
				c0-1.827,1.481-3.308,3.308-3.308h46.79c1.827,0,3.308,1.481,3.308,3.308V419.184z"/>
			<g>
				<path style="opacity:0.8;fill:#FFFFFF;" d="M315.012,147.194c0,3.157-2.56,5.717-5.717,5.717c-3.157,0-5.717-2.56-5.717-5.717
					c0-3.157,2.56-5.717,5.717-5.717C312.452,141.477,315.012,144.037,315.012,147.194z"/>
				<circle style="opacity:0.8;fill:#FFFFFF;" cx="309.294" cy="147.194" r="4.071"/>
				<rect x="319.181" y="144.736" style="fill:#FFFFFF;" width="2.426" height="2.426"/>
				<rect x="323.569" y="144.736" style="fill:#FFFFFF;" width="2.426" height="2.426"/>
				<rect x="327.957" y="144.736" style="fill:#FFFFFF;" width="2.426" height="2.426"/>
				<rect x="332.345" y="144.736" style="fill:#FFFFFF;" width="2.426" height="2.426"/>
				<rect x="319.181" y="148.736" style="fill:#FFFFFF;" width="2.426" height="2.426"/>
				<rect x="323.569" y="148.736" style="fill:#FFFFFF;" width="2.426" height="2.426"/>
				<rect x="327.957" y="148.736" style="fill:#FFFFFF;" width="2.426" height="2.426"/>
				<rect x="332.345" y="148.736" style="fill:#FFFFFF;" width="2.426" height="2.426"/>
				<path style="opacity:0.2;enable-background:new    ;" d="M312.94,179.088h-7.912c-0.801,0-1.451-0.649-1.451-1.451v-14.901
					c0-0.801,0.649-1.451,1.451-1.451h7.912c0.801,0,1.451,0.649,1.451,1.451v14.901
					C314.391,178.439,313.741,179.088,312.94,179.088z"/>
				<path style="opacity:0.2;enable-background:new    ;" d="M320.466,179.088L320.466,179.088c-0.67,0-1.213-0.543-1.213-1.213
					v-15.376c0-0.67,0.543-1.213,1.213-1.213l0,0c0.67,0,1.213,0.543,1.213,1.213v15.376
					C321.68,178.545,321.136,179.088,320.466,179.088z"/>
				<circle style="fill:#FFFFFF;" cx="320.466" cy="166.115" r="0.808"/>
				<path style="opacity:0.2;enable-background:new    ;" d="M324.782,179.088L324.782,179.088c-0.67,0-1.213-0.543-1.213-1.213
					v-15.376c0-0.67,0.543-1.213,1.213-1.213l0,0c0.67,0,1.213,0.543,1.213,1.213v15.376
					C325.995,178.545,325.452,179.088,324.782,179.088z"/>
				<circle style="fill:#FFFFFF;" cx="324.782" cy="176.115" r="0.808"/>
				<path style="opacity:0.2;enable-background:new    ;" d="M329.098,179.088L329.098,179.088c-0.67,0-1.213-0.543-1.213-1.213
					v-15.376c0-0.67,0.543-1.213,1.213-1.213l0,0c0.67,0,1.213,0.543,1.213,1.213v15.376
					C330.311,178.545,329.767,179.088,329.098,179.088z"/>
				<circle style="fill:#FFFFFF;" cx="329.098" cy="169.115" r="0.808"/>
				<path style="opacity:0.2;enable-background:new    ;" d="M333.413,179.088L333.413,179.088c-0.67,0-1.213-0.543-1.213-1.213
					v-15.376c0-0.67,0.543-1.213,1.213-1.213l0,0c0.67,0,1.213,0.543,1.213,1.213v15.376
					C334.626,178.545,334.083,179.088,333.413,179.088z"/>
				<circle style="fill:#FFFFFF;" cx="333.413" cy="166.115" r="0.808"/>
				<rect x="303.578" y="189.769" style="opacity:0.3;fill:#FFFFFF;enable-background:new    ;" width="22.012" height="14.374"/>
				<path style="opacity:0.3;fill:#FFFFFF;enable-background:new    ;" d="M332.2,191.724c0,1.08-0.875,1.955-1.955,1.955
					c-1.08,0-1.955-0.875-1.955-1.955c0-1.08,0.875-1.955,1.955-1.955C331.325,189.769,332.2,190.645,332.2,191.724z"/>
			</g>
			<g>
				<path style="fill:#407BFF;" d="M346.517,105.67c0-3.004-2.435-5.44-5.44-5.44c-2.998,0-5.43,2.426-5.439,5.423
					c-0.418-0.298-0.927-0.478-1.48-0.478c-1.413,0-2.559,1.146-2.559,2.559c0,1.173,0.794,2.15,1.869,2.453
					c-0.33,0.63-0.534,1.336-0.534,2.097c0,2.513,2.037,4.549,4.549,4.549c2.513,0,4.55-2.037,4.55-4.549
					c0-0.431-0.079-0.839-0.191-1.234C344.483,110.677,346.517,108.414,346.517,105.67z"/>
				<path style="opacity:0.8;fill:#FFFFFF;" d="M346.517,105.67c0-3.004-2.435-5.44-5.44-5.44c-2.998,0-5.43,2.426-5.439,5.423
					c-0.418-0.298-0.927-0.478-1.48-0.478c-1.413,0-2.559,1.146-2.559,2.559c0,1.173,0.794,2.15,1.869,2.453
					c-0.33,0.63-0.534,1.336-0.534,2.097c0,2.513,2.037,4.549,4.549,4.549c2.513,0,4.55-2.037,4.55-4.549
					c0-0.431-0.079-0.839-0.191-1.234C344.483,110.677,346.517,108.414,346.517,105.67z"/>
			</g>
			<path style="opacity:0.2;enable-background:new    ;" d="M319.174,403.519L319.174,403.519c-9.612,0-17.404-7.792-17.404-17.404
				V269.123c0-9.612,7.792-17.404,17.404-17.404l0,0c9.612,0,17.404,7.792,17.404,17.404v116.991
				C336.578,395.727,328.786,403.519,319.174,403.519z"/>
		</g>
		<polygon style="opacity:0.2;enable-background:new    ;" points="415.37,419.18 353.07,419.18 353.07,353.78 		"/>
		<rect x="223.067" y="290.166" style="opacity:0.2;enable-background:new    ;" width="62.303" height="129.018"/>
		<polygon style="opacity:0.2;enable-background:new    ;" points="292.471,290.166 292.471,419.184 345.878,419.184 
			345.878,346.232 		"/>
	</g>
</g>
<g id="Table">
	<g>
		<path style="fill:#407BFF;" d="M222.282,288.403H198.04v-0.935h5.475c0.761,0,1.406-0.554,1.538-1.298l2.448-14.581l0.48-2.87
			h8.304l7.427,17.526C224.143,287.27,223.39,288.403,222.282,288.403z"/>
		<path style="opacity:0.4;fill:#FFFFFF;enable-background:new    ;" d="M222.282,288.403H198.04v-0.935h5.475
			c0.761,0,1.406-0.554,1.538-1.298l2.448-14.581l0.48-2.87h8.304l7.427,17.526C224.143,287.27,223.39,288.403,222.282,288.403z"/>
		<path style="opacity:0.2;enable-background:new    ;" d="M222.315,287.469h-18.799c0.761,0,1.406-0.554,1.538-1.298l2.448-14.581
			h8.701l6.617,15.111C222.976,287.055,222.712,287.469,222.315,287.469z"/>
		<g>
			<path style="fill:#407BFF;" d="M235.317,274.092H186.83c-0.484,0-0.803-0.393-0.711-0.877l6.888-36.431
				c0.092-0.484,0.559-0.877,1.043-0.877h48.488c0.484,0,0.803,0.393,0.711,0.877l-6.888,36.431
				C236.269,273.699,235.802,274.092,235.317,274.092z"/>
			<path style="opacity:0.4;fill:#FFFFFF;enable-background:new    ;" d="M235.317,274.092H186.83c-0.484,0-0.803-0.393-0.711-0.877
				l6.888-36.431c0.092-0.484,0.559-0.877,1.043-0.877h48.488c0.484,0,0.803,0.393,0.711,0.877l-6.888,36.431
				C236.269,273.699,235.802,274.092,235.317,274.092z"/>
			<path style="fill:#263238;" d="M234.317,274.092H185.83c-0.484,0-0.803-0.393-0.711-0.877l6.888-36.431
				c0.092-0.484,0.559-0.877,1.043-0.877h48.488c0.484,0,0.803,0.393,0.711,0.877l-6.888,36.431
				C235.269,273.699,234.802,274.092,234.317,274.092z"/>
			<polygon style="fill:#407BFF;" points="233.674,271.858 187.318,271.858 193.693,238.14 240.049,238.14 			"/>
		</g>
		<g>
			<g>
				<path style="opacity:0.4;fill:#FFFFFF;enable-background:new    ;" d="M225.36,262.214h-27.988c-0.996,0-1.996,0.734-2.233,1.64
					c-0.237,0.906,0.379,1.64,1.376,1.64h27.988c0.997,0,1.997-0.734,2.233-1.64C226.973,262.948,226.357,262.214,225.36,262.214z"
					/>
				<path style="fill:#FFFFFF;" d="M196.634,265.039c-0.719,0-1.166-0.531-0.995-1.186c0.171-0.654,0.895-1.186,1.614-1.186h19.988
					c0.719,0,1.166,0.532,0.995,1.186c-0.171,0.654-0.895,1.186-1.615,1.186H196.634z"/>
			</g>
			<path style="opacity:0.4;fill:#FFFFFF;enable-background:new    ;" d="M210.864,243.076l-0.333,1.72h-3.59l-2.733,14.128h11.685
				l0.524-2.711h2.59l2.541-13.137H210.864z M215.085,257.933H205.4l2.35-12.146h2.59l-2.017,10.426h7.095L215.085,257.933z
				 M217.365,249.769h-2.022l-0.388,2.004c-0.053,0.274-0.32,0.496-0.596,0.496c-0.276,0-0.457-0.222-0.404-0.496l0.388-2.004
				h-2.022c-0.276,0-0.457-0.222-0.404-0.496c0.053-0.274,0.319-0.496,0.596-0.496h2.022l0.388-2.005
				c0.053-0.274,0.319-0.496,0.596-0.496c0.276,0,0.457,0.222,0.404,0.496l-0.388,2.005h2.022c0.276,0,0.457,0.222,0.404,0.496
				C217.908,249.548,217.642,249.769,217.365,249.769z"/>
		</g>
	</g>
	<g>
		<path style="fill:#407BFF;" d="M152.872,288.403v-1.137l18.666-3.771h36.503c1.355,0,2.453,1.098,2.453,2.453l0,0
			c0,1.355-1.098,2.453-2.453,2.453L152.872,288.403z"/>
		<path style="opacity:0.4;fill:#FFFFFF;enable-background:new    ;" d="M210.49,285.95c0,0.67-0.27,1.29-0.71,1.73
			c-0.45,0.44-1.06,0.72-1.74,0.72h-55.17v-1.13l18.67-3.78h36.5C209.4,283.49,210.49,284.59,210.49,285.95z"/>
		<path style="opacity:0.4;fill:#FFFFFF;enable-background:new    ;" d="M210.49,285.95c0,0.67-0.27,1.29-0.71,1.73
			c-0.45,0.44-1.06,0.72-1.74,0.72h-22.17v-1.13l18.67-3.78h3.5C209.4,283.49,210.49,284.59,210.49,285.95z"/>
	</g>
	<g>
		<g>
			<polygon style="fill:#263238;" points="223.835,419.184 228.83,419.184 237.804,294.242 231.178,294.242 			"/>
			<polygon style="opacity:0.1;fill:#FFFFFF;enable-background:new    ;" points="223.832,419.184 228.83,419.184 237.366,300.448 
				237.806,294.443 231.178,294.443 230.819,300.448 			"/>
			<polygon style="opacity:0.2;enable-background:new    ;" points="230.819,300.15 237.366,300.15 237.806,294.443 
				231.178,294.443 			"/>
		</g>
		<g>
			<polygon style="fill:#263238;" points="187.18,419.184 192.175,419.184 192.991,294.242 186.365,294.242 			"/>
			<polygon style="opacity:0.1;fill:#FFFFFF;enable-background:new    ;" points="186.361,294.443 186.492,314.601 187.176,419.184 
				192.174,419.184 192.859,314.601 192.989,294.443 			"/>
			<polygon style="opacity:0.2;enable-background:new    ;" points="186.361,294.443 186.492,314.826 192.859,314.826 
				192.989,294.443 			"/>
		</g>
		<g>
			<polygon style="fill:#263238;" points="134.153,419.184 139.147,419.184 148.121,294.242 141.495,294.242 			"/>
			<polygon style="opacity:0.1;fill:#FFFFFF;enable-background:new    ;" points="134.15,419.184 139.147,419.184 147.683,300.448 
				148.124,294.443 141.495,294.443 141.136,300.448 			"/>
			<polygon style="opacity:0.2;enable-background:new    ;" points="141.136,300.15 147.683,300.15 148.124,294.443 
				141.495,294.443 			"/>
		</g>
		<g>
			<polygon style="fill:#263238;" points="280.973,419.184 285.967,419.184 278.625,294.242 271.999,294.242 			"/>
			<polygon style="opacity:0.1;fill:#FFFFFF;enable-background:new    ;" points="272,294.443 272.44,300.448 280.976,419.184 
				285.966,419.184 278.987,300.448 278.628,294.443 			"/>
			<polygon style="opacity:0.2;enable-background:new    ;" points="278.628,294.443 272,294.443 272.44,300.15 278.987,300.15 			
				"/>
		</g>
		<g>
			<path style="fill:#407BFF;" d="M138.405,297.371h143.311c1.194,0,2.162-0.968,2.162-2.162v-4.096H136.242v4.096
				C136.242,296.403,137.21,297.371,138.405,297.371z"/>
			<path style="opacity:0.4;fill:#FFFFFF;enable-background:new    ;" d="M138.405,297.371h143.311c1.194,0,2.162-0.968,2.162-2.162
				v-4.096H136.242v4.096C136.242,296.403,137.21,297.371,138.405,297.371z"/>
		</g>
		
			<rect x="136.242" y="291.113" transform="matrix(-1 -1.224647e-16 1.224647e-16 -1 420.12 585.355)" style="opacity:0.2;enable-background:new    ;" width="147.635" height="3.129"/>
		<g>
			<path style="fill:#407BFF;" d="M133.147,291.929h153.827c0.974,0,1.763-0.789,1.763-1.763l0,0c0-0.974-0.789-1.763-1.763-1.763
				H133.147c-0.974,0-1.763,0.789-1.763,1.763l0,0C131.384,291.14,132.173,291.929,133.147,291.929z"/>
			<path style="opacity:0.4;fill:#FFFFFF;enable-background:new    ;" d="M133.147,291.929h153.827c0.974,0,1.763-0.789,1.763-1.763
				l0,0c0-0.974-0.789-1.763-1.763-1.763H133.147c-0.974,0-1.763,0.789-1.763,1.763l0,0
				C131.384,291.14,132.173,291.929,133.147,291.929z"/>
		</g>
	</g>
</g>
<g id="Character">
	<g id="_x3C_Group_x3E__11_">
		<path style="fill:#EBB376;" d="M144.822,281.876l6.989,1.047c0,0,2.374-0.784,4.879-1.047c2.505-0.264,5.407,0,5.407,0
			s3.165,1.187,3.165,4.22c0,0-7.385,1.978-10.22,0.791l-10.22-0.791V281.876z"/>
		<g>
			<path style="fill:#407BFF;" d="M128.236,255.225c4.35,4.497,7.317,21.904,8.109,23.091s15.824,3.363,15.824,3.363
				s1.582,3.287,0,5.997c0,0-18.63-0.854-20.887-2.041c-2.256-1.187-7.804-14.184-7.804-14.184s-0.526-3.42,0.731-8.958
				C125.466,256.953,128.236,255.225,128.236,255.225z"/>
			<path style="opacity:0.6;fill:#FFFFFF;" d="M128.236,255.225c4.35,4.497,7.317,21.904,8.109,23.091s15.824,3.363,15.824,3.363
				s1.582,3.287,0,5.997c0,0-18.63-0.854-20.887-2.041c-2.256-1.187-7.804-14.184-7.804-14.184s-0.526-3.42,0.731-8.958
				C125.466,256.953,128.236,255.225,128.236,255.225z"/>
		</g>
		<path style="fill:#EBB376;" d="M169.236,282.604l6.989,1.047c0,0,2.374-0.784,4.879-1.047c2.505-0.264,5.407,0,5.407,0
			s3.165,1.187,3.165,4.22c0,0-7.385,1.978-10.22,0.791l-10.22-0.791V282.604z"/>
		<path style="fill:none;stroke:#263238;stroke-width:0.5;stroke-miterlimit:10;" d="M152.375,233.468h2.637
			c0.378,0,0.684-0.306,0.684-0.684v-2.637c0-0.378-0.306-0.684-0.684-0.684h-2.637c-0.378,0-0.684,0.306-0.684,0.684v2.637
			C151.691,233.162,151.997,233.468,152.375,233.468z"/>
		<g>
			<path style="fill:#EBB376;" d="M152.625,240.294c-0.145,0.328-0.298,0.646-0.47,0.947c-1.014,1.821-2.528,3.207-4.262,4.066
				c-0.454,0.228-0.926,0.421-1.408,0.576c-2.543,0.816-5.363,0.578-7.694-0.935c-0.956-0.607-1.84-1.441-2.579-2.503
				c-2.938-4.156-2.158-8.259-1.394-15.298c0.142-1.519,0.629-2.984,1.444-4.268c2.834-4.535,8.813-5.905,13.339-3.071
				C155.973,223.738,155.182,234.268,152.625,240.294z"/>
			<path style="opacity:0.2;enable-background:new    ;" d="M147.892,245.306c-0.454,0.228-0.926,0.421-1.408,0.576
				c-2.543,0.816-5.363,0.578-7.694-0.935c0.715-1.266,1.64-2.159,1.64-2.159S144.704,242.842,147.892,245.306z"/>
			<path style="fill:#EBB376;" d="M128.422,251.746c2.915,3.693,15.453,4.207,15.453,4.207s5.492-0.563,4.662-2.387
				c-3.009-1.027-4.266-2.72-4.577-4.671c-0.179-1.136-0.031-2.356,0.275-3.586c0.154-0.647,0.363-1.294,0.589-1.93l-9.119-9.437
				C138.79,244.948,132.4,248.62,128.422,251.746z"/>
			<path style="fill:#263238;" d="M152.8,219.144c-2.653-3.491-4.684-2.672-4.684-2.672c-1.752-2.966-10.554-2.366-14.768,1.04
				c-4.214,3.406-5.302,9.234-4.632,13.732c0.975,6.551,5.658,12.909,5.658,12.909c0.002,0,0.003,0.001,0.005,0.001
				c5.31,0.956,9.571-0.543,9.678-3.321c0.107-2.778,2.717-5.046,2.717-5.046c2.628,0.652,4.708-2.39,4.708-2.39
				s2.689-2.798,1.618-6.274C152.029,223.648,155.035,222.086,152.8,219.144z"/>
			<path style="fill:#EBB376;" d="M145.695,234.049c0.164,1.586,0.813,2.84,1.805,3.484c1.32,0.839,2.585-1.006,2.73-3.137
				c0.115-1.89-0.411-4.666-1.989-4.574C146.663,229.915,145.513,232.091,145.695,234.049z"/>
			<path style="fill:#263238;" d="M150.245,233.78c0,0-0.213,6.029-1.622,8.538c-1.409,2.509-1.15,3.303-3.321,3.86
				c0,0,1.377,1.546,2.471,1.217c1.095-0.33,0.765-1.253,1.754-1.319c0.989-0.066,2.637-0.891,2.374-1.896
				c-0.264-1.005-0.481-1.269,0.749-2.258c1.229-0.989,1.526-3.017,0.751-3.783c-0.775-0.766-2.093-0.399-2.093-0.399l-0.264-4.454
				L150.245,233.78z"/>
		</g>
		<g>
			<path style="fill:#407BFF;" d="M148.29,254.337c0,0-2.11-9.481-14.835-9.389l-3.231,4.694L148.29,254.337z"/>
			<path style="opacity:0.8;fill:#FFFFFF;" d="M148.29,254.337c0,0-2.11-9.481-14.835-9.389l-3.231,4.694L148.29,254.337z"/>
		</g>
		<g>
			<polygon style="fill:#EBB376;" points="125.909,411.876 133.218,412.008 136.858,395.152 129.558,395.029 			"/>
			<polygon style="opacity:0.2;enable-background:new    ;" points="129.558,395.029 136.858,395.161 134.775,404.796 
				127.54,404.311 			"/>
		</g>
		<path style="fill:#407BFF;" d="M149.395,370.615c-4.819,18.32-10.646,31.439-10.646,31.439l-13.337-1.018
			c0,0,5.473-21.374,7.455-40.948c1.227-12.083,1.118-22.083-2.419-22.856c-2.227-0.491-7.437-0.473-14.11-0.318v-24.875
			c18.729,3.846,37.367,11.101,38.785,16.919C157.105,337.149,153.641,354.487,149.395,370.615z"/>
		<g>
			<polygon style="fill:#407BFF;" points="123.996,401.659 139.876,402.714 142.213,395.85 124.718,395.032 			"/>
			<polygon style="opacity:0.2;fill:#FFFFFF;" points="123.996,401.659 139.876,402.714 142.213,395.85 124.718,395.032 			"/>
		</g>
		<g>
			<path style="fill:#407BFF;" d="M134.315,411.644c0,0.008,0.151,0.011,0.153,0.019c0.008,0.027,0.163,0.051,0.184,0.069
				c0.012,0.016,0.013,0.04,0.031,0.051c0.021,0.006,0.042,0.002,0.062-0.005c0.619,0.194,1.257,0.321,1.903,0.377
				c0.481,0.086,0.977-0.011,1.39-0.273c0.262-0.234,0.365-0.598,0.265-0.935c-0.025-0.22-0.167-0.412-0.367-0.507
				c-0.469-0.215-1.311,0.055-2.024,0.372c0.45-0.56,0.784-1.217,0.719-1.669c-0.045-0.296-0.322-0.524-0.62-0.553
				c-0.263-0.048-0.605,0.021-0.812,0.191c-0.761,0.657-0.884,2.722-0.884,2.85c0,0.002,0,0.004,0,0.005c0,0.001,0,0.002,0,0.002
				C134.315,411.638,134.315,411.644,134.315,411.644z M135.1,411.222c-0.055,0.031-0.103,0.057-0.15,0.084
				c0.028-0.692,0.158-1.846,0.617-2.234c0.1-0.094,0.235-0.142,0.372-0.132l0.083,0.011c0.241,0.043,0.297,0.166,0.305,0.266
				C136.369,409.711,135.72,410.686,135.1,411.222z M135.205,411.584c0.881-0.485,2.131-1.02,2.596-0.804
				c0.099,0.046,0.166,0.141,0.176,0.25c0.056,0.213-0.005,0.44-0.159,0.597C137.452,411.94,136.493,411.922,135.205,411.584z"/>
		</g>
		<path style="fill:#263238;" d="M134.14,410.753l-8.182-0.51c-0.284-0.031-0.54,0.175-0.571,0.46c0,0.003-0.001,0.006-0.001,0.008
			l-0.803,6.455c-0.044,0.706,0.488,1.315,1.193,1.368c2.858,0.132,4.229,0.052,7.831,0.248c2.21,0.132,6.566,0.602,9.616,0.307
			c3.05-0.295,2.676-3.302,1.359-3.446c-3.123-0.355-7.26-2.651-9.214-4.392C135.025,410.953,134.593,410.778,134.14,410.753z"/>
		<path style="opacity:0.2;enable-background:new    ;" d="M149.395,370.615c-4.982-3.155-10.81-6.864-16.529-10.528
			c1.227-12.083,1.118-22.083-2.419-22.856c-2.227-0.491-7.437-0.473-14.11-0.318v-24.875c18.729,3.846,37.367,11.101,38.785,16.919
			C157.105,337.149,153.641,354.487,149.395,370.615z"/>
		<g>
			<path style="fill:#407BFF;" d="M142.367,304.634l2.309-11.415c0,0,0.728-18.441,7.974-37.266c0,0-10.916-8.285-22.407-8.148
				c-9.206,0.109-20.693,26.22-27.045,53.682L142.367,304.634z"/>
			<path style="opacity:0.9;fill:#FFFFFF;" d="M142.367,304.634l2.309-11.415c0,0,0.728-18.441,7.974-37.266
				c0,0-10.916-8.285-22.407-8.148c-9.206,0.109-20.693,26.22-27.045,53.682L142.367,304.634z"/>
		</g>
		<g>
			<path style="fill:#407BFF;" d="M152.65,255.953c4.35,4.497,7.317,21.904,8.108,23.091c0.791,1.187,15.824,3.363,15.824,3.363
				s1.582,3.287,0,5.997c0,0-18.63-0.854-20.886-2.041c-2.256-1.187-7.804-14.184-7.804-14.184s-0.526-3.42,0.731-8.959
				C149.879,257.681,152.65,255.953,152.65,255.953z"/>
			<path style="opacity:0.8;fill:#FFFFFF;" d="M152.65,255.953c4.35,4.497,7.317,21.904,8.108,23.091
				c0.791,1.187,15.824,3.363,15.824,3.363s1.582,3.287,0,5.997c0,0-18.63-0.854-20.886-2.041
				c-2.256-1.187-7.804-14.184-7.804-14.184s-0.526-3.42,0.731-8.959C149.879,257.681,152.65,255.953,152.65,255.953z"/>
		</g>
		<path style="fill:#263238;" d="M152.872,223.339c0,0,4.394-3.631-0.222-8.776c-4.617-5.145-8.228-4.882-8.334-4.09
			c-0.107,0.791,2.662,1.319,2.662,1.978c0,0-5.143,0.396-6.593-0.659c-1.451-1.055-5.67-0.396-4.484,0.396
			c1.187,0.791-0.527,1.451-2.769,1.714c-2.242,0.264-6.328,4.088-5.208,5.934c1.12,1.846,0.461,4.747-1.517,5.934
			c-1.978,1.187-0.659,3.692,0,2.374c0.659-1.319,1.517-1.319,1.517-1.319s-0.065,5.667,0,7.119
			c0.065,1.452,1.252,3.372,1.252,3.797c0,0.425-0.791-0.377,0.132,1.87c0.923,2.247,2.076,1.456,2.076,1.456s-1.484,0.017,0,1.723
			c1.484,1.706,2.99,1.364,2.99,1.364s5.064-5.065,4.417-11.131C138.143,226.956,152.872,223.339,152.872,223.339z"/>
		<g>
			<polygon style="fill:#EBB376;" points="168.64,411.876 175.949,412.008 179.589,395.152 172.289,395.029 			"/>
			<polygon style="opacity:0.2;enable-background:new    ;" points="172.289,395.029 179.589,395.161 177.506,404.796 
				170.271,404.311 			"/>
		</g>
		<path style="fill:#407BFF;" d="M142.098,309.594l1.176-9.444l-38.173-6.284c0,0-12.484,24.735-6.374,36.857
			c5.605,11.121,65.267,4.496,74.451,6.504c9.277,2.028-5.037,63.805-5.037,63.805l13.337,1.018c0,0,20.608-55.6,16.371-73.089
			C196.001,321.33,164.551,311.227,142.098,309.594z"/>
		<g>
			<polygon style="fill:#407BFF;" points="166.727,401.659 182.607,402.714 184.944,395.85 167.448,395.032 			"/>
			<polygon style="opacity:0.2;fill:#FFFFFF;" points="166.727,401.659 182.607,402.714 184.944,395.85 167.448,395.032 			"/>
		</g>
		<g>
			<path style="fill:#407BFF;" d="M177.046,411.644c0,0.008,0.151,0.011,0.153,0.019c0.008,0.027,0.163,0.051,0.184,0.069
				c0.012,0.016,0.013,0.04,0.031,0.051c0.021,0.006,0.042,0.002,0.062-0.005c0.619,0.194,1.257,0.321,1.903,0.377
				c0.482,0.086,0.977-0.011,1.39-0.273c0.262-0.234,0.365-0.598,0.265-0.935c-0.025-0.22-0.167-0.412-0.367-0.507
				c-0.469-0.215-1.311,0.055-2.024,0.372c0.45-0.56,0.783-1.217,0.719-1.669c-0.045-0.296-0.322-0.524-0.62-0.553
				c-0.263-0.048-0.605,0.021-0.812,0.191c-0.761,0.657-0.884,2.722-0.884,2.85c0,0.002,0,0.004,0,0.005c0,0.001,0,0.002,0,0.002
				C177.046,411.638,177.046,411.644,177.046,411.644z M177.83,411.222c-0.056,0.031-0.103,0.057-0.15,0.084
				c0.028-0.692,0.158-1.846,0.617-2.234c0.1-0.094,0.235-0.142,0.372-0.132l0.083,0.011c0.241,0.043,0.297,0.166,0.305,0.266
				C179.1,409.711,178.45,410.686,177.83,411.222z M177.935,411.584c0.88-0.485,2.131-1.02,2.596-0.804
				c0.099,0.046,0.166,0.141,0.176,0.25c0.056,0.213-0.005,0.44-0.159,0.597C180.183,411.94,179.223,411.922,177.935,411.584z"/>
		</g>
		<path style="fill:#263238;" d="M176.87,410.753l-8.182-0.51c-0.285-0.031-0.54,0.175-0.571,0.46c0,0.003-0.001,0.006-0.001,0.008
			l-0.803,6.455c-0.044,0.706,0.488,1.315,1.193,1.368c2.858,0.132,4.229,0.052,7.831,0.248c2.21,0.132,6.566,0.602,9.616,0.307
			c3.05-0.295,2.676-3.302,1.359-3.446c-3.123-0.355-7.26-2.651-9.214-4.392C177.756,410.953,177.324,410.778,176.87,410.753z"/>
		<g>
			<polygon points="103.701,298.165 121.389,300.484 121.96,297.876 104.243,295.298 			"/>
			<polygon points="123.432,297.891 123.218,300.484 139.564,302.732 139.564,300.17 			"/>
			<polygon points="140.579,300.311 140.579,302.732 142.951,303.048 142.951,300.708 			"/>
		</g>
	</g>
	<g>
		<path style="fill:#407BFF;" d="M168.762,341.429h-88.07v-4.231c0-4.37,3.542-7.912,7.912-7.912h72.246
			c4.37,0,7.912,3.542,7.912,7.912V341.429z"/>
		<path style="fill:#263238;" d="M112.099,299.22h48.489c2.494,0,4.339,2.321,3.777,4.751l-8.669,37.459h-2.002l7.386-32.829
			c0.545-2.424-1.298-4.728-3.782-4.728h-44.209L112.099,299.22z"/>
		<path style="fill:#263238;" d="M130.45,342.74v31.65c0,1.02-0.83,1.84-1.84,1.84h-7.76c-1.02,0-1.84-0.82-1.84-1.84v-31.65H130.45
			z"/>
		<g>
			<g>
				<path style="fill:#263238;" d="M87.616,415.821c0-1.857-1.505-3.363-3.363-3.363c-1.857,0-3.363,1.506-3.363,3.363
					c0,1.857,1.506,3.363,3.363,3.363C86.111,419.184,87.616,417.678,87.616,415.821z"/>
				<path style="opacity:0.2;fill:#FFFFFF;" d="M85.935,415.821c0-0.929-0.753-1.681-1.681-1.681c-0.929,0-1.681,0.753-1.681,1.681
					c0,0.929,0.753,1.681,1.681,1.681C85.182,417.502,85.935,416.75,85.935,415.821z"/>
			</g>
			<g>
				<path style="fill:#263238;" d="M168.563,415.821c0-1.857-1.505-3.363-3.363-3.363s-3.363,1.506-3.363,3.363
					c0,1.857,1.506,3.363,3.363,3.363S168.563,417.678,168.563,415.821z"/>
				<circle style="opacity:0.2;fill:#FFFFFF;" cx="165.201" cy="415.821" r="1.681"/>
			</g>
		</g>
		<path style="fill:#263238;" d="M127.509,401.066V364.89h-5.564v36.176c-21.665,0.555-34.829,8.129-37.464,9.789
			c-0.307,0.194-0.491,0.533-0.491,0.896v3.006c0,0.587,0.476,1.064,1.064,1.064l0,0c0.382,0,0.735-0.205,0.924-0.537l1.285-2.254
			c0,0,14.902-5.313,34.682-5.743v5.946c0,0.76,0.616,1.376,1.376,1.376h2.812c0.76,0,1.376-0.616,1.376-1.376v-5.946
			c19.78,0.429,34.682,5.743,34.682,5.743l1.285,2.254c0.189,0.332,0.542,0.537,0.924,0.537l0,0c0.587,0,1.063-0.476,1.063-1.064
			v-3.006c0-0.363-0.183-0.702-0.491-0.896C162.338,409.195,149.174,401.621,127.509,401.066z"/>
		<rect x="122.902" y="412.458" style="fill:#263238;" width="3.65" height="6.725"/>
		<rect x="119.01" y="342.74" style="opacity:0.2;enable-background:new    ;" width="11.44" height="13.15"/>
		<path style="fill:#263238;" d="M171.17,339.48v3.78c0,1.07-0.87,1.93-1.94,1.93H80.22c-1.07,0-1.93-0.86-1.93-1.93v-3.78
			c0-1.06,0.86-1.93,1.93-1.93h89.01C170.3,337.55,171.17,338.42,171.17,339.48z"/>
		<path style="fill:#263238;" d="M130.22,341.43H78.29c0,0-16.5-27.44-16.5-72.78V252c0-6.84,5.55-12.39,12.4-12.39h22.02
			c6.71,0,12.2,5.33,12.39,12.04C109.24,275.01,112.68,325.6,130.22,341.43z"/>
		<path style="opacity:0.2;fill:#FFFFFF;" d="M118.797,341.43H80.637c-1.475,0-2.829-0.813-3.508-2.123
			c-3.756-7.244-15.34-32.668-15.34-70.657V252c0-6.843,5.547-12.39,12.39-12.39h19.03c6.71,0,12.2,5.33,12.39,12.04
			c0.572,20.87,3.378,63.474,16.478,83.608C123.808,337.917,121.968,341.43,118.797,341.43z"/>
		<path style="opacity:0.2;enable-background:new    ;" d="M171.17,339.48v3.78c0,1.066-0.864,1.93-1.93,1.93h-39.89
			c-1.441,0-2.61-1.168-2.61-2.61v-2.421c0-1.441,1.168-2.61,2.61-2.61h39.88C170.3,337.55,171.17,338.42,171.17,339.48z"/>
	</g>
</g>
</svg>
