<?xml version="1.0" encoding="UTF-8"?>
<svg xmlns="http://www.w3.org/2000/svg" xmlns:xlink="http://www.w3.org/1999/xlink" viewBox="0 0 576 576">
  <defs>
    <style>
      .cls-1 {
        fill: url(#linear-gradient-50);
      }

      .cls-1, .cls-2, .cls-3, .cls-4, .cls-5, .cls-6, .cls-7, .cls-8, .cls-9, .cls-10, .cls-11, .cls-12, .cls-13, .cls-14, .cls-15, .cls-16, .cls-17, .cls-18, .cls-19, .cls-20, .cls-21, .cls-22, .cls-23, .cls-24 {
        mix-blend-mode: hard-light;
      }

      .cls-25, .cls-26 {
        fill: #fff;
      }

      .cls-27, .cls-28, .cls-29, .cls-30, .cls-31, .cls-32, .cls-33, .cls-34, .cls-35 {
        mix-blend-mode: screen;
      }

      .cls-27, .cls-28, .cls-29, .cls-30, .cls-31, .cls-32, .cls-34, .cls-35 {
        opacity: .7;
      }

      .cls-36 {
        fill: url(#linear-gradient-17);
      }

      .cls-37 {
        opacity: .5;
      }

      .cls-2 {
        fill: url(#linear-gradient);
      }

      .cls-38 {
        fill: url(#linear-gradient-16);
        mix-blend-mode: multiply;
      }

      .cls-26 {
        opacity: .4;
      }

      .cls-39 {
        fill: url(#linear-gradient-18);
      }

      .cls-40 {
        fill: url(#linear-gradient-28);
      }

      .cls-41 {
        fill: url(#linear-gradient-14);
      }

      .cls-42 {
        fill: url(#linear-gradient-20);
      }

      .cls-3 {
        fill: url(#linear-gradient-3);
      }

      .cls-28 {
        fill: url(#linear-gradient-38);
      }

      .cls-4 {
        fill: url(#linear-gradient-42);
      }

      .cls-43 {
        isolation: isolate;
      }

      .cls-29 {
        fill: url(#linear-gradient-35);
      }

      .cls-5 {
        fill: url(#linear-gradient-45);
      }

      .cls-30 {
        fill: url(#linear-gradient-34);
      }

      .cls-44 {
        fill: url(#linear-gradient-32);
      }

      .cls-31 {
        fill: url(#linear-gradient-33);
      }

      .cls-32 {
        fill: url(#linear-gradient-36);
      }

      .cls-6 {
        fill: url(#linear-gradient-10);
      }

      .cls-45 {
        filter: url(#drop-shadow-1);
      }

      .cls-7 {
        fill: url(#linear-gradient-48);
      }

      .cls-33 {
        fill: url(#linear-gradient-15);
      }

      .cls-8 {
        fill: url(#linear-gradient-51);
      }

      .cls-34 {
        fill: url(#linear-gradient-37);
      }

      .cls-9 {
        fill: url(#linear-gradient-5);
      }

      .cls-10 {
        fill: url(#linear-gradient-11);
      }

      .cls-11 {
        fill: url(#linear-gradient-43);
      }

      .cls-46 {
        fill: #7b4199;
      }

      .cls-12 {
        fill: url(#linear-gradient-40);
      }

      .cls-13 {
        fill: url(#linear-gradient-46);
      }

      .cls-47 {
        fill: url(#linear-gradient-21);
      }

      .cls-14 {
        fill: url(#linear-gradient-41);
      }

      .cls-15 {
        fill: url(#linear-gradient-39);
      }

      .cls-48 {
        fill: url(#linear-gradient-25);
      }

      .cls-16 {
        fill: url(#linear-gradient-2);
      }

      .cls-17 {
        fill: url(#linear-gradient-49);
      }

      .cls-18 {
        fill: url(#linear-gradient-8);
      }

      .cls-19 {
        fill: url(#linear-gradient-7);
      }

      .cls-20 {
        fill: url(#linear-gradient-9);
      }

      .cls-21 {
        fill: url(#linear-gradient-6);
      }

      .cls-49 {
        fill: url(#linear-gradient-24);
      }

      .cls-50 {
        fill: url(#linear-gradient-22);
      }

      .cls-51 {
        fill: url(#linear-gradient-27);
      }

      .cls-22 {
        fill: url(#linear-gradient-4);
      }

      .cls-52 {
        fill: url(#linear-gradient-29);
      }

      .cls-53 {
        fill: url(#linear-gradient-30);
      }

      .cls-35 {
        fill: url(#linear-gradient-31);
      }

      .cls-54 {
        fill: url(#linear-gradient-23);
      }

      .cls-55 {
        fill: url(#linear-gradient-19);
      }

      .cls-23 {
        fill: url(#linear-gradient-44);
      }

      .cls-56 {
        filter: url(#outer-glow-2);
      }

      .cls-57 {
        fill: url(#linear-gradient-12);
      }

      .cls-58 {
        fill: url(#linear-gradient-13);
      }

      .cls-59 {
        fill: url(#linear-gradient-26);
      }

      .cls-24 {
        fill: url(#linear-gradient-47);
      }
    </style>
    <linearGradient id="linear-gradient" x1="115.09" y1="86.43" x2="238.87" y2="197.42" gradientUnits="userSpaceOnUse">
      <stop offset="0" stop-color="#9c57a3"/>
      <stop offset=".58" stop-color="#d28d6a"/>
      <stop offset="1" stop-color="#fdb83f"/>
    </linearGradient>
    <linearGradient id="linear-gradient-2" x1="185.84" y1="10.69" x2="399.47" y2="202.24" gradientTransform="translate(626.96 274.49) rotate(-180)" xlink:href="#linear-gradient"/>
    <linearGradient id="linear-gradient-3" x1="212.02" y1="-213.68" x2="425.65" y2="-22.13" gradientTransform="translate(626.96 274.49) rotate(-180)" xlink:href="#linear-gradient"/>
    <linearGradient id="linear-gradient-4" x1="131.42" y1="-179.07" x2="255.2" y2="-68.08" gradientTransform="translate(626.96 274.49) rotate(-180)" xlink:href="#linear-gradient"/>
    <linearGradient id="linear-gradient-5" x1="380.33" y1="-5.44" x2="474.24" y2="78.76" gradientTransform="translate(626.96 274.49) rotate(-180)" xlink:href="#linear-gradient"/>
    <linearGradient id="linear-gradient-6" x1="475.25" y1="1.39" x2="569.16" y2="85.59" gradientTransform="translate(626.96 274.49) rotate(-180)" xlink:href="#linear-gradient"/>
    <linearGradient id="linear-gradient-7" x1="76.53" y1="-111.19" x2="170.44" y2="-26.99" gradientTransform="translate(626.96 274.49) rotate(-180)" xlink:href="#linear-gradient"/>
    <linearGradient id="linear-gradient-8" x1="161.66" y1="64.63" x2="255.57" y2="148.84" gradientTransform="translate(626.96 274.49) rotate(-180)" xlink:href="#linear-gradient"/>
    <linearGradient id="linear-gradient-9" x1="452.35" y1="-134.3" x2="546.26" y2="-50.1" gradientTransform="translate(626.96 274.49) rotate(-180)" xlink:href="#linear-gradient"/>
    <linearGradient id="linear-gradient-10" x1="181.66" y1="-65.67" x2="305.44" y2="45.31" gradientTransform="translate(626.96 274.49) rotate(-180)" xlink:href="#linear-gradient"/>
    <linearGradient id="linear-gradient-11" x1="317.31" y1="-202.87" x2="441.09" y2="-91.89" gradientTransform="translate(626.96 274.49) rotate(-180)" xlink:href="#linear-gradient"/>
    <linearGradient id="linear-gradient-12" x1="238.56" y1="174.15" x2="342.07" y2="481.99" gradientUnits="userSpaceOnUse">
      <stop offset="0" stop-color="#c3e1f6"/>
      <stop offset=".14" stop-color="#c1dff5"/>
      <stop offset=".19" stop-color="#badbf3"/>
      <stop offset=".22" stop-color="#aed3ef"/>
      <stop offset=".25" stop-color="#9dc8ea"/>
      <stop offset=".27" stop-color="#87bae4"/>
      <stop offset=".29" stop-color="#70abdd"/>
      <stop offset=".48" stop-color="#72acdd"/>
      <stop offset=".59" stop-color="#7ab1df"/>
      <stop offset=".67" stop-color="#87b9e3"/>
      <stop offset=".74" stop-color="#9bc6e8"/>
      <stop offset=".8" stop-color="#b4d5ef"/>
      <stop offset=".86" stop-color="#d2e8f8"/>
      <stop offset=".9" stop-color="#e8f6fe"/>
      <stop offset=".92" stop-color="#cfdbef"/>
      <stop offset=".95" stop-color="#b9c2e2"/>
      <stop offset=".98" stop-color="#abb4da"/>
      <stop offset="1" stop-color="#a7afd8"/>
    </linearGradient>
    <linearGradient id="linear-gradient-13" x1="149.89" y1="156.4" x2="397.61" y2="424.02" gradientUnits="userSpaceOnUse">
      <stop offset="0" stop-color="#010101"/>
      <stop offset=".06" stop-color="#020407"/>
      <stop offset=".15" stop-color="#070f18"/>
      <stop offset=".26" stop-color="#0f2135"/>
      <stop offset=".37" stop-color="#1a3a5d"/>
      <stop offset=".49" stop-color="#285a90"/>
      <stop offset=".58" stop-color="#3474ba"/>
      <stop offset=".63" stop-color="#2a5c8d"/>
      <stop offset=".68" stop-color="#214866"/>
      <stop offset=".74" stop-color="#1a3746"/>
      <stop offset=".8" stop-color="#142a2e"/>
      <stop offset=".86" stop-color="#11211c"/>
      <stop offset=".92" stop-color="#0e1b12"/>
      <stop offset="1" stop-color="#0e1a0f"/>
    </linearGradient>
    <linearGradient id="linear-gradient-14" x1="178.9" y1="309.38" x2="421.74" y2="309.38" gradientUnits="userSpaceOnUse">
      <stop offset="0" stop-color="#ba4097"/>
      <stop offset=".04" stop-color="#ae4298"/>
      <stop offset=".28" stop-color="#6f4da0"/>
      <stop offset=".46" stop-color="#4854a5"/>
      <stop offset=".55" stop-color="#3a57a7"/>
      <stop offset=".62" stop-color="#3c4ea0"/>
      <stop offset=".86" stop-color="#44368d"/>
      <stop offset="1" stop-color="#482d87"/>
    </linearGradient>
    <linearGradient id="linear-gradient-15" x1="169.89" y1="446.08" x2="383.64" y2="191.26" gradientUnits="userSpaceOnUse">
      <stop offset=".18" stop-color="#fff" stop-opacity="0"/>
      <stop offset=".27" stop-color="#fff" stop-opacity=".02"/>
      <stop offset=".37" stop-color="#fff" stop-opacity=".08"/>
      <stop offset=".48" stop-color="#fff" stop-opacity=".17"/>
      <stop offset=".59" stop-color="#fff" stop-opacity=".3"/>
      <stop offset=".61" stop-color="#fff" stop-opacity=".23"/>
      <stop offset=".65" stop-color="#fff" stop-opacity=".15"/>
      <stop offset=".69" stop-color="#fff" stop-opacity=".08"/>
      <stop offset=".74" stop-color="#fff" stop-opacity=".03"/>
      <stop offset=".81" stop-color="#fff" stop-opacity="0"/>
      <stop offset="1" stop-color="#fff" stop-opacity="0"/>
    </linearGradient>
    <linearGradient id="linear-gradient-16" x1="191.51" y1="213.76" x2="188.3" y2="251.94" gradientUnits="userSpaceOnUse">
      <stop offset="0" stop-color="#70abdd"/>
      <stop offset=".11" stop-color="#78b2df"/>
      <stop offset=".28" stop-color="#90c6e4"/>
      <stop offset=".47" stop-color="#b1e1ec"/>
      <stop offset=".6" stop-color="#95cae5"/>
      <stop offset=".74" stop-color="#80b8e0"/>
      <stop offset=".87" stop-color="#74aedd"/>
      <stop offset="1" stop-color="#70abdd"/>
    </linearGradient>
    <linearGradient id="linear-gradient-17" x1="191.16" y1="213.63" x2="187.95" y2="251.81" gradientUnits="userSpaceOnUse">
      <stop offset="0" stop-color="#8ed6e8"/>
      <stop offset=".07" stop-color="#96d9e9"/>
      <stop offset=".19" stop-color="#aee1ee"/>
      <stop offset=".33" stop-color="#d5f0f6"/>
      <stop offset=".46" stop-color="#fff"/>
      <stop offset=".49" stop-color="#f6fbfd"/>
      <stop offset=".59" stop-color="#d0eef5"/>
      <stop offset=".7" stop-color="#b3e3ef"/>
      <stop offset=".8" stop-color="#9edceb"/>
      <stop offset=".9" stop-color="#92d7e8"/>
      <stop offset="1" stop-color="#8ed6e8"/>
    </linearGradient>
    <linearGradient id="linear-gradient-18" x1="334.96" y1="506.28" x2="347.22" y2="491.67" gradientTransform="translate(42.94 213.47) scale(.9 .5)" gradientUnits="userSpaceOnUse">
      <stop offset="0" stop-color="#11213a"/>
      <stop offset=".41" stop-color="#3474ba"/>
      <stop offset=".49" stop-color="#3264aa"/>
      <stop offset=".7" stop-color="#2e438a"/>
      <stop offset=".88" stop-color="#2b2f77"/>
      <stop offset="1" stop-color="#2b2870"/>
    </linearGradient>
    <filter id="drop-shadow-1" filterUnits="userSpaceOnUse">
      <feOffset dx="-7" dy="19"/>
      <feGaussianBlur result="blur" stdDeviation="10"/>
      <feFlood flood-color="#5e2770" flood-opacity=".5"/>
      <feComposite in2="blur" operator="in"/>
      <feComposite in="SourceGraphic"/>
    </filter>
    <linearGradient id="linear-gradient-19" x1="464.36" y1="209.89" x2="512.96" y2="209.89" gradientTransform="translate(862.67 195.52) rotate(167.88)" gradientUnits="userSpaceOnUse">
      <stop offset="0" stop-color="#fff"/>
      <stop offset=".16" stop-color="#eff5fb"/>
      <stop offset=".46" stop-color="#c5ddf1"/>
      <stop offset=".89" stop-color="#82b6e1"/>
      <stop offset="1" stop-color="#70abdd"/>
    </linearGradient>
    <linearGradient id="linear-gradient-20" x1="457.83" y1="208.82" x2="503.55" y2="237.74" gradientTransform="translate(862.67 195.52) rotate(167.88)" gradientUnits="userSpaceOnUse">
      <stop offset="0" stop-color="#5b8ac7"/>
      <stop offset=".13" stop-color="#5c99d2"/>
      <stop offset=".4" stop-color="#61c3ef"/>
      <stop offset=".45" stop-color="#63cdf6"/>
      <stop offset=".58" stop-color="#729fd7"/>
      <stop offset=".7" stop-color="#7e79bd"/>
      <stop offset=".82" stop-color="#875eab"/>
      <stop offset=".92" stop-color="#8d4d9f"/>
      <stop offset="1" stop-color="#8f489c"/>
    </linearGradient>
    <linearGradient id="linear-gradient-21" x1="369.7" y1="216.25" x2="360.68" y2="271.3" gradientTransform="translate(579.49 673.21) rotate(-135.69)" xlink:href="#linear-gradient-19"/>
    <linearGradient id="linear-gradient-22" x1="362.64" y1="214.13" x2="332.79" y2="275.71" gradientTransform="translate(579.49 673.21) rotate(-135.69)" xlink:href="#linear-gradient-20"/>
    <linearGradient id="linear-gradient-23" x1="114.41" y1="136.47" x2="105.39" y2="191.52" gradientTransform="matrix(1,0,0,1,0,0)" xlink:href="#linear-gradient-19"/>
    <linearGradient id="linear-gradient-24" x1="107.35" y1="134.35" x2="77.5" y2="195.93" gradientTransform="matrix(1,0,0,1,0,0)" xlink:href="#linear-gradient-20"/>
    <linearGradient id="linear-gradient-25" x1="430.53" y1="-141.03" x2="479.13" y2="-141.03" gradientTransform="translate(221.06 806.27) rotate(-37.5)" xlink:href="#linear-gradient-19"/>
    <linearGradient id="linear-gradient-26" x1="424" y1="-142.1" x2="469.72" y2="-113.18" gradientTransform="translate(221.06 806.27) rotate(-37.5)" xlink:href="#linear-gradient-20"/>
    <linearGradient id="linear-gradient-27" x1="432.67" y1="-74.9" x2="423.65" y2="-19.85" gradientTransform="translate(-185.46 692.85) rotate(-24.55)" xlink:href="#linear-gradient-19"/>
    <linearGradient id="linear-gradient-28" x1="425.61" y1="-77.02" x2="395.76" y2="-15.44" gradientTransform="translate(-185.46 692.85) rotate(-24.55)" xlink:href="#linear-gradient-20"/>
    <linearGradient id="linear-gradient-29" x1="55.77" y1="372.83" x2="104.37" y2="372.83" gradientTransform="matrix(1,0,0,1,0,0)" xlink:href="#linear-gradient-19"/>
    <linearGradient id="linear-gradient-30" x1="49.24" y1="371.76" x2="94.96" y2="400.68" gradientTransform="matrix(1,0,0,1,0,0)" xlink:href="#linear-gradient-20"/>
    <filter id="outer-glow-2" filterUnits="userSpaceOnUse">
      <feOffset dx="0" dy="0"/>
      <feGaussianBlur result="blur-2" stdDeviation="5"/>
      <feFlood flood-color="#fff" flood-opacity=".75"/>
      <feComposite in2="blur-2" operator="in"/>
      <feComposite in="SourceGraphic"/>
    </filter>
    <linearGradient id="linear-gradient-31" x1="459.52" y1="343.58" x2="483.08" y2="302.77" gradientUnits="userSpaceOnUse">
      <stop offset="0" stop-color="#fff"/>
      <stop offset=".28" stop-color="#e8c6de"/>
      <stop offset=".52" stop-color="#d492c0"/>
      <stop offset="1" stop-color="#fff"/>
    </linearGradient>
    <linearGradient id="linear-gradient-32" x1="399.63" y1="242.25" x2="413.46" y2="218.3" xlink:href="#linear-gradient-31"/>
    <linearGradient id="linear-gradient-33" x1="145.33" y1="332.68" x2="171.63" y2="287.13" gradientTransform="translate(73.91 -34.1) rotate(13.56)" xlink:href="#linear-gradient-31"/>
    <linearGradient id="linear-gradient-34" x1="174.75" y1="111.66" x2="193.22" y2="79.66" xlink:href="#linear-gradient-31"/>
    <linearGradient id="linear-gradient-35" x1="157.17" y1="411.65" x2="179.51" y2="372.96" xlink:href="#linear-gradient-31"/>
    <linearGradient id="linear-gradient-36" x1="417.86" y1="496.13" x2="439.28" y2="459.03" xlink:href="#linear-gradient-31"/>
    <linearGradient id="linear-gradient-37" x1="52.67" y1="269.01" x2="75.43" y2="229.6" xlink:href="#linear-gradient-31"/>
    <linearGradient id="linear-gradient-38" x1="434.74" y1="176.72" x2="461.26" y2="130.78" xlink:href="#linear-gradient-31"/>
    <linearGradient id="linear-gradient-39" x1="46.83" y1="161.56" x2="60.4" y2="161.56" xlink:href="#linear-gradient"/>
    <linearGradient id="linear-gradient-40" x1="287.14" y1="53.47" x2="300.71" y2="53.47" xlink:href="#linear-gradient"/>
    <linearGradient id="linear-gradient-41" x1="537.43" y1="319.32" x2="551" y2="319.32" xlink:href="#linear-gradient"/>
    <linearGradient id="linear-gradient-42" x1="409.95" y1="298.97" x2="423.51" y2="298.97" xlink:href="#linear-gradient"/>
    <linearGradient id="linear-gradient-43" x1="261.04" y1="507.08" x2="274.61" y2="507.08" xlink:href="#linear-gradient"/>
    <linearGradient id="linear-gradient-44" x1="26" y1="314.43" x2="39.57" y2="314.43" xlink:href="#linear-gradient"/>
    <linearGradient id="linear-gradient-45" x1="84.99" y1="81.65" x2="100.37" y2="81.65" xlink:href="#linear-gradient"/>
    <linearGradient id="linear-gradient-46" x1="509.9" y1="175.94" x2="525.28" y2="175.94" xlink:href="#linear-gradient"/>
    <linearGradient id="linear-gradient-47" x1="152.87" y1="251.61" x2="168.24" y2="251.61" xlink:href="#linear-gradient"/>
    <linearGradient id="linear-gradient-48" x1="363.92" y1="503.16" x2="379.3" y2="503.16" xlink:href="#linear-gradient"/>
    <linearGradient id="linear-gradient-49" x1="438.99" y1="378.81" x2="454.36" y2="378.81" xlink:href="#linear-gradient"/>
    <linearGradient id="linear-gradient-50" x1="114.9" y1="445.91" x2="130.28" y2="445.91" xlink:href="#linear-gradient"/>
    <linearGradient id="linear-gradient-51" x1="422.97" y1="88.2" x2="438.35" y2="88.2" xlink:href="#linear-gradient"/>
  </defs>
  <g class="cls-43">
    <g id="Layer_1" data-name="Layer 1">
      <g>
        <g>
          <path class="cls-2" d="m116.05,88.79h0c1.79-2.06,4.92-2.27,6.98-.48l115.03,100.33c2.06,1.79,2.27,4.92.48,6.98h0c-1.79,2.06-4.92,2.27-6.98.48l-115.03-100.33c-2.06-1.79-2.27-4.92-.48-6.98Z"/>
          <path class="cls-16" d="m439.47,259.72h0c-3.1,3.55-8.49,3.93-12.04.83L228.9,87.4c-3.55-3.1-3.93-8.49-.83-12.04h0c3.1-3.55,8.49-3.93,12.04-.83l198.52,173.15c3.55,3.1,3.93,8.49.83,12.04Z"/>
          <path class="cls-3" d="m413.29,484.09h0c-3.1,3.55-8.49,3.93-12.04.83l-198.52-173.15c-3.55-3.1-3.93-8.49-.83-12.04h0c3.1-3.55,8.49-3.93,12.04-.83l198.52,173.15c3.55,3.1,3.93,8.49.83,12.04Z"/>
          <path class="cls-22" d="m494.59,451.19h0c-1.79,2.06-4.92,2.27-6.98.48l-115.03-100.33c-2.06-1.79-2.27-4.92-.48-6.98h0c1.79-2.06,4.92-2.27,6.98-.48l115.03,100.33c2.06,1.79,2.27,4.92.48,6.98Z"/>
          <path class="cls-9" d="m245.91,278.14h0c-1.36,1.56-3.73,1.73-5.29.36l-87.26-76.11c-1.56-1.36-1.73-3.73-.36-5.29h0c1.36-1.56,3.73-1.73,5.29-.36l87.27,76.11c1.56,1.36,1.73,3.73.36,5.29Z"/>
          <path class="cls-21" d="m150.99,271.3h0c-1.36,1.56-3.73,1.73-5.29.36l-87.27-76.11c-1.56-1.36-1.73-3.73-.36-5.29h0c1.36-1.56,3.73-1.73,5.29-.36l87.27,76.11c1.56,1.36,1.73,3.73.36,5.29Z"/>
          <path class="cls-19" d="m549.7,383.89h0c-1.36,1.56-3.73,1.73-5.29.36l-87.27-76.11c-1.56-1.36-1.73-3.73-.36-5.29h0c1.36-1.56,3.73-1.73,5.29-.36l87.27,76.11c1.56,1.36,1.73,3.73.36,5.29Z"/>
          <path class="cls-18" d="m464.57,208.06h0c-1.36,1.56-3.73,1.73-5.29.36l-87.27-76.11c-1.56-1.36-1.73-3.73-.36-5.29h0c1.36-1.56,3.73-1.73,5.29-.36l87.27,76.11c1.56,1.36,1.73,3.73.36,5.29Z"/>
          <path class="cls-20" d="m173.88,407h0c-1.36,1.56-3.73,1.73-5.29.36l-87.27-76.11c-1.56-1.36-1.73-3.73-.36-5.29h0c1.36-1.56,3.73-1.73,5.29-.36l87.27,76.11c1.56,1.36,1.73,3.73.36,5.29Z"/>
          <path class="cls-6" d="m444.34,337.8h0c-1.79,2.06-4.92,2.27-6.98.48l-115.03-100.33c-2.06-1.79-2.27-4.92-.48-6.98h0c1.79-2.06,4.92-2.27,6.98-.48l115.03,100.33c2.06,1.79,2.27,4.92.48,6.98Z"/>
          <path class="cls-10" d="m308.69,475h0c-1.79,2.06-4.92,2.27-6.98.48l-115.03-100.33c-2.06-1.79-2.27-4.92-.48-6.98h0c1.79-2.06,4.92-2.27,6.98-.48l115.03,100.33c2.06,1.79,2.27,4.92.48,6.98Z"/>
        </g>
        <g>
          <path class="cls-57" d="m415.12,440.44c-.2.09-.41.17-.62.25-.21.08-.42.15-.64.22-.22.07-.43.13-.66.2l-124.94,38.94c-3.24.89-6.53,1.02-9.73.48-3.2-.53-6.29-1.73-9.1-3.49-2.81-1.76-5.33-4.07-7.39-6.83-2.06-2.76-3.65-5.95-4.61-9.48l-81.95-300.21c-.2-.74-.35-1.47-.44-2.18-.09-.72-.14-1.42-.13-2.11,0-.69.06-1.37.17-2.03.05-.33.12-.65.19-.98s.16-.64.26-.95h0s0,0,0,0l-2.78,18.12c-.19.61-.34,1.24-.44,1.88-.1.64-.16,1.3-.17,1.97,0,.67.03,1.36.12,2.05.09.7.23,1.4.42,2.12l76.79,288.82c.9,3.37,2.4,6.42,4.34,9.04,1.95,2.63,4.34,4.83,7.01,6.5,2.67,1.67,5.62,2.8,8.68,3.29,3.05.5,6.21.36,9.32-.5l115.96-35.67c.21-.06.43-.12.64-.19.21-.07.42-.14.62-.22.2-.08.41-.16.6-.24s.4-.17.59-.26l18.51-8.81c-.2.09-.4.19-.61.27Z"/>
          <path class="cls-25" d="m301.78,141.1c2.35-.07,4.74.32,7.06,1.06,2.32.74,4.57,1.85,6.63,3.24,2.06,1.39,3.93,3.06,5.5,4.94,1.57,1.88,2.84,3.96,3.68,6.17l98.46,257.9c1.13,2.97,1.71,5.93,1.79,8.75.08,2.84-.35,5.53-1.23,7.95-.89,2.43-2.24,4.57-4,6.28-1.77,1.72-3.95,3.01-6.5,3.7l-124.94,38.94c-3.24.89-6.53,1.02-9.73.48-3.2-.53-6.29-1.73-9.1-3.49-2.81-1.76-5.33-4.07-7.39-6.83-2.06-2.76-3.65-5.95-4.61-9.48l-81.95-300.21c-.69-2.52-.74-4.93-.25-7.14.49-2.2,1.51-4.19,2.98-5.88,1.46-1.68,3.37-3.05,5.63-4.02,2.25-.97,4.85-1.54,7.72-1.62l110.22-.75Z"/>
          <path class="cls-58" d="m302.1,141.52c2.33-.07,4.7.31,7.01,1.06,2.3.74,4.53,1.84,6.57,3.22,2.04,1.38,3.9,3.04,5.46,4.91,1.56,1.87,2.82,3.94,3.65,6.14l97.64,256.44c1.12,2.95,1.7,5.9,1.78,8.71.08,2.82-.34,5.5-1.22,7.9-.88,2.41-2.22,4.54-3.96,6.25-1.75,1.71-3.92,2.99-6.45,3.68l-123.9,38.72c-3.21.88-6.48,1.01-9.65.48-3.18-.53-6.24-1.72-9.02-3.47-2.79-1.75-5.28-4.05-7.32-6.79-2.04-2.74-3.62-5.92-4.57-9.43l-81.27-298.51c-.68-2.51-.74-4.91-.25-7.1.48-2.19,1.5-4.17,2.96-5.84,1.45-1.67,3.34-3.03,5.59-4,2.23-.96,4.81-1.53,7.66-1.61l109.3-.75Z"/>
          <path class="cls-41" d="m420.01,411.94l-97.64-253.99c-.81-2.12-2.02-4.11-3.53-5.91-1.5-1.8-3.3-3.4-5.27-4.73-1.97-1.33-4.13-2.39-6.35-3.11-2.22-.71-4.52-1.08-6.77-1.02l-19.94.14c-2.25.02-4.22,1.5-4.85,3.65h0c-.63,2.13-2.56,3.61-4.78,3.65l-34.84.72c-2.84.06-5.59-.99-7.66-2.93l-2.17-2.03c-1.84-1.72-4.26-2.66-6.78-2.65l-24.58.17c-2.75.08-5.24.62-7.4,1.55-2.17.93-3.99,2.25-5.4,3.86-1.41,1.61-2.39,3.52-2.86,5.63-.47,2.12-.42,4.43.24,6.84l81.82,294.53c.92,3.38,2.45,6.44,4.42,9.08,1.97,2.65,4.39,4.86,7.08,6.54,2.69,1.68,5.65,2.83,8.72,3.34,3.06.51,6.22.39,9.32-.46l119.7-37.3c2.44-.67,4.53-1.9,6.23-3.55,1.69-1.64,2.98-3.69,3.83-6.02.85-2.31,1.25-4.9,1.18-7.62-.08-2.71-.63-5.55-1.72-8.39Z"/>
          <g>
            <g>
              <path class="cls-25" d="m233.08,207.81c-.43-1.4-.65-2.7-.66-3.89,0-1.19.24-2.22.73-3.1.49-.88,1.23-1.57,2.23-2.09.99-.51,2.27-.8,3.82-.87,1.54-.07,2.94.11,4.19.52,1.25.41,2.35,1.01,3.33,1.8.97.79,1.8,1.74,2.49,2.86.69,1.12,1.24,2.36,1.66,3.72l5.76,18.72c.41,1.32.62,2.57.64,3.73.02,1.17-.2,2.2-.65,3.09-.45.9-1.14,1.64-2.08,2.23-.94.59-2.16.97-3.67,1.14-1.52.17-2.91.07-4.17-.29-1.26-.36-2.39-.92-3.39-1.68-1-.76-1.85-1.71-2.57-2.84-.71-1.13-1.28-2.38-1.7-3.74l-5.97-19.31Zm8.7,19.17c.64,2.07,1.65,3.73,3.03,4.97,1.37,1.23,3.17,1.73,5.38,1.5,2.19-.23,3.54-1.05,4.07-2.46.53-1.41.48-3.12-.15-5.15l-5.87-19.07c-.62-2-1.6-3.63-2.95-4.9-1.36-1.27-3.15-1.86-5.38-1.76-2.25.1-3.67.85-4.23,2.24-.57,1.39-.54,3.11.09,5.16l6.02,19.49Z"/>
              <path class="cls-25" d="m260.88,201.32c-.42.89-1.05,1.63-1.88,2.21-.83.59-1.87.97-3.12,1.14l-.64-2.07c1.86-.24,3.12-.85,3.79-1.84.67-.99,1.05-2.16,1.14-3.52l1.94-.08,10.97,35.76-2.42.26-9.78-31.86Z"/>
              <path class="cls-25" d="m273.45,208.51l1.36,4.43-2.33.17-1.36-4.45,2.34-.15Zm5.87,19.16l1.35,4.42-2.3.25-1.36-4.44,2.31-.23Z"/>
              <path class="cls-25" d="m276.49,205.26c-.4-1.3-.61-2.5-.63-3.6-.02-1.1.17-2.05.57-2.87.4-.81,1.03-1.45,1.88-1.93.84-.47,1.93-.74,3.27-.79,1.33-.06,2.53.11,3.61.49,1.08.38,2.04.94,2.9,1.68.85.73,1.58,1.62,2.19,2.66.61,1.04,1.11,2.19,1.49,3.45l5.3,17.38c.37,1.23.58,2.38.61,3.46.03,1.08-.13,2.03-.51,2.86-.37.83-.96,1.51-1.75,2.05-.8.54-1.85.88-3.14,1.03-1.3.14-2.5.04-3.59-.3-1.09-.34-2.08-.87-2.95-1.58-.87-.71-1.62-1.59-2.26-2.64-.63-1.05-1.14-2.21-1.53-3.47l-5.47-17.88Zm7.81,17.77c.59,1.92,1.49,3.46,2.69,4.61,1.2,1.15,2.76,1.62,4.65,1.42,1.88-.2,3.03-.95,3.47-2.25.43-1.3.36-2.89-.22-4.77l-5.4-17.69c-.57-1.85-1.44-3.37-2.63-4.55-1.19-1.18-2.74-1.73-4.66-1.65-1.93.09-3.14.77-3.6,2.06-.46,1.29-.41,2.88.17,4.77l5.52,18.05Z"/>
              <path class="cls-25" d="m300.31,199.34c-.35.83-.88,1.51-1.58,2.05-.71.54-1.6.89-2.68,1.05l-.59-1.93c1.6-.21,2.68-.78,3.24-1.7.56-.92.87-2,.93-3.26l1.67-.07,10.11,33.25-2.09.23-9.01-29.62Z"/>
            </g>
            <g>
              <path class="cls-25" d="m246.09,241.95c.25-.03.47-.02.67.04.2.05.37.14.52.26.15.12.28.27.39.45.11.18.2.37.26.59l.04.13-.41.05-.05-.15c-.05-.16-.11-.31-.19-.44-.08-.13-.17-.24-.28-.33-.11-.09-.23-.16-.37-.2-.14-.04-.3-.05-.47-.03-.35.04-.57.18-.65.4-.08.23-.07.5.03.82.08.25.2.45.37.61.17.16.36.3.58.41.22.12.45.23.69.33.24.1.47.22.69.35.22.13.42.28.6.46.17.18.3.41.39.68.07.22.1.42.11.61,0,.19-.03.36-.1.51-.07.15-.18.27-.34.37-.15.1-.35.16-.6.2-.25.03-.47.02-.67-.03-.2-.05-.38-.14-.53-.26-.16-.12-.29-.27-.4-.44-.11-.18-.2-.38-.27-.59l-.1-.31.41-.05.1.34c.1.32.26.58.47.77.21.19.5.26.86.22.36-.05.58-.18.66-.41.08-.23.08-.5-.02-.82-.07-.24-.19-.44-.36-.6-.17-.16-.36-.29-.58-.41s-.45-.23-.69-.33c-.24-.1-.47-.22-.7-.35-.22-.13-.42-.29-.6-.47-.18-.18-.31-.42-.39-.7-.14-.45-.14-.83,0-1.13.14-.3.45-.48.93-.54Z"/>
              <path class="cls-25" d="m251.82,246.01c.05.16.11.31.19.44.08.14.17.25.28.34.11.09.23.16.37.2.14.04.3.05.47.03.18-.02.32-.07.42-.14.1-.07.18-.17.22-.28.04-.11.06-.24.05-.38,0-.14-.04-.29-.09-.45l-1.39-4.51.39-.05,1.39,4.49c.07.22.1.42.11.6,0,.19-.02.36-.09.51-.07.15-.17.28-.32.37-.15.1-.34.16-.59.2-.24.03-.46.02-.66-.03-.2-.05-.37-.14-.52-.26-.15-.12-.28-.27-.39-.45-.11-.17-.2-.37-.26-.59l-1.39-4.52.42-.05,1.4,4.53Z"/>
              <path class="cls-25" d="m257.46,246.77l-.38.05-1.82-5.92.54-.06,3.41,4.75-1.53-4.98.37-.04,1.81,5.89-.45.06-3.58-5.02,1.63,5.27Z"/>
              <path class="cls-25" d="m262.55,246.11l-.13.02-.23-.74.39-.05.22.7-.05.7-.18.02-.02-.66Z"/>
              <path class="cls-25" d="m268.69,245.3l-.36.05-1.78-5.8.52-.06,3.31,4.66-1.5-4.88.36-.04,1.77,5.77-.44.06-3.47-4.92,1.59,5.17Z"/>
              <path class="cls-25" d="m272.01,240.35c-.06-.21-.1-.4-.1-.59,0-.18.03-.35.09-.49.07-.14.17-.26.31-.35.14-.09.32-.15.55-.18.23-.03.43-.01.62.04.19.05.36.14.5.25.15.12.27.26.38.43.11.17.19.36.25.57l.9,2.93c.06.21.1.4.1.59,0,.18-.03.35-.09.49-.07.14-.17.26-.31.36-.14.09-.33.16-.55.19-.22.03-.43.02-.61-.03-.19-.05-.35-.14-.49-.25-.14-.11-.27-.26-.37-.43-.11-.17-.19-.36-.25-.57l-.9-2.94Zm1.3,2.91c.1.31.24.56.44.75.2.19.46.26.79.22.33-.04.53-.17.61-.4.08-.22.07-.49-.02-.8l-.91-2.98c-.1-.31-.25-.56-.45-.75-.21-.19-.47-.26-.8-.22-.33.04-.53.17-.6.39-.08.22-.07.49.03.8l.92,2.99Z"/>
              <path class="cls-25" d="m276.79,238.32l2.79,5.11-.44-5.39.35-.04.49,5.83-.56.07-3.02-5.53.39-.05Z"/>
              <path class="cls-25" d="m284.45,240.1l.1.34-1.55.2.72,2.35,1.86-.24.1.34-2.24.29-1.73-5.64,2.25-.27.1.34-1.87.23.7,2.27,1.55-.19Z"/>
              <path class="cls-25" d="m289.77,242.54l-.37.05-2.69-4.79,1.52,4.95-.33.04-1.71-5.6.53-.06,2.69,4.79-.35-5.07.52-.06,1.7,5.56-.35.05-1.51-4.94.35,5.09Z"/>
              <path class="cls-25" d="m292.95,236.38c.41-.05.73.02.96.2.23.18.4.46.52.84l.1.32c.09.3.11.55.07.74-.05.2-.2.34-.46.43.31.02.57.13.75.32.19.19.33.45.43.76l.15.48c.12.4.12.72,0,.97-.12.25-.39.4-.81.46l-1.17.15-1.69-5.54,1.15-.14Zm.57,2.46c.16-.02.3-.05.41-.09.11-.04.19-.1.25-.17.06-.08.09-.17.09-.29,0-.12-.02-.26-.08-.44l-.11-.35c-.09-.29-.21-.5-.36-.63-.15-.13-.38-.18-.67-.15l-.78.09.65,2.11.61-.08Zm1.04,2.73c.3-.04.49-.15.57-.33.08-.18.07-.42-.03-.73l-.15-.5c-.11-.36-.27-.6-.47-.72-.21-.12-.47-.17-.79-.13l-.68.09.74,2.43.81-.11Z"/>
              <path class="cls-25" d="m298.9,238.29l.1.33-1.47.18.7,2.29,1.77-.23.1.33-2.12.28-1.68-5.49,2.13-.26.1.33-1.77.21.68,2.21,1.47-.18Z"/>
              <path class="cls-25" d="m301.64,235.34c.4-.05.73.03.97.22.24.2.42.48.54.87l.14.47c.19.63.05,1.04-.42,1.22.29.03.52.13.7.31.18.18.31.41.4.71l.26.85c.03.11.08.23.13.34.05.11.12.21.2.29l-.36.05c-.07-.08-.13-.16-.17-.26-.05-.1-.09-.22-.14-.37l-.26-.85c-.06-.18-.12-.33-.2-.44-.08-.11-.18-.2-.29-.26-.11-.06-.23-.09-.36-.11-.13-.01-.27-.01-.42,0l-.55.07.74,2.43-.35.05-1.66-5.45,1.11-.13Zm.62,2.7c.16-.02.29-.05.4-.09.11-.04.2-.1.26-.18.06-.08.1-.18.11-.3,0-.12-.01-.28-.07-.46l-.16-.51c-.09-.29-.22-.52-.39-.66-.17-.15-.4-.21-.69-.17l-.75.09.72,2.36.56-.07Z"/>
              <path class="cls-25" d="m308.7,234.44c.2-.02.38,0,.54.04.16.05.3.13.43.25.13.11.23.25.33.41.09.16.17.34.23.53.08.26.1.49.07.71-.03.22-.08.43-.17.63-.08.2-.18.4-.29.59-.11.19-.21.39-.29.59-.08.2-.14.42-.17.64-.03.22,0,.47.07.73l.02.06,1.84-.24.1.32-2.17.28-.08-.26c-.1-.32-.13-.6-.11-.85.02-.25.07-.49.15-.7.08-.21.18-.42.29-.61.11-.19.21-.38.3-.57.09-.19.15-.39.18-.59.03-.21.01-.43-.06-.68-.09-.31-.23-.56-.4-.74-.18-.18-.41-.26-.7-.22-.14.02-.26.06-.34.12-.08.07-.14.15-.17.25s-.04.22-.03.35c.01.13.04.26.08.41l.11.37-.33.04-.11-.35c-.06-.2-.09-.38-.1-.55,0-.17.01-.33.06-.46.05-.13.14-.24.26-.33s.28-.14.48-.17Z"/>
              <path class="cls-25" d="m312.9,233.94c.19-.02.37,0,.53.04.16.05.3.13.43.24.12.11.23.24.32.4.09.16.17.33.22.53l.04.13c.08.26.09.5.04.71-.06.21-.18.37-.37.48.25.04.46.15.63.33.17.18.29.4.37.66l.12.41c.06.19.09.37.1.54,0,.17-.01.32-.07.45-.05.13-.14.24-.25.32-.12.09-.27.14-.46.17-.19.03-.37.01-.53-.04-.16-.05-.3-.13-.43-.24-.13-.11-.23-.24-.33-.4-.09-.16-.17-.34-.23-.53l-.09-.3.32-.04.1.32c.04.15.1.28.16.4.06.12.14.22.23.3.09.08.19.14.3.18.11.04.24.05.38.03.28-.04.45-.16.5-.37.06-.21.04-.46-.05-.77l-.12-.41c-.08-.28-.21-.49-.39-.62s-.39-.2-.64-.18l-.34.04-.1-.32.36-.04c.23-.04.38-.15.46-.33.08-.18.08-.39,0-.65l-.06-.19c-.09-.3-.23-.54-.4-.72-.17-.18-.4-.25-.68-.22-.28.03-.45.15-.51.36-.06.2-.04.45.04.74l.06.21-.32.04-.06-.19c-.06-.19-.09-.37-.1-.54,0-.17.01-.32.07-.45.05-.13.14-.24.26-.32.12-.08.27-.14.47-.16Z"/>
            </g>
          </g>
          <g>
            <path class="cls-26" d="m351.19,278.74l-104.53,18.6c-2.79.5-5.62-1.41-6.29-4.26l-2.43-10.27c-.66-2.79,1.07-5.36,3.83-5.76l103.89-14.99c1.91-.28,4.06,1.33,4.82,3.59l2.78,8.31c.77,2.3-.15,4.44-2.07,4.79Z"/>
            <g>
              <g>
                <path class="cls-25" d="m252.99,287.7l.11.43-3.23.53-.08-.34,1.45-2.23c.18-.28.29-.52.33-.71.04-.19.04-.37,0-.55-.07-.28-.21-.48-.44-.6-.22-.12-.51-.16-.86-.11-.54.09-.92.33-1.13.72l-.41-.24c.13-.24.32-.44.57-.6.25-.16.55-.27.9-.32.47-.07.87-.02,1.2.16.33.18.54.47.64.86.06.24.06.48.02.72-.05.24-.19.53-.41.87l-1.18,1.83,2.53-.42Z"/>
                <path class="cls-25" d="m257.66,284.11c.31.21.53.56.66,1.05l.51,2.02-.46.08-.5-1.98c-.09-.36-.25-.62-.47-.79-.22-.16-.5-.22-.83-.16-.37.06-.63.22-.78.47-.16.26-.19.58-.09.98l.46,1.84-.46.08-.88-3.5.44-.07.16.64c.07-.23.2-.43.4-.58.19-.15.44-.25.73-.3.43-.07.8,0,1.11.22Z"/>
                <path class="cls-25" d="m260.52,286.7c-.3-.11-.56-.29-.77-.53-.22-.24-.37-.54-.46-.88-.09-.34-.09-.66,0-.95.08-.29.23-.53.45-.72.22-.19.49-.31.82-.36.32-.05.63-.02.93.09.3.11.55.28.77.53.21.24.36.53.45.87.09.34.09.65.01.94-.08.29-.23.54-.44.73-.22.2-.49.32-.81.37-.32.05-.63.03-.93-.08Zm1.42-.61c.16-.14.27-.33.32-.55.05-.22.05-.47-.02-.73-.07-.26-.18-.49-.34-.68-.16-.19-.35-.32-.56-.41-.22-.08-.44-.1-.68-.07-.24.04-.44.13-.6.27-.16.14-.27.33-.33.55-.06.22-.05.47.02.73.07.26.18.49.34.68.16.19.35.33.57.41.22.08.45.1.68.06.24-.04.44-.13.6-.27Z"/>
                <path class="cls-25" d="m265.76,285.82c-.06.09-.15.17-.26.23-.11.06-.24.1-.37.13-.31.05-.57,0-.79-.15-.21-.15-.36-.38-.44-.7l-.54-2.09-.59.09-.1-.39.59-.09-.19-.75.45-.07.19.75,1.01-.16.1.39-1.01.16.53,2.06c.05.21.14.35.27.45.13.09.28.12.47.09.09-.02.18-.05.26-.09.08-.04.14-.1.19-.17l.24.31Z"/>
                <path class="cls-25" d="m265.5,281.62c-.08-.06-.13-.13-.15-.22-.02-.09-.01-.17.03-.24.05-.07.11-.12.21-.13.09-.01.18,0,.26.06.08.05.13.12.15.21.02.1.01.18-.03.26-.05.07-.11.12-.21.13-.09.01-.18,0-.26-.06Zm.23.84l.44-.07.89,3.43-.44.07-.89-3.44Z"/>
                <path class="cls-25" d="m267.83,281.21c-.07.12-.08.29-.02.5l.11.4,1.01-.16.1.39-.99.16.79,3.03-.44.07-.79-3.04-.59.09-.1-.39.59-.09-.11-.42c-.08-.31-.06-.57.06-.78.12-.21.34-.34.66-.39.12-.02.25-.02.37,0,.13.02.24.06.33.11l-.06.37c-.16-.09-.33-.12-.53-.09-.19.03-.32.11-.39.23Zm1.95-.27c-.08-.06-.13-.13-.15-.22-.02-.09-.01-.17.03-.24s.11-.12.2-.13c.09-.01.17,0,.25.06.08.05.13.12.15.21.03.09.02.18-.03.25-.04.07-.11.12-.2.13-.09.01-.17,0-.25-.06Zm.23.84l.44-.07.9,3.41-.44.07-.9-3.41Z"/>
                <path class="cls-25" d="m272.99,284.65c-.29-.11-.54-.28-.76-.52-.21-.24-.36-.53-.45-.86-.09-.33-.09-.64-.02-.93.07-.29.22-.52.43-.71.21-.19.48-.3.8-.35.28-.04.54-.03.79.05.25.08.46.22.65.42l-.26.28c-.15-.15-.32-.25-.5-.31-.19-.06-.37-.07-.56-.04-.23.04-.43.13-.58.26-.16.14-.26.32-.31.54-.05.22-.04.46.03.72.07.26.18.49.34.67.16.18.34.31.56.39s.44.1.67.06c.19-.03.36-.1.5-.21.14-.11.24-.26.3-.44l.38.18c-.07.24-.2.44-.38.59-.19.15-.42.25-.69.29-.32.05-.62.03-.91-.08Z"/>
                <path class="cls-25" d="m277.25,280.95c.28.18.48.49.59.92l.56,2.09-.41.07-.14-.53c-.05.19-.15.35-.32.48-.16.13-.37.22-.63.26-.36.06-.66.02-.92-.13-.26-.15-.43-.37-.51-.66-.08-.29-.04-.54.11-.74.15-.21.44-.35.87-.42l1.01-.16-.06-.2c-.08-.29-.21-.5-.41-.62-.19-.13-.44-.17-.73-.12-.2.03-.39.1-.55.2-.17.1-.3.22-.4.37l-.29-.31c.12-.17.29-.31.49-.43.2-.12.43-.19.68-.23.42-.07.76,0,1.04.18Zm.21,2.64c.14-.15.22-.34.25-.57l-.15-.55-1,.16c-.55.09-.76.33-.66.74.05.2.16.34.34.43.17.09.39.11.64.07.24-.04.43-.13.58-.28Z"/>
                <path class="cls-25" d="m281.17,283.29c-.06.09-.14.16-.25.22-.11.06-.22.1-.35.12-.3.05-.55,0-.75-.14-.21-.14-.35-.37-.44-.68l-.55-2.03-.56.09-.1-.38.56-.09-.2-.73.42-.07.2.73.96-.15.1.38-.96.15.54,2c.05.2.14.34.26.43.12.09.27.12.45.09.09-.01.17-.04.24-.09.07-.04.13-.1.18-.16l.24.3Z"/>
                <path class="cls-25" d="m280.85,279.2c-.08-.05-.13-.13-.15-.21-.02-.08-.01-.16.03-.24.04-.07.11-.12.19-.13.09-.01.17,0,.24.06.08.05.13.12.15.2.03.09.02.18-.02.25-.04.07-.11.12-.19.13-.09.01-.17,0-.25-.06Zm.23.82l.42-.07.91,3.34-.42.07-.91-3.34Z"/>
                <path class="cls-25" d="m284,282.84c-.28-.11-.53-.28-.73-.51-.21-.24-.36-.52-.45-.84-.09-.33-.1-.63-.03-.91.07-.28.2-.51.4-.69.2-.18.45-.3.75-.34.3-.05.59-.02.87.09.28.1.52.27.73.51.21.23.35.51.44.84.09.32.1.63.04.9-.06.28-.2.51-.39.7-.2.19-.45.3-.75.35-.3.05-.59.02-.87-.09Zm1.31-.57c.14-.14.24-.31.28-.53.04-.21.03-.45-.04-.7s-.18-.47-.33-.65c-.15-.18-.33-.31-.53-.39-.2-.08-.42-.1-.64-.07-.22.04-.4.12-.55.26-.15.14-.24.31-.29.52-.05.21-.03.45.04.7.07.25.18.47.34.65.16.18.34.31.54.39.21.08.42.1.64.06.22-.04.4-.12.55-.26Z"/>
                <path class="cls-25" d="m288.93,279.12c.29.2.5.53.63.99l.53,1.91-.41.07-.52-1.87c-.1-.34-.25-.59-.46-.74-.21-.15-.46-.21-.75-.16-.33.05-.56.2-.69.44-.13.24-.15.55-.05.92l.48,1.74-.42.07-.92-3.31.4-.06.17.61c.06-.22.17-.4.34-.54.17-.14.39-.23.65-.28.38-.06.72.01,1.01.21Z"/>
                <path class="cls-25" d="m291.29,281.74c-.25-.04-.45-.11-.61-.2l.09-.38c.16.09.34.15.55.19.21.04.42.04.63,0,.28-.05.47-.13.57-.24.11-.12.13-.26.09-.43-.03-.12-.1-.21-.19-.27-.09-.06-.2-.09-.32-.11-.12-.02-.28-.03-.47-.03-.26-.01-.47-.03-.64-.06-.16-.03-.32-.1-.46-.2-.14-.11-.24-.27-.3-.49-.08-.28-.03-.52.13-.72.16-.21.43-.34.81-.4.2-.03.4-.03.61,0,.21.02.39.07.54.14l-.08.38c-.3-.15-.62-.19-.97-.14-.26.04-.44.12-.55.24-.1.12-.13.26-.09.42.03.12.1.22.2.28.1.06.2.1.33.12.12.02.28.03.49.04.25.01.46.03.62.06.16.03.31.09.44.2.14.1.24.26.3.47.08.29.04.53-.14.74-.17.2-.45.34-.84.4-.25.04-.49.04-.74,0Z"/>
              </g>
              <polygon class="cls-25" points="344.74 273.02 342.19 271.14 342.38 270.73 344.5 272.3 345.43 270.24 345.85 270.55 344.74 273.02"/>
            </g>
          </g>
          <g class="cls-37">
            <path class="cls-25" d="m323,424.73l-.09.02-.31-1.23c-.24-.95-1.2-1.54-2.16-1.3-.95.24-1.54,1.2-1.3,2.16l.31,1.23-.09.02c-.29.07-.47.37-.4.66l.91,3.65c.07.29.37.47.66.4l3.65-.91c.29-.07.47-.37.4-.66l-.91-3.65c-.07-.29-.37-.47-.66-.4Zm-.42,3.7c.04.08,0,.17-.09.19l-.88.22c-.08.02-.16-.04-.17-.12l-.03-.82c0-.12-.06-.23-.16-.29-.14-.09-.25-.23-.3-.4-.09-.37.13-.75.51-.84.37-.09.75.13.84.51.04.18.01.35-.07.5-.06.1-.06.23,0,.33l.36.74Zm-.12-3.56l-2.57.64-.31-1.23c-.18-.71.26-1.43.96-1.6.71-.18,1.43.26,1.6.96l.31,1.23Z"/>
            <g>
              <path class="cls-25" d="m331.18,422.69l.87,3.49-.45.11-.16-.64c-.07.24-.2.45-.39.62-.19.17-.42.29-.7.36-.46.11-.85.08-1.17-.11-.33-.19-.55-.53-.67-1.02l-.5-2.02.47-.12.49,1.98c.09.37.25.62.48.77.23.15.51.18.85.09.37-.09.63-.28.79-.55.16-.28.19-.61.09-1.01l-.45-1.83.47-.12Z"/>
              <path class="cls-25" d="m335.41,422.02c.32.19.54.53.66,1.02l.5,2.03-.47.12-.49-1.98c-.09-.36-.25-.62-.48-.76-.23-.15-.51-.18-.85-.09-.38.09-.65.28-.81.56-.16.28-.2.61-.1,1.01l.45,1.83-.47.12-.87-3.49.45-.11.16.64c.08-.24.21-.45.41-.63.2-.17.45-.3.75-.37.44-.11.82-.07,1.14.12Z"/>
              <path class="cls-25" d="m336.64,419.81l.47-.12,1.22,4.93-.47.12-1.22-4.93Z"/>
              <path class="cls-25" d="m340.12,423.97c-.31-.09-.57-.24-.79-.48-.22-.23-.38-.52-.46-.86-.08-.34-.08-.67,0-.97.09-.31.25-.57.48-.79.23-.22.52-.37.85-.45.34-.08.66-.08.97,0,.31.08.57.24.79.47.22.23.37.52.46.86.08.34.08.67,0,.97-.09.31-.24.57-.48.79-.23.22-.52.37-.85.45-.34.08-.66.08-.97,0Zm1.49-.75c.17-.16.28-.36.34-.6.06-.24.06-.49-.01-.75-.07-.27-.18-.49-.34-.67-.16-.18-.36-.3-.58-.37-.22-.06-.46-.07-.71,0-.25.06-.46.17-.63.34-.17.16-.28.36-.35.6-.06.24-.06.49,0,.75.07.27.18.49.35.67.16.18.36.3.58.37.22.06.46.07.71,0,.25-.06.46-.17.63-.33Z"/>
              <path class="cls-25" d="m344.28,422.94c-.31-.08-.58-.24-.8-.48-.22-.23-.38-.52-.46-.86-.08-.34-.08-.67,0-.97.09-.31.25-.57.48-.79.24-.22.53-.37.87-.46.3-.07.58-.08.85-.02.27.06.5.18.69.38l-.29.33c-.16-.14-.34-.24-.53-.28-.2-.04-.4-.04-.61.01-.25.06-.47.18-.64.34-.17.16-.29.36-.35.6-.06.24-.06.49,0,.75.07.27.18.49.35.67.16.18.36.3.59.36.23.06.47.06.72,0,.21-.05.39-.14.55-.27.16-.13.27-.29.34-.49l.41.15c-.08.26-.23.48-.44.66-.21.18-.46.3-.76.37-.35.09-.67.09-.98,0Z"/>
              <path class="cls-25" d="m348.35,420.27l-.64.96.25,1-.47.12-1.22-4.93.47-.12.83,3.34,1.61-2.42.58-.14-1.14,1.8,2.15,1.66-.58.14-1.84-1.4Z"/>
              <path class="cls-25" d="m355.29,417.71l.11.44-2.6,1.87-.1-.41,2.2-1.57-2.68-.36-.1-.42,3.18.45Z"/>
              <path class="cls-25" d="m359.1,416.76l.11.44-2.6,1.87-.1-.41,2.2-1.57-2.68-.36-.1-.42,3.18.45Z"/>
            </g>
          </g>
          <path class="cls-33" d="m179.45,161.78c-.66-2.41-.71-4.73-.24-6.84.47-2.11,1.45-4.01,2.86-5.63,1.4-1.61,3.23-2.92,5.4-3.86,2.16-.93,4.65-1.48,7.4-1.55l24.58-.17c2.51-.02,4.94.93,6.78,2.65l2.17,2.03c2.07,1.94,4.82,2.99,7.66,2.93l34.84-.72c2.22-.05,4.15-1.52,4.78-3.65.63-2.15,2.6-3.64,4.85-3.65l19.94-.14c2.25-.06,4.54.3,6.77,1.02,2.22.71,4.37,1.77,6.35,3.11,1.97,1.33,3.77,2.93,5.27,4.73,1.51,1.8,2.72,3.79,3.53,5.91l82.24,213.94-214.49-171.69-10.67-38.41Zm35.81,128.88l46.02,165.64c.92,3.38,2.45,6.44,4.42,9.08,1.97,2.65,4.39,4.86,7.08,6.54,2.69,1.68,5.65,2.83,8.72,3.34,3.06.51,6.22.39,9.32-.46l119.7-37.3c2.44-.67,4.53-1.9,6.23-3.55,1.69-1.64,2.98-3.69,3.83-6.02.27-.74.48-1.51.66-2.3l-205.96-134.97Z"/>
          <g>
            <path class="cls-38" d="m194.27,244.22h0c-1.05.28-2.12-.35-2.4-1.39l-7.07-26.63c-.28-1.05.35-2.12,1.39-2.4h0c1.05-.28,2.12.35,2.4,1.39l7.07,26.63c.28,1.05-.35,2.12-1.39,2.4Z"/>
            <path class="cls-36" d="m193.91,244.1h0c-1.05.28-2.12-.35-2.4-1.39l-7.07-26.63c-.28-1.05.35-2.12,1.39-2.4h0c1.05-.28,2.12.35,2.4,1.39l7.07,26.63c.28,1.05-.35,2.12-1.39,2.4Z"/>
          </g>
          <rect class="cls-39" x="339.65" y="462.02" width="20.43" height="1.08" rx=".43" ry=".43" transform="translate(-119.99 122.56) rotate(-17.01)"/>
        </g>
        <g class="cls-45">
          <g>
            <g>
              <path class="cls-55" d="m364.84,89.33c3.59,12.02-4.25,23.38-17.51,25.37-13.26,1.99-26.93-6.15-30.52-18.18-3.59-12.02,4.26-23.37,17.52-25.36,13.25-1.98,26.92,6.14,30.51,18.17Z"/>
              <path class="cls-42" d="m337.65,70.9c.54-.01,1.08-.04,1.62-.02.33.01.66.05,1,.07.48.03.97.06,1.45.11.35.04.7.11,1.05.17.46.07.91.13,1.37.23.16.03.33.08.49.12.58.13,1.16.27,1.73.44.26.08.51.16.77.24.49.16.98.32,1.46.5.2.07.39.15.59.23.57.23,1.13.47,1.68.74.11.05.21.1.32.15.64.31,1.26.65,1.87,1.01.15.09.3.18.45.28.51.31,1.02.64,1.51.98.11.07.22.15.32.22.57.41,1.11.84,1.64,1.28.15.12.29.25.43.38.41.36.81.73,1.19,1.11.14.14.29.28.43.43.34.35.66.72.98,1.08.18.21.37.41.55.63.35.43.67.88.99,1.33.11.16.23.31.34.47.39.58.75,1.17,1.08,1.78.09.17.18.34.26.51.25.47.47.95.69,1.43.08.19.17.37.24.56.26.65.51,1.31.71,1.98.18.61.33,1.21.45,1.82.04.19.07.38.1.57.07.42.14.83.18,1.25.02.21.04.42.06.63.03.4.05.81.06,1.21,0,.19.01.39,0,.58,0,.49-.03.98-.08,1.47,0,.09,0,.18-.02.26-.06.58-.15,1.15-.26,1.72-.03.16-.08.32-.11.49-.09.4-.19.81-.31,1.2-.1.34-.2.68-.32,1.01l3.3-9.1c.09-.24.17-.49.25-.73.03-.09.04-.18.07-.27.12-.4.22-.8.31-1.2.04-.16.08-.32.11-.49.11-.57.2-1.14.26-1.72,0-.01,0-.02,0-.04,0-.07,0-.15.01-.22.04-.49.07-.98.08-1.47,0-.19,0-.39,0-.58,0-.4-.03-.8-.06-1.21-.02-.21-.04-.42-.06-.63-.05-.41-.11-.83-.18-1.25-.03-.19-.06-.38-.1-.57-.12-.6-.27-1.21-.45-1.82-.2-.67-.45-1.33-.71-1.98-.08-.19-.16-.38-.24-.56-.21-.49-.44-.96-.69-1.43-.09-.17-.17-.34-.26-.51-.32-.59-.67-1.16-1.04-1.72-.01-.02-.03-.04-.04-.06-.11-.16-.23-.31-.34-.46-.32-.45-.64-.9-.99-1.33-.17-.22-.36-.42-.55-.63-.24-.27-.46-.55-.71-.82-.09-.09-.18-.18-.27-.27-.14-.14-.29-.29-.43-.43-.39-.38-.78-.75-1.19-1.11-.14-.13-.28-.25-.43-.37-.07-.06-.14-.13-.22-.19-.46-.38-.94-.74-1.43-1.09-.11-.08-.22-.15-.32-.22-.29-.21-.58-.41-.89-.61-.2-.13-.42-.25-.62-.38-.15-.09-.3-.19-.45-.28-.58-.34-1.16-.66-1.77-.96-.03-.02-.07-.03-.1-.05-.11-.05-.21-.1-.32-.15-.55-.26-1.11-.51-1.68-.74-.19-.08-.39-.15-.59-.23-.18-.07-.35-.14-.53-.21-.31-.11-.63-.2-.94-.3-.26-.08-.51-.17-.77-.24-.57-.17-1.15-.31-1.73-.44-.16-.04-.32-.08-.48-.12-.03,0-.05-.01-.08-.02-.43-.09-.86-.14-1.3-.21-.35-.05-.69-.13-1.04-.17-.48-.06-.96-.08-1.45-.11-.33-.02-.66-.06-1-.07-.54-.02-1.08,0-1.62.02-.28,0-.56,0-.84.01-.82.05-1.65.13-2.47.25-8.55,1.28-14.84,6.45-17.28,13.17l-3.3,9.1c2.44-6.73,8.74-11.89,17.28-13.17.82-.12,1.65-.21,2.47-.25.28-.02.56,0,.84-.01Z"/>
            </g>
            <path class="cls-46" d="m343.22,87.84c-3.19-1.07-6.63.65-7.7,3.84-1.06,3.19.65,6.63,3.84,7.7,3.19,1.07,6.63-.65,7.7-3.84,1.07-3.19-.65-6.63-3.84-7.7Zm-3.18,9.51c-2.07-.69-3.18-2.93-2.49-5,.69-2.07,2.93-3.18,5-2.49,2.07.69,3.18,2.93,2.49,5-.69,2.07-2.93,3.18-5,2.49Zm10.6-7.29c-.25.74-1.05,1.15-1.8.9-.74-.25-1.15-1.05-.9-1.8.25-.74,1.05-1.15,1.8-.9.74.25,1.15,1.05.9,1.8Zm3.37,2.64c.35-1.21.43-2.09.39-2.9-.04-.83-.21-1.59-.63-2.42-.42-.83-.91-1.43-1.56-1.96-.62-.52-1.37-.98-2.55-1.43-1.18-.46-1.56-.6-4.61-1.62s-3.44-1.13-4.65-1.48c-1.21-.35-2.09-.43-2.9-.39-.83.04-1.59.21-2.42.63-.83.42-1.43.91-1.96,1.56-.52.62-.98,1.38-1.43,2.55-.46,1.18-.6,1.56-1.62,4.61-1.02,3.05-1.13,3.44-1.48,4.65-.35,1.21-.43,2.09-.39,2.9.04.83.21,1.59.63,2.42s.91,1.43,1.56,1.96c.62.52,1.38.98,2.55,1.43,1.18.46,1.56.6,4.61,1.62,3.05,1.02,3.44,1.13,4.65,1.48,1.21.35,2.09.43,2.9.39.83-.04,1.59-.21,2.42-.63.83-.42,1.43-.91,1.96-1.56.52-.62.98-1.38,1.43-2.55.46-1.18.6-1.56,1.62-4.61,1.02-3.05,1.13-3.44,1.48-4.65Zm-5.09,8.5c-.42,1.08-.8,1.61-1.08,1.96-.38.46-.75.75-1.27,1.01-.52.26-.98.38-1.57.41-.45.02-1.1,0-2.22-.31-1.2-.34-1.56-.45-4.56-1.45-3-1-3.35-1.13-4.52-1.58-1.08-.42-1.61-.8-1.96-1.08-.46-.38-.75-.75-1.01-1.27-.26-.52-.38-.98-.41-1.57-.02-.45,0-1.1.31-2.22.34-1.2.45-1.56,1.45-4.56,1-3,1.13-3.35,1.58-4.52.42-1.08.8-1.61,1.08-1.96.38-.46.75-.75,1.27-1.01.52-.26.98-.38,1.57-.41.45-.02,1.1,0,2.22.31,1.2.34,1.56.45,4.56,1.45,3,1,3.35,1.13,4.52,1.58,1.08.42,1.61.8,1.96,1.08.46.38.75.75,1.01,1.27.26.52.38.98.41,1.57.02.45,0,1.1-.31,2.22-.34,1.2-.45,1.56-1.45,4.56-1,3-1.13,3.35-1.58,4.52Z"/>
          </g>
          <g>
            <g>
              <path class="cls-47" d="m467.54,255.73c-3.39-1.33-4.58-5.15-2.66-8.54l14.29-25.21c1.92-3.39,6.22-5.05,9.61-3.72l25.23,9.91c3.39,1.33,4.58,5.15,2.66,8.54l-14.29,25.21c-1.92,3.39-6.22,5.05-9.61,3.72l-25.23-9.91Z"/>
              <path class="cls-50" d="m465.77,254.62c-.09-.08-.17-.16-.25-.24-.17-.17-.32-.35-.46-.54-.09-.12-.18-.23-.26-.35h0s0,0,0,0l5.13,8.21c.04.06.08.13.12.19.04.06.09.1.14.16.14.19.29.37.46.54.04.04.07.1.12.14.04.04.09.07.13.11.17.16.36.3.56.44.09.06.17.13.27.19.3.18.61.35.95.48l25.23,9.91c.28.11.56.19.85.26.07.02.15.03.23.05.27.05.54.1.81.12.02,0,.04,0,.06,0,0,0,0,0,.01,0,.37.03.74.02,1.11-.01.03,0,.07,0,.1,0,.02,0,.04,0,.07-.01.29-.03.58-.07.87-.14.02,0,.04,0,.05,0,.05-.01.09-.03.14-.04.21-.05.42-.11.63-.18.04-.01.09-.02.13-.04.04-.01.07-.03.11-.04.23-.08.46-.18.68-.28.03-.01.06-.02.09-.04,0,0,.01,0,.02-.01.27-.13.53-.28.78-.43.03-.02.06-.03.08-.05.03-.02.06-.05.09-.07.3-.19.59-.4.86-.64,0,0,0,0,.01,0,0,0,.02-.02.03-.03.34-.3.67-.62.96-.97,0,0,.01-.02.02-.02.3-.36.57-.74.8-1.15l14.29-25.21c.77-1.36,1.04-2.8.87-4.11-.11-.79-.37-1.53-.78-2.19l-5.13-8.21c1.1,1.76,1.15,4.12-.08,6.3l-14.29,25.21c-.23.41-.5.8-.8,1.16,0,0-.01.01-.02.02-.29.35-.62.67-.96.97-.01.01-.02.02-.04.03-.27.23-.57.44-.87.64-.06.04-.12.08-.18.11-.25.16-.52.3-.78.43-.04.02-.07.03-.11.05-.22.1-.45.2-.68.28-.08.03-.16.05-.24.08-.21.07-.42.13-.64.18-.07.02-.13.03-.19.05-.29.06-.58.11-.87.14-.05,0-.11,0-.16.01-.37.03-.74.04-1.11.01-.02,0-.05,0-.07,0-.27-.02-.54-.07-.81-.12-.08-.02-.15-.03-.22-.05-.29-.07-.57-.15-.85-.26l-25.23-9.91c-.34-.13-.66-.3-.95-.48-.09-.06-.18-.12-.27-.19-.2-.14-.38-.28-.56-.44Z"/>
            </g>
            <path class="cls-46" d="m501.58,248.06c.45-.75.82-1.55,1.1-2.41,2.13-6.43-1.43-13.4-7.95-15.56-.69-.23-1.38-.39-2.08-.5-.84-1.01-1.96-1.8-3.3-2.24-3.79-1.25-7.85.75-9.09,4.49-.41,1.25-.46,2.53-.19,3.73-.41.7-.75,1.46-1.01,2.26-2.13,6.44,1.43,13.4,7.95,15.56.74.25,1.48.42,2.23.52.8.83,1.8,1.49,2.97,1.88,3.78,1.25,7.85-.75,9.09-4.48.36-1.08.44-2.18.28-3.24Zm-6.5,1.25c-.8.58-1.81.92-3,1-1.18.08-2.49-.11-3.9-.58-1.7-.56-3.02-1.33-3.94-2.28-.65-.69-1.12-1.47-1.38-2.35-.27-.88-.29-1.67-.06-2.36.14-.42.43-.74.86-.94.42-.19.89-.21,1.38-.04.41.13.72.37.92.7.2.32.32.73.36,1.23.05.54.15,1.02.28,1.41.13.38.38.75.74,1.09.36.34.91.64,1.62.87.98.32,1.85.38,2.58.18.72-.2,1.16-.58,1.36-1.16.15-.46.12-.87-.09-1.26-.23-.4-.57-.77-1.03-1.1-.48-.34-1.15-.76-1.99-1.25-1.14-.67-2.08-1.32-2.79-1.94-.73-.64-1.25-1.35-1.55-2.14-.3-.8-.3-1.67,0-2.59.29-.88.82-1.58,1.58-2.09.75-.5,1.7-.78,2.81-.81,1.1-.03,2.32.17,3.64.61,1.05.35,1.94.78,2.64,1.27.7.5,1.25,1.04,1.63,1.6.39.57.63,1.13.73,1.65.1.53.07,1.02-.07,1.45-.14.42-.43.74-.86.96-.43.23-.9.26-1.38.1-.44-.14-.75-.36-.91-.65-.16-.27-.29-.64-.4-1.16-.11-.65-.32-1.2-.63-1.64-.3-.43-.91-.8-1.82-1.1-.84-.28-1.59-.34-2.21-.18-.6.15-.96.44-1.1.87-.09.26-.08.51.01.75.1.26.28.51.53.76.26.26.54.49.83.68.3.2.8.51,1.5.94.89.52,1.69,1.04,2.39,1.54.71.51,1.28,1.04,1.72,1.58.44.55.74,1.16.87,1.83.13.67.07,1.41-.2,2.21-.32.96-.89,1.74-1.69,2.32Z"/>
          </g>
          <g>
            <g>
              <path class="cls-54" d="m116.43,140.78c3.36-1.42,6.88.49,7.87,4.25l7.38,28.02c.99,3.77-.92,7.96-4.28,9.37l-24.98,10.54c-3.36,1.42-6.88-.49-7.87-4.25l-7.38-28.02c-.99-3.77.92-7.96,4.28-9.37l24.98-10.54Z"/>
              <path class="cls-49" d="m118.48,140.33c.12,0,.23,0,.35,0,.24,0,.47.03.7.07.14.02.29.03.43.07h0s0,0,0,0l-9.41-2.29c-.07-.02-.15-.03-.22-.05-.07-.01-.14,0-.21-.02-.23-.04-.47-.06-.71-.07-.06,0-.12-.02-.18-.02-.06,0-.11.02-.17.02-.23,0-.47.04-.7.08-.11.02-.21.03-.32.05-.34.08-.68.18-1.02.32l-24.98,10.54c-.28.12-.54.26-.79.41-.07.04-.13.08-.2.12-.23.15-.45.31-.66.48-.02.01-.03.02-.05.03,0,0,0,0,0,0-.28.24-.54.5-.79.78-.02.02-.05.04-.07.07-.01.02-.03.04-.04.05-.19.22-.36.46-.53.71-.01.02-.02.03-.03.04-.03.04-.05.09-.07.13-.12.19-.23.38-.33.57-.02.04-.05.08-.07.12-.02.03-.03.07-.05.11-.11.22-.2.44-.29.67-.01.03-.03.06-.04.09,0,0,0,.01,0,.02-.1.28-.19.57-.26.86,0,.03-.02.06-.03.09,0,.04-.01.08-.02.11-.08.35-.14.7-.17,1.06,0,0,0,.01,0,.02,0,.01,0,.02,0,.04-.04.45-.05.91-.01,1.36,0,0,0,.02,0,.03.04.46.11.93.23,1.38l7.38,28.02c.4,1.52,1.21,2.73,2.25,3.55.63.49,1.34.84,2.09,1.02l9.41,2.29c-2.02-.49-3.7-2.14-4.34-4.57l-7.38-28.02c-.12-.46-.2-.92-.23-1.39,0,0,0-.02,0-.03-.04-.46-.03-.91.01-1.36,0-.02,0-.03,0-.05.03-.36.1-.71.17-1.06.02-.07.03-.14.05-.2.07-.29.16-.58.26-.86.01-.04.03-.07.05-.11.09-.23.19-.46.29-.68.04-.08.08-.15.11-.22.1-.2.21-.39.33-.57.04-.06.07-.12.11-.17.16-.25.34-.48.53-.71.04-.04.07-.08.11-.12.25-.28.51-.55.79-.78.02-.02.04-.03.06-.04.21-.17.43-.33.66-.48.06-.04.13-.08.2-.12.26-.15.52-.29.79-.41l24.98-10.54c.34-.14.68-.24,1.02-.32.11-.02.21-.04.32-.05.24-.04.47-.07.7-.08Z"/>
            </g>
            <path class="cls-46" d="m114.58,155.19l-2.51,1c-2,.79-2.07,1.91-1.6,3.32l1.05,3.12,4.74-1.98,1.04,5.1-4.12,1.81,4.31,12.84-5.08,2.5-4.33-13.1-4.41,1.93-1.67-5.11,4.42-1.85-1.22-3.68c-1.4-4.24.46-7.52,4.2-8.94,1.76-.67,3.29-1.1,3.75-1.21l1.45,4.25Z"/>
          </g>
          <g>
            <g>
              <path class="cls-48" d="m475.93,431.07c-8.4-9.33-6.18-22.95,4.95-30.42,11.13-7.48,26.97-5.98,35.36,3.34,8.4,9.33,6.17,22.94-4.96,30.42-11.12,7.47-26.95,5.98-35.35-3.34Z"/>
              <path class="cls-59" d="m508.4,436.07c-.48.24-.96.5-1.46.71-.31.13-.62.24-.93.36-.45.18-.9.36-1.35.52-.34.11-.68.2-1.02.3-.44.13-.88.27-1.33.38-.16.04-.33.07-.49.1-.58.13-1.16.25-1.75.34-.27.04-.53.07-.8.11-.51.07-1.02.13-1.53.17-.21.02-.42.03-.63.04-.61.04-1.22.06-1.84.05-.12,0-.23,0-.35,0-.71-.01-1.42-.05-2.12-.11-.18-.02-.35-.04-.53-.05-.6-.06-1.19-.14-1.78-.24-.13-.02-.26-.04-.39-.06-.69-.13-1.36-.28-2.04-.45-.18-.05-.37-.1-.55-.16-.52-.15-1.04-.31-1.55-.49-.19-.07-.38-.13-.57-.2-.46-.17-.9-.36-1.35-.56-.26-.11-.51-.22-.77-.34-.5-.24-.98-.5-1.47-.77-.17-.09-.34-.18-.51-.27-.6-.35-1.18-.74-1.74-1.14-.15-.11-.3-.23-.46-.34-.42-.32-.83-.65-1.23-1-.15-.13-.31-.27-.46-.4-.52-.47-1.02-.96-1.49-1.49-.42-.47-.81-.96-1.18-1.45-.12-.16-.22-.31-.33-.47-.25-.35-.48-.69-.7-1.05-.11-.18-.22-.36-.33-.55-.2-.35-.39-.71-.57-1.06-.09-.17-.18-.35-.26-.52-.21-.45-.39-.9-.56-1.36-.03-.08-.07-.16-.1-.24-.19-.55-.36-1.1-.5-1.66-.04-.16-.07-.32-.11-.49-.09-.41-.17-.81-.23-1.22-.05-.35-.11-.7-.14-1.05l.92,9.64c.02.26.05.51.09.77.01.09.04.18.05.28.06.41.14.82.23,1.22.04.16.07.32.11.49.14.56.3,1.11.5,1.66,0,.01,0,.02.01.03.02.07.06.14.08.21.17.46.36.91.56,1.36.08.18.17.35.26.52.18.36.37.71.57,1.06.11.18.21.37.33.55.22.35.45.7.7,1.05.11.16.22.32.33.47.37.49.76.98,1.18,1.45.47.52.97,1.01,1.49,1.49.15.14.31.27.46.4.4.35.81.68,1.23,1,.15.11.3.23.46.34.54.39,1.1.77,1.68,1.11.02.01.04.02.06.03.16.1.34.18.5.27.48.27.97.54,1.47.78.25.12.51.22.76.33.33.15.65.3.99.43.12.05.24.08.35.13.19.07.38.14.57.2.51.18,1.03.34,1.55.49.18.05.36.11.55.16.09.02.18.06.28.08.58.14,1.17.27,1.76.38.13.02.26.04.39.06.35.06.7.12,1.06.17.24.03.48.05.72.07.18.02.35.04.53.05.67.06,1.34.1,2.01.11.04,0,.07,0,.11,0,.12,0,.23,0,.35,0,.61,0,1.22-.02,1.84-.05.21-.01.42-.03.63-.04.19-.02.38-.02.56-.04.33-.03.65-.09.97-.13.27-.04.53-.07.8-.11.59-.1,1.17-.21,1.76-.35.16-.04.32-.06.49-.1.03,0,.05-.01.08-.02.42-.1.84-.24,1.26-.37.34-.1.68-.18,1.01-.29.46-.15.9-.34,1.35-.52.31-.12.63-.23.93-.36.49-.21.97-.47,1.46-.71.25-.13.51-.24.76-.37.72-.39,1.43-.82,2.12-1.29,7.17-4.82,10.65-12.18,9.97-19.31l-.92-9.64c.68,7.12-2.8,14.49-9.97,19.31-.69.46-1.4.89-2.12,1.29-.25.14-.51.24-.76.37Z"/>
            </g>
            <path class="cls-46" d="m505.21,411.18c.04.17.07.33.1.51.96,5.73-3.68,13.96-14.62,13.89-3.34-.02-6.28-1.03-8.52-2.68.43.05.88.08,1.34.08,2.66.01,5.22-.87,7.26-2.31-2.41-.05-4.21-1.55-4.59-3.48.31.06.63.09.97.09.48,0,.94-.05,1.39-.16-2.31-.44-3.74-2.26-3.36-4.3v-.05c.61.31,1.32.49,2.12.52-1.18-.73-1.8-1.94-1.55-3.25.13-.67.46-1.28.94-1.79,1.9,2.17,5.2,3.71,9.17,3.88-.08-.29-.12-.59-.12-.89,0-2.05,1.99-3.61,4.43-3.61,1.27,0,2.48.41,3.39,1.09,1.01-.16,1.92-.45,2.71-.84-.18.81-.77,1.51-1.65,1.96.92-.09,1.77-.28,2.54-.57-.47.73-1.14,1.39-1.96,1.93Z"/>
          </g>
          <g>
            <g>
              <path class="cls-51" d="m180.61,448.03c2.46-2.68,6.46-2.41,8.92.6l18.36,22.42c2.47,3.01,2.47,7.62,0,10.3l-18.34,19.96c-2.46,2.68-6.46,2.41-8.92-.6l-18.36-22.42c-2.47-3.01-2.47-7.62,0-10.3l18.34-19.96Z"/>
              <path class="cls-40" d="m182.28,446.77c.1-.05.21-.1.32-.15.22-.09.44-.17.67-.23.14-.04.28-.09.42-.12h0s0,0,0,0l-9.51,1.83c-.07.01-.15.03-.22.05-.07.02-.13.05-.2.07-.23.06-.45.14-.67.23-.06.02-.12.03-.17.06-.05.02-.1.06-.15.09-.21.1-.41.23-.61.36-.09.06-.18.11-.27.18-.28.21-.55.44-.8.72l-18.34,19.96c-.2.22-.38.46-.55.7-.04.06-.09.13-.13.19-.15.23-.28.47-.4.71,0,.02-.02.03-.03.05,0,0,0,0,0,.01-.16.33-.28.68-.39,1.04,0,.03-.03.06-.03.09,0,.02,0,.04-.01.07-.08.28-.14.57-.19.86,0,.02,0,.04-.01.05,0,.05,0,.1-.01.15-.03.22-.05.44-.06.66,0,.05-.01.09-.01.14,0,.04,0,.08,0,.12,0,.24,0,.49.02.73,0,.03,0,.07,0,.1,0,0,0,.01,0,.02.02.3.07.59.12.89,0,.03,0,.06.01.1,0,.04.02.07.03.11.07.35.16.7.28,1.04,0,0,0,.01,0,.02,0,.01.01.02.01.03.15.43.34.84.56,1.25,0,0,.01.02.01.02.23.41.49.8.79,1.16l18.36,22.42c.99,1.21,2.23,1.98,3.52,2.29.77.19,1.56.21,2.33.06l9.51-1.83c-2.04.39-4.26-.41-5.85-2.35l-18.36-22.42c-.3-.37-.56-.76-.79-1.16,0,0,0-.01-.01-.02-.22-.4-.41-.82-.56-1.25,0-.02-.01-.03-.02-.05-.12-.34-.21-.69-.28-1.04-.01-.07-.03-.14-.04-.2-.05-.29-.1-.59-.12-.89,0-.04,0-.08,0-.12-.02-.25-.02-.49-.02-.74,0-.08,0-.17.01-.25.01-.22.03-.44.06-.66,0-.07.01-.13.03-.2.05-.29.11-.58.19-.86.01-.05.03-.11.05-.16.11-.36.23-.71.39-1.04.01-.02.02-.04.03-.06.12-.25.26-.48.4-.71.04-.06.08-.13.13-.19.17-.24.35-.48.55-.7l18.34-19.96c.25-.27.52-.5.8-.72.09-.07.18-.12.27-.18.2-.13.4-.26.61-.36Z"/>
            </g>
            <path class="cls-46" d="m200.46,471.6c.11.28.12.62,0,1.04-.13.52-.45,1.18-.93,1.97.04.11.18.35.27.5.1.17.2.35.3.54.15.29.14.57-.04.78h0s0,.02,0,.02c-.08.09-.2.2-.37.32-.26.19-.54.41-.85.75-.18.2-.34.44-.5.69-.29.5-.35,1.16-.42,1.93h0c-.1,1.14-.22,2.46-1.19,3.62-.04.05-.08.1-.12.14-.02.03-.05.07-.08.1-1,1.2-2.2,1.41-3.29,1.6-.75.13-1.41.24-1.93.66-.27.22-.53.46-.75.72-.41.47-.68.93-.87,1.26-.13.23-.25.43-.38.58-.34.39-.68.3-.91.16-.21-.13-.4-.27-.58-.4-.17-.12-.43-.31-.55-.35-1.01.81-1.87,1.37-2.55,1.65-.56.23-1,.27-1.34.12h0c-.1-.05-.19-.11-.27-.18-.27-.26-.3-.71-.08-1.03.55-.81.94-1.71,1.15-2.7.17-.79.23-1.64.18-2.53-.09-1.53-.48-2.67-.52-2.79,0-.01,0-.02-.01-.04-.13-.45-.33-.74-.58-.86-.5-.24-1.27.11-1.79.35-.15.07-.29.13-.42.18-.49.18-.91.27-1.27.27-.65,0-.94-.33-1.06-.52-.18-.29-.21-.67-.08-1.06.1-.31.28-.59.51-.79.14-.12.29-.21.45-.25.54-.15.95-.35,1.22-.59.17-.15.25-.29.29-.38-.16-.16-.32-.32-.48-.48h0c-1.46-1.46-3.3-3.3-3.81-4.85-.35-1.05-.48-2.08-.39-3.05.07-.8.3-1.57.66-2.28.63-1.21,1.52-1.95,1.98-2.28.02-.01.23-.17.35-.26.02-.01.03-.02.05-.04h0c.46-.32,1.41-.89,2.74-1.12.75-.13,1.51-.12,2.27,0,.89.15,1.79.48,2.66.97,1.26.71,2.64,2.49,3.74,3.92l.05.06c.11.14.21.28.32.41.07-.02.17-.05.28-.14.19-.19.34-.47.47-.83.06-.17.17-.29.25-.37.12-.11.27-.18.42-.22.42-.13.85-.02,1.12.29.11.13.25.35.27.7.02.29-.05.63-.22,1.03-.04.09-.09.2-.14.31-.19.39-.48.98-.3,1.43.09.23.31.43.66.61,0,0,.02,0,.03.01.14.08,3.36,1.86,5.6.29.19-.13.48-.06.66.18.05.07.1.15.13.23Z"/>
          </g>
          <g>
            <g>
              <path class="cls-52" d="m55.84,371.31c-.98-12.51,9.07-21.97,22.44-21.13,13.39.84,25.04,11.67,26.02,24.18.98,12.51-9.07,21.96-22.46,21.11-13.38-.84-25.03-11.66-26.01-24.17Z"/>
              <path class="cls-53" d="m78.56,395.04c-.53-.1-1.07-.19-1.59-.32-.32-.08-.64-.19-.96-.28-.46-.13-.93-.26-1.39-.41-.33-.11-.66-.26-.99-.38-.43-.17-.87-.32-1.29-.51-.15-.07-.3-.15-.45-.22-.54-.25-1.07-.51-1.6-.79-.24-.13-.47-.27-.7-.4-.45-.26-.89-.52-1.32-.8-.18-.11-.35-.23-.53-.35-.51-.34-1.01-.7-1.49-1.07-.09-.07-.19-.14-.28-.21-.56-.44-1.09-.9-1.61-1.38-.13-.12-.26-.24-.39-.36-.44-.41-.86-.84-1.27-1.28-.09-.1-.18-.19-.27-.28-.47-.52-.91-1.05-1.34-1.6-.12-.15-.23-.3-.34-.46-.32-.44-.64-.88-.93-1.33-.11-.17-.22-.34-.33-.51-.26-.41-.49-.84-.73-1.26-.13-.24-.28-.48-.4-.73-.25-.49-.47-1-.69-1.51-.08-.18-.16-.35-.24-.53-.26-.64-.48-1.3-.68-1.96-.06-.18-.1-.37-.15-.55-.14-.51-.26-1.03-.37-1.54-.04-.2-.08-.4-.12-.6-.12-.69-.22-1.38-.28-2.09-.05-.63-.06-1.25-.06-1.87,0-.19.01-.38.02-.58.02-.42.04-.84.08-1.26.02-.21.05-.42.07-.63.05-.4.12-.8.2-1.19.04-.19.07-.38.11-.57.11-.48.24-.96.38-1.42.03-.08.04-.17.07-.25.18-.55.39-1.09.62-1.62.07-.15.14-.3.21-.45.17-.38.36-.75.56-1.11.17-.31.34-.62.52-.92l-5.14,8.21c-.14.22-.27.44-.4.66-.05.08-.08.17-.13.25-.2.36-.38.73-.56,1.11-.07.15-.15.3-.21.45-.23.53-.44,1.07-.62,1.62,0,.01,0,.02-.01.03-.02.07-.04.14-.06.21-.15.47-.27.94-.38,1.43-.04.19-.08.38-.11.57-.08.39-.14.79-.2,1.19-.03.21-.05.42-.07.63-.04.41-.07.83-.08,1.26,0,.19-.02.38-.02.58,0,.62,0,1.24.06,1.87.06.7.16,1.4.28,2.09.04.2.08.4.12.6.11.52.23,1.03.37,1.55.05.18.1.37.15.55.19.64.41,1.28.66,1.9,0,.02.02.04.03.06.07.18.16.35.23.52.22.51.44,1.01.69,1.51.13.25.27.49.4.73.17.32.34.64.52.95.06.11.14.21.21.32.11.17.22.34.33.51.3.45.61.9.93,1.33.11.15.22.31.34.46.06.08.11.16.17.23.37.47.76.92,1.17,1.37.09.1.18.19.27.28.24.26.48.53.74.78.17.17.35.33.53.5.13.12.26.24.39.36.49.45,1,.89,1.53,1.31.03.02.06.04.09.07.09.07.19.14.28.21.48.37.98.73,1.49,1.08.17.12.35.23.52.35.16.1.31.21.47.31.28.17.57.32.85.49.23.13.46.27.7.4.52.28,1.06.54,1.6.79.15.07.3.15.45.22.02.01.05.02.07.04.4.18.81.32,1.22.48.33.13.65.27.98.38.46.16.93.28,1.39.41.32.09.63.2.96.28.52.13,1.06.22,1.59.32.28.05.55.12.83.17.81.13,1.64.22,2.47.27,8.62.54,15.87-3.18,19.66-9.25l5.14-8.21c-3.8,6.07-11.04,9.79-19.66,9.25-.83-.05-1.65-.14-2.47-.27-.28-.04-.55-.11-.83-.17Z"/>
            </g>
            <path class="cls-46" d="m88.81,360.66s-1.38-1.36-2.48-1.69c-1.44-.45-2.3-.01-2.74.14-3.12,1.29-7.86,3.7-7.86,3.7h-.01s-5.15,2.63-8.66,4.77c-.49.33-1.67.94-2,2.54-.29,1.26.74,3.27.74,3.27,0,0,1.27,2.38,2.85,4.63l1.5,2.14c1.63,2.32,3.56,4.48,3.56,4.48,0,0,1.69,1.84,3.15,2.15,1.86.43,3.14-.58,3.81-.88,2.18-1.27,8.32-5.72,8.32-5.72,0,0,4.44-3.31,7.01-5.59.33-.33,1.13-.93,1.09-2.38-.01-1.09-1.11-2.79-1.11-2.79,0,0-1.3-1.94-2.76-3.73l-1.35-1.66c-1.43-1.75-3.03-3.37-3.03-3.37Zm-6.58,15.39l-5.34-7.11,8.76-.21-3.42,7.32Z"/>
          </g>
        </g>
        <g class="cls-56">
          <path class="cls-35" d="m482.92,302.68c-11.3-6.4-25.71-2.42-32.11,8.88-6.4,11.3-2.42,25.71,8.88,32.11,11.3,6.4,25.71,2.42,32.11-8.88,6.4-11.3,2.42-25.71-8.88-32.11Zm-1.93,39.71c-.48-.83-2.14-3.37-6.05-6.6,1.63-1.97,3.21-4.23,4.68-6.72l9.86,5.59c-2.15,3.41-5.1,6.04-8.49,7.74Zm-20.3-.48c-2.33-1.32-2.78-6.2-.82-12.71,1.87.76,3.97,1.75,6.29,3.07,2.32,1.32,4.25,2.61,5.87,3.82-4.59,5.02-9.01,7.14-11.33,5.83Zm6.47-11.41c-2.46-1.39-4.68-2.44-6.66-3.24.8-2.26,1.89-4.68,3.25-7.18l14.1,7.99c-1.45,2.46-2.97,4.63-4.49,6.48-1.71-1.29-3.74-2.65-6.2-4.05Zm-15.04-17.02l9.86,5.59c-1.38,2.54-2.51,5.06-3.36,7.47-4.78-1.69-7.81-1.81-8.77-1.79-.28-3.78.45-7.67,2.27-11.26Zm9.5-9.51c.48.83,2.14,3.37,6.05,6.6-1.63,1.97-3.21,4.23-4.68,6.72l-9.86-5.59c2.15-3.41,5.1-6.04,8.49-7.74Zm20.3.48c2.33,1.32,2.78,6.2.82,12.72-1.87-.76-3.96-1.75-6.29-3.07-2.32-1.32-4.25-2.61-5.87-3.82,4.59-5.02,9.01-7.14,11.33-5.83Zm-6.47,11.41c2.46,1.39,4.68,2.44,6.66,3.24-.8,2.26-1.89,4.68-3.25,7.18l-14.1-7.99c1.45-2.46,2.97-4.63,4.49-6.48,1.71,1.29,3.74,2.65,6.2,4.05Zm5.18,11.43c1.38-2.55,2.51-5.07,3.36-7.47,4.78,1.69,7.81,1.81,8.77,1.79.28,3.78-.45,7.67-2.27,11.26l-9.86-5.59Zm11.88-7.71c-.97,0-3.67-.19-7.89-1.69,1.25-4.16,1.63-7.89,1.1-10.68,3.65,3.3,5.99,7.69,6.79,12.38Zm-14.92-16.98c-2.67.98-5.67,3.22-8.6,6.43-3.43-2.84-5-5.07-5.51-5.9,4.43-1.72,9.4-1.97,14.11-.53Zm-27.5,24.17c.97.01,3.69.21,7.89,1.7-1.25,4.16-1.63,7.88-1.1,10.68-3.65-3.3-5.99-7.69-6.79-12.38Zm14.92,16.98c2.67-.98,5.67-3.22,8.6-6.43,3.43,2.84,5,5.07,5.51,5.9-4.43,1.72-9.4,1.97-14.11.53Z"/>
          <g class="cls-27">
            <path class="cls-44" d="m416.21,249.33c-5.88,0-13.11-4.53-18.79-10.21-7.67-7.67-13.24-18.17-8.4-24.34,1.69-2.15,5.99-5.49,8.23-5.5h.02c.76,0,1.19.34,1.42.62,1.52,1.87,2.55,3.27,3.45,4.5.51.69.98,1.34,1.49,1.99,1.15,1.48-.43,3.25-1.82,4.81-.64.72-1.44,1.62-1.6,2.12-1.44,4.55,3.46,9.43,3.51,9.48.06.06,4.94,4.96,9.5,3.52.5-.16,1.39-.96,2.12-1.6,1.56-1.39,3.33-2.97,4.81-1.82.66.51,1.3.98,2,1.49,1.23.9,2.63,1.93,4.5,3.45h0c.29.23.63.67.62,1.44-.02,2.25-3.35,6.54-5.5,8.23-1.6,1.26-3.49,1.81-5.55,1.81Zm-18.99-38.02c-1.04,0-4.79,2.42-6.6,4.73-4.05,5.16,1.43,14.84,8.24,21.65,6.81,6.81,16.49,12.29,21.65,8.24,2.31-1.81,4.72-5.56,4.73-6.6-1.77-1.43-3.11-2.42-4.3-3.29-.69-.51-1.33-.98-1.98-1.48-.47.08-1.63,1.12-2.27,1.69-1,.89-1.94,1.73-2.85,2.02-5.75,1.82-11.31-3.79-11.55-4.03-.22-.22-5.83-5.79-4.01-11.53.29-.91,1.13-1.85,2.02-2.86.57-.64,1.61-1.81,1.69-2.27-.5-.65-.97-1.29-1.47-1.98-.87-1.19-1.85-2.53-3.29-4.3Zm28.14,28.12h0Z"/>
          </g>
          <path class="cls-31" d="m183.39,295.45s0-.1.01-.14c.01-.07.02-.14.02-.21,0-.07-.03-.14-.05-.21-.01-.05-.01-.1-.03-.14,0-.01-.02-.02-.02-.03-.03-.07-.08-.12-.13-.18-.04-.04-.07-.09-.11-.13-.05-.04-.1-.06-.16-.1-.06-.04-.12-.07-.19-.1-.01,0-.02-.01-.03-.02l-45.19-12.93s-.02,0-.04,0c-.07-.02-.14-.01-.21-.02-.06,0-.12-.01-.19,0-.06,0-.11.03-.16.05-.07.02-.14.04-.21.08-.01,0-.02,0-.03.01-.04.03-.07.07-.1.1-.05.05-.11.09-.15.15-.04.06-.07.13-.1.19-.02.04-.05.08-.07.13l-8.95,31.26s0,0,0,.01c-.03.09-.03.19-.02.29,0,.04-.01.07,0,.11,0,.04.03.08.04.12.02.09.04.18.09.26,0,0,0,0,0,.01.03.05.08.09.12.13.04.05.08.11.13.15.1.08.22.14.35.18l45.19,12.93c.13.04.26.05.39.03.07,0,.13-.04.19-.06.06-.02.11-.02.17-.05,0,0,0,0,0,0,.08-.04.15-.11.21-.17.03-.03.07-.05.1-.08.02-.03.03-.07.05-.1.05-.08.1-.16.13-.26,0,0,0,0,0-.01l8.95-31.26Zm-45.8-10.79l10.45,16.04-18.09,10.63,7.63-26.67Zm16.99,22.35l-15.02-23.04,39.95,11.43-24.93,11.61Zm-5.43-4.6l4.21,6.45c.14.21.34.36.57.42s.48.05.71-.06l6.98-3.25,9.84,18.83-40.63-11.63,18.32-10.77Zm14.31,2.71l17.35-8.08-7.63,26.67-9.72-18.59Z"/>
          <path class="cls-30" d="m207.35,100.57c-.23-.13-.41-.34-.48-.61-2.28-7.98-7.54-14.59-14.79-18.61-7.26-4.02-15.64-4.98-23.62-2.7-.54.15-1.1-.16-1.26-.7s.16-1.1.7-1.26c8.5-2.43,17.44-1.41,25.16,2.88,7.73,4.29,13.33,11.33,15.76,19.83.15.54-.16,1.1-.7,1.26-.27.08-.55.04-.77-.09Zm-19.79,5.98c.54-.15.85-.72.7-1.26-1.78-6.21-8.27-9.81-14.48-8.03-.54.15-.85.72-.7,1.26.15.54.72.85,1.26.7,5.13-1.47,10.5,1.51,11.97,6.64.08.27.26.48.48.61.23.13.5.17.77.09Zm10.28-2.94c.54-.15.85-.72.7-1.26-3.4-11.87-15.83-18.77-27.7-15.37-.54.15-.85.72-.7,1.26.15.54.72.85,1.26.7,10.8-3.09,22.1,3.18,25.19,13.97.08.27.26.48.48.61.23.13.5.17.77.09Zm-21.9,1.2c-2.05.59-3.23,2.72-2.65,4.77s2.72,3.23,4.77,2.65,3.23-2.72,2.65-4.77c-.59-2.05-2.72-3.23-4.77-2.65Z"/>
          <path class="cls-29" d="m167.25,387.62c-3.94,1.19-11.4-1.52-13.24-7.58-2.05-6.75.43-11.73,6.8-13.66,6.37-1.93,11.19.83,13.24,7.58,1.84,6.06-2.86,12.46-6.8,13.66Zm-5.85-19.3c-6.67,2.02-6.64,7.17-5.44,11.12,1.43,4.7,7.59,7.17,10.7,6.23,3.11-.94,6.87-6.42,5.44-11.12-1.2-3.96-4.03-8.25-10.7-6.23Zm27.38,33.36l-31.62,9.59c-.54.16-1.1-.14-1.27-.68l-2.74-9.04c-1.29-4.24,1.12-8.73,5.36-10.02l1.36-.41c.29-.09.61-.04.86.13,1.56,1.04,6.13,3.58,8.5,2.86,2.38-.72,4.76-5.37,5.48-7.1.12-.28.35-.49.64-.58l1.36-.41c4.24-1.29,8.73,1.12,10.02,5.36l2.74,9.04c.16.54-.14,1.1-.68,1.27Zm-31.24,7.35l29.68-9-2.45-8.07c-.96-3.17-4.32-4.96-7.48-4l-.91.27c-.74,1.66-3.28,6.82-6.57,7.82-3.29,1-8.27-1.88-9.81-2.85l-.91.27c-3.17.96-4.96,4.32-4,7.48l2.45,8.07Z"/>
          <path class="cls-32" d="m448.19,464.82c0-.06,0-.11,0-.16,0-.06-.01-.11-.03-.17-.02-.06-.04-.11-.07-.16-.02-.04-.02-.07-.05-.11,0-.01-.02-.02-.03-.03-.03-.05-.08-.09-.12-.13-.04-.04-.08-.08-.13-.11-.01,0-.02-.02-.04-.03-.03-.02-.07-.03-.11-.05-.05-.03-.1-.05-.16-.07-.05-.02-.11-.02-.16-.03-.06,0-.11-.01-.17,0-.06,0-.12.02-.17.03-.04,0-.08,0-.12.02l-38.93,14.18c-.38.14-.64.49-.67.89-.02.4.19.78.55.97l16.12,8.18,8.18,16.12c.17.34.52.56.91.56.02,0,.04,0,.06,0,.4-.02.76-.29.89-.67l14.18-38.93s.01-.07.02-.11c.01-.06.03-.12.03-.18Zm-4.97,2.47l-16.15,16.15-2.59,2.59-13.67-6.94,32.42-11.81Zm-10.37,33.86l-6.94-13.67,2.59-2.59,16.15-16.15-11.81,32.42Z"/>
          <path class="cls-34" d="m76.11,230.22c-3.56-1.38-6.78-1.19-9.56.57-4.02,2.55-6.34,8.17-6.99,12.84-4.38-1.73-10.42-2.47-14.62-.23-2.87,1.53-4.65,4.25-5.2,8.04-.62,4.29.43,7.99,3.14,10.99,8.64,9.58,31.22,8.75,32.17,8.71.05,0,.1-.02.15-.02.03,0,.06,0,.08-.01.08-.02.16-.06.24-.1h0s0,0,0,0c.07-.04.14-.1.2-.16.02-.02.04-.04.05-.07.03-.04.07-.07.09-.12.51-.81,12.34-20.05,8.26-32.29-1.28-3.83-3.98-6.57-8.02-8.15Zm6.1,8.79c3.45,10.35-6.02,27.14-7.78,30.12-3.46.07-22.73.05-30.04-8.06-2.31-2.57-3.18-5.62-2.64-9.34.45-3.11,1.84-5.31,4.15-6.54,4.01-2.14,10.11-1.07,14.08.83.06.03.13.03.2.05.06.01.11.04.17.05,0,0,0,0,0,0,.1,0,.21-.01.31-.04.03,0,.06,0,.09-.01.06-.02.11-.06.17-.1.06-.03.12-.06.17-.1.02-.02.03-.05.06-.07.07-.07.14-.15.18-.25,0,0,0,0,0,0,.03-.06.03-.11.04-.17.02-.07.05-.13.05-.2.3-4.39,2.37-10.23,6.21-12.66,2.21-1.4,4.81-1.53,7.74-.39,3.5,1.36,5.74,3.61,6.83,6.89Z"/>
          <path class="cls-28" d="m470.02,142.53c-.47-1.09-1.33-1.89-2.34-2.33.9-1.23,1.16-2.88.52-4.37-.97-2.26-3.59-3.31-5.85-2.35l-8.44,3.61c.26-8.17-3.78-11.11-5.62-12.02-2.4-1.19-5.1-1.05-6.59.32-1.01.93-1.26,2.26-.71,3.65,1.3,3.22,1.39,8.04.82,10.93-.51,2.57-2.24,4.71-4.64,5.74l-1.01.43-.04-.1c-.87-2.04-3.23-2.98-5.27-2.11l-6.95,2.97c-2.04.87-2.98,3.23-2.12,5.27l9.17,21.47c.87,2.04,3.23,2.98,5.27,2.11l6.95-2.97c1.88-.8,2.82-2.88,2.26-4.8l1.47-.63c1.71-.73,3.62-.79,5.38-.16,2.24.81,4.68.74,6.86-.2l4.85-2.07,7.31-3.12c2.26-.97,3.31-3.59,2.35-5.85-.47-1.09-1.33-1.89-2.34-2.33.9-1.23,1.16-2.88.52-4.38-.47-1.09-1.33-1.89-2.34-2.33.9-1.23,1.16-2.88.52-4.37Zm-26.59,25.77c.43,1.01-.04,2.17-1.04,2.6l-6.95,2.97c-1.01.43-2.17-.04-2.6-1.04l-9.17-21.47c-.43-1,.04-2.17,1.04-2.6l6.95-2.97c1-.43,2.17.04,2.6,1.04l9.17,21.47Zm23.44-21.79l-.88.38-8.19,3.5c-.52.22-.76.82-.54,1.33s.82.76,1.33.54l8.19-3.5c1.23-.53,2.66.05,3.18,1.28.53,1.23-.05,2.66-1.28,3.18l-.88.38-7.31,3.12c-.52.22-.76.82-.54,1.33s.82.76,1.33.54l7.31-3.12c1.23-.53,2.66.05,3.18,1.28.53,1.23-.05,2.66-1.28,3.18l-7.31,3.12-4.85,2.07c-1.71.73-3.62.79-5.38.16-2.24-.81-4.68-.74-6.86.2l-1.43.61-7.73-18.08,1.01-.43c3.02-1.29,5.2-3.99,5.84-7.21.64-3.26.53-8.46-.93-12.09-.36-.88.06-1.27.2-1.4.73-.67,2.48-.89,4.3.01,1.58.78,5.17,3.49,4.39,11.69,0,.02,0,.03,0,.05,0,.07.01.13.02.2.01.07.02.14.04.2,0,.02,0,.03,0,.05.02.04.05.07.08.11.04.06.07.12.12.17.05.05.1.08.15.12.05.04.1.08.16.1.07.03.13.05.21.06.04.01.08.03.13.04.02,0,.03,0,.05,0,.07,0,.13-.01.2-.02.07-.01.13-.02.2-.04.02,0,.03,0,.05-.01l9.96-4.25c1.23-.53,2.66.05,3.18,1.28.53,1.23-.05,2.66-1.28,3.18l-.88.38-9.07,3.88c-.52.22-.76.82-.54,1.33s.82.76,1.33.54l9.07-3.88c1.23-.53,2.66.05,3.18,1.28.53,1.23-.05,2.66-1.28,3.18Z"/>
        </g>
        <g>
          <path class="cls-15" d="m59.91,165.52l-3.96-3.96,3.96-3.96c.65-.65.65-1.69,0-2.34s-1.69-.65-2.34,0l-3.96,3.96-3.96-3.96c-.65-.65-1.69-.65-2.34,0-.65.65-.65,1.69,0,2.34l3.96,3.96-3.96,3.96c-.65.65-.65,1.69,0,2.34.65.65,1.69.65,2.34,0l3.96-3.96,3.96,3.96c.65.65,1.69.65,2.34,0,.65-.65.65-1.69,0-2.34Z"/>
          <path class="cls-12" d="m300.22,57.43l-3.96-3.96,3.96-3.96c.65-.65.65-1.69,0-2.34s-1.69-.65-2.34,0l-3.96,3.96-3.96-3.96c-.65-.65-1.69-.65-2.34,0s-.65,1.69,0,2.34l3.96,3.96-3.96,3.96c-.65.65-.65,1.69,0,2.34s1.69.65,2.34,0l3.96-3.96,3.96,3.96c.65.65,1.69.65,2.34,0s.65-1.69,0-2.34Z"/>
          <path class="cls-14" d="m550.52,323.28l-3.96-3.96,3.96-3.96c.65-.65.65-1.69,0-2.34s-1.69-.65-2.34,0l-3.96,3.96-3.96-3.96c-.65-.65-1.69-.65-2.34,0s-.65,1.69,0,2.34l3.96,3.96-3.96,3.96c-.65.65-.65,1.69,0,2.34s1.69.65,2.34,0l3.96-3.96,3.96,3.96c.65.65,1.69.65,2.34,0s.65-1.69,0-2.34Z"/>
          <path class="cls-4" d="m423.03,302.93l-3.96-3.96,3.96-3.96c.65-.65.65-1.69,0-2.34s-1.69-.65-2.34,0l-3.96,3.96-3.96-3.96c-.65-.65-1.69-.65-2.34,0s-.65,1.69,0,2.34l3.96,3.96-3.96,3.96c-.65.65-.65,1.69,0,2.34s1.69.65,2.34,0l3.96-3.96,3.96,3.96c.65.65,1.69.65,2.34,0s.65-1.69,0-2.34Z"/>
          <path class="cls-11" d="m274.12,511.04l-3.96-3.96,3.96-3.96c.65-.65.65-1.69,0-2.34-.65-.65-1.69-.65-2.34,0l-3.96,3.96-3.96-3.96c-.65-.65-1.69-.65-2.34,0-.65.65-.65,1.69,0,2.34l3.96,3.96-3.96,3.96c-.65.65-.65,1.69,0,2.34.65.65,1.69.65,2.34,0l3.96-3.96,3.96,3.96c.65.65,1.69.65,2.34,0,.65-.65.65-1.69,0-2.34Z"/>
          <path class="cls-23" d="m39.08,318.39l-3.96-3.96,3.96-3.96c.65-.65.65-1.69,0-2.34-.65-.65-1.69-.65-2.34,0l-3.96,3.96-3.96-3.96c-.65-.65-1.69-.65-2.34,0s-.65,1.69,0,2.34l3.96,3.96-3.96,3.96c-.65.65-.65,1.69,0,2.34s1.69.65,2.34,0l3.96-3.96,3.96,3.96c.65.65,1.69.65,2.34,0s.65-1.69,0-2.34Z"/>
          <path class="cls-5" d="m92.68,73.96c-4.25,0-7.69,3.44-7.69,7.69s3.44,7.69,7.69,7.69,7.69-3.44,7.69-7.69-3.44-7.69-7.69-7.69Zm0,12.38c-2.59,0-4.69-2.1-4.69-4.69s2.1-4.69,4.69-4.69,4.69,2.1,4.69,4.69-2.1,4.69-4.69,4.69Z"/>
          <path class="cls-13" d="m517.59,168.25c-4.25,0-7.69,3.44-7.69,7.69s3.44,7.69,7.69,7.69,7.69-3.44,7.69-7.69-3.44-7.69-7.69-7.69Zm0,12.38c-2.59,0-4.69-2.1-4.69-4.69s2.1-4.69,4.69-4.69,4.69,2.1,4.69,4.69-2.1,4.69-4.69,4.69Z"/>
          <path class="cls-24" d="m160.55,243.92c-4.25,0-7.69,3.44-7.69,7.69s3.44,7.69,7.69,7.69,7.69-3.44,7.69-7.69-3.44-7.69-7.69-7.69Zm0,12.38c-2.59,0-4.69-2.1-4.69-4.69s2.1-4.69,4.69-4.69,4.69,2.1,4.69,4.69-2.1,4.69-4.69,4.69Z"/>
          <path class="cls-7" d="m371.61,495.47c-4.25,0-7.69,3.44-7.69,7.69s3.44,7.69,7.69,7.69,7.69-3.44,7.69-7.69-3.44-7.69-7.69-7.69Zm0,12.38c-2.59,0-4.69-2.1-4.69-4.69s2.1-4.69,4.69-4.69,4.69,2.1,4.69,4.69-2.1,4.69-4.69,4.69Z"/>
          <path class="cls-17" d="m446.67,371.13c-4.25,0-7.69,3.44-7.69,7.69s3.44,7.69,7.69,7.69,7.69-3.44,7.69-7.69-3.44-7.69-7.69-7.69Zm0,12.38c-2.59,0-4.69-2.1-4.69-4.69s2.1-4.69,4.69-4.69,4.69,2.1,4.69,4.69-2.1,4.69-4.69,4.69Z"/>
          <path class="cls-1" d="m122.59,438.22c-4.25,0-7.69,3.44-7.69,7.69s3.44,7.69,7.69,7.69,7.69-3.44,7.69-7.69-3.44-7.69-7.69-7.69Zm0,12.38c-2.59,0-4.69-2.1-4.69-4.69s2.1-4.69,4.69-4.69,4.69,2.1,4.69,4.69-2.1,4.69-4.69,4.69Z"/>
          <path class="cls-8" d="m430.66,80.51c-4.25,0-7.69,3.44-7.69,7.69s3.44,7.69,7.69,7.69,7.69-3.44,7.69-7.69-3.44-7.69-7.69-7.69Zm0,12.38c-2.59,0-4.69-2.1-4.69-4.69s2.1-4.69,4.69-4.69,4.69,2.1,4.69,4.69-2.1,4.69-4.69,4.69Z"/>
        </g>
      </g>
    </g>
  </g>
</svg>