<?xml version="1.0" encoding="UTF-8"?>
<svg id="Layer_1" data-name="Layer 1" xmlns="http://www.w3.org/2000/svg" viewBox="0 0 576 576">
  <defs>
    <style>
      .cls-1 {
        fill: #fbbd9d;
      }

      .cls-2, .cls-3 {
        fill: #fff;
      }

      .cls-4 {
        fill: #455b64;
      }

      .cls-5, .cls-3 {
        opacity: .5;
      }

      .cls-6 {
        fill: #f5f5f5;
      }

      .cls-7 {
        opacity: .2;
      }

      .cls-8 {
        fill: #ec996f;
      }

      .cls-9 {
        fill: #e0e0e0;
      }

      .cls-10 {
        fill: #e7515b;
      }

      .cls-11 {
        opacity: .3;
      }

      .cls-12 {
        fill: #ebebeb;
      }

      .cls-13 {
        fill: #fafbfb;
      }

      .cls-14 {
        fill: #263238;
      }
    </style>
  </defs>
  <g>
    <path class="cls-12" d="m106.6,434.07c14.35-12.58,15.65-33.13,13.04-51.19-.44-3.01-.46-6.24-2.19-8.74-1.73-2.5-5.29-3.94-7.86-2.37-2.13,1.31-2.82,4.03-3.84,6.33-1.35,3.06-3.58,5.72-6.35,7.56-1.82,1.21-4.13,2.09-6.15,1.25-2.77-1.15-3.47-4.72-3.79-7.74-.58-5.61-1.17-11.23-1.75-16.84-.31-3.01-.64-6.08-1.89-8.84-1.25-2.75-3.61-5.18-6.56-5.66-2.95-.49-6.31,1.55-6.59,4.57-.12,1.25.27,2.5.33,3.76.05,1.26-.38,2.7-1.52,3.18-1.16.49-2.46-.24-3.46-1.02-3.44-2.7-5.98-6.38-8.38-10.05-2.4-3.68-4.75-7.45-7.93-10.45-3.18-3-7.37-5.2-11.71-4.97-4.34.23-8.63,3.4-9.26,7.75-.62,4.36,2.33,8.39,5.4,11.53,4.56,4.65,9.78,8.64,15.46,11.79,1.02.57,2.13,1.18,2.62,2.26.87,1.93-.81,4.14-2.71,5.01-2.16.99-4.62,1.03-6.94,1.56-2.32.53-4.74,1.85-5.39,4.17-.89,3.21,2.03,6.15,4.8,7.98,5.53,3.67,11.69,6.37,18.11,7.95,2.3.57,4.71,1.02,6.67,2.38,1.96,1.36,3.33,3.94,2.49,6.18-.85,2.24-3.54,3.22-5.9,3.05-2.37-.17-4.58-1.2-6.88-1.79-4.31-1.1-9.62-.23-11.87,3.64-1.48,2.54-1.27,5.83-.08,8.53,1.19,2.7,3.24,4.92,5.38,6.93,7.49,7.05,16.66,12.37,26.62,14.64,9.96,2.27,18.95,2.19,28.1-2.35"/>
    <path class="cls-9" d="m108.32,447.48c-1.45-7.11-3.96-15.41-7.65-24.26-3.68-8.85-8.51-18.22-13.91-27.85-1.36-2.4-2.7-4.77-4.02-7.11-1.32-2.33-2.64-4.64-4.06-6.83-2.83-4.38-5.89-8.37-8.9-12.07-3.02-3.7-6.02-7.11-8.84-10.27-2.84-3.16-5.53-6.05-8.1-8.58-5.13-5.08-9.74-8.69-13.01-11.03-1.63-1.18-2.93-2.05-3.81-2.63-.43-.27-.76-.49-1.01-.65-.23-.14-.35-.21-.35-.21,0,0,.1.09.32.25.24.17.57.4.98.7.87.61,2.14,1.51,3.75,2.71,3.22,2.4,7.78,6.03,12.86,11.14,2.55,2.54,5.22,5.44,8.04,8.61,2.81,3.17,5.79,6.58,8.79,10.28,3,3.7,6.03,7.68,8.84,12.04,1.41,2.17,2.71,4.47,4.04,6.8,1.32,2.34,2.66,4.71,4.02,7.11,5.39,9.62,10.23,18.96,13.92,27.77,3.71,8.81,6.25,17.07,7.74,24.14"/>
    <path class="cls-9" d="m78.52,381.43s.09-.47.15-1.32c.07-.85.12-2.08.17-3.6.1-3.04.08-7.25.05-11.89-.03-4.64.02-8.84.16-11.87.07-1.52.13-2.74.19-3.59.05-.85.06-1.32.02-1.32-.04,0-.12.46-.24,1.3-.12.84-.25,2.07-.37,3.59-.24,3.04-.35,7.25-.32,11.89.04,4.58.08,8.72.11,11.88,0,1.43,0,2.63,0,3.6,0,.85.03,1.32.06,1.32Z"/>
    <path class="cls-9" d="m39.03,378.46s.56.04,1.56.01c1-.02,2.45-.06,4.25-.05,3.59,0,8.54.15,14,.57,5.46.43,10.38,1.02,13.93,1.56,1.78.25,3.21.5,4.2.66.99.17,1.54.24,1.55.2,0-.04-.53-.19-1.51-.42-.98-.23-2.41-.53-4.18-.84-3.54-.64-8.48-1.3-13.95-1.73-5.47-.42-10.45-.52-14.04-.41-1.8.04-3.25.14-4.25.23-1,.09-1.55.16-1.55.2Z"/>
    <path class="cls-9" d="m100.11,422.56s.09-.17.21-.5c.14-.4.3-.88.51-1.47.43-1.28,1.02-3.15,1.7-5.47,1.38-4.64,3.08-11.1,4.86-18.27,1.78-7.16,3.42-13.64,4.7-18.3.63-2.27,1.15-4.13,1.53-5.52.16-.6.3-1.1.41-1.5.09-.34.12-.53.11-.54-.02,0-.09.17-.21.5-.14.4-.3.88-.51,1.47-.43,1.28-1.02,3.15-1.7,5.47-1.38,4.64-3.08,11.1-4.86,18.27-1.78,7.16-3.42,13.63-4.7,18.3-.63,2.27-1.15,4.13-1.53,5.51-.16.6-.3,1.1-.41,1.5-.09.35-.12.53-.11.54Z"/>
    <path class="cls-9" d="m46.88,411.66s.18.07.53.15c.42.09.93.2,1.55.34,1.43.3,3.36.69,5.7,1.18,4.81,1,11.45,2.45,18.78,4.06,7.33,1.61,13.98,3,18.82,3.9,2.42.45,4.38.79,5.74,1,.63.09,1.15.17,1.57.23.36.05.55.06.55.04,0-.02-.18-.07-.53-.15-.42-.09-.93-.2-1.55-.33-1.43-.3-3.36-.69-5.7-1.18-4.81-.99-11.45-2.45-18.78-4.06-7.33-1.61-13.98-3-18.82-3.9-2.42-.45-4.38-.79-5.74-1-.63-.09-1.15-.17-1.57-.23-.36-.05-.55-.06-.55-.04Z"/>
  </g>
  <g>
    <rect class="cls-6" x="107.8" y="235.15" width="69.29" height="212.27"/>
    <rect class="cls-13" x="176.88" y="235.15" width="54.77" height="212.27"/>
    <g>
      <rect class="cls-9" x="111.52" y="269.12" width="58.78" height="16.55"/>
      <rect class="cls-6" x="113.16" y="271.2" width="3.29" height="12.67"/>
      <path class="cls-13" d="m120.33,273.87c0,.58-.47,1.05-1.05,1.05s-1.05-.47-1.05-1.05.47-1.05,1.05-1.05,1.05.47,1.05,1.05Z"/>
      <circle class="cls-13" cx="119.29" cy="278.34" r="1.05"/>
      <rect class="cls-6" x="124.51" y="272.82" width="3.23" height="9.73"/>
      <rect class="cls-6" x="129.18" y="272.82" width="3.23" height="9.73"/>
      <rect class="cls-6" x="133.86" y="272.82" width="3.23" height="9.73"/>
      <rect class="cls-6" x="138.53" y="272.82" width="3.23" height="9.73"/>
      <rect class="cls-6" x="143.2" y="272.82" width="3.23" height="9.73"/>
      <rect class="cls-6" x="147.87" y="272.82" width="3.23" height="9.73"/>
      <rect class="cls-6" x="152.55" y="272.82" width="3.23" height="9.73"/>
      <rect class="cls-6" x="157.22" y="272.82" width="3.23" height="9.73"/>
      <rect class="cls-6" x="161.89" y="272.82" width="3.23" height="9.73"/>
      <rect class="cls-6" x="166.56" y="272.82" width="3.23" height="9.73"/>
    </g>
    <g>
      <rect class="cls-9" x="111.52" y="295.63" width="58.78" height="16.55"/>
      <rect class="cls-6" x="113.16" y="297.71" width="3.29" height="12.67"/>
      <path class="cls-13" d="m120.33,300.37c0,.58-.47,1.05-1.05,1.05s-1.05-.47-1.05-1.05.47-1.05,1.05-1.05,1.05.47,1.05,1.05Z"/>
      <circle class="cls-13" cx="119.29" cy="304.85" r="1.05"/>
      <rect class="cls-6" x="124.51" y="299.33" width="3.23" height="9.73"/>
      <rect class="cls-6" x="129.18" y="299.33" width="3.23" height="9.73"/>
      <rect class="cls-6" x="133.86" y="299.33" width="3.23" height="9.73"/>
      <rect class="cls-6" x="138.53" y="299.33" width="3.23" height="9.73"/>
      <rect class="cls-6" x="143.2" y="299.33" width="3.23" height="9.73"/>
      <rect class="cls-6" x="147.87" y="299.33" width="3.23" height="9.73"/>
      <rect class="cls-6" x="152.55" y="299.33" width="3.23" height="9.73"/>
      <rect class="cls-6" x="157.22" y="299.33" width="3.23" height="9.73"/>
      <rect class="cls-6" x="161.89" y="299.33" width="3.23" height="9.73"/>
      <rect class="cls-6" x="166.56" y="299.33" width="3.23" height="9.73"/>
    </g>
    <g>
      <rect class="cls-9" x="111.52" y="322.14" width="58.78" height="16.55"/>
      <rect class="cls-6" x="113.16" y="324.22" width="3.29" height="12.67"/>
      <path class="cls-13" d="m120.33,326.88c0,.58-.47,1.05-1.05,1.05s-1.05-.47-1.05-1.05.47-1.05,1.05-1.05,1.05.47,1.05,1.05Z"/>
      <circle class="cls-13" cx="119.29" cy="331.36" r="1.05"/>
      <rect class="cls-6" x="124.51" y="325.83" width="3.23" height="9.73"/>
      <rect class="cls-6" x="129.18" y="325.83" width="3.23" height="9.73"/>
      <rect class="cls-6" x="133.86" y="325.83" width="3.23" height="9.73"/>
      <rect class="cls-6" x="138.53" y="325.83" width="3.23" height="9.73"/>
      <rect class="cls-6" x="143.2" y="325.83" width="3.23" height="9.73"/>
      <rect class="cls-6" x="147.87" y="325.83" width="3.23" height="9.73"/>
      <rect class="cls-6" x="152.55" y="325.83" width="3.23" height="9.73"/>
      <rect class="cls-6" x="157.22" y="325.83" width="3.23" height="9.73"/>
      <rect class="cls-6" x="161.89" y="325.83" width="3.23" height="9.73"/>
      <rect class="cls-6" x="166.56" y="325.83" width="3.23" height="9.73"/>
    </g>
    <g>
      <rect class="cls-9" x="111.52" y="348.64" width="58.78" height="16.55"/>
      <rect class="cls-6" x="113.16" y="350.72" width="3.29" height="12.67"/>
      <path class="cls-13" d="m120.33,353.39c0,.58-.47,1.05-1.05,1.05s-1.05-.47-1.05-1.05.47-1.05,1.05-1.05,1.05.47,1.05,1.05Z"/>
      <circle class="cls-13" cx="119.29" cy="357.86" r="1.05"/>
      <rect class="cls-6" x="124.51" y="352.34" width="3.23" height="9.73"/>
      <rect class="cls-6" x="129.18" y="352.34" width="3.23" height="9.73"/>
      <rect class="cls-6" x="133.86" y="352.34" width="3.23" height="9.73"/>
      <rect class="cls-6" x="138.53" y="352.34" width="3.23" height="9.73"/>
      <rect class="cls-6" x="143.2" y="352.34" width="3.23" height="9.73"/>
      <rect class="cls-6" x="147.87" y="352.34" width="3.23" height="9.73"/>
      <rect class="cls-6" x="152.55" y="352.34" width="3.23" height="9.73"/>
      <rect class="cls-6" x="157.22" y="352.34" width="3.23" height="9.73"/>
      <rect class="cls-6" x="161.89" y="352.34" width="3.23" height="9.73"/>
      <rect class="cls-6" x="166.56" y="352.34" width="3.23" height="9.73"/>
    </g>
    <g>
      <rect class="cls-9" x="111.52" y="375.15" width="58.78" height="16.55"/>
      <rect class="cls-6" x="113.16" y="377.23" width="3.29" height="12.67"/>
      <path class="cls-13" d="m120.33,379.89c0,.58-.47,1.05-1.05,1.05s-1.05-.47-1.05-1.05.47-1.05,1.05-1.05,1.05.47,1.05,1.05Z"/>
      <circle class="cls-13" cx="119.29" cy="384.37" r="1.05"/>
      <rect class="cls-6" x="124.51" y="378.85" width="3.23" height="9.73"/>
      <rect class="cls-6" x="129.18" y="378.85" width="3.23" height="9.73"/>
      <rect class="cls-6" x="133.86" y="378.85" width="3.23" height="9.73"/>
      <rect class="cls-6" x="138.53" y="378.85" width="3.23" height="9.73"/>
      <rect class="cls-6" x="143.2" y="378.85" width="3.23" height="9.73"/>
      <rect class="cls-6" x="147.87" y="378.85" width="3.23" height="9.73"/>
      <rect class="cls-6" x="152.55" y="378.85" width="3.23" height="9.73"/>
      <rect class="cls-6" x="157.22" y="378.85" width="3.23" height="9.73"/>
      <rect class="cls-6" x="161.89" y="378.85" width="3.23" height="9.73"/>
      <rect class="cls-6" x="166.56" y="378.85" width="3.23" height="9.73"/>
    </g>
    <g>
      <rect class="cls-9" x="111.52" y="401.66" width="58.78" height="16.55"/>
      <rect class="cls-6" x="113.16" y="403.74" width="3.29" height="12.67"/>
      <path class="cls-13" d="m120.33,406.4c0,.58-.47,1.05-1.05,1.05s-1.05-.47-1.05-1.05.47-1.05,1.05-1.05,1.05.47,1.05,1.05Z"/>
      <circle class="cls-13" cx="119.29" cy="410.88" r="1.05"/>
      <rect class="cls-6" x="124.51" y="405.35" width="3.23" height="9.73"/>
      <rect class="cls-6" x="129.18" y="405.35" width="3.23" height="9.73"/>
      <rect class="cls-6" x="133.86" y="405.35" width="3.23" height="9.73"/>
      <rect class="cls-6" x="138.53" y="405.35" width="3.23" height="9.73"/>
      <rect class="cls-6" x="143.2" y="405.35" width="3.23" height="9.73"/>
      <rect class="cls-6" x="147.87" y="405.35" width="3.23" height="9.73"/>
      <rect class="cls-6" x="152.55" y="405.35" width="3.23" height="9.73"/>
      <rect class="cls-6" x="157.22" y="405.35" width="3.23" height="9.73"/>
      <rect class="cls-6" x="161.89" y="405.35" width="3.23" height="9.73"/>
      <rect class="cls-6" x="166.56" y="405.35" width="3.23" height="9.73"/>
    </g>
    <g>
      <rect class="cls-9" x="111.52" y="428.16" width="58.78" height="16.55"/>
      <rect class="cls-6" x="113.16" y="430.24" width="3.29" height="12.67"/>
      <circle class="cls-13" cx="119.29" cy="432.91" r="1.05"/>
      <circle class="cls-13" cx="119.29" cy="437.38" r="1.05"/>
      <rect class="cls-6" x="124.51" y="431.86" width="3.23" height="9.73"/>
      <rect class="cls-6" x="129.18" y="431.86" width="3.23" height="9.73"/>
      <rect class="cls-6" x="133.86" y="431.86" width="3.23" height="9.73"/>
      <rect class="cls-6" x="138.53" y="431.86" width="3.23" height="9.73"/>
      <rect class="cls-6" x="143.2" y="431.86" width="3.23" height="9.73"/>
      <rect class="cls-6" x="147.87" y="431.86" width="3.23" height="9.73"/>
      <rect class="cls-6" x="152.55" y="431.86" width="3.23" height="9.73"/>
      <rect class="cls-6" x="157.22" y="431.86" width="3.23" height="9.73"/>
      <rect class="cls-6" x="161.89" y="431.86" width="3.23" height="9.73"/>
      <rect class="cls-6" x="166.56" y="431.86" width="3.23" height="9.73"/>
    </g>
    <path class="cls-9" d="m147.87,269.12s-.04-.17-.06-.51c-.03-.34-.05-.83-.06-1.47-.02-.64-.03-1.42-.07-2.32-.05-.9-.11-1.93-.41-3.02-.31-1.08-.8-2.23-1.57-3.3-.76-1.07-1.84-2.03-3.21-2.58-1.37-.57-2.94-.78-4.56-.93-1.64-.14-3.33-.29-5.06-.44-6.94-.6-13.23-.99-17.79-1.08-2.28-.05-4.12-.04-5.4-.04-.6,0-1.09,0-1.47.01-.34,0-.51,0-.51-.02,0-.01.17-.04.51-.06.38-.02.87-.05,1.47-.09,1.28-.06,3.12-.11,5.41-.1,4.57.01,10.88.35,17.82.95,1.73.15,3.43.3,5.06.45,1.63.15,3.25.37,4.67.98,1.44.59,2.58,1.62,3.35,2.74.79,1.12,1.27,2.31,1.57,3.43.28,1.13.32,2.18.35,3.08.02.91.01,1.69,0,2.33,0,.6-.01,1.09-.02,1.47,0,.34,0,.51-.02.51Z"/>
    <path class="cls-9" d="m130.04,269.12s-.03-.17-.04-.48c0-.36-.01-.82-.02-1.38,0-.6,0-1.33-.07-2.18-.08-.83-.21-1.81-.72-2.72-.51-.9-1.51-1.57-2.65-2.03-1.15-.45-2.5-.63-3.86-.39-.68.12-1.36.34-1.99.68-.62.34-1.21.83-1.54,1.46-.35.63-.36,1.41,0,2.05.36.64,1.01,1.14,1.75,1.31.74.18,1.51-.08,2.04-.59.54-.51.87-1.23.92-1.95.07-.73-.2-1.41-.61-1.99-.41-.58-.95-1.06-1.55-1.37-.59-.33-1.27-.39-1.94-.5-.66-.1-1.31-.19-1.93-.26-1.25-.14-2.42-.22-3.49-.27-2.14-.09-3.88-.05-5.08-.06-.56,0-1.02,0-1.38,0-.32,0-.48-.02-.48-.03,0-.01.17-.03.48-.05.36-.02.82-.04,1.38-.07,1.2-.05,2.94-.13,5.09-.08,1.08.03,2.26.09,3.52.22.63.06,1.28.14,1.95.24.34.05.67.09,1.02.16.36.07.71.19,1.04.36.66.34,1.25.85,1.7,1.48.45.62.78,1.43.69,2.26-.06.82-.42,1.63-1.04,2.22-.61.6-1.55.91-2.43.7-.86-.2-1.6-.77-2.02-1.52-.44-.75-.42-1.74,0-2.45.4-.74,1.05-1.25,1.72-1.62.68-.36,1.4-.59,2.12-.71,1.44-.24,2.86-.03,4.06.45,1.18.49,2.23,1.22,2.78,2.21.53.99.64,2,.7,2.85.04.86.02,1.6,0,2.2-.02.56-.04,1.02-.06,1.38-.02.32-.03.48-.05.48Z"/>
    <path class="cls-9" d="m152.67,269.12s-.06-.19-.12-.55c-.07-.36-.17-.89-.31-1.57-.3-1.35-.77-3.32-1.74-5.6-.96-2.26-2.49-4.89-5.11-6.85-1.28-1-2.93-1.54-4.68-1.78-1.75-.25-3.61-.24-5.51-.3-7.6-.14-14.48-.12-19.46-.31-2.49-.09-4.5-.21-5.89-.31-.66-.06-1.19-.1-1.6-.14-.37-.04-.56-.06-.56-.08,0-.01.19-.02.56,0,.41.01.94.03,1.6.06,1.39.05,3.4.12,5.89.17,4.98.12,11.86.05,19.46.19,1.9.05,3.76.04,5.56.31,1.79.24,3.53.83,4.85,1.88,1.31,1.03,2.42,2.19,3.24,3.43.83,1.23,1.44,2.47,1.92,3.62.95,2.32,1.37,4.32,1.62,5.69.12.69.2,1.22.24,1.59.04.37.05.56.04.56Z"/>
    <rect class="cls-9" x="112.33" y="237.79" width="57.16" height="8.3"/>
    <rect class="cls-6" x="124.9" y="241.94" width="31.12" height="4.15"/>
  </g>
  <path class="cls-14" d="m552,447.56c0,.12-117.76.21-262.99.21s-263.01-.1-263.01-.21,117.73-.21,263.01-.21,262.99.1,262.99.21Z"/>
  <g>
    <path class="cls-10" d="m508.82,345.39s-4.71-3.06-10.33,8.2c-5.62,11.26-7.73,17.74-7.73,17.74,0,0-1.49,2.36-3.12.84-1.63-1.52-3.87-5.86-6.61-5.05-2.84.84-3.75,4.02-3.17,8.68.58,4.66,1.48,14.92,1.56,15.84.08.91-.43,2.26-1.71,1.4-1.27-.86-8.63-8.91-12.24-5.2-3.61,3.72.14,16.43.52,17.83.38,1.4.11,2-.55,2.35s-2.88-2.59-5.07-4.79c-2.19-2.21-5.11-4.38-7.01-2.06-1.9,2.32-2.44,11.89,6.79,27.35l4.75,6.88,8.38-.53c17.87-2.24,25.08-8.55,25.73-11.48.66-2.93-2.85-3.89-5.94-4.26-3.08-.37-6.77-.3-6.9-1.04-.13-.74.18-1.32,1.52-1.88s13.67-5.43,14.38-10.56c.71-5.14-10.17-5.98-11.63-6.45-1.46-.48-.71-1.71.05-2.21.78-.51,9.42-6.11,13.45-8.52,4.03-2.41,5.98-5.09,4.89-7.84-1.05-2.65-5.85-1.75-8.05-2.1-2.2-.35-1.26-2.97-1.26-2.97,0,0,3.81-5.65,9.23-17.01,5.41-11.36-.04-13.21-.04-13.21"/>
    <path class="cls-14" d="m503.77,355.46s-.03.08-.1.24c-.08.17-.18.4-.32.7-.29.63-.72,1.53-1.26,2.7-1.1,2.34-2.7,5.72-4.71,9.88-4.01,8.33-9.64,19.78-15.91,32.41-6.27,12.64-11.93,24.08-15.98,32.38-2.02,4.15-3.65,7.5-4.79,9.84-.56,1.15-1,2.05-1.31,2.67-.15.3-.26.53-.35.69-.08.16-.13.23-.13.23,0,0,.03-.08.1-.24.08-.17.18-.4.32-.7.29-.63.72-1.53,1.26-2.7,1.1-2.34,2.7-5.72,4.71-9.88,4.01-8.33,9.64-19.78,15.91-32.42,6.26-12.63,11.93-24.07,15.98-32.38,2.02-4.15,3.65-7.5,4.79-9.84.56-1.15,1-2.05,1.31-2.67.15-.3.26-.53.35-.69.08-.16.13-.23.13-.23Z"/>
    <path class="cls-14" d="m483.93,373.31s.1.2.22.56c.13.37.29.91.49,1.57.39,1.33.88,3.19,1.39,5.25.49,2.03.93,3.86,1.27,5.27.15.63.28,1.16.39,1.6.09.38.14.59.12.59-.02,0-.1-.19-.22-.56-.12-.37-.29-.91-.48-1.57-.38-1.34-.85-3.2-1.35-5.26-.5-2.02-.96-3.85-1.31-5.26-.16-.63-.29-1.16-.4-1.59-.09-.38-.13-.59-.11-.59Z"/>
    <path class="cls-14" d="m488.57,388.29c-.02-.08,3.76-1.26,8.44-2.65,4.68-1.39,8.5-2.45,8.52-2.38.02.07-3.76,1.26-8.44,2.65-4.68,1.39-8.5,2.45-8.52,2.38Z"/>
    <path class="cls-14" d="m478.08,407.26s.22-.03.62-.04c.46,0,1.02,0,1.68-.01,1.42-.01,3.37-.03,5.53-.13,2.16-.1,4.11-.25,5.52-.37.66-.06,1.22-.1,1.67-.14.4-.03.62-.04.62-.02,0,.02-.21.06-.6.13-.39.06-.96.15-1.66.23-1.41.17-3.36.36-5.53.46-2.16.1-4.13.09-5.54.05-.71-.02-1.28-.05-1.68-.08-.4-.03-.61-.05-.61-.07Z"/>
    <path class="cls-14" d="m470.89,394.63s.14.16.34.46c.2.31.48.76.82,1.32.68,1.12,1.61,2.67,2.62,4.39,1.01,1.72,1.91,3.29,2.55,4.44.32.57.57,1.04.75,1.36.17.32.26.51.24.52-.02,0-.14-.16-.34-.46-.2-.31-.48-.76-.82-1.32-.68-1.12-1.61-2.67-2.62-4.39-1.01-1.72-1.91-3.29-2.55-4.43-.32-.57-.57-1.04-.75-1.36-.17-.32-.26-.51-.24-.52Z"/>
    <path class="cls-14" d="m459.5,410.2s.17.2.42.6c.28.44.64,1.01,1.06,1.68.88,1.43,2.09,3.41,3.41,5.6,1.32,2.2,2.49,4.19,3.34,5.65.39.69.72,1.27.98,1.73.23.41.34.64.33.65-.02.01-.17-.2-.42-.6-.28-.44-.64-1.01-1.06-1.68-.88-1.43-2.09-3.41-3.41-5.61-1.32-2.2-2.49-4.19-3.33-5.65-.39-.69-.72-1.27-.98-1.73-.23-.41-.34-.64-.33-.65Z"/>
    <path class="cls-14" d="m468.91,425.67s.28-.04.78-.07c.56-.02,1.27-.05,2.13-.09,1.8-.08,4.27-.19,7.01-.4,2.73-.2,5.2-.44,6.99-.63.85-.09,1.56-.16,2.12-.22.5-.05.78-.07.78-.05,0,.02-.27.07-.77.16-.5.08-1.22.19-2.11.31-1.78.24-4.26.51-6.99.71-2.74.2-5.22.29-7.02.31-.9.01-1.63.01-2.13,0-.5,0-.78-.02-.78-.04Z"/>
  </g>
  <g>
    <path class="cls-10" d="m104.1,425.01c-2.55-1.34-5.56-1.53-8.4-1.08-1.53.24-3.12.69-4.17,1.82s-1.26,3.15-.07,4.14c.71.59,1.69.69,2.61.68,2.22-.01,4.69-.38,6.46.97,1.01.77,1.67,2.04,2.88,2.43,1.18.38,2.52-.31,3.16-1.38.64-1.06.67-2.4.38-3.61,0,0-.29-2.63-2.86-3.98Z"/>
    <g class="cls-11">
      <path d="m104.1,425.01c-2.55-1.34-5.56-1.53-8.4-1.08-1.53.24-3.12.69-4.17,1.82s-1.26,3.15-.07,4.14c.71.59,1.69.69,2.61.68,2.22-.01,4.69-.38,6.46.97,1.01.77,1.67,2.04,2.88,2.43,1.18.38,2.52-.31,3.16-1.38.64-1.06.67-2.4.38-3.61,0,0-.29-2.63-2.86-3.98Z"/>
    </g>
    <path class="cls-10" d="m110.04,413.74c-1.58,2.22-4.61,1.46-6.01.09-1.4-1.37-1.98-3.35-2.51-5.24-1.21-4.31-2.43-8.84-1.47-13.21.28-1.31.78-2.61,1.71-3.58.93-.97,2.35-1.53,3.64-1.18,1.53.42,2.47,1.92,3.15,3.35,1.99,4.21,3.03,8.87,3.02,13.53,0,2.18-.28,4.45-1.52,6.24"/>
    <g class="cls-11">
      <path class="cls-2" d="m110.04,413.74c-1.58,2.22-4.61,1.46-6.01.09-1.4-1.37-1.98-3.35-2.51-5.24-1.21-4.31-2.43-8.84-1.47-13.21.28-1.31.78-2.61,1.71-3.58.93-.97,2.35-1.53,3.64-1.18,1.53.42,2.47,1.92,3.15,3.35,1.99,4.21,3.03,8.87,3.02,13.53,0,2.18-.28,4.45-1.52,6.24"/>
    </g>
    <path class="cls-10" d="m114.31,416.97c-1.68-2.03-1.98-4.97-1.21-7.49.77-2.52,2.49-4.65,4.47-6.39,2.32-2.04,5.04-3.62,7.96-4.62,1.15-.4,2.36-.7,3.57-.58,1.21.12,2.42.75,2.98,1.83.82,1.6,0,3.52-.87,5.09-1.54,2.76-3.31,5.41-5.26,7.89-1.58,2-3.38,3.97-5.76,4.87-2.39.89-4.86.77-6.11-.89"/>
    <path class="cls-14" d="m109.91,447.42s-.07-.36-.13-1.02c-.07-.74-.15-1.67-.25-2.77-.12-1.17-.28-2.55-.59-4.07-.31-1.51-.81-3.14-1.44-4.8-.66-1.65-1.47-3.15-2.42-4.35-.94-1.21-2.04-2.09-3.08-2.59-1.03-.52-1.96-.73-2.6-.83-.65-.07-1.01-.12-1.01-.15,0-.03.36-.03,1.03,0,.66.05,1.62.22,2.71.73,1.09.49,2.26,1.38,3.25,2.62,1,1.23,1.83,2.76,2.51,4.44.65,1.69,1.13,3.34,1.43,4.88.3,1.54.43,2.94.51,4.12.08,1.18.11,2.13.12,2.79.01.66,0,1.02-.03,1.02Z"/>
    <path class="cls-14" d="m109.74,445.29s-.02-.16-.02-.47c0-.35,0-.8.01-1.35.01-1.17.02-2.86-.03-4.95-.07-4.18-.39-9.94-1.04-16.28-.66-6.34-1.54-12.05-2.36-16.15-.19-1.03-.39-1.95-.57-2.76-.17-.81-.32-1.51-.47-2.08-.12-.53-.23-.97-.31-1.31-.07-.3-.09-.46-.08-.47.01,0,.07.15.16.44.1.34.23.77.38,1.29.17.56.34,1.26.54,2.06.21.81.42,1.73.63,2.75.89,4.09,1.83,9.81,2.49,16.16.65,6.35.92,12.14.92,16.32.01,2.09-.05,3.79-.11,4.96-.04.55-.07.99-.09,1.34-.03.31-.05.47-.06.47Z"/>
    <path class="cls-14" d="m109.79,434.14s-.02-.5.02-1.41c.06-.9.19-2.21.46-3.81.28-1.59.67-3.49,1.28-5.54.58-2.06,1.37-4.29,2.37-6.55,1.96-4.55,4.6-8.27,6.89-10.57.54-.61,1.14-1.05,1.61-1.48.25-.21.47-.41.69-.58.22-.15.43-.29.63-.42.75-.51,1.17-.77,1.19-.75.07.09-1.69,1.11-3.91,3.43-2.21,2.32-4.78,6.01-6.72,10.53-.99,2.24-1.79,4.45-2.38,6.49-.62,2.04-1.04,3.91-1.36,5.49-.3,1.58-.48,2.87-.59,3.77-.09.9-.15,1.39-.18,1.39Z"/>
  </g>
  <path class="cls-14" d="m243.96,204.05c-.12,0-.21-9.02-.21-20.15s.1-20.15.21-20.15.21,9.02.21,20.15-.1,20.15-.21,20.15Z"/>
  <g>
    <g>
      <g>
        <rect class="cls-14" x="358.74" y="340.67" width="92.14" height="101.09"/>
        <rect class="cls-4" x="345.28" y="360.89" width="100.72" height="24.99"/>
        <rect class="cls-14" x="349.75" y="366.04" width="19.83" height="3.05"/>
        <rect class="cls-14" x="349.75" y="371.29" width="19.83" height="3.05"/>
        <rect class="cls-14" x="349.75" y="376.72" width="19.83" height="3.05"/>
        <g>
          <g>
            <path class="cls-14" d="m377.43,367.88c0,.63-.51,1.14-1.14,1.14s-1.14-.51-1.14-1.14.51-1.14,1.14-1.14,1.14.51,1.14,1.14Z"/>
            <path class="cls-14" d="m382.45,367.88c0,.63-.51,1.14-1.14,1.14s-1.14-.51-1.14-1.14.51-1.14,1.14-1.14,1.14.51,1.14,1.14Z"/>
            <path class="cls-14" d="m387.47,367.88c0,.63-.51,1.14-1.14,1.14s-1.14-.51-1.14-1.14.51-1.14,1.14-1.14,1.14.51,1.14,1.14Z"/>
            <path class="cls-14" d="m392.49,367.88c0,.63-.51,1.14-1.14,1.14s-1.14-.51-1.14-1.14.51-1.14,1.14-1.14,1.14.51,1.14,1.14Z"/>
            <path class="cls-14" d="m431.39,367.88c0,.63-.51,1.14-1.14,1.14s-1.14-.51-1.14-1.14.51-1.14,1.14-1.14,1.14.51,1.14,1.14Z"/>
            <path class="cls-14" d="m436.51,367.88c0,.63-.51,1.14-1.14,1.14s-1.14-.51-1.14-1.14.51-1.14,1.14-1.14,1.14.51,1.14,1.14Z"/>
            <path class="cls-14" d="m397.51,367.88c0,.63-.51,1.14-1.14,1.14s-1.14-.51-1.14-1.14.51-1.14,1.14-1.14,1.14.51,1.14,1.14Z"/>
            <path class="cls-14" d="m422.17,367.88c0,.63-.51,1.14-1.14,1.14s-1.14-.51-1.14-1.14.51-1.14,1.14-1.14,1.14.51,1.14,1.14Z"/>
            <path class="cls-6" d="m402.53,367.88c0,.63-.51,1.14-1.14,1.14s-1.14-.51-1.14-1.14.51-1.14,1.14-1.14,1.14.51,1.14,1.14Z"/>
            <path class="cls-6" d="m407.55,367.88c0,.63-.51,1.14-1.14,1.14s-1.14-.51-1.14-1.14.51-1.14,1.14-1.14,1.14.51,1.14,1.14Z"/>
            <path class="cls-6" d="m417.74,367.88c0,.63-.51,1.14-1.14,1.14s-1.14-.51-1.14-1.14.51-1.14,1.14-1.14,1.14.51,1.14,1.14Z"/>
            <path class="cls-6" d="m440.68,367.88c0,.63-.51,1.14-1.14,1.14s-1.14-.51-1.14-1.14.51-1.14,1.14-1.14,1.14.51,1.14,1.14Z"/>
            <path class="cls-10" d="m412.57,367.88c0,.63-.51,1.14-1.14,1.14s-1.14-.51-1.14-1.14.51-1.14,1.14-1.14,1.14.51,1.14,1.14Z"/>
            <path class="cls-10" d="m426.95,367.88c0,.63-.51,1.14-1.14,1.14s-1.14-.51-1.14-1.14.51-1.14,1.14-1.14,1.14.51,1.14,1.14Z"/>
          </g>
          <g>
            <path class="cls-14" d="m438.4,373.37c0-.63.51-1.14,1.14-1.14s1.14.51,1.14,1.14-.51,1.14-1.14,1.14-1.14-.51-1.14-1.14Z"/>
            <path class="cls-14" d="m433.38,373.37c0-.63.51-1.14,1.14-1.14s1.14.51,1.14,1.14-.51,1.14-1.14,1.14-1.14-.51-1.14-1.14Z"/>
            <path class="cls-14" d="m428.36,373.37c0-.63.51-1.14,1.14-1.14s1.14.51,1.14,1.14-.51,1.14-1.14,1.14-1.14-.51-1.14-1.14Z"/>
            <path class="cls-14" d="m423.34,373.37c0-.63.51-1.14,1.14-1.14s1.14.51,1.14,1.14-.51,1.14-1.14,1.14-1.14-.51-1.14-1.14Z"/>
            <path class="cls-14" d="m384.44,373.37c0-.63.51-1.14,1.14-1.14s1.14.51,1.14,1.14-.51,1.14-1.14,1.14-1.14-.51-1.14-1.14Z"/>
            <path class="cls-14" d="m379.32,373.37c0-.63.51-1.14,1.14-1.14s1.14.51,1.14,1.14-.51,1.14-1.14,1.14-1.14-.51-1.14-1.14Z"/>
            <path class="cls-14" d="m418.32,373.37c0-.63.51-1.14,1.14-1.14s1.14.51,1.14,1.14-.51,1.14-1.14,1.14-1.14-.51-1.14-1.14Z"/>
            <path class="cls-14" d="m393.67,373.37c0-.63.51-1.14,1.14-1.14s1.14.51,1.14,1.14-.51,1.14-1.14,1.14-1.14-.51-1.14-1.14Z"/>
            <path class="cls-6" d="m413.3,373.37c0-.63.51-1.14,1.14-1.14s1.14.51,1.14,1.14-.51,1.14-1.14,1.14-1.14-.51-1.14-1.14Z"/>
            <path class="cls-6" d="m408.28,373.37c0-.63.51-1.14,1.14-1.14s1.14.51,1.14,1.14-.51,1.14-1.14,1.14-1.14-.51-1.14-1.14Z"/>
            <path class="cls-6" d="m398.1,373.37c0-.63.51-1.14,1.14-1.14s1.14.51,1.14,1.14-.51,1.14-1.14,1.14-1.14-.51-1.14-1.14Z"/>
            <path class="cls-6" d="m375.15,373.37c0-.63.51-1.14,1.14-1.14s1.14.51,1.14,1.14-.51,1.14-1.14,1.14-1.14-.51-1.14-1.14Z"/>
            <path class="cls-10" d="m403.26,373.37c0-.63.51-1.14,1.14-1.14s1.14.51,1.14,1.14-.51,1.14-1.14,1.14-1.14-.51-1.14-1.14Z"/>
            <path class="cls-10" d="m388.89,373.37c0-.63.51-1.14,1.14-1.14s1.14.51,1.14,1.14-.51,1.14-1.14,1.14-1.14-.51-1.14-1.14Z"/>
          </g>
          <g>
            <circle class="cls-14" cx="376.29" cy="378.24" r="1.14"/>
            <circle class="cls-14" cx="381.31" cy="378.24" r="1.14"/>
            <circle class="cls-14" cx="386.33" cy="378.24" r="1.14"/>
            <circle class="cls-14" cx="391.35" cy="378.24" r="1.14"/>
            <circle class="cls-14" cx="430.26" cy="378.24" r="1.14"/>
            <circle class="cls-14" cx="435.38" cy="378.24" r="1.14"/>
            <circle class="cls-14" cx="396.37" cy="378.24" r="1.14"/>
            <path class="cls-14" d="m422.17,378.24c0,.63-.51,1.14-1.14,1.14s-1.14-.51-1.14-1.14.51-1.14,1.14-1.14,1.14.51,1.14,1.14Z"/>
            <circle class="cls-6" cx="401.39" cy="378.24" r="1.14"/>
            <path class="cls-6" d="m407.55,378.24c0,.63-.51,1.14-1.14,1.14s-1.14-.51-1.14-1.14.51-1.14,1.14-1.14,1.14.51,1.14,1.14Z"/>
            <circle class="cls-6" cx="416.6" cy="378.24" r="1.14"/>
            <path class="cls-6" d="m440.68,378.24c0,.63-.51,1.14-1.14,1.14s-1.14-.51-1.14-1.14.51-1.14,1.14-1.14,1.14.51,1.14,1.14Z"/>
            <circle class="cls-10" cx="411.43" cy="378.24" r="1.14"/>
            <circle class="cls-10" cx="425.81" cy="378.24" r="1.14"/>
          </g>
        </g>
        <rect class="cls-4" x="345.28" y="391.73" width="100.72" height="24.99"/>
        <g>
          <g>
            <path class="cls-14" d="m377.18,398.47c0,.63-.51,1.14-1.14,1.14s-1.14-.51-1.14-1.14.51-1.14,1.14-1.14,1.14.51,1.14,1.14Z"/>
            <path class="cls-14" d="m382.2,398.47c0,.63-.51,1.14-1.14,1.14s-1.14-.51-1.14-1.14.51-1.14,1.14-1.14,1.14.51,1.14,1.14Z"/>
            <path class="cls-14" d="m387.22,398.47c0,.63-.51,1.14-1.14,1.14s-1.14-.51-1.14-1.14.51-1.14,1.14-1.14,1.14.51,1.14,1.14Z"/>
            <path class="cls-14" d="m392.24,398.47c0,.63-.51,1.14-1.14,1.14s-1.14-.51-1.14-1.14.51-1.14,1.14-1.14,1.14.51,1.14,1.14Z"/>
            <path class="cls-14" d="m431.15,398.47c0,.63-.51,1.14-1.14,1.14s-1.14-.51-1.14-1.14.51-1.14,1.14-1.14,1.14.51,1.14,1.14Z"/>
            <path class="cls-14" d="m436.27,398.47c0,.63-.51,1.14-1.14,1.14s-1.14-.51-1.14-1.14.51-1.14,1.14-1.14,1.14.51,1.14,1.14Z"/>
            <path class="cls-14" d="m397.26,398.47c0,.63-.51,1.14-1.14,1.14s-1.14-.51-1.14-1.14.51-1.14,1.14-1.14,1.14.51,1.14,1.14Z"/>
            <path class="cls-14" d="m421.92,398.47c0,.63-.51,1.14-1.14,1.14s-1.14-.51-1.14-1.14.51-1.14,1.14-1.14,1.14.51,1.14,1.14Z"/>
            <path class="cls-6" d="m402.28,398.47c0,.63-.51,1.14-1.14,1.14s-1.14-.51-1.14-1.14.51-1.14,1.14-1.14,1.14.51,1.14,1.14Z"/>
            <path class="cls-6" d="m407.3,398.47c0,.63-.51,1.14-1.14,1.14s-1.14-.51-1.14-1.14.51-1.14,1.14-1.14,1.14.51,1.14,1.14Z"/>
            <path class="cls-6" d="m417.49,398.47c0,.63-.51,1.14-1.14,1.14s-1.14-.51-1.14-1.14.51-1.14,1.14-1.14,1.14.51,1.14,1.14Z"/>
            <path class="cls-6" d="m440.43,398.47c0,.63-.51,1.14-1.14,1.14s-1.14-.51-1.14-1.14.51-1.14,1.14-1.14,1.14.51,1.14,1.14Z"/>
            <path class="cls-10" d="m412.32,398.47c0,.63-.51,1.14-1.14,1.14s-1.14-.51-1.14-1.14.51-1.14,1.14-1.14,1.14.51,1.14,1.14Z"/>
            <path class="cls-10" d="m426.7,398.47c0,.63-.51,1.14-1.14,1.14s-1.14-.51-1.14-1.14.51-1.14,1.14-1.14,1.14.51,1.14,1.14Z"/>
          </g>
          <g>
            <path class="cls-14" d="m438.16,403.96c0-.63.51-1.14,1.14-1.14s1.14.51,1.14,1.14-.51,1.14-1.14,1.14-1.14-.51-1.14-1.14Z"/>
            <path class="cls-14" d="m433.13,403.96c0-.63.51-1.14,1.14-1.14s1.14.51,1.14,1.14-.51,1.14-1.14,1.14-1.14-.51-1.14-1.14Z"/>
            <path class="cls-14" d="m428.11,403.96c0-.63.51-1.14,1.14-1.14s1.14.51,1.14,1.14-.51,1.14-1.14,1.14-1.14-.51-1.14-1.14Z"/>
            <path class="cls-14" d="m423.09,403.96c0-.63.51-1.14,1.14-1.14s1.14.51,1.14,1.14-.51,1.14-1.14,1.14-1.14-.51-1.14-1.14Z"/>
            <path class="cls-14" d="m384.19,403.96c0-.63.51-1.14,1.14-1.14s1.14.51,1.14,1.14-.51,1.14-1.14,1.14-1.14-.51-1.14-1.14Z"/>
            <path class="cls-14" d="m379.07,403.96c0-.63.51-1.14,1.14-1.14s1.14.51,1.14,1.14-.51,1.14-1.14,1.14-1.14-.51-1.14-1.14Z"/>
            <path class="cls-14" d="m418.07,403.96c0-.63.51-1.14,1.14-1.14s1.14.51,1.14,1.14-.51,1.14-1.14,1.14-1.14-.51-1.14-1.14Z"/>
            <path class="cls-14" d="m393.42,403.96c0-.63.51-1.14,1.14-1.14s1.14.51,1.14,1.14-.51,1.14-1.14,1.14-1.14-.51-1.14-1.14Z"/>
            <path class="cls-6" d="m413.05,403.96c0-.63.51-1.14,1.14-1.14s1.14.51,1.14,1.14-.51,1.14-1.14,1.14-1.14-.51-1.14-1.14Z"/>
            <path class="cls-6" d="m408.03,403.96c0-.63.51-1.14,1.14-1.14s1.14.51,1.14,1.14-.51,1.14-1.14,1.14-1.14-.51-1.14-1.14Z"/>
            <path class="cls-6" d="m397.85,403.96c0-.63.51-1.14,1.14-1.14s1.14.51,1.14,1.14-.51,1.14-1.14,1.14-1.14-.51-1.14-1.14Z"/>
            <path class="cls-6" d="m374.9,403.96c0-.63.51-1.14,1.14-1.14s1.14.51,1.14,1.14-.51,1.14-1.14,1.14-1.14-.51-1.14-1.14Z"/>
            <path class="cls-10" d="m403.01,403.96c0-.63.51-1.14,1.14-1.14s1.14.51,1.14,1.14-.51,1.14-1.14,1.14-1.14-.51-1.14-1.14Z"/>
            <path class="cls-10" d="m388.64,403.96c0-.63.51-1.14,1.14-1.14s1.14.51,1.14,1.14-.51,1.14-1.14,1.14-1.14-.51-1.14-1.14Z"/>
          </g>
          <g>
            <circle class="cls-14" cx="376.04" cy="408.83" r="1.14"/>
            <circle class="cls-14" cx="381.06" cy="408.83" r="1.14"/>
            <circle class="cls-14" cx="386.08" cy="408.83" r="1.14"/>
            <circle class="cls-14" cx="391.1" cy="408.83" r="1.14"/>
            <circle class="cls-14" cx="430.01" cy="408.83" r="1.14"/>
            <circle class="cls-14" cx="435.13" cy="408.83" r="1.14"/>
            <circle class="cls-14" cx="396.12" cy="408.83" r="1.14"/>
            <circle class="cls-14" cx="420.78" cy="408.83" r="1.14"/>
            <circle class="cls-6" cx="401.14" cy="408.83" r="1.14"/>
            <circle class="cls-6" cx="406.16" cy="408.83" r="1.14"/>
            <circle class="cls-6" cx="416.35" cy="408.83" r="1.14"/>
            <path class="cls-6" d="m440.43,408.83c0,.63-.51,1.14-1.14,1.14s-1.14-.51-1.14-1.14.51-1.14,1.14-1.14,1.14.51,1.14,1.14Z"/>
            <circle class="cls-10" cx="411.19" cy="408.83" r="1.14"/>
            <circle class="cls-10" cx="425.56" cy="408.83" r="1.14"/>
          </g>
        </g>
        <rect class="cls-14" x="349.75" y="396.88" width="19.83" height="3.05"/>
        <rect class="cls-14" x="349.75" y="402.13" width="19.83" height="3.05"/>
        <rect class="cls-14" x="349.75" y="407.56" width="19.83" height="3.05"/>
        <rect class="cls-4" x="345.28" y="422.57" width="100.72" height="24.99"/>
        <rect class="cls-14" x="349.75" y="427.72" width="19.83" height="3.05"/>
        <rect class="cls-14" x="349.75" y="432.97" width="19.83" height="3.05"/>
        <rect class="cls-14" x="349.75" y="438.39" width="19.83" height="3.05"/>
        <g>
          <g>
            <path class="cls-14" d="m376.81,429.31c0,.63-.51,1.14-1.14,1.14s-1.14-.51-1.14-1.14.51-1.14,1.14-1.14,1.14.51,1.14,1.14Z"/>
            <path class="cls-14" d="m381.84,429.31c0,.63-.51,1.14-1.14,1.14s-1.14-.51-1.14-1.14.51-1.14,1.14-1.14,1.14.51,1.14,1.14Z"/>
            <path class="cls-14" d="m386.86,429.31c0,.63-.51,1.14-1.14,1.14s-1.14-.51-1.14-1.14.51-1.14,1.14-1.14,1.14.51,1.14,1.14Z"/>
            <path class="cls-14" d="m391.88,429.31c0,.63-.51,1.14-1.14,1.14s-1.14-.51-1.14-1.14.51-1.14,1.14-1.14,1.14.51,1.14,1.14Z"/>
            <path class="cls-14" d="m430.78,429.31c0,.63-.51,1.14-1.14,1.14s-1.14-.51-1.14-1.14.51-1.14,1.14-1.14,1.14.51,1.14,1.14Z"/>
            <path class="cls-14" d="m435.9,429.31c0,.63-.51,1.14-1.14,1.14s-1.14-.51-1.14-1.14.51-1.14,1.14-1.14,1.14.51,1.14,1.14Z"/>
            <path class="cls-14" d="m396.9,429.31c0,.63-.51,1.14-1.14,1.14s-1.14-.51-1.14-1.14.51-1.14,1.14-1.14,1.14.51,1.14,1.14Z"/>
            <path class="cls-14" d="m421.55,429.31c0,.63-.51,1.14-1.14,1.14s-1.14-.51-1.14-1.14.51-1.14,1.14-1.14,1.14.51,1.14,1.14Z"/>
            <path class="cls-6" d="m401.92,429.31c0,.63-.51,1.14-1.14,1.14s-1.14-.51-1.14-1.14.51-1.14,1.14-1.14,1.14.51,1.14,1.14Z"/>
            <path class="cls-6" d="m406.94,429.31c0,.63-.51,1.14-1.14,1.14s-1.14-.51-1.14-1.14.51-1.14,1.14-1.14,1.14.51,1.14,1.14Z"/>
            <path class="cls-6" d="m417.12,429.31c0,.63-.51,1.14-1.14,1.14s-1.14-.51-1.14-1.14.51-1.14,1.14-1.14,1.14.51,1.14,1.14Z"/>
            <path class="cls-6" d="m440.07,429.31c0,.63-.51,1.14-1.14,1.14s-1.14-.51-1.14-1.14.51-1.14,1.14-1.14,1.14.51,1.14,1.14Z"/>
            <path class="cls-10" d="m411.96,429.31c0,.63-.51,1.14-1.14,1.14s-1.14-.51-1.14-1.14.51-1.14,1.14-1.14,1.14.51,1.14,1.14Z"/>
            <path class="cls-10" d="m426.33,429.31c0,.63-.51,1.14-1.14,1.14s-1.14-.51-1.14-1.14.51-1.14,1.14-1.14,1.14.51,1.14,1.14Z"/>
          </g>
          <g>
            <path class="cls-14" d="m437.79,434.79c0-.63.51-1.14,1.14-1.14s1.14.51,1.14,1.14-.51,1.14-1.14,1.14-1.14-.51-1.14-1.14Z"/>
            <path class="cls-14" d="m432.77,434.79c0-.63.51-1.14,1.14-1.14s1.14.51,1.14,1.14-.51,1.14-1.14,1.14-1.14-.51-1.14-1.14Z"/>
            <path class="cls-14" d="m427.75,434.79c0-.63.51-1.14,1.14-1.14s1.14.51,1.14,1.14-.51,1.14-1.14,1.14-1.14-.51-1.14-1.14Z"/>
            <path class="cls-14" d="m422.73,434.79c0-.63.51-1.14,1.14-1.14s1.14.51,1.14,1.14-.51,1.14-1.14,1.14-1.14-.51-1.14-1.14Z"/>
            <path class="cls-14" d="m383.82,434.79c0-.63.51-1.14,1.14-1.14s1.14.51,1.14,1.14-.51,1.14-1.14,1.14-1.14-.51-1.14-1.14Z"/>
            <path class="cls-14" d="m378.7,434.79c0-.63.51-1.14,1.14-1.14s1.14.51,1.14,1.14-.51,1.14-1.14,1.14-1.14-.51-1.14-1.14Z"/>
            <path class="cls-14" d="m417.71,434.79c0-.63.51-1.14,1.14-1.14s1.14.51,1.14,1.14-.51,1.14-1.14,1.14-1.14-.51-1.14-1.14Z"/>
            <path class="cls-14" d="m393.05,434.79c0-.63.51-1.14,1.14-1.14s1.14.51,1.14,1.14-.51,1.14-1.14,1.14-1.14-.51-1.14-1.14Z"/>
            <path class="cls-6" d="m412.69,434.79c0-.63.51-1.14,1.14-1.14s1.14.51,1.14,1.14-.51,1.14-1.14,1.14-1.14-.51-1.14-1.14Z"/>
            <path class="cls-6" d="m407.67,434.79c0-.63.51-1.14,1.14-1.14s1.14.51,1.14,1.14-.51,1.14-1.14,1.14-1.14-.51-1.14-1.14Z"/>
            <path class="cls-6" d="m397.48,434.79c0-.63.51-1.14,1.14-1.14s1.14.51,1.14,1.14-.51,1.14-1.14,1.14-1.14-.51-1.14-1.14Z"/>
            <path class="cls-6" d="m374.54,434.79c0-.63.51-1.14,1.14-1.14s1.14.51,1.14,1.14-.51,1.14-1.14,1.14-1.14-.51-1.14-1.14Z"/>
            <path class="cls-10" d="m402.65,434.79c0-.63.51-1.14,1.14-1.14s1.14.51,1.14,1.14-.51,1.14-1.14,1.14-1.14-.51-1.14-1.14Z"/>
            <path class="cls-10" d="m388.27,434.79c0-.63.51-1.14,1.14-1.14s1.14.51,1.14,1.14-.51,1.14-1.14,1.14-1.14-.51-1.14-1.14Z"/>
          </g>
          <g>
            <path class="cls-14" d="m376.81,439.67c0,.63-.51,1.14-1.14,1.14s-1.14-.51-1.14-1.14.51-1.14,1.14-1.14,1.14.51,1.14,1.14Z"/>
            <path class="cls-14" d="m381.84,439.67c0,.63-.51,1.14-1.14,1.14s-1.14-.51-1.14-1.14.51-1.14,1.14-1.14,1.14.51,1.14,1.14Z"/>
            <path class="cls-14" d="m386.86,439.67c0,.63-.51,1.14-1.14,1.14s-1.14-.51-1.14-1.14.51-1.14,1.14-1.14,1.14.51,1.14,1.14Z"/>
            <path class="cls-14" d="m391.88,439.67c0,.63-.51,1.14-1.14,1.14s-1.14-.51-1.14-1.14.51-1.14,1.14-1.14,1.14.51,1.14,1.14Z"/>
            <path class="cls-14" d="m430.78,439.67c0,.63-.51,1.14-1.14,1.14s-1.14-.51-1.14-1.14.51-1.14,1.14-1.14,1.14.51,1.14,1.14Z"/>
            <path class="cls-14" d="m435.9,439.67c0,.63-.51,1.14-1.14,1.14s-1.14-.51-1.14-1.14.51-1.14,1.14-1.14,1.14.51,1.14,1.14Z"/>
            <path class="cls-14" d="m396.9,439.67c0,.63-.51,1.14-1.14,1.14s-1.14-.51-1.14-1.14.51-1.14,1.14-1.14,1.14.51,1.14,1.14Z"/>
            <path class="cls-14" d="m421.55,439.67c0,.63-.51,1.14-1.14,1.14s-1.14-.51-1.14-1.14.51-1.14,1.14-1.14,1.14.51,1.14,1.14Z"/>
            <path class="cls-6" d="m401.92,439.67c0,.63-.51,1.14-1.14,1.14s-1.14-.51-1.14-1.14.51-1.14,1.14-1.14,1.14.51,1.14,1.14Z"/>
            <path class="cls-6" d="m406.94,439.67c0,.63-.51,1.14-1.14,1.14s-1.14-.51-1.14-1.14.51-1.14,1.14-1.14,1.14.51,1.14,1.14Z"/>
            <path class="cls-6" d="m417.12,439.67c0,.63-.51,1.14-1.14,1.14s-1.14-.51-1.14-1.14.51-1.14,1.14-1.14,1.14.51,1.14,1.14Z"/>
            <path class="cls-6" d="m440.07,439.67c0,.63-.51,1.14-1.14,1.14s-1.14-.51-1.14-1.14.51-1.14,1.14-1.14,1.14.51,1.14,1.14Z"/>
            <path class="cls-10" d="m411.96,439.67c0,.63-.51,1.14-1.14,1.14s-1.14-.51-1.14-1.14.51-1.14,1.14-1.14,1.14.51,1.14,1.14Z"/>
            <path class="cls-10" d="m426.33,439.67c0,.63-.51,1.14-1.14,1.14s-1.14-.51-1.14-1.14.51-1.14,1.14-1.14,1.14.51,1.14,1.14Z"/>
          </g>
        </g>
      </g>
      <polygon class="cls-14" points="461.15 385.84 446.01 385.88 446.01 360.89 461.15 360.85 461.15 385.84"/>
      <polygon class="cls-14" points="461.15 355.46 446.01 355.5 446.01 330.51 461.15 330.47 461.15 355.46"/>
      <polygon class="cls-14" points="461.15 416.48 446.01 416.53 446.01 391.54 461.15 391.49 461.15 416.48"/>
      <polygon class="cls-14" points="461.15 447.52 446.01 447.56 446.01 422.57 461.15 422.53 461.15 447.52"/>
    </g>
    <rect class="cls-4" x="346.01" y="330.28" width="100.72" height="24.99"/>
    <rect class="cls-14" x="350.48" y="335.42" width="19.83" height="3.05"/>
    <rect class="cls-14" x="350.48" y="340.67" width="19.83" height="3.05"/>
    <rect class="cls-14" x="350.48" y="346.1" width="19.83" height="3.05"/>
    <g>
      <g>
        <path class="cls-14" d="m378.16,337.27c0,.63-.51,1.14-1.14,1.14s-1.14-.51-1.14-1.14.51-1.14,1.14-1.14,1.14.51,1.14,1.14Z"/>
        <path class="cls-14" d="m383.18,337.27c0,.63-.51,1.14-1.14,1.14s-1.14-.51-1.14-1.14.51-1.14,1.14-1.14,1.14.51,1.14,1.14Z"/>
        <path class="cls-14" d="m388.2,337.27c0,.63-.51,1.14-1.14,1.14s-1.14-.51-1.14-1.14.51-1.14,1.14-1.14,1.14.51,1.14,1.14Z"/>
        <path class="cls-14" d="m393.22,337.27c0,.63-.51,1.14-1.14,1.14s-1.14-.51-1.14-1.14.51-1.14,1.14-1.14,1.14.51,1.14,1.14Z"/>
        <path class="cls-14" d="m432.12,337.27c0,.63-.51,1.14-1.14,1.14s-1.14-.51-1.14-1.14.51-1.14,1.14-1.14,1.14.51,1.14,1.14Z"/>
        <path class="cls-14" d="m437.24,337.27c0,.63-.51,1.14-1.14,1.14s-1.14-.51-1.14-1.14.51-1.14,1.14-1.14,1.14.51,1.14,1.14Z"/>
        <path class="cls-14" d="m398.24,337.27c0,.63-.51,1.14-1.14,1.14s-1.14-.51-1.14-1.14.51-1.14,1.14-1.14,1.14.51,1.14,1.14Z"/>
        <path class="cls-14" d="m422.9,337.27c0,.63-.51,1.14-1.14,1.14s-1.14-.51-1.14-1.14.51-1.14,1.14-1.14,1.14.51,1.14,1.14Z"/>
        <path class="cls-6" d="m403.26,337.27c0,.63-.51,1.14-1.14,1.14s-1.14-.51-1.14-1.14.51-1.14,1.14-1.14,1.14.51,1.14,1.14Z"/>
        <path class="cls-6" d="m408.28,337.27c0,.63-.51,1.14-1.14,1.14s-1.14-.51-1.14-1.14.51-1.14,1.14-1.14,1.14.51,1.14,1.14Z"/>
        <path class="cls-6" d="m418.47,337.27c0,.63-.51,1.14-1.14,1.14s-1.14-.51-1.14-1.14.51-1.14,1.14-1.14,1.14.51,1.14,1.14Z"/>
        <path class="cls-6" d="m441.41,337.27c0,.63-.51,1.14-1.14,1.14s-1.14-.51-1.14-1.14.51-1.14,1.14-1.14,1.14.51,1.14,1.14Z"/>
        <path class="cls-10" d="m413.3,337.27c0,.63-.51,1.14-1.14,1.14s-1.14-.51-1.14-1.14.51-1.14,1.14-1.14,1.14.51,1.14,1.14Z"/>
        <path class="cls-10" d="m427.68,337.27c0,.63-.51,1.14-1.14,1.14s-1.14-.51-1.14-1.14.51-1.14,1.14-1.14,1.14.51,1.14,1.14Z"/>
      </g>
      <g>
        <path class="cls-14" d="m439.13,342.75c0-.63.51-1.14,1.14-1.14s1.14.51,1.14,1.14-.51,1.14-1.14,1.14-1.14-.51-1.14-1.14Z"/>
        <path class="cls-14" d="m434.11,342.75c0-.63.51-1.14,1.14-1.14s1.14.51,1.14,1.14-.51,1.14-1.14,1.14-1.14-.51-1.14-1.14Z"/>
        <path class="cls-14" d="m429.09,342.75c0-.63.51-1.14,1.14-1.14s1.14.51,1.14,1.14-.51,1.14-1.14,1.14-1.14-.51-1.14-1.14Z"/>
        <path class="cls-14" d="m424.07,342.75c0-.63.51-1.14,1.14-1.14s1.14.51,1.14,1.14-.51,1.14-1.14,1.14-1.14-.51-1.14-1.14Z"/>
        <path class="cls-14" d="m385.17,342.75c0-.63.51-1.14,1.14-1.14s1.14.51,1.14,1.14-.51,1.14-1.14,1.14-1.14-.51-1.14-1.14Z"/>
        <path class="cls-14" d="m380.05,342.75c0-.63.51-1.14,1.14-1.14s1.14.51,1.14,1.14-.51,1.14-1.14,1.14-1.14-.51-1.14-1.14Z"/>
        <path class="cls-14" d="m419.05,342.75c0-.63.51-1.14,1.14-1.14s1.14.51,1.14,1.14-.51,1.14-1.14,1.14-1.14-.51-1.14-1.14Z"/>
        <path class="cls-14" d="m394.4,342.75c0-.63.51-1.14,1.14-1.14s1.14.51,1.14,1.14-.51,1.14-1.14,1.14-1.14-.51-1.14-1.14Z"/>
        <path class="cls-6" d="m414.03,342.75c0-.63.51-1.14,1.14-1.14s1.14.51,1.14,1.14-.51,1.14-1.14,1.14-1.14-.51-1.14-1.14Z"/>
        <path class="cls-6" d="m409.01,342.75c0-.63.51-1.14,1.14-1.14s1.14.51,1.14,1.14-.51,1.14-1.14,1.14-1.14-.51-1.14-1.14Z"/>
        <path class="cls-6" d="m398.82,342.75c0-.63.51-1.14,1.14-1.14s1.14.51,1.14,1.14-.51,1.14-1.14,1.14-1.14-.51-1.14-1.14Z"/>
        <path class="cls-6" d="m375.88,342.75c0-.63.51-1.14,1.14-1.14s1.14.51,1.14,1.14-.51,1.14-1.14,1.14-1.14-.51-1.14-1.14Z"/>
        <path class="cls-10" d="m403.99,342.75c0-.63.51-1.14,1.14-1.14s1.14.51,1.14,1.14-.51,1.14-1.14,1.14-1.14-.51-1.14-1.14Z"/>
        <path class="cls-10" d="m389.62,342.75c0-.63.51-1.14,1.14-1.14s1.14.51,1.14,1.14-.51,1.14-1.14,1.14-1.14-.51-1.14-1.14Z"/>
      </g>
      <g>
        <path class="cls-14" d="m378.16,347.63c0,.63-.51,1.14-1.14,1.14s-1.14-.51-1.14-1.14.51-1.14,1.14-1.14,1.14.51,1.14,1.14Z"/>
        <path class="cls-14" d="m383.18,347.63c0,.63-.51,1.14-1.14,1.14s-1.14-.51-1.14-1.14.51-1.14,1.14-1.14,1.14.51,1.14,1.14Z"/>
        <path class="cls-14" d="m388.2,347.63c0,.63-.51,1.14-1.14,1.14s-1.14-.51-1.14-1.14.51-1.14,1.14-1.14,1.14.51,1.14,1.14Z"/>
        <path class="cls-14" d="m393.22,347.63c0,.63-.51,1.14-1.14,1.14s-1.14-.51-1.14-1.14.51-1.14,1.14-1.14,1.14.51,1.14,1.14Z"/>
        <path class="cls-14" d="m432.12,347.63c0,.63-.51,1.14-1.14,1.14s-1.14-.51-1.14-1.14.51-1.14,1.14-1.14,1.14.51,1.14,1.14Z"/>
        <path class="cls-14" d="m437.24,347.63c0,.63-.51,1.14-1.14,1.14s-1.14-.51-1.14-1.14.51-1.14,1.14-1.14,1.14.51,1.14,1.14Z"/>
        <path class="cls-14" d="m398.24,347.63c0,.63-.51,1.14-1.14,1.14s-1.14-.51-1.14-1.14.51-1.14,1.14-1.14,1.14.51,1.14,1.14Z"/>
        <path class="cls-14" d="m422.9,347.63c0,.63-.51,1.14-1.14,1.14s-1.14-.51-1.14-1.14.51-1.14,1.14-1.14,1.14.51,1.14,1.14Z"/>
        <path class="cls-6" d="m403.26,347.63c0,.63-.51,1.14-1.14,1.14s-1.14-.51-1.14-1.14.51-1.14,1.14-1.14,1.14.51,1.14,1.14Z"/>
        <path class="cls-6" d="m408.28,347.63c0,.63-.51,1.14-1.14,1.14s-1.14-.51-1.14-1.14.51-1.14,1.14-1.14,1.14.51,1.14,1.14Z"/>
        <path class="cls-6" d="m418.47,347.63c0,.63-.51,1.14-1.14,1.14s-1.14-.51-1.14-1.14.51-1.14,1.14-1.14,1.14.51,1.14,1.14Z"/>
        <path class="cls-6" d="m441.41,347.63c0,.63-.51,1.14-1.14,1.14s-1.14-.51-1.14-1.14.51-1.14,1.14-1.14,1.14.51,1.14,1.14Z"/>
        <path class="cls-10" d="m413.3,347.63c0,.63-.51,1.14-1.14,1.14s-1.14-.51-1.14-1.14.51-1.14,1.14-1.14,1.14.51,1.14,1.14Z"/>
        <path class="cls-10" d="m427.68,347.63c0,.63-.51,1.14-1.14,1.14s-1.14-.51-1.14-1.14.51-1.14,1.14-1.14,1.14.51,1.14,1.14Z"/>
      </g>
    </g>
  </g>
  <path class="cls-14" d="m280.91,151.11s.28-.01.84-.02c.57,0,1.39-.01,2.47-.02,2.18,0,5.38-.02,9.49-.04,8.25-.02,20.18-.04,34.92-.07,29.49-.02,70.22-.04,115.2-.06,2.82,0,5.66.36,8.31,1.27,2.65.9,5.14,2.25,7.28,4.01,4.3,3.49,7.22,8.44,8.3,13.68.54,2.63.46,5.31.47,7.9,0,2.6,0,5.18,0,7.73,0,5.1,0,10.1,0,14.97-.02,19.49-.03,37.05-.05,51.79,0,3.69-.01,7.2-.02,10.52,0,1.66,0,3.27,0,4.84.04,1.57-.22,3.13-.88,4.47-1.25,2.72-3.71,4.49-6.17,5.07-1.23.32-2.46.27-3.6.27-1.14,0-2.23,0-3.26,0-4.12-.02-7.31-.03-9.49-.04-1.08,0-1.9-.02-2.47-.02-.56,0-.84-.02-.84-.02,0,0,.28-.01.84-.02.57,0,1.39-.01,2.47-.02,2.18,0,5.38-.02,9.49-.04,1.03,0,2.12,0,3.26,0,1.15,0,2.35.03,3.55-.28,2.4-.58,4.79-2.32,6-4.97.64-1.31.88-2.81.84-4.37,0-1.56,0-3.18,0-4.84,0-3.32,0-6.83-.02-10.52-.01-14.75-.03-32.3-.05-51.79,0-4.87,0-9.87,0-14.97,0-2.55,0-5.13,0-7.73-.01-2.61.07-5.23-.46-7.81-1.06-5.15-3.94-10.01-8.16-13.44-2.1-1.73-4.54-3.05-7.15-3.93-2.61-.9-5.38-1.25-8.18-1.25-44.98-.02-85.71-.05-115.2-.06-14.74-.03-26.66-.05-34.92-.07-4.12-.02-7.31-.03-9.49-.04-1.08,0-1.9-.02-2.47-.02-.56,0-.84-.02-.84-.02Z"/>
  <g>
    <rect class="cls-12" x="198.47" y="205.17" width="78.98" height="241.94"/>
    <polygon class="cls-9" points="339.76 447.11 277.45 447.11 277.33 205.17 339.76 205.17 339.76 447.11"/>
    <g>
      <rect class="cls-14" x="202.84" y="243.89" width="67" height="18.86"/>
      <rect class="cls-4" x="204.71" y="246.26" width="3.75" height="14.44"/>
      <path class="cls-2" d="m212.88,249.3c0,.66-.53,1.19-1.19,1.19s-1.19-.53-1.19-1.19.53-1.19,1.19-1.19,1.19.53,1.19,1.19Z"/>
      <path class="cls-2" d="m212.88,254.4c0,.66-.53,1.19-1.19,1.19s-1.19-.53-1.19-1.19.53-1.19,1.19-1.19,1.19.53,1.19,1.19Z"/>
      <rect class="cls-4" x="217.65" y="248.1" width="3.69" height="11.09"/>
      <rect class="cls-4" x="222.97" y="248.1" width="3.69" height="11.09"/>
      <rect class="cls-4" x="228.3" y="248.1" width="3.69" height="11.09"/>
      <rect class="cls-4" x="233.62" y="248.1" width="3.69" height="11.09"/>
      <rect class="cls-4" x="238.95" y="248.1" width="3.69" height="11.09"/>
      <rect class="cls-4" x="244.27" y="248.1" width="3.69" height="11.09"/>
      <rect class="cls-4" x="249.6" y="248.1" width="3.69" height="11.09"/>
      <rect class="cls-4" x="254.92" y="248.1" width="3.69" height="11.09"/>
      <rect class="cls-4" x="260.25" y="248.1" width="3.69" height="11.09"/>
      <rect class="cls-4" x="265.57" y="248.1" width="3.69" height="11.09"/>
    </g>
    <g>
      <rect class="cls-14" x="202.84" y="270.99" width="67" height="18.86"/>
      <rect class="cls-4" x="204.71" y="273.36" width="3.75" height="14.44"/>
      <path class="cls-2" d="m212.88,276.39c0,.66-.53,1.19-1.19,1.19s-1.19-.53-1.19-1.19.53-1.19,1.19-1.19,1.19.53,1.19,1.19Z"/>
      <path class="cls-2" d="m212.88,281.49c0,.66-.53,1.19-1.19,1.19s-1.19-.53-1.19-1.19.53-1.19,1.19-1.19,1.19.53,1.19,1.19Z"/>
      <rect class="cls-4" x="217.65" y="275.2" width="3.69" height="11.09"/>
      <rect class="cls-4" x="222.97" y="275.2" width="3.69" height="11.09"/>
      <rect class="cls-4" x="228.3" y="275.2" width="3.69" height="11.09"/>
      <rect class="cls-4" x="233.62" y="275.2" width="3.69" height="11.09"/>
      <rect class="cls-4" x="238.95" y="275.2" width="3.69" height="11.09"/>
      <rect class="cls-4" x="244.27" y="275.2" width="3.69" height="11.09"/>
      <rect class="cls-4" x="249.6" y="275.2" width="3.69" height="11.09"/>
      <rect class="cls-4" x="254.92" y="275.2" width="3.69" height="11.09"/>
      <rect class="cls-4" x="260.25" y="275.2" width="3.69" height="11.09"/>
      <rect class="cls-4" x="265.57" y="275.2" width="3.69" height="11.09"/>
    </g>
    <g>
      <rect class="cls-14" x="202.84" y="298.3" width="67" height="18.86"/>
      <rect class="cls-4" x="204.71" y="300.67" width="3.75" height="14.44"/>
      <path class="cls-2" d="m212.88,303.71c0,.66-.53,1.19-1.19,1.19s-1.19-.53-1.19-1.19.53-1.19,1.19-1.19,1.19.53,1.19,1.19Z"/>
      <path class="cls-2" d="m212.88,308.81c0,.66-.53,1.19-1.19,1.19s-1.19-.53-1.19-1.19.53-1.19,1.19-1.19,1.19.53,1.19,1.19Z"/>
      <rect class="cls-4" x="217.65" y="302.52" width="3.69" height="11.09"/>
      <rect class="cls-4" x="222.97" y="302.52" width="3.69" height="11.09"/>
      <rect class="cls-4" x="228.3" y="302.52" width="3.69" height="11.09"/>
      <rect class="cls-4" x="233.62" y="302.52" width="3.69" height="11.09"/>
      <rect class="cls-4" x="238.95" y="302.52" width="3.69" height="11.09"/>
      <rect class="cls-4" x="244.27" y="302.52" width="3.69" height="11.09"/>
      <rect class="cls-4" x="249.6" y="302.52" width="3.69" height="11.09"/>
      <rect class="cls-4" x="254.92" y="302.52" width="3.69" height="11.09"/>
      <rect class="cls-4" x="260.25" y="302.52" width="3.69" height="11.09"/>
      <rect class="cls-4" x="265.57" y="302.52" width="3.69" height="11.09"/>
    </g>
    <g>
      <rect class="cls-14" x="202.84" y="327.81" width="67" height="18.86"/>
      <rect class="cls-4" x="204.71" y="330.18" width="3.75" height="14.44"/>
      <path class="cls-2" d="m212.88,333.21c0,.66-.53,1.19-1.19,1.19s-1.19-.53-1.19-1.19.53-1.19,1.19-1.19,1.19.53,1.19,1.19Z"/>
      <path class="cls-2" d="m212.88,338.31c0,.66-.53,1.19-1.19,1.19s-1.19-.53-1.19-1.19.53-1.19,1.19-1.19,1.19.53,1.19,1.19Z"/>
      <rect class="cls-4" x="217.65" y="332.02" width="3.69" height="11.09"/>
      <rect class="cls-4" x="222.97" y="332.02" width="3.69" height="11.09"/>
      <rect class="cls-4" x="228.3" y="332.02" width="3.69" height="11.09"/>
      <rect class="cls-4" x="233.62" y="332.02" width="3.69" height="11.09"/>
      <rect class="cls-4" x="238.95" y="332.02" width="3.69" height="11.09"/>
      <rect class="cls-4" x="244.27" y="332.02" width="3.69" height="11.09"/>
      <rect class="cls-4" x="249.6" y="332.02" width="3.69" height="11.09"/>
      <rect class="cls-4" x="254.92" y="332.02" width="3.69" height="11.09"/>
      <rect class="cls-4" x="260.25" y="332.02" width="3.69" height="11.09"/>
      <rect class="cls-4" x="265.57" y="332.02" width="3.69" height="11.09"/>
    </g>
    <g>
      <rect class="cls-14" x="202.84" y="357.6" width="67" height="18.86"/>
      <rect class="cls-4" x="204.71" y="359.97" width="3.75" height="14.44"/>
      <path class="cls-2" d="m212.88,363.01c0,.66-.53,1.19-1.19,1.19s-1.19-.53-1.19-1.19.53-1.19,1.19-1.19,1.19.53,1.19,1.19Z"/>
      <path class="cls-2" d="m212.88,368.11c0,.66-.53,1.19-1.19,1.19s-1.19-.53-1.19-1.19.53-1.19,1.19-1.19,1.19.53,1.19,1.19Z"/>
      <rect class="cls-4" x="217.65" y="361.82" width="3.69" height="11.09"/>
      <rect class="cls-4" x="222.97" y="361.82" width="3.69" height="11.09"/>
      <rect class="cls-4" x="228.3" y="361.82" width="3.69" height="11.09"/>
      <rect class="cls-4" x="233.62" y="361.82" width="3.69" height="11.09"/>
      <rect class="cls-4" x="238.95" y="361.82" width="3.69" height="11.09"/>
      <rect class="cls-4" x="244.27" y="361.82" width="3.69" height="11.09"/>
      <rect class="cls-4" x="249.6" y="361.82" width="3.69" height="11.09"/>
      <rect class="cls-4" x="254.92" y="361.82" width="3.69" height="11.09"/>
      <rect class="cls-4" x="260.25" y="361.82" width="3.69" height="11.09"/>
      <rect class="cls-4" x="265.57" y="361.82" width="3.69" height="11.09"/>
    </g>
    <g>
      <rect class="cls-14" x="202.84" y="416.91" width="67" height="18.86"/>
      <rect class="cls-4" x="204.71" y="419.28" width="3.75" height="14.44"/>
      <path class="cls-2" d="m212.88,422.31c0,.66-.53,1.19-1.19,1.19s-1.19-.53-1.19-1.19.53-1.19,1.19-1.19,1.19.53,1.19,1.19Z"/>
      <path class="cls-2" d="m212.88,427.42c0,.66-.53,1.19-1.19,1.19s-1.19-.53-1.19-1.19.53-1.19,1.19-1.19,1.19.53,1.19,1.19Z"/>
      <rect class="cls-4" x="217.65" y="421.12" width="3.69" height="11.09"/>
      <rect class="cls-4" x="222.97" y="421.12" width="3.69" height="11.09"/>
      <rect class="cls-4" x="228.3" y="421.12" width="3.69" height="11.09"/>
      <rect class="cls-4" x="233.62" y="421.12" width="3.69" height="11.09"/>
      <rect class="cls-4" x="238.95" y="421.12" width="3.69" height="11.09"/>
      <rect class="cls-4" x="244.27" y="421.12" width="3.69" height="11.09"/>
      <rect class="cls-4" x="249.6" y="421.12" width="3.69" height="11.09"/>
      <rect class="cls-4" x="254.92" y="421.12" width="3.69" height="11.09"/>
      <rect class="cls-4" x="260.25" y="421.12" width="3.69" height="11.09"/>
      <rect class="cls-4" x="265.57" y="421.12" width="3.69" height="11.09"/>
    </g>
    <g>
      <rect class="cls-14" x="202.84" y="387.28" width="67" height="18.86"/>
      <rect class="cls-4" x="204.71" y="389.65" width="3.75" height="14.44"/>
      <path class="cls-2" d="m212.88,392.69c0,.66-.53,1.19-1.19,1.19s-1.19-.53-1.19-1.19.53-1.19,1.19-1.19,1.19.53,1.19,1.19Z"/>
      <path class="cls-2" d="m212.88,397.79c0,.66-.53,1.19-1.19,1.19s-1.19-.53-1.19-1.19.53-1.19,1.19-1.19,1.19.53,1.19,1.19Z"/>
      <rect class="cls-4" x="217.65" y="391.5" width="3.69" height="11.09"/>
      <rect class="cls-4" x="222.97" y="391.5" width="3.69" height="11.09"/>
      <rect class="cls-4" x="228.3" y="391.5" width="3.69" height="11.09"/>
      <rect class="cls-4" x="233.62" y="391.5" width="3.69" height="11.09"/>
      <rect class="cls-4" x="238.95" y="391.5" width="3.69" height="11.09"/>
      <rect class="cls-4" x="244.27" y="391.5" width="3.69" height="11.09"/>
      <rect class="cls-4" x="249.6" y="391.5" width="3.69" height="11.09"/>
      <rect class="cls-4" x="254.92" y="391.5" width="3.69" height="11.09"/>
      <rect class="cls-4" x="260.25" y="391.5" width="3.69" height="11.09"/>
      <rect class="cls-4" x="265.57" y="391.5" width="3.69" height="11.09"/>
    </g>
    <path class="cls-14" d="m244.27,243.89s-.04-.2-.07-.58c-.03-.38-.05-.95-.07-1.68-.02-.73-.03-1.62-.08-2.65-.06-1.02-.13-2.21-.46-3.44-.35-1.23-.91-2.55-1.79-3.77-.87-1.23-2.1-2.32-3.67-2.95-1.56-.65-3.35-.89-5.21-1.06-1.86-.16-3.79-.33-5.77-.5-7.91-.69-15.08-1.12-20.28-1.22-2.6-.06-4.7-.04-6.16-.03-.69,0-1.25.01-1.67.02-.38,0-.58,0-.59-.02,0-.01.2-.04.58-.06.42-.03.98-.06,1.67-.1,1.45-.06,3.56-.12,6.17-.1,5.21.02,12.4.41,20.31,1.09,1.98.17,3.91.34,5.77.51,1.86.17,3.7.43,5.32,1.11,1.63.67,2.93,1.84,3.81,3.11.89,1.28,1.45,2.63,1.79,3.9.32,1.29.37,2.48.41,3.51.03,1.04.01,1.93,0,2.65,0,.69-.01,1.25-.01,1.67,0,.38,0,.58-.02.59Z"/>
    <path class="cls-14" d="m223.95,243.89s-.03-.19-.04-.55c0-.4-.01-.93-.02-1.58,0-.68,0-1.52-.08-2.48-.09-.95-.24-2.07-.82-3.11-.58-1.03-1.73-1.8-3.03-2.33-1.31-.51-2.86-.72-4.41-.45-.78.13-1.56.38-2.28.77-.71.39-1.38.95-1.77,1.68-.41.72-.42,1.63,0,2.37.41.74,1.16,1.32,2.01,1.51.85.21,1.74-.09,2.35-.68.62-.59.99-1.41,1.06-2.24.08-.83-.23-1.62-.7-2.29-.47-.67-1.08-1.21-1.77-1.57-.68-.38-1.45-.44-2.22-.57-.76-.11-1.49-.21-2.2-.29-1.43-.16-2.76-.25-3.98-.3-2.44-.1-4.42-.06-5.79-.06-.65,0-1.17,0-1.58,0-.36,0-.55-.01-.55-.03,0-.01.19-.03.55-.06.4-.02.93-.05,1.57-.08,1.37-.05,3.35-.14,5.8-.08,1.23.03,2.57.11,4.01.25.72.07,1.46.17,2.22.27.38.06.76.11,1.16.18.41.08.8.22,1.18.41.75.38,1.42.96,1.93,1.68.51.7.88,1.62.79,2.56-.07.93-.48,1.85-1.18,2.51-.69.68-1.75,1.03-2.74.79-.98-.23-1.81-.87-2.29-1.72-.5-.85-.48-1.96,0-2.77.45-.83,1.18-1.42,1.94-1.84.77-.41,1.59-.67,2.41-.8,1.64-.27,3.25-.04,4.61.51,1.34.56,2.54,1.38,3.16,2.51.6,1.12.73,2.27.8,3.24.05.98.03,1.82,0,2.5-.03.65-.05,1.17-.06,1.58-.02.36-.03.55-.05.55Z"/>
    <path class="cls-14" d="m249.74,243.89s-.06-.21-.14-.62c-.07-.41-.19-1.02-.35-1.79-.34-1.54-.87-3.79-1.97-6.39-1.09-2.58-2.84-5.58-5.83-7.83-1.46-1.14-3.34-1.77-5.34-2.04-2-.29-4.12-.28-6.28-.34-8.66-.16-16.51-.13-22.18-.35-2.84-.1-5.13-.23-6.72-.34-.76-.06-1.37-.11-1.82-.15-.42-.04-.63-.07-.63-.08,0-.01.22-.02.64,0,.46.02,1.07.04,1.83.07,1.59.06,3.88.15,6.72.21,5.67.14,13.51.06,22.18.23,2.16.06,4.29.05,6.33.35,2.03.28,4.01.94,5.52,2.14,1.5,1.17,2.75,2.49,3.69,3.9.95,1.4,1.64,2.81,2.19,4.13,1.08,2.65,1.57,4.91,1.86,6.47.14.78.23,1.39.27,1.81.05.42.07.64.05.64Z"/>
    <rect class="cls-14" x="203.76" y="208.18" width="65.16" height="9.46"/>
    <rect class="cls-4" x="218.09" y="212.91" width="35.47" height="4.73"/>
    <g>
      <path class="cls-14" d="m295.5,404.34s-.72.12-1.97.48c-1.24.37-3.02,1.07-4.92,2.41-.94.67-1.91,1.51-2.76,2.57-.43.52-.81,1.12-1.13,1.75-.3.65-.53,1.36-.71,2.1-.74,2.99-.52,6.41-.37,9.97.15,3.56-.09,7.11-1.49,9.96-.67,1.42-1.61,2.63-2.66,3.56-1.05.92-2.18,1.59-3.26,2.07-1.08.48-2.13.76-3.05.91-.93.13-1.74.16-2.4.1-.66-.05-1.16-.14-1.5-.24-.34-.09-.51-.14-.5-.15.01-.05.71.17,2.01.22.65.03,1.44-.02,2.35-.17.9-.17,1.92-.47,2.97-.95,1.05-.48,2.14-1.15,3.15-2.06,1-.91,1.9-2.07,2.54-3.46,1.34-2.77,1.57-6.23,1.42-9.77-.15-3.55-.37-7.02.42-10.08.19-.76.43-1.49.76-2.17.35-.66.74-1.28,1.2-1.81.89-1.08,1.89-1.92,2.86-2.59,1.96-1.33,3.78-2,5.05-2.32.64-.16,1.14-.25,1.49-.28.34-.04.52-.05.53-.04Z"/>
      <rect class="cls-14" x="265.46" y="436.91" width="5.35" height="6.51"/>
      <g>
        <rect class="cls-4" x="295.5" y="387.91" width="29.99" height="32.86"/>
        <circle class="cls-14" cx="310.49" cy="404.47" r="9.87" transform="translate(-151.46 620.34) rotate(-77.54)"/>
        <path class="cls-4" d="m315.43,404.47c0,2.73-2.21,4.94-4.94,4.94s-4.94-2.21-4.94-4.94,2.21-4.94,4.94-4.94,4.94,2.21,4.94,4.94Z"/>
        <circle class="cls-14" cx="299.55" cy="393.01" r=".92"/>
        <circle class="cls-14" cx="320.9" cy="393.01" r=".92"/>
        <path class="cls-14" d="m322.02,417.28c0,.51-.41.92-.92.92s-.92-.41-.92-.92.41-.92.92-.92.92.41.92.92Z"/>
        <circle class="cls-14" cx="299.55" cy="417.65" r=".92"/>
        <rect class="cls-14" x="325.49" y="387.91" width="2.42" height="32.86"/>
      </g>
    </g>
  </g>
  <path class="cls-10" d="m288.98,168.74c2.96-6.91,1.16-14.12-3.7-19.86-4.86-5.74-13.08-8.4-20.38-6.61-1.3-7.27-6.37-13.77-13.11-16.79-6.74-3.02-14.96-2.49-21.26,1.38-6.29,3.87-10.48,10.97-10.82,18.35-5,.84-9.56,4.03-12.05,8.46-2.49,4.42-2.86,9.97-.98,14.69l82.3.39Z"/>
  <path class="cls-14" d="m459.37,345.19s.1-.01.29-.02c.21,0,.5-.01.86-.02.78,0,1.88-.02,3.29-.04,1.43,0,3.18-.05,5.12-.6,1.93-.53,4.06-1.52,6-3.15,1.9-1.65,3.69-3.89,4.67-6.71.29-.69.43-1.43.63-2.17.11-.76.28-1.52.28-2.32.09-1.58.02-3.24.04-4.92,0-6.76-.01-14.18-.02-21.98,0-1.95,0-3.88,0-5.78,0-.95,0-1.89-.11-2.8-.12-.91-.31-1.81-.63-2.65-1.21-3.42-3.87-6.11-6.93-7.4-3.08-1.41-6.4-.93-9.38-1.06-3-.03-5.8-.06-8.36-.08-5.09-.06-9.22-.12-12.1-.15-1.41-.03-2.51-.05-3.29-.06-.36-.01-.64-.02-.86-.03-.19,0-.29-.02-.29-.02s.1-.01.29-.02c.21,0,.5,0,.86-.02.78,0,1.88,0,3.29-.02,2.88,0,7.01,0,12.1.02,2.56,0,5.36.02,8.36.03,1.5,0,3.06.02,4.66.03,1.62.01,3.29.35,4.87,1.02,3.17,1.32,5.92,4.09,7.17,7.62.33.87.53,1.8.66,2.74.12.94.12,1.91.11,2.85,0,1.9,0,3.83,0,5.78,0,7.8-.01,15.22-.02,21.98-.02,1.69.04,3.33-.06,4.95,0,.81-.18,1.6-.3,2.37-.2.76-.36,1.52-.66,2.22-1.02,2.88-2.85,5.16-4.81,6.82-1.99,1.65-4.17,2.63-6.14,3.15-1.98.53-3.77.57-5.19.53-1.41-.02-2.51-.03-3.29-.04-.36,0-.64-.02-.86-.02-.19,0-.29-.01-.29-.02Z"/>
  <polygon class="cls-2" points="241.34 168.5 241.34 156.91 235.53 156.91 244.27 144.57 253.01 156.82 247.32 156.82 247.32 168.5 241.34 168.5"/>
  <g>
    <g>
      <polygon class="cls-9" points="440.11 318.7 446.28 326.76 458.03 321.56 450.51 309.5 440.11 318.7"/>
      <polygon class="cls-4" points="443.77 319.65 443.96 323.64 447.84 325.46 447.64 321.38 443.77 319.65"/>
      <polygon class="cls-4" points="447.45 317.42 447.64 321.41 451.53 323.23 451.33 319.15 447.45 317.42"/>
      <polygon class="cls-4" points="451.2 315.19 451.39 319.18 455.28 321 455.08 316.92 451.2 315.19"/>
      <g>
        <g>
          <path class="cls-10" d="m458.5,321.4l-1.34-2.05-11.51,7.29,2.71,4.55.76-.38c3.35-1.71,16.9-8.91,18.69-10.82,1.99-2.14-9.3,1.42-9.3,1.42Z"/>
          <g class="cls-5">
            <path class="cls-2" d="m452.56,328.62c-.74-.88-1.78-1.6-2.92-1.75-1.14-.15-2.07-.08-3.34.88l1.97,3.27,4.29-2.39Z"/>
          </g>
        </g>
        <path class="cls-3" d="m464.11,319.84s4.09-1.03,3.99-.2c-.1.83-13.52,8.62-19.75,11.54l-.13-.27,15.73-8.96s-.51-1.69.16-2.12Z"/>
        <path class="cls-14" d="m448.03,331.01s.08-.03.21-.1c.18-.09.38-.19.6-.3.6-.31,1.33-.7,2.19-1.15,1.84-.98,4.37-2.37,7.13-3.97,2.76-1.6,5.22-3.1,6.99-4.21.82-.52,1.52-.97,2.09-1.33.21-.14.39-.26.56-.37.13-.09.19-.13.19-.14s-.07.03-.21.11c-.17.1-.36.22-.58.34-.57.35-1.28.78-2.11,1.28-1.78,1.08-4.26,2.57-7.01,4.17-2.76,1.6-5.27,3-7.1,4.01-.85.47-1.58.87-2.16,1.19-.22.12-.41.23-.59.33-.13.08-.2.12-.2.12Z"/>
        <path class="cls-14" d="m464.06,322.14s-.22-.55-.19-1.25c.01-.7.3-1.22.25-1.24-.03-.03-.4.48-.42,1.24-.02.75.33,1.28.36,1.26Z"/>
        <path class="cls-14" d="m459.57,322.4s.09-.3.11-.67c.01-.37-.01-.67-.06-.67-.05,0-.09.3-.11.67-.01.37.01.67.06.67Z"/>
        <path class="cls-14" d="m458.32,322.44s.16-.22.25-.52c.1-.3.14-.55.1-.57-.04-.01-.16.22-.25.52-.1.3-.14.55-.1.57Z"/>
        <path class="cls-14" d="m457.08,321.68s.32-.08.66-.28c.34-.19.6-.38.58-.42s-.32.08-.66.28c-.34.19-.6.38-.58.42Z"/>
        <path class="cls-14" d="m456.42,321.02s.38,0,.8-.2c.42-.2.68-.47.65-.5-.03-.04-.33.17-.72.36-.39.19-.74.3-.73.35Z"/>
        <path class="cls-14" d="m459.37,321.14s.32-.12.75-.44c.22-.16.46-.38.7-.64.12-.14.25-.27.35-.46.05-.09.09-.21.05-.34-.03-.13-.17-.22-.29-.24-.94.05-1.43.87-1.48,1.4-.04.28,0,.5.05.65.04.15.09.22.1.22.03,0-.12-.33-.03-.84.05-.25.17-.55.4-.79.22-.23.59-.48.94-.46.17.02.21.19.12.34-.08.15-.21.29-.32.43-.23.26-.46.48-.66.65-.41.34-.69.51-.68.53Z"/>
        <path class="cls-14" d="m459.59,321.06s.01-.26-.22-.58c-.12-.16-.29-.32-.53-.43-.23-.09-.54-.22-.85-.02-.16.12-.13.37-.03.48.09.12.22.2.32.26.22.12.44.2.62.25.37.09.61.07.61.05,0-.03-.23-.05-.58-.17-.17-.06-.37-.15-.58-.27-.2-.1-.43-.34-.26-.49.18-.13.48-.05.68.03.21.09.38.23.5.37.24.27.28.51.31.5Z"/>
        <path class="cls-14" d="m446.4,327.66s.32-.23.89-.47c.56-.25,1.42-.46,2.35-.32.93.14,1.69.59,2.16.99.47.4.69.73.71.71,0,0-.04-.09-.14-.24-.1-.15-.26-.34-.5-.56-.46-.43-1.24-.92-2.21-1.06-.97-.14-1.86.1-2.42.38-.28.14-.5.28-.64.39-.14.11-.21.18-.2.19Z"/>
        <path class="cls-14" d="m453.38,326.61s.86-.28,1.82-.83c.96-.54,1.67-1.1,1.64-1.14-.03-.04-.77.45-1.72.99-.95.54-1.75.93-1.73.97Z"/>
        <path class="cls-14" d="m451.07,327.95s.16.13.34.26c.18.13.31.26.35.24.04-.02-.05-.22-.26-.37-.21-.15-.42-.17-.43-.12Z"/>
        <path class="cls-14" d="m449.57,327.37s.13.12.33.17c.19.05.36.06.37.02.01-.04-.13-.12-.33-.17-.19-.05-.36-.06-.37-.02Z"/>
        <path class="cls-14" d="m448.05,327.6s.19-.06.39-.1c.21-.04.39-.02.4-.06.02-.04-.18-.15-.43-.1-.26.05-.4.23-.36.26Z"/>
        <path class="cls-14" d="m447.03,327.88s.11.07.23.05c.12-.02.21-.07.2-.12,0-.04-.11-.07-.23-.05-.12.02-.21.07-.2.12Z"/>
      </g>
    </g>
    <g>
      <path class="cls-14" d="m362.13,312.73l45.97-43.35c2.84-2.91,6.74-4.55,10.81-4.55h0c5.42,0,10.43,2.9,13.12,7.61l23.52,40.42-14.92,8.61-22.65-28.81-22.7,20.51-33.14-.44Z"/>
      <path class="cls-14" d="m348.59,314.91c-.19.58-1.56,15.4,18.32,15.4h53.11c6.72,0,12.17-5.45,12.17-12.17h0c0-6.72-5.45-12.17-12.17-12.17h-49.45c-1.77,0-3.52.39-5.12,1.13l-16.86,7.82Z"/>
      <path class="cls-4" d="m424.72,305.96c0,.12-10.97.21-24.5.21s-24.5-.1-24.5-.21,10.97-.21,24.5-.21,24.5.1,24.5.21Z"/>
      <path class="cls-4" d="m416.52,282.53c.13,0,.13,2.3.55,5.08.4,2.79,1.06,4.99.94,5.03-.1.04-.95-2.13-1.36-4.97-.42-2.83-.24-5.15-.13-5.15Z"/>
      <path class="cls-4" d="m418.78,282.2c.11,0,.23,2.35-.02,5.23-.24,2.88-.76,5.18-.87,5.16-.12-.02.2-2.33.45-5.19.25-2.86.32-5.19.45-5.19Z"/>
    </g>
    <g>
      <g>
        <g>
          <path class="cls-14" d="m377.6,217c.06.6-.26,1.22-.79,1.52-.53.29-1.23.24-1.71-.13-.91-.71-.76-2.12-.35-3.19.41-1.07,1.02-2.18.76-3.3-.2-.85-.88-1.5-1.36-2.24-.84-1.28-1.09-2.96-.55-4.39.54-1.43,1.91-2.55,3.44-2.67,1.56-.12,3.29.68,4.6-.17.95-.62,1.24-1.88,2.04-2.68,1.24-1.25,3.31-1.08,4.97-.52,1.66.57,3.3,1.46,5.05,1.36,1.47-.08,2.8-.83,4.23-1.17,3.09-.75,6.59.67,8.3,3.35,1.71,2.69,1.5,6.45-.48,8.93-.71.89-2.32,3.56-5.52,2.9"/>
          <g>
            <path class="cls-1" d="m379.42,204.9l-.43,2.3-6.67,34.44c-.77,4,2.05,7.85,6.33,8.64h0c4.33.8,8.52-1.81,9.37-5.83.89-4.23,1.91-8.66,1.91-8.66,0,0,5.63.23,8.24-6.65,1.3-3.42,2.32-9.25,3.01-14.05.62-4.32-2.48-8.28-6.82-8.71l-14.93-1.49Z"/>
            <g>
              <path class="cls-14" d="m397.95,218.52c-.08.48-.56.81-1.07.74-.51-.08-.85-.53-.77-1.02.08-.48.56-.81,1.07-.74.51.08.85.53.77,1.02Z"/>
              <path class="cls-14" d="m399.29,217.86c-.14.1-.72-.56-1.7-.76-.98-.21-1.8.14-1.88,0-.04-.06.12-.25.48-.42.36-.16.93-.27,1.54-.15.61.13,1.08.46,1.32.75.25.29.31.53.24.57Z"/>
            </g>
            <g>
              <path class="cls-14" d="m388.57,216.61c-.08.48-.56.81-1.07.74-.51-.08-.85-.53-.77-1.02.08-.48.56-.81,1.07-.74.51.08.85.53.77,1.02Z"/>
              <path class="cls-14" d="m389.61,216.04c-.14.1-.72-.56-1.7-.76-.98-.21-1.8.14-1.88,0-.04-.06.12-.25.48-.42.36-.16.93-.27,1.54-.15.61.13,1.08.46,1.32.75.25.29.31.53.24.57Z"/>
            </g>
            <path class="cls-14" d="m391.66,224.05c0-.06.64-.04,1.65.04.26.03.5.03.58-.14.1-.17.05-.46-.01-.78-.11-.65-.22-1.34-.34-2.06-.46-2.93-.75-5.32-.63-5.33.12-.02.59,2.34,1.06,5.27.11.72.21,1.41.31,2.07.04.3.13.66-.07,1.01-.11.17-.32.27-.49.28-.17.02-.31-.01-.44-.03-1.01-.15-1.62-.28-1.61-.33Z"/>
            <path class="cls-8" d="m389.93,235.79s-4.84-.68-8.99-4.52c0,0,1.3,5.36,8.55,6.17l.44-1.66Z"/>
            <path class="cls-14" d="m388.64,224.13c.16.02-.06,1.09.7,2.03.75.95,1.91,1.06,1.89,1.21,0,.07-.3.15-.78.07-.47-.08-1.13-.37-1.59-.95-.46-.58-.57-1.25-.52-1.69.05-.45.23-.69.3-.67Z"/>
          </g>
          <path class="cls-14" d="m390.67,212.25c-.15.25-1.11-.08-2.28-.18-1.18-.12-2.18.02-2.28-.25-.04-.13.17-.35.6-.53.43-.18,1.07-.3,1.78-.24.71.07,1.32.31,1.7.57.39.26.56.51.49.63Z"/>
          <path class="cls-14" d="m399.52,214.94c-.22.19-.85-.18-1.66-.36-.8-.21-1.53-.16-1.64-.43-.05-.13.11-.33.45-.48.34-.15.87-.22,1.43-.08.55.13,1,.44,1.23.72.24.29.29.54.19.63Z"/>
          <path class="cls-14" d="m402.07,212s-4.02,1.15-8.43-2.11c-2.89-2.14-6.45-3.55-7.37-3.06-.93.49-1.67,3.73-4.97,4.13,0,0-.87,6.27-3.32,5.61-2.44-.66.51-12.98.51-12.98l6.88,1.05,6.85-.09,6.09,1.97,4.6,2.17-.83,3.31Z"/>
          <path class="cls-14" d="m378.67,201.79c-.02-.1.61-.2,1.24.19.63.39.83.99.74,1.02-.1.05-.4-.38-.93-.7-.53-.33-1.05-.41-1.05-.51Z"/>
          <path class="cls-14" d="m381.16,200.12c.11.03-.08.75-.12,1.62-.05.87.19,1.55.09,1.6-.08.06-.52-.64-.47-1.61.05-.95.42-1.63.5-1.6Z"/>
        </g>
        <g>
          <path class="cls-1" d="m378.64,214.06c-.09-.07-3.82-2.26-4.72,1.88-.9,4.14,3.44,4.19,3.47,4.07.03-.12,1.25-5.95,1.25-5.95Z"/>
          <path class="cls-8" d="m376.47,218.16s-.08.03-.22.06c-.13.03-.34.02-.54-.11-.4-.26-.62-1.03-.48-1.78.07-.38.23-.72.43-.99.19-.28.43-.44.66-.43.23,0,.36.16.38.29.03.13-.01.2,0,.22,0,.01.1-.05.11-.23,0-.09-.03-.19-.11-.29-.08-.1-.22-.18-.38-.19-.32-.05-.67.18-.89.48-.24.29-.42.67-.5,1.1-.16.84.1,1.71.66,2.02.27.14.54.1.68.03.15-.07.19-.16.18-.17Z"/>
        </g>
      </g>
      <g>
        <path class="cls-4" d="m392.35,216.47s-.03-.39-.22-1.05c-.18-.65-.63-1.6-1.61-2.32-.95-.73-2.5-1.13-4-.57-1.49.52-2.77,2.1-2.75,3.94-.02,1.85,1.27,3.43,2.75,3.95,1.5.56,3.05.16,4-.57.98-.73,1.43-1.67,1.61-2.32.18-.66.17-1.06.22-1.05.01,0,.02.1.03.28,0,.19-.01.46-.09.81-.14.69-.56,1.71-1.59,2.52-.99.81-2.67,1.29-4.32.7-.81-.28-1.59-.83-2.14-1.59-.57-.75-.89-1.72-.9-2.72,0-1,.33-1.97.9-2.72.55-.76,1.33-1.31,2.14-1.59,1.65-.59,3.33-.11,4.32.7,1.02.81,1.45,1.84,1.59,2.52.07.35.09.62.09.81,0,.19-.01.28-.03.28Z"/>
        <path class="cls-4" d="m402.9,218.38s-.03-.39-.22-1.05c-.18-.65-.63-1.6-1.61-2.32-.95-.73-2.5-1.13-4-.57-1.49.52-2.77,2.1-2.75,3.94-.02,1.85,1.27,3.43,2.75,3.95,1.5.56,3.05.16,4-.57.98-.73,1.43-1.67,1.61-2.32.18-.66.17-1.06.22-1.05.01,0,.02.1.03.28,0,.19-.01.46-.09.81-.14.69-.56,1.71-1.59,2.52-.99.81-2.67,1.29-4.32.7-.81-.28-1.59-.83-2.14-1.59-.57-.75-.89-1.72-.9-2.72,0-1,.33-1.97.9-2.72.55-.76,1.33-1.31,2.14-1.59,1.65-.59,3.33-.11,4.32.7,1.02.81,1.45,1.84,1.59,2.52.07.35.09.62.09.81,0,.19-.01.28-.03.28Z"/>
        <path class="cls-4" d="m384.06,214.04c0,.12-1.18.22-2.65.22-1.46,0-2.65-.09-2.65-.2,0-.12,1.18-.22,2.65-.22,1.46,0,2.65.09,2.65.2Z"/>
      </g>
      <path class="cls-4" d="m394.11,217.54c-.11.05-.37-.35-.85-.49-.48-.15-.91.05-.98-.05-.03-.05.04-.17.24-.28.19-.11.52-.18.86-.08.34.1.58.34.68.53.11.2.1.34.05.36Z"/>
    </g>
    <polygon class="cls-9" points="384.38 305.61 384.38 302.88 423.22 303.68 445.58 267.95 447.63 269.43 424.72 305.96 384.38 305.61"/>
    <path class="cls-1" d="m411.25,293.7l1.95,2.9v5.97s-1.01.23-1.42-.57-.94-3.57-.94-3.57l-.95,2.44c-.38.99-1.45,1.54-2.48,1.28l-7.2-1.81,2.94-8.41,8.09,1.78Z"/>
    <g>
      <path class="cls-10" d="m371.49,236.07s-10.75,2.69-13.97,7.52c-3.22,4.84-6.9,12.86-10.85,28.43-3.45,13.59-6.12,35.28-2.38,40.37,2.57,3.51,4.22,4.4,4.22,4.4l8.29-2.97c7.99-2.86,15.33-7.28,21.6-13l12.73-11.61-6.74-5.31s5.12-27.68,3.76-37.36c-1.19-8.46-16.66-10.47-16.66-10.47Z"/>
      <path class="cls-10" d="m374.27,244.41c-4.14,1.03-8.12,2.71-13.77,3.18-1.32.11-2.68-.13-3.82-.83-3.57-2.2-2.33-6.28-.38-9.03,2.07-2.91,5.32-5.42,8.87-5.06-.68-1.77.37-3.88,2.03-4.79,1.66-.91,3.73-.79,5.5-.12,1.77.67,3.31,1.82,4.82,2.96,2.03,1.53,4.05,3.06,6.08,4.59,1.36,1.03,2.77,2.11,3.56,3.62.79,1.52,3.7,7.46,2.4,8.58,0,0-1.65.48-2.45,0-.04-.03-.09-.06-.15-.1-3.62-2.82-8.23-4.1-12.69-3Z"/>
      <path class="cls-10" d="m368.16,249.45l-7.1,33.21c-1.24,5.8,1.98,11.63,7.56,13.66l30.88,5.92,3.85-11.51h0l-25.06-7.82,7.35-32.08-17.47-1.38Z"/>
      <path class="cls-14" d="m360.79,288.98s.02.06.05.19c.03.14.07.33.12.57.03.13.05.27.08.43.06.15.12.32.18.49.07.18.14.37.21.58.11.19.22.4.34.62.5.86,1.3,1.82,2.5,2.64,1.19.82,2.72,1.52,4.53,1.98,7.39,1.35,17.92,3.28,30.55,5.59l-.21.12c1.27-3.65,2.62-7.5,4.02-11.51l.13.25c-7.73-2.41-16.2-5.05-25.06-7.8l-.19-.06.05-.2c.44-1.71.9-3.54,1.37-5.39,1.46-5.82,2.82-11.51,4.01-17.03.58-2.76,1.13-5.49,1.51-8.17.11-.67.11-1.33.17-2-.03-.66-.05-1.31-.22-1.94-.29-1.26-.89-2.43-1.71-3.4-1.64-1.96-4.15-3-6.55-2.93-2.43.07-4.59,1.37-6.08,3.08-1.52,1.71-2.48,3.75-3.13,5.77-.66,2.03-1.04,4.05-1.42,5.98-1.52,7.7-2.75,13.93-3.6,18.26-.43,2.14-.77,3.81-1,4.96-.12.55-.21.98-.27,1.29-.06.29-.11.44-.11.44,0,0,.01-.15.06-.44.05-.31.13-.74.23-1.3.21-1.15.52-2.83.92-4.98.82-4.33,2.01-10.58,3.47-18.29.37-1.93.75-3.96,1.4-6.02.65-2.05,1.63-4.14,3.18-5.91,1.52-1.76,3.78-3.14,6.33-3.22,2.51-.08,5.14,1.01,6.86,3.05.86,1.01,1.49,2.24,1.8,3.57.18.66.21,1.35.23,2.04-.06.68-.06,1.37-.17,2.05-.38,2.7-.93,5.43-1.51,8.2-1.18,5.53-2.55,11.23-4,17.05-.47,1.85-.94,3.68-1.38,5.39l-.14-.26c8.85,2.77,17.32,5.42,25.05,7.83l.2.06-.07.19c-1.41,4.01-2.76,7.86-4.04,11.5l-.05.15-.15-.03c-12.64-2.36-23.16-4.29-30.53-5.74-1.83-.47-3.37-1.2-4.57-2.05-1.21-.84-2.01-1.84-2.5-2.72-.12-.22-.23-.43-.33-.63-.07-.21-.14-.41-.2-.59-.06-.18-.12-.35-.17-.5-.03-.16-.05-.3-.07-.43-.04-.25-.07-.44-.09-.58-.02-.13-.03-.2-.02-.2Z"/>
      <path class="cls-14" d="m373.97,287.27s-.09-.39.07-.99c.15-.6.55-1.4,1.24-2.06.69-.66,1.5-1.03,2.11-1.16.61-.13.99-.07.99-.03,0,.07-.36.12-.91.31-.55.19-1.26.57-1.9,1.18-.63.61-1.04,1.31-1.25,1.85-.22.54-.28.9-.35.9Z"/>
      <g class="cls-7">
        <path d="m367.43,249.01c-3.72,11.51-5.96,23.46-7.44,35.47-.34,2.77-.64,5.59-.16,8.34.48,2.75,1.84,5.47,4.18,6.99,2.19,1.42,4.98,1.64,7.55,1.15,2.56-.49,6.7-1.05,9.06-2.17l-13.81-2.85s-8.91-.55-5.08-17.61c3.83-17.06,5.71-29.32,5.71-29.32Z"/>
      </g>
      <g class="cls-7">
        <path d="m355.65,246.18c-.05,1.36.07,3.04,1.31,3.61,1.27.59,2.65-.48,3.68-1.43,4.19-3.86,8.93-7.12,14.05-9.63-6.94.45-13.71,3.18-19.02,7.69"/>
      </g>
      <path class="cls-14" d="m382.71,242.01c-.06.09-1.32-1.06-3.81-2.03-1.24-.47-2.78-.9-4.53-1.03-1.75-.14-3.7.01-5.63.61-1.94.58-3.69,1.46-5.25,2.3-1.56.85-2.94,1.65-4.13,2.28-1.19.63-2.18,1.09-2.88,1.37-.7.27-1.1.4-1.11.37-.01-.03.37-.21,1.04-.52.68-.33,1.64-.82,2.81-1.48,1.19-.68,2.57-1.48,4.09-2.36,1.56-.86,3.32-1.77,5.31-2.36,1.99-.62,4-.76,5.79-.6,1.79.16,3.36.62,4.61,1.14,1.25.52,2.19,1.11,2.8,1.56.31.21.53.41.68.54.15.13.22.2.22.21Z"/>
      <path class="cls-14" d="m387.03,243.74c-.05.05-1.03-.92-2.76-2.31-1.72-1.39-4.24-3.15-7.27-4.67-3.03-1.5-5.95-2.46-8.1-2.99-2.15-.54-3.52-.73-3.51-.81,0-.03.35,0,.97.07.62.06,1.51.21,2.61.45,2.18.47,5.16,1.38,8.22,2.91,3.06,1.53,5.58,3.35,7.27,4.82.85.73,1.5,1.35,1.93,1.81.43.45.66.71.64.73Z"/>
      <path class="cls-9" d="m389.1,270.61s-.08-.24-.16-.69c-.08-.45-.19-1.11-.27-1.96-.06-.85-.13-1.87.14-3.05.14-.57.58-1.25,1.34-1.37.36-.07.82.07,1.05.43.22.32.3.84-.06,1.2l-.04.04h-.06c-.45.09-.89-.14-1.17-.45-.3-.32-.44-.75-.5-1.15-.1-.82-.1-1.6-.16-2.43-.2-3.92-.36-7.47-.46-10.04-.04-1.22-.07-2.24-.09-3.04-.01-.72,0-1.12.02-1.12.03,0,.08.39.14,1.11.06.8.13,1.82.23,3.04.17,2.57.38,6.11.58,10.03.05.82.06,1.65.15,2.39.06.36.17.7.39.94.22.24.53.39.8.34l-.1.05c.17-.15.16-.47,0-.69-.14-.22-.4-.31-.67-.27-.56.08-.93.58-1.07,1.1-.27,1.07-.25,2.11-.22,2.94.1,1.67.25,2.66.19,2.67Z"/>
      <path class="cls-14" d="m375.67,297.65s-.34.36-1,.94c-.66.59-1.64,1.41-2.87,2.39-2.47,1.96-6.02,4.52-10.18,6.96-4.16,2.44-8.12,4.29-11.05,5.47-1.46.59-2.66,1.04-3.5,1.32-.84.28-1.3.43-1.31.4,0-.03.44-.22,1.25-.55.82-.33,1.99-.81,3.44-1.44,2.89-1.25,6.81-3.13,10.95-5.56,4.14-2.43,7.69-4.94,10.21-6.83,1.26-.95,2.26-1.73,2.95-2.28.69-.54,1.08-.84,1.1-.81Z"/>
      <path class="cls-14" d="m350.78,316.23c-.09.07-.58-.42-1.09-1.1-.51-.68-.84-1.28-.75-1.35.09-.07.58.42,1.09,1.1.51.68.84,1.28.75,1.35Z"/>
      <path class="cls-14" d="m355.71,314.14c-.07.09-.74-.29-1.37-.99-.64-.7-.95-1.4-.85-1.46.1-.06.56.51,1.17,1.17.6.66,1.13,1.18,1.06,1.27Z"/>
      <path class="cls-14" d="m361.91,312.1c-.09.08-.77-.55-1.53-1.41-.76-.86-1.3-1.61-1.21-1.69.09-.08.77.55,1.53,1.41.76.86,1.3,1.61,1.21,1.69Z"/>
      <path class="cls-14" d="m368.56,308.57c-.09.07-.82-.66-1.63-1.64-.81-.98-1.39-1.83-1.3-1.91.09-.07.82.66,1.63,1.64.81.98,1.39,1.83,1.3,1.91Z"/>
      <path class="cls-14" d="m374.74,303.94c-.08.09-.86-.49-1.75-1.29-.89-.8-1.54-1.52-1.46-1.61.08-.09.86.49,1.75,1.29.89.8,1.54,1.52,1.46,1.61Z"/>
    </g>
  </g>
  <g>
    <path class="cls-4" d="m434.05,237.61c0,1.05-.86,1.89-1.91,1.89-1.05,0-1.89-.86-1.89-1.91,0-1.05.86-1.89,1.91-1.89,1.05,0,1.89.86,1.89,1.91Z"/>
    <path class="cls-4" d="m428.36,235.17c2.08-2.19,5.47-2.25,7.61-.1.97.98,2.49-.53,1.52-1.5-2.93-2.96-7.75-2.94-10.63.09-.95.99.55,2.51,1.5,1.52h0Z"/>
    <path class="cls-4" d="m421.91,226.34c2.89-2.49,6.33-4.06,10.19-4.07,3.82,0,7.59,1.35,10.39,3.98,1,.94,2.52-.56,1.52-1.5-3.21-3.01-7.51-4.62-11.9-4.61-4.44.01-8.38,1.83-11.7,4.69-1.04.9.47,2.41,1.5,1.52h0Z"/>
    <path class="cls-4" d="m424.45,231.23c1.93-2.09,4.65-3.4,7.51-3.47,2.94-.07,5.79,1.15,7.83,3.25.96.99,2.48-.52,1.52-1.5-2.42-2.49-5.85-3.96-9.34-3.88-3.41.08-6.71,1.59-9.02,4.08-.93,1.01.57,2.53,1.5,1.52h0Z"/>
  </g>
</svg>