<?xml version="1.0" encoding="UTF-8"?>
<svg xmlns="http://www.w3.org/2000/svg" xmlns:xlink="http://www.w3.org/1999/xlink" viewBox="0 0 576 576">
  <defs>
    <style>
      .cls-1, .cls-2, .cls-3, .cls-4, .cls-5 {
        mix-blend-mode: multiply;
      }

      .cls-1, .cls-6 {
        fill: #f8bbd5;
      }

      .cls-7, .cls-8 {
        fill: #fff;
      }

      .cls-9 {
        fill-rule: evenodd;
      }

      .cls-9, .cls-10, .cls-11, .cls-4 {
        fill: #aeded8;
      }

      .cls-12 {
        stroke-width: .89px;
      }

      .cls-12, .cls-13, .cls-14, .cls-15, .cls-16, .cls-17, .cls-18, .cls-19, .cls-20, .cls-21, .cls-22 {
        fill: none;
      }

      .cls-12, .cls-13, .cls-14, .cls-17 {
        stroke-linejoin: round;
      }

      .cls-12, .cls-13, .cls-15, .cls-16, .cls-17, .cls-20 {
        stroke-linecap: round;
      }

      .cls-12, .cls-16, .cls-18, .cls-20, .cls-22 {
        stroke: #fff;
      }

      .cls-13, .cls-14, .cls-15, .cls-17 {
        stroke-width: 1.76px;
      }

      .cls-13, .cls-10, .cls-15, .cls-8, .cls-21 {
        stroke: #29255c;
      }

      .cls-23 {
        isolation: isolate;
      }

      .cls-14, .cls-17 {
        stroke: #017459;
      }

      .cls-10, .cls-15, .cls-16, .cls-8, .cls-18, .cls-20, .cls-21, .cls-22 {
        stroke-miterlimit: 10;
      }

      .cls-10, .cls-8 {
        stroke-width: .78px;
      }

      .cls-16 {
        stroke-width: 5.31px;
      }

      .cls-2, .cls-24 {
        fill: #b34170;
      }

      .cls-18 {
        stroke-width: 18.45px;
      }

      .cls-25 {
        fill: #29255c;
      }

      .cls-3 {
        opacity: .3;
      }

      .cls-26 {
        clip-path: url(#clippath);
      }

      .cls-27 {
        fill: #017459;
      }

      .cls-28 {
        fill: #161616;
      }

      .cls-20 {
        stroke-width: 2.22px;
      }

      .cls-21 {
        stroke-width: 1.44px;
      }

      .cls-22 {
        stroke-width: 49.19px;
      }
    </style>
    <clipPath id="clippath">
      <path class="cls-19" d="m156.26,188.2l-15.35-79.96c-.61-3.16,1.36-5.75,4.38-5.75h271.83c3.02,0,4.99,2.59,4.38,5.75l-15.35,79.96h-249.89Z"/>
    </clipPath>
  </defs>
  <g class="cls-23">
    <g id="Layer_1" data-name="Layer 1">
      <g>
        <g>
          <rect class="cls-27" x="61.33" y="184.77" width="439.74" height="242.23" rx="20.56" ry="20.56"/>
          <rect class="cls-11" x="233.96" y="177.52" width="94.48" height="54.8" rx="7.58" ry="7.58"/>
          <g>
            <path class="cls-25" d="m192.4,274.53h177.61c2.59,0,4.68,2.1,4.68,4.68v75.41h-186.98v-75.41c0-2.59,2.1-4.68,4.68-4.68Z"/>
            <g>
              <g class="cls-5">
                <rect class="cls-25" x="194" y="284.22" width="8.8" height="5.64"/>
                <rect class="cls-25" x="205.2" y="284.22" width="8.8" height="5.64"/>
                <rect class="cls-25" x="216.41" y="284.22" width="8.8" height="5.64"/>
                <rect class="cls-25" x="227.61" y="284.22" width="8.8" height="5.64"/>
                <rect class="cls-25" x="238.81" y="284.22" width="8.8" height="5.64"/>
                <rect class="cls-25" x="250.02" y="284.22" width="8.8" height="5.64"/>
                <rect class="cls-25" x="261.22" y="284.22" width="8.8" height="5.64"/>
                <rect class="cls-25" x="272.42" y="284.22" width="8.8" height="5.64"/>
                <rect class="cls-25" x="283.62" y="284.22" width="8.8" height="5.64"/>
                <rect class="cls-25" x="294.83" y="284.22" width="8.8" height="5.64"/>
                <rect class="cls-25" x="306.03" y="284.22" width="8.8" height="5.64"/>
                <rect class="cls-25" x="317.23" y="284.22" width="8.8" height="5.64"/>
                <rect class="cls-25" x="328.44" y="284.22" width="8.8" height="5.64"/>
                <rect class="cls-25" x="339.64" y="284.22" width="8.8" height="5.64"/>
                <rect class="cls-25" x="350.84" y="284.22" width="8.8" height="5.64"/>
                <rect class="cls-25" x="362.04" y="284.22" width="8.8" height="5.64"/>
                <rect class="cls-25" x="194" y="291.84" width="8.8" height="9.18"/>
                <rect class="cls-25" x="205.2" y="291.84" width="8.8" height="9.18"/>
                <rect class="cls-25" x="216.41" y="291.84" width="8.8" height="9.18"/>
                <rect class="cls-25" x="227.61" y="291.84" width="8.8" height="9.18"/>
                <rect class="cls-25" x="238.81" y="291.84" width="8.8" height="9.18"/>
                <rect class="cls-25" x="250.02" y="291.84" width="8.8" height="9.18"/>
                <rect class="cls-25" x="261.22" y="291.84" width="8.8" height="9.18"/>
                <rect class="cls-25" x="272.42" y="291.84" width="8.8" height="9.18"/>
                <rect class="cls-25" x="283.62" y="291.84" width="8.8" height="9.18"/>
                <rect class="cls-25" x="294.83" y="291.84" width="8.8" height="9.18"/>
                <rect class="cls-25" x="306.03" y="291.84" width="8.8" height="9.18"/>
                <rect class="cls-25" x="317.23" y="291.84" width="8.8" height="9.18"/>
                <rect class="cls-25" x="328.44" y="291.84" width="8.8" height="9.18"/>
                <rect class="cls-25" x="210.72" y="303.19" width="8.8" height="9.18"/>
                <rect class="cls-25" x="194" y="303.19" width="14.32" height="9.18"/>
                <rect class="cls-25" x="194" y="314.63" width="16.71" height="9.18"/>
                <rect class="cls-25" x="194" y="326.79" width="21.57" height="9.18"/>
                <rect class="cls-25" x="221.92" y="303.19" width="8.8" height="9.18"/>
                <rect class="cls-25" x="233.12" y="303.19" width="8.8" height="9.18"/>
                <rect class="cls-25" x="244.32" y="303.19" width="8.8" height="9.18"/>
                <rect class="cls-25" x="255.53" y="303.19" width="8.8" height="9.18"/>
                <rect class="cls-25" x="266.73" y="303.19" width="8.8" height="9.18"/>
                <rect class="cls-25" x="277.93" y="303.19" width="8.8" height="9.18"/>
                <rect class="cls-25" x="289.14" y="303.19" width="8.8" height="9.18"/>
                <rect class="cls-25" x="300.34" y="303.19" width="8.8" height="9.18"/>
                <rect class="cls-25" x="311.54" y="303.19" width="8.8" height="9.18"/>
                <rect class="cls-25" x="322.74" y="303.19" width="8.8" height="9.18"/>
                <rect class="cls-25" x="333.95" y="303.19" width="8.8" height="9.18"/>
                <rect class="cls-25" x="345.15" y="303.19" width="8.8" height="9.18"/>
                <rect class="cls-25" x="356.11" y="303.19" width="14.73" height="9.18"/>
                <rect class="cls-25" x="213.51" y="314.63" width="8.8" height="9.18"/>
                <rect class="cls-25" x="224.32" y="314.63" width="8.8" height="9.18"/>
                <rect class="cls-25" x="235.12" y="314.63" width="8.8" height="9.18"/>
                <rect class="cls-25" x="245.92" y="314.63" width="8.8" height="9.18"/>
                <rect class="cls-25" x="256.73" y="314.63" width="8.8" height="9.18"/>
                <rect class="cls-25" x="267.53" y="314.63" width="8.8" height="9.18"/>
                <rect class="cls-25" x="278.33" y="314.63" width="8.8" height="9.18"/>
                <rect class="cls-25" x="289.14" y="314.63" width="8.8" height="9.18"/>
                <rect class="cls-25" x="299.94" y="314.63" width="8.8" height="9.18"/>
                <rect class="cls-25" x="310.74" y="314.63" width="8.8" height="9.18"/>
                <rect class="cls-25" x="321.54" y="314.63" width="8.8" height="9.18"/>
                <rect class="cls-25" x="332.35" y="314.63" width="8.8" height="9.18"/>
                <rect class="cls-25" x="218.52" y="326.79" width="8.8" height="9.18"/>
                <rect class="cls-25" x="194" y="337.98" width="8.8" height="9.18"/>
                <rect class="cls-25" x="205.2" y="337.98" width="8.8" height="9.18"/>
                <rect class="cls-25" x="216.41" y="337.98" width="8.8" height="9.18"/>
                <rect class="cls-25" x="227.61" y="337.98" width="8.8" height="9.18"/>
                <polygon class="cls-25" points="297.01 337.98 294.83 337.98 292.42 337.98 283.62 337.98 281.22 337.98 272.42 337.98 270.02 337.98 261.22 337.98 258.81 337.98 250.02 337.98 238.81 337.98 238.81 347.16 250.02 347.16 258.81 347.16 261.22 347.16 270.02 347.16 272.42 347.16 281.22 347.16 283.62 347.16 292.42 347.16 294.83 347.16 297.01 347.16 303.62 347.16 303.62 337.98 297.01 337.98"/>
                <rect class="cls-25" x="306.03" y="337.98" width="8.8" height="9.18"/>
                <rect class="cls-25" x="317.23" y="337.98" width="8.8" height="9.18"/>
                <rect class="cls-25" x="328.44" y="337.98" width="8.8" height="9.18"/>
                <rect class="cls-25" x="339.64" y="337.98" width="8.8" height="9.18"/>
                <rect class="cls-25" x="350.84" y="337.98" width="8.8" height="9.18"/>
                <rect class="cls-25" x="362.04" y="337.98" width="8.8" height="9.18"/>
                <rect class="cls-25" x="229.32" y="326.79" width="8.8" height="9.18"/>
                <rect class="cls-25" x="240.12" y="326.79" width="8.8" height="9.18"/>
                <rect class="cls-25" x="250.93" y="326.79" width="8.8" height="9.18"/>
                <rect class="cls-25" x="261.73" y="326.79" width="8.8" height="9.18"/>
                <rect class="cls-25" x="272.53" y="326.79" width="8.8" height="9.18"/>
                <rect class="cls-25" x="283.33" y="326.79" width="8.8" height="9.18"/>
                <rect class="cls-25" x="294.14" y="326.79" width="8.8" height="9.18"/>
                <rect class="cls-25" x="304.94" y="326.79" width="8.8" height="9.18"/>
                <rect class="cls-25" x="315.74" y="326.79" width="8.8" height="9.18"/>
                <rect class="cls-25" x="326.55" y="326.79" width="8.8" height="9.18"/>
                <rect class="cls-25" x="337.35" y="326.79" width="8.8" height="9.18"/>
                <rect class="cls-25" x="348.15" y="326.79" width="8.8" height="9.18"/>
                <polygon class="cls-25" points="343.39 314.63 343.39 323.81 359.37 323.81 359.37 335.96 370.84 335.96 370.84 323.81 370.84 322.01 370.84 314.63 343.39 314.63"/>
                <polygon class="cls-25" points="348.43 291.84 339.64 291.84 339.64 301.02 348.43 301.02 359.64 301.02 359.64 291.84 348.43 291.84"/>
                <rect class="cls-25" x="362.04" y="291.84" width="8.8" height="9.18"/>
              </g>
              <g>
                <rect class="cls-8" x="192.83" y="283.05" width="8.8" height="5.64"/>
                <rect class="cls-8" x="204.03" y="283.05" width="8.8" height="5.64"/>
                <rect class="cls-8" x="215.24" y="283.05" width="8.8" height="5.64"/>
                <rect class="cls-8" x="226.44" y="283.05" width="8.8" height="5.64"/>
                <rect class="cls-8" x="237.64" y="283.05" width="8.8" height="5.64"/>
                <rect class="cls-8" x="248.84" y="283.05" width="8.8" height="5.64"/>
                <rect class="cls-8" x="260.05" y="283.05" width="8.8" height="5.64"/>
                <rect class="cls-8" x="271.25" y="283.05" width="8.8" height="5.64"/>
                <rect class="cls-8" x="282.45" y="283.05" width="8.8" height="5.64"/>
                <rect class="cls-8" x="293.66" y="283.05" width="8.8" height="5.64"/>
                <rect class="cls-8" x="304.86" y="283.05" width="8.8" height="5.64"/>
                <rect class="cls-8" x="316.06" y="283.05" width="8.8" height="5.64"/>
                <rect class="cls-8" x="327.26" y="283.05" width="8.8" height="5.64"/>
                <rect class="cls-8" x="338.47" y="283.05" width="8.8" height="5.64"/>
                <rect class="cls-8" x="349.67" y="283.05" width="8.8" height="5.64"/>
                <rect class="cls-8" x="360.87" y="283.05" width="8.8" height="5.64"/>
                <rect class="cls-8" x="192.83" y="290.67" width="8.8" height="9.18"/>
                <rect class="cls-8" x="204.03" y="290.67" width="8.8" height="9.18"/>
                <rect class="cls-8" x="215.24" y="290.67" width="8.8" height="9.18"/>
                <rect class="cls-8" x="226.44" y="290.67" width="8.8" height="9.18"/>
                <rect class="cls-8" x="237.64" y="290.67" width="8.8" height="9.18"/>
                <rect class="cls-8" x="248.84" y="290.67" width="8.8" height="9.18"/>
                <rect class="cls-8" x="260.05" y="290.67" width="8.8" height="9.18"/>
                <rect class="cls-8" x="271.25" y="290.67" width="8.8" height="9.18"/>
                <rect class="cls-8" x="282.45" y="290.67" width="8.8" height="9.18"/>
                <rect class="cls-8" x="293.66" y="290.67" width="8.8" height="9.18"/>
                <rect class="cls-8" x="304.86" y="290.67" width="8.8" height="9.18"/>
                <rect class="cls-8" x="316.06" y="290.67" width="8.8" height="9.18"/>
                <rect class="cls-8" x="327.26" y="290.67" width="8.8" height="9.18"/>
                <rect class="cls-8" x="209.54" y="302.02" width="8.8" height="9.18"/>
                <rect class="cls-8" x="192.83" y="302.02" width="14.32" height="9.18"/>
                <rect class="cls-10" x="192.83" y="313.46" width="16.71" height="9.18"/>
                <rect class="cls-8" x="192.83" y="325.62" width="21.57" height="9.18"/>
                <rect class="cls-8" x="220.75" y="302.02" width="8.8" height="9.18"/>
                <rect class="cls-8" x="231.95" y="302.02" width="8.8" height="9.18"/>
                <rect class="cls-8" x="243.15" y="302.02" width="8.8" height="9.18"/>
                <rect class="cls-8" x="254.36" y="302.02" width="8.8" height="9.18"/>
                <rect class="cls-8" x="265.56" y="302.02" width="8.8" height="9.18"/>
                <rect class="cls-8" x="276.76" y="302.02" width="8.8" height="9.18"/>
                <rect class="cls-8" x="287.96" y="302.02" width="8.8" height="9.18"/>
                <rect class="cls-8" x="299.17" y="302.02" width="8.8" height="9.18"/>
                <rect class="cls-8" x="310.37" y="302.02" width="8.8" height="9.18"/>
                <rect class="cls-8" x="321.57" y="302.02" width="8.8" height="9.18"/>
                <rect class="cls-8" x="332.78" y="302.02" width="8.8" height="9.18"/>
                <rect class="cls-8" x="343.98" y="302.02" width="8.8" height="9.18"/>
                <rect class="cls-8" x="354.93" y="302.02" width="14.73" height="9.18"/>
                <rect class="cls-8" x="212.34" y="313.46" width="8.8" height="9.18"/>
                <rect class="cls-8" x="223.15" y="313.46" width="8.8" height="9.18"/>
                <rect class="cls-8" x="233.95" y="313.46" width="8.8" height="9.18"/>
                <rect class="cls-8" x="244.75" y="313.46" width="8.8" height="9.18"/>
                <rect class="cls-8" x="255.56" y="313.46" width="8.8" height="9.18"/>
                <rect class="cls-8" x="266.36" y="313.46" width="8.8" height="9.18"/>
                <rect class="cls-8" x="277.16" y="313.46" width="8.8" height="9.18"/>
                <rect class="cls-8" x="287.96" y="313.46" width="8.8" height="9.18"/>
                <rect class="cls-8" x="298.77" y="313.46" width="8.8" height="9.18"/>
                <rect class="cls-8" x="309.57" y="313.46" width="8.8" height="9.18"/>
                <rect class="cls-8" x="320.37" y="313.46" width="8.8" height="9.18"/>
                <rect class="cls-8" x="331.18" y="313.46" width="8.8" height="9.18"/>
                <rect class="cls-8" x="217.35" y="325.62" width="8.8" height="9.18"/>
                <rect class="cls-8" x="192.83" y="336.81" width="8.8" height="9.18"/>
                <rect class="cls-8" x="204.03" y="336.81" width="8.8" height="9.18"/>
                <rect class="cls-8" x="215.24" y="336.81" width="8.8" height="9.18"/>
                <rect class="cls-8" x="226.44" y="336.81" width="8.8" height="9.18"/>
                <polygon class="cls-10" points="295.83 336.81 293.66 336.81 291.25 336.81 282.45 336.81 280.05 336.81 271.25 336.81 268.84 336.81 260.05 336.81 257.64 336.81 248.84 336.81 237.64 336.81 237.64 345.99 248.84 345.99 257.64 345.99 260.05 345.99 268.84 345.99 271.25 345.99 280.05 345.99 282.45 345.99 291.25 345.99 293.66 345.99 295.83 345.99 302.45 345.99 302.45 336.81 295.83 336.81"/>
                <rect class="cls-8" x="304.86" y="336.81" width="8.8" height="9.18"/>
                <rect class="cls-8" x="316.06" y="336.81" width="8.8" height="9.18"/>
                <rect class="cls-8" x="327.26" y="336.81" width="8.8" height="9.18"/>
                <rect class="cls-8" x="338.47" y="336.81" width="8.8" height="9.18"/>
                <rect class="cls-8" x="349.67" y="336.81" width="8.8" height="9.18"/>
                <rect class="cls-8" x="360.87" y="336.81" width="8.8" height="9.18"/>
                <rect class="cls-8" x="228.15" y="325.62" width="8.8" height="9.18"/>
                <rect class="cls-8" x="238.95" y="325.62" width="8.8" height="9.18"/>
                <rect class="cls-8" x="249.75" y="325.62" width="8.8" height="9.18"/>
                <rect class="cls-8" x="260.56" y="325.62" width="8.8" height="9.18"/>
                <rect class="cls-8" x="271.36" y="325.62" width="8.8" height="9.18"/>
                <rect class="cls-8" x="282.16" y="325.62" width="8.8" height="9.18"/>
                <rect class="cls-8" x="292.97" y="325.62" width="8.8" height="9.18"/>
                <rect class="cls-8" x="303.77" y="325.62" width="8.8" height="9.18"/>
                <rect class="cls-8" x="314.57" y="325.62" width="8.8" height="9.18"/>
                <rect class="cls-8" x="325.37" y="325.62" width="8.8" height="9.18"/>
                <rect class="cls-8" x="336.18" y="325.62" width="8.8" height="9.18"/>
                <rect class="cls-8" x="346.98" y="325.62" width="8.8" height="9.18"/>
                <polygon class="cls-8" points="342.22 313.46 342.22 322.64 358.2 322.64 358.2 334.79 369.67 334.79 369.67 322.64 369.67 320.84 369.67 313.46 342.22 313.46"/>
                <polygon class="cls-10" points="347.26 290.67 338.47 290.67 338.47 299.84 347.26 299.84 358.47 299.84 358.47 290.67 347.26 290.67"/>
                <rect class="cls-8" x="360.87" y="290.67" width="8.8" height="9.18"/>
              </g>
            </g>
          </g>
          <g>
            <path class="cls-25" d="m430.56,108.24c1.75-8.5-3.44-15.55-11.64-15.55H143.48c-8.19,0-13.39,7.05-11.64,15.55l17.93,87.22h262.85l17.93-87.22Z"/>
            <path class="cls-11" d="m421.28,79.85H141.12c-8.35,0-13.61,7.32-11.8,16.14l2.49,12.1c-1.75-8.51,3.44-15.56,11.64-15.56h275.5c8.2,0,13.39,7.06,11.64,15.56l2.49-12.1c1.81-8.82-3.45-16.14-11.8-16.14Z"/>
            <path class="cls-11" d="m156.26,188.2l-15.35-79.96c-.61-3.16,1.36-5.75,4.38-5.75h271.83c3.02,0,4.99,2.59,4.38,5.75l-15.35,79.96h-249.89Z"/>
            <path class="cls-7" d="m165.2,210.82h232.01c6.77,0,13.27-4.91,14.54-11.09l.88-4.27H149.78l.88,4.27c1.27,6.18,7.77,11.09,14.54,11.09Z"/>
            <path class="cls-24" d="m284.73,203.25c0,1.75-1.59,3.16-3.53,3.16s-3.52-1.41-3.53-3.16c0-1.76,1.57-3.18,3.53-3.18s3.54,1.43,3.53,3.18Z"/>
            <g class="cls-26">
              <g>
                <line class="cls-22" x1="184.92" y1="229.44" x2="440.86" y2="38.64"/>
                <line class="cls-18" x1="108.72" y1="229.44" x2="353.42" y2="38.64"/>
                <line class="cls-18" x1="263.03" y1="229.44" x2="525.92" y2="38.64"/>
              </g>
            </g>
          </g>
          <g>
            <rect class="cls-7" x="369.67" y="378.63" width="80.31" height="94.64" rx="4.2" ry="4.2"/>
            <g>
              <rect class="cls-6" x="375.95" y="385.47" width="67.74" height="19.39" rx="4" ry="4"/>
              <rect class="cls-11" x="375.95" y="419.71" width="13.31" height="13.31"/>
              <rect class="cls-11" x="394.1" y="419.71" width="13.31" height="13.31"/>
              <rect class="cls-11" x="412.24" y="419.71" width="13.31" height="13.31"/>
              <rect class="cls-11" x="430.39" y="419.71" width="13.31" height="13.31"/>
              <rect class="cls-25" x="375.95" y="410.01" width="13.31" height="6.03"/>
              <rect class="cls-25" x="394.1" y="410.01" width="13.31" height="6.03"/>
              <rect class="cls-25" x="412.24" y="410.01" width="13.31" height="6.03"/>
              <rect class="cls-25" x="430.39" y="410.01" width="13.31" height="6.03"/>
              <rect class="cls-11" x="375.95" y="436.42" width="13.31" height="13.31"/>
              <rect class="cls-11" x="394.1" y="436.42" width="13.31" height="13.31"/>
              <rect class="cls-11" x="412.24" y="436.42" width="13.31" height="13.31"/>
              <rect class="cls-25" x="430.39" y="436.42" width="13.31" height="30.01"/>
              <rect class="cls-11" x="375.95" y="453.12" width="13.31" height="13.31"/>
              <rect class="cls-11" x="394.1" y="453.12" width="13.31" height="13.31"/>
              <rect class="cls-11" x="412.24" y="453.12" width="13.31" height="13.31"/>
              <rect class="cls-4" x="375.95" y="419.71" width="13.31" height="13.31"/>
              <rect class="cls-4" x="394.1" y="419.71" width="13.31" height="13.31"/>
              <rect class="cls-4" x="412.24" y="419.71" width="13.31" height="13.31"/>
              <rect class="cls-4" x="430.39" y="419.71" width="13.31" height="13.31"/>
              <rect class="cls-4" x="375.95" y="436.42" width="13.31" height="13.31"/>
              <rect class="cls-4" x="394.1" y="436.42" width="13.31" height="13.31"/>
              <rect class="cls-4" x="412.24" y="436.42" width="13.31" height="13.31"/>
              <rect class="cls-4" x="375.95" y="453.12" width="13.31" height="13.31"/>
              <rect class="cls-4" x="394.1" y="453.12" width="13.31" height="13.31"/>
              <rect class="cls-4" x="412.24" y="453.12" width="13.31" height="13.31"/>
            </g>
          </g>
          <g>
            <polygon class="cls-25" points="382.88 247.21 403.04 247.28 403.03 257.46 382.87 257.39 382.88 247.21"/>
            <polygon class="cls-24" points="337.08 247.97 382.88 248.14 382.87 256.45 337.07 256.28 337.08 247.97"/>
            <polygon class="cls-11" points="407.16 256.29 415.42 253.56 415.42 251.28 407.17 248.48 403.04 248.47 403.03 256.28 407.16 256.29"/>
            <polygon class="cls-25" points="418.32 252.09 415.42 252.08 415.42 252.76 418.32 252.77 418.32 252.09"/>
            <polygon class="cls-11" points="332.97 249.1 337.08 249.12 337.07 255.14 332.97 255.12 332.97 249.1"/>
            <polygon class="cls-25" points="325.77 248.51 332.97 248.54 332.96 255.68 325.76 255.66 325.77 248.51"/>
            <polygon class="cls-24" points="362.88 259.84 362.89 257.31 342.04 257.24 342.04 256.3 338.25 256.29 338.25 257.22 338.25 258.69 338.24 259.74 362.88 259.84"/>
          </g>
          <g>
            <g>
              <polygon class="cls-7" points="135.1 476.85 26 476.85 26 349.16 51.05 324.11 135.1 324.11 135.1 476.85"/>
              <g>
                <g class="cls-5">
                  <polygon class="cls-6" points="98.08 453.95 95.92 449.26 91.49 451.91 95.23 439.82 101.82 441.86 98.08 453.95"/>
                  <polygon class="cls-6" points="104.89 453.95 107.05 449.26 111.48 451.91 107.74 439.82 101.15 441.86 104.89 453.95"/>
                </g>
                <path class="cls-27" d="m108.9,437.28c0,4.09-3.32,7.41-7.41,7.41s-7.41-3.32-7.41-7.41,3.32-7.41,7.41-7.41,7.41,3.32,7.41,7.41Z"/>
              </g>
              <polygon class="cls-6" points="51.05 324.11 51.05 349.16 26 349.16 51.05 324.11"/>
              <polygon class="cls-1" points="51.05 324.11 51.05 349.16 26 349.16 51.05 324.11"/>
              <path class="cls-14" d="m51.05,337.12h62.38c0,4.79,3.88,8.67,8.67,8.67v109.38c-4.79,0-8.67,3.88-8.67,8.67H47.68c0-4.79-3.88-8.67-8.67-8.67v-106.01"/>
              <line class="cls-13" x1="52.21" y1="421.32" x2="108.9" y2="421.32"/>
              <line class="cls-13" x1="52.21" y1="411.47" x2="108.9" y2="411.47"/>
              <line class="cls-13" x1="52.21" y1="401.63" x2="108.9" y2="401.63"/>
              <line class="cls-13" x1="52.21" y1="391.78" x2="108.9" y2="391.78"/>
              <line class="cls-13" x1="52.21" y1="381.94" x2="108.9" y2="381.94"/>
              <line class="cls-13" x1="52.21" y1="372.09" x2="108.9" y2="372.09"/>
              <line class="cls-13" x1="52.21" y1="362.25" x2="108.9" y2="362.25"/>
              <line class="cls-13" x1="52.21" y1="352.4" x2="108.9" y2="352.4"/>
            </g>
            <g>
              <rect class="cls-11" x="60.64" y="353.5" width="109.1" height="152.74"/>
              <rect class="cls-25" x="73.92" y="366.02" width="82.55" height="9.27"/>
              <rect class="cls-6" x="79.11" y="409.97" width="8.13" height="27.64"/>
              <rect class="cls-27" x="91.71" y="400.9" width="8.13" height="36.71"/>
              <rect class="cls-25" x="104.31" y="423.79" width="8.13" height="13.82"/>
              <rect class="cls-6" x="116.91" y="387.75" width="8.13" height="49.86"/>
              <rect class="cls-27" x="129.51" y="413.63" width="8.13" height="23.98"/>
              <rect class="cls-25" x="142.11" y="405.23" width="8.13" height="32.38"/>
              <line class="cls-17" x1="73.92" y1="450.71" x2="156.47" y2="450.71"/>
              <line class="cls-17" x1="73.92" y1="457.57" x2="156.47" y2="457.57"/>
              <line class="cls-17" x1="73.92" y1="464.43" x2="156.47" y2="464.43"/>
              <line class="cls-17" x1="73.92" y1="471.3" x2="156.47" y2="471.3"/>
              <line class="cls-17" x1="73.92" y1="478.16" x2="156.47" y2="478.16"/>
              <line class="cls-17" x1="73.92" y1="485.03" x2="156.47" y2="485.03"/>
              <line class="cls-17" x1="73.92" y1="491.89" x2="156.47" y2="491.89"/>
              <polyline class="cls-15" points="156.47 437.61 73.92 437.61 73.92 387.75"/>
            </g>
          </g>
          <g>
            <path class="cls-24" d="m212.68,484.9s.05-.08.07-.11c-1.18-5.5-2.36-11.01-3.52-16.51-.1-.48-.28-.64-.78-.66-5.46-.2-10.93-.43-16.39-.65-12.65-.51-25.3-1.03-37.95-1.53-.21,0-.5-.17-.62.19.12.21.06.44.07.65.04,2.76.07,5.51.1,8.27.05,4.49.12,8.97.15,13.46,0,.88.14,1.77-.05,2.65v-.02c.08.04.09.1.05.18.23.24.51.08.76.06,12.42-1.29,24.84-2.58,37.25-3.88,6.76-.7,13.51-1.41,20.27-2.11.19-.02.39-.12.58.03Z"/>
            <path class="cls-25" d="m209.3,468.92c.11,0,.22,0,.33.01.41.02.57.15.65.55.97,4.62,1.96,9.23,2.95,13.85-.02.03-.04.06-.06.09-.16-.13-.33-.04-.49-.03-.1.01-.19.02-.29.03-1.03-4.84-2.07-9.67-3.09-14.52Z"/>
            <path class="cls-24" d="m142.79,476.1c-1.47.31-2.94.63-4.41.92-.35.07-.54.25-.72.53-1.5,2.34-2.58,3.33-4.09,5.66.04.02.08.05.11.07,1.17-.17,5.37-.14,6.28-.15.48-1.2,2.32-5.39,2.82-7.03Z"/>
            <path class="cls-25" d="m142.83,475.39c-.5,1.63-1.24,3.18-1.84,4.78-.45,1.21-.95,2.39-1.43,3.59,2.08.14,4.13.42,6.1,1.13,3.16,1.13,5.86,2.91,7.9,5.61.05.07.13.11.2.16.19-.88.06-1.77.05-2.65-.03-4.49-.1-8.97-.15-13.46-.03-2.76-.06-5.51-.1-8.27,0-.22.06-.45-.07-.65-2.2,4.74-5.83,7.91-10.67,9.77Z"/>
            <path class="cls-28" d="m153.77,490.63c-.1.1,0,.13.06.18.04-.08.02-.14-.06-.18Z"/>
            <polyline class="cls-12" points="137.16 481.84 139.51 480.51 138.57 478.53"/>
            <line class="cls-20" x1="161.99" y1="473.26" x2="201.51" y2="473.26"/>
          </g>
          <rect class="cls-24" x="428.29" y="273.4" width="115.22" height="89.3" rx="22.56" ry="22.56"/>
          <g>
            <path class="cls-9" d="m459.42,325.62h0c-10.12,0-18.32-8.2-18.32-18.32v-21.87c0-10.12,8.2-18.32,18.32-18.32h0c10.12,0,18.32,8.2,18.32,18.32v21.87c0,10.12-8.2,18.32-18.32,18.32Z"/>
            <line class="cls-21" x1="459.42" y1="267.1" x2="459.42" y2="281.88"/>
            <line class="cls-21" x1="441.34" y1="281.88" x2="477.5" y2="281.88"/>
            <rect class="cls-24" x="456.98" y="277.44" width="4.88" height="14.63" rx="1.73" ry="1.73"/>
          </g>
          <g>
            <rect class="cls-6" x="103.37" y="217.25" width="43.33" height="81.62" rx="4.52" ry="4.52"/>
            <rect class="cls-7" x="106.59" y="228.65" width="36.9" height="59.17"/>
            <path class="cls-27" d="m131.57,223.12h-13.05c-.36,0-.65-.29-.65-.65h0c0-.36.29-.65.65-.65h13.05c.36,0,.65.29.65.65h0c0,.36-.29.65-.65.65Z"/>
            <path class="cls-25" d="m128.08,293.22c0-1.68-1.36-3.05-3.05-3.05s-3.05,1.36-3.05,3.05,1.36,3.05,3.05,3.05,3.05-1.36,3.05-3.05Z"/>
            <g>
              <path class="cls-27" d="m117.66,236.53c0,2.13-1.72,3.85-3.85,3.85s-3.85-1.72-3.85-3.85,1.72-3.85,3.85-3.85,3.85,1.72,3.85,3.85Z"/>
              <path class="cls-24" d="m128.89,236.53c0,2.13-1.72,3.85-3.85,3.85s-3.85-1.72-3.85-3.85,1.72-3.85,3.85-3.85,3.85,1.72,3.85,3.85Z"/>
              <circle class="cls-11" cx="136.26" cy="236.53" r="3.85"/>
              <path class="cls-24" d="m117.66,248.14c0,2.13-1.72,3.85-3.85,3.85s-3.85-1.72-3.85-3.85,1.72-3.85,3.85-3.85,3.85,1.72,3.85,3.85Z"/>
              <path class="cls-11" d="m128.89,248.14c0,2.13-1.72,3.85-3.85,3.85s-3.85-1.72-3.85-3.85,1.72-3.85,3.85-3.85,3.85,1.72,3.85,3.85Z"/>
              <path class="cls-27" d="m140.11,248.14c0,2.13-1.72,3.85-3.85,3.85s-3.85-1.72-3.85-3.85,1.72-3.85,3.85-3.85,3.85,1.72,3.85,3.85Z"/>
              <path class="cls-11" d="m117.66,259.76c0,2.13-1.72,3.85-3.85,3.85s-3.85-1.72-3.85-3.85,1.72-3.85,3.85-3.85,3.85,1.72,3.85,3.85Z"/>
              <path class="cls-27" d="m128.89,259.76c0,2.13-1.72,3.85-3.85,3.85s-3.85-1.72-3.85-3.85,1.72-3.85,3.85-3.85,3.85,1.72,3.85,3.85Z"/>
              <path class="cls-24" d="m140.11,259.76c0,2.13-1.72,3.85-3.85,3.85s-3.85-1.72-3.85-3.85,1.72-3.85,3.85-3.85,3.85,1.72,3.85,3.85Z"/>
              <path class="cls-24" d="m117.66,271.38c0,2.13-1.72,3.85-3.85,3.85s-3.85-1.72-3.85-3.85,1.72-3.85,3.85-3.85,3.85,1.72,3.85,3.85Z"/>
              <path class="cls-11" d="m128.89,271.38c0,2.13-1.72,3.85-3.85,3.85s-3.85-1.72-3.85-3.85,1.72-3.85,3.85-3.85,3.85,1.72,3.85,3.85Z"/>
              <path class="cls-27" d="m140.11,271.38c0,2.13-1.72,3.85-3.85,3.85s-3.85-1.72-3.85-3.85,1.72-3.85,3.85-3.85,3.85,1.72,3.85,3.85Z"/>
            </g>
            <rect class="cls-11" x="106.59" y="279.03" width="36.9" height="8.79"/>
          </g>
          <g>
            <circle class="cls-11" cx="294.61" cy="419.71" r="38.11" transform="translate(-210.49 331.26) rotate(-45)"/>
            <g>
              <line class="cls-16" x1="292.41" y1="418.31" x2="326.06" y2="439.76"/>
              <g>
                <circle class="cls-7" cx="294.62" cy="419.71" r="25.91" transform="translate(-188.81 590.77) rotate(-74.42)"/>
                <path class="cls-24" d="m283.5,437.16c-9.62-6.13-12.45-18.95-6.32-28.56,6.13-9.62,18.94-12.45,28.56-6.32,9.62,6.13,12.46,18.94,6.32,28.56-6.13,9.62-18.94,12.46-28.56,6.33Z"/>
                <path class="cls-2" d="m313,410.29c-.13,3.56-1.15,7.12-3.2,10.33-6.13,9.62-18.94,12.46-28.56,6.33-3.21-2.05-5.65-4.85-7.27-8.02-.26,7.09,3.12,14.14,9.53,18.23,9.62,6.13,22.43,3.29,28.56-6.33,4.08-6.41,4.17-14.22.94-20.54Z"/>
              </g>
            </g>
          </g>
        </g>
        <g class="cls-3">
          <path class="cls-25" d="m412.54,195.46l-.88,4.27c-1.27,6.18-7.77,11.09-14.54,11.09h7.58c6.77,0,13.27-4.91,14.54-11.09l.88-4.27,2.2-10.69h-7.58l-2.2,10.69Z"/>
          <path class="cls-25" d="m328.36,223.01c0,5.14-4.17,9.32-9.32,9.32h7.58c5.14,0,9.32-4.17,9.32-9.32v-12.18h-7.58v12.18Z"/>
          <path class="cls-25" d="m376.43,274.53h-7.58c3.18,0,5.76,2.58,5.76,5.76v74.33h7.58v-74.33c0-3.18-2.58-5.76-5.76-5.76Z"/>
          <path class="cls-25" d="m449.9,468.11c0,2.85-2.31,5.16-5.16,5.16h7.58c2.85,0,5.16-2.31,5.16-5.16v-41.1h-7.58v41.1Z"/>
          <path class="cls-25" d="m452.32,378.63h-7.58c2.85,0,5.16,2.31,5.16,5.16v43.22h7.58v-43.22c0-2.85-2.31-5.16-5.16-5.16Z"/>
          <path class="cls-25" d="m169.67,466.06c7.44.3,14.88.6,22.33.9,5.46.22,10.93.45,16.39.65.49.02.68.18.78.66.05.22.09.43.14.65.08,0,.16,0,.25,0,.41.02.57.15.65.55.97,4.62,1.96,9.23,2.95,13.85-.02.03-.04.06-.06.09-.16-.13-.33-.04-.49-.03-.07,0-.14.01-.21.02.1.45.19.91.29,1.36-.02.04-.05.08-.07.11-.19-.15-.39-.05-.58-.03-6.76.7-13.51,1.4-20.27,2.11-7.36.77-14.73,1.53-22.09,2.3v16.96h7.58v-16.96c7.36-.77,14.73-1.53,22.09-2.3,6.76-.7,13.51-1.41,20.27-2.11.19-.02.39-.12.58.03.02-.04.05-.08.07-.11-.1-.45-.19-.91-.29-1.36.07,0,.14-.01.21-.02.16-.02.33-.1.49.03.02-.03.04-.06.06-.09-.99-4.62-1.98-9.23-2.95-13.85-.08-.4-.24-.54-.65-.55-.08,0-.17,0-.25,0-.05-.22-.09-.43-.14-.65-.1-.48-.28-.64-.78-.66-5.46-.2-10.93-.43-16.39-.65-7.44-.3-14.88-.6-22.33-.9v-39.05h-7.58v39.05Z"/>
          <rect class="cls-25" x="135.02" y="324.11" width="7.58" height="29.39"/>
          <rect class="cls-25" x="169.67" y="353.5" width="7.58" height="73.51"/>
          <path class="cls-25" d="m523.27,273.4h-7.58c15.32,0,27.73,12.42,27.73,27.73v33.84c0,15.32-12.42,27.73-27.73,27.73h7.58c15.32,0,27.73-12.42,27.73-27.73v-33.84c0-15.32-12.42-27.73-27.73-27.73Z"/>
          <path class="cls-25" d="m148.65,217.25h-7.58c3.07,0,5.56,2.49,5.56,5.56v70.51c0,3.07-2.49,5.56-5.56,5.56h7.58c3.07,0,5.56-2.49,5.56-5.56v-70.51c0-3.07-2.49-5.56-5.56-5.56Z"/>
          <path class="cls-25" d="m326.67,440.2c-6.53,10.25-17.15,16.31-28.38,17.43,13.85,1.39,27.96-4.89,35.96-17.43,2.65-4.15,4.38-8.63,5.27-13.19h-7.58c-.89,4.56-2.62,9.03-5.27,13.19Z"/>
          <path class="cls-25" d="m322.6,387.58c-7.5-4.78-16.03-6.6-24.24-5.78,5.75.58,11.45,2.46,16.66,5.78,13.59,8.66,19.82,24.51,16.92,39.43h7.58c2.9-14.92-3.33-30.76-16.92-39.43Z"/>
        </g>
      </g>
    </g>
  </g>
</svg>