<?xml version="1.0" encoding="UTF-8"?>
<svg id="Layer_1" data-name="Layer 1" xmlns="http://www.w3.org/2000/svg" viewBox="0 0 576 576">
  <defs>
    <style>
      .cls-1 {
        fill: #bb9e85;
      }

      .cls-2 {
        fill: #fff;
        opacity: .88;
      }

      .cls-3 {
        fill: #623631;
      }

      .cls-4 {
        fill: #414164;
      }

      .cls-5 {
        fill: #8db74e;
      }

      .cls-6 {
        fill: #ea8676;
      }

      .cls-7 {
        fill: #f7a399;
      }

      .cls-8 {
        fill: #6d64ac;
      }

      .cls-9 {
        fill: #dddcee;
      }

      .cls-10 {
        fill: #a31d2e;
      }

      .cls-11 {
        fill: #e9e9f5;
      }

      .cls-12 {
        stroke: #5b53a3;
      }

      .cls-12, .cls-13, .cls-14 {
        fill: none;
        stroke-miterlimit: 10;
      }

      .cls-13 {
        stroke: #414164;
      }

      .cls-15 {
        fill: #538049;
      }

      .cls-16 {
        fill: #62894b;
      }

      .cls-17 {
        fill: #9ac755;
      }

      .cls-18 {
        fill: #f3a81d;
      }

      .cls-19 {
        fill: #c4c2e1;
      }

      .cls-14 {
        stroke: #e5822a;
      }

      .cls-20 {
        fill: #c4a68c;
      }

      .cls-21 {
        fill: #f9ae98;
      }

      .cls-22 {
        fill: #7fa444;
      }

      .cls-23 {
        fill: #d6e1f1;
      }

      .cls-24 {
        fill: #febe44;
      }

      .cls-25 {
        fill: #5a5d87;
      }

      .cls-26 {
        fill: #9190bf;
      }

      .cls-27 {
        fill: #e278af;
      }

      .cls-28 {
        fill: #eaeae9;
      }

      .cls-29 {
        fill: #311f21;
      }

      .cls-30 {
        fill: #f37427;
      }

      .cls-31 {
        fill: #bfd2ed;
      }
    </style>
  </defs>
  <ellipse class="cls-28" cx="288.5" cy="526.42" rx="262.5" ry="9.74"/>
  <g>
    <rect class="cls-31" x="403.52" y="15.33" width="109.24" height="160.02" transform="translate(553.47 -362.8) rotate(90)"/>
    <rect class="cls-2" x="407.6" y="19.26" width="101.07" height="152.17" transform="translate(553.47 -362.8) rotate(90)"/>
    <rect class="cls-23" x="418.94" y="30.59" width="78.39" height="129.49" transform="translate(553.47 -362.8) rotate(90)"/>
    <path class="cls-31" d="m509.95,90.01l-2.35,7.46v7.06h-6.18v-11.54h-8.11v-11.54l-3.81-3.16h-7.72c-.02.05-.03,15.37-.05,15.42v22.88h-3.48v-28.5h-9.85l-2.37,3.21v-23.92h-12.45v34.55h-2.05l-.14-14.69h-9.81v21.77l-4.23,3v-21.29h-8.2v-.74h-.71v-2.85h.71v-2.6h-.71v-2.85h.71v-2.6l-17.58-2.29v25.39l-10.56,2.29v30.06h113.47v-44.55h-4.52Z"/>
  </g>
  <g>
    <g>
      <path class="cls-30" d="m91.47,244.37c-8.58,1.14-16.88,6.87-18.31,11.44-1.43,4.58,8.01,10.01,19.45,9.15,11.44-.86,24.89-6.29,24.89-6.29l-26.03-14.3Z"/>
      <path class="cls-7" d="m202.58,191.1l3.32,6.53s11.78-7.23,14.12-8.02c2.34-.79,9.46-1.34,13.44-3.29s8.46-4.12,13.21-4.93,8.74-2.92,8.99-3.79c.25-.87-1.32-.34-3.02.07-1.7.41-6.48,1.27-6.48,1.27,0,0,1.68-.3,3.7-1.03,2.39-.86,5.21-2.21,5.92-2.7,1.3-.9,1.88-2.04.71-2.32-1.17-.28-5.46,1.79-6.25,2.15s-4.96,1.94-4.96,1.94c0,0,8.34-3.96,9.65-4.87,1.3-.9,2.06-2.32,1.7-3.11s-2.29.34-4.39,1.61c-2.1,1.27-7.45,2.73-7.45,2.73,0,0,5.85-3.22,8.14-4.91,2.29-1.69.83-2.01-.84-1.9-1.67.11-6.47,2.73-8.35,3.42-1.88.69-2.59.7-4.09.68-1.5-.02-1.27-2.67-3.91-1.92-2.64.75-9.72,7.62-11.88,9.48-2.16,1.86-21.29,12.92-21.29,12.92Z"/>
      <g>
        <path class="cls-25" d="m215.88,184.72h127.84v15.07h-131.11v-11.8c0-1.81,1.47-3.27,3.27-3.27Z" transform="translate(152.92 -121.83) rotate(33.61)"/>
        <rect class="cls-4" x="259.27" y="206.35" width="77.91" height="7.54" transform="translate(166.17 -129.95) rotate(33.61)"/>
        <path class="cls-4" d="m217.07,161.87h40.66c2.16,0,3.92,1.76,3.92,3.92v7.41h-48.13v-7.78c0-1.96,1.59-3.55,3.55-3.55Z" transform="translate(132.46 -103.51) rotate(33.61)"/>
      </g>
      <path class="cls-7" d="m201.33,186.78c7.09-3.47,12.16-6.96,14.9-9.69,2.75-2.74,6.96-5.92,11.27-8.07s11.98-5.35,13.49-6.2,2.5,1.22.15,3.72c-1.99,2.13-4.5,3.02-5.73,4.91-1.23,1.89-1.01,3.01-3.22,6.42s-4.55,4.36-6.09,5.41-22.46,11.89-22.46,11.89l-2.3-8.38Z"/>
      <path class="cls-18" d="m208.02,182.93s-11.6,3.26-16.48,4.83c-3.19,1.03-16.98,4.79-16.98,4.79,0,0-11.61-15.61-18.6-25.41-1.83-2.57-18.5-27.25-25.17-28.39-13.54-2.3-20.94,9.96-15.28,20.85,1.55,2.97,28.87,44.15,32.08,47.45,6.28,6.45,12.01,11.03,19.68,10.81,9.37-.27,42.55-14.66,42.55-14.66.04-8.88-1.8-20.28-1.8-20.28Z"/>
      <path class="cls-3" d="m146.29,64.97c3.94,2.2,6.49,6.68,6.38,11.19,3.84,1.16,4.9,8.17,2.75,11.56,3.27.62,4.87,2.98,5.55,5.46.88,3.21-.29,6.32-3.41,7.49,2.03,1.88,2.97,4.87,2.38,7.57-.59,2.71-2.69,5.03-5.32,5.89,1.5,1.39,1.42,3.84.61,5.72-1.82,4.2-6.95,6.65-11.36,5.43-.53-.15-1.06-.34-1.62-.33-1.02.02-1.88.72-2.82,1.13-2.14.94-4.74.29-6.55-1.19-1.81-1.48-2.93-3.65-3.64-5.87-.9-2.78-1.04-6.31,1.25-8.13-3.26-.39-6.3-2.37-7.98-5.19s-1.97-6.43-.77-9.49c.35-.89.83-1.78.73-2.73-.07-.7-.46-1.32-.76-1.96-2.2-4.51-.43-10.57,3.86-13.18-2.51-2.34-3.01-6.53-1.13-9.4,2.39-3.62,6.27-2.61,9.71-3.98,4.05-1.62,8.12-2.23,12.14.02Z"/>
      <path class="cls-3" d="m140.61,131.24c-4.53.97-9-1.1-13.23-2.99.99,2.99-1.95,5.74-5.61,5.45-3.66-.29-4.97.23-5.59-3.97-6.39,2.46-13.43-5.97-11.64-10.11,0,0-8.7-8.83-7.81-12.72,1.93-8.5,7.44-16.16,14.97-20.55,7.53-4.39,16.99-5.4,25.21-2.52,5.27,1.84,10.1,5.34,12.77,10.24,2.96,5.43,3.02,11.82,2.79,17.84-.09,2.49.17,4.34.99,6.66.71,1.99-3.2,2.32-4.42,4.15-.85,1.27-2.49,7.25-8.43,8.52Z"/>
      <g>
        <path class="cls-21" d="m92.03,471.17c-6.47,6.51-15.3,16.99-16.89,21.4-1.59,4.41-5.62,25.97-8.56,24.77-2.94-1.19-5.83-18.2-7.36-25s.05-14.92,1.74-17.79c.69-1.17,4.45-3.56,6.91-3.72,2.7-.17,3.38.38,5.63-2.06,5.28-5.74,8.39-13.54,12.98-21.77,9.08-16.3,18.01-34.49,29.39-46.03l21.8,18.24s-38.04,44.34-45.63,51.97Z"/>
        <path class="cls-4" d="m71.18,507.84c-3.68,2.34-7.72-6.02-8.81-14.7-.48-3.78.78-12.15,1.15-16.14.14-1.52.83-3.18,1.13-3.91.71-1.74,3.21-2.26,3.21-2.26,0,0-6.47-.73-9.52,2.42-3.05,3.14-13.92,10.09-13.92,10.09l1.97,2.39,10.71-2.69s-1.14,5.67-1.14,10.94c0,3.02-2.88,7.76-.88,12.47,2,4.71,4.09,9.64,5.67,13.36,1.58,3.72,5.76,3.63,7.23.63,1.8-3.69,3.21-12.6,3.21-12.6Z"/>
      </g>
      <path class="cls-8" d="m166.39,328.58c-2.76-12.26-7.78-43.77-15.1-65.53-1.05-3.12-1.29-13.11-1.32-20.27h-34.36c-4.04,7.61-14.38,28.59-12.27,40.43,4.09,22.98,17.25,60.43,22.88,74.05.95,2.3,3.11,10.84,3.1,12.56,0,0-5.34,4.97-15.94,23.66-6.27,11.06-10.15,22.65-20.59,41.75-11.29,20.63-15.66,27.31-15.66,27.31,5.05,11.44,15.16,13.94,15.16,13.94,0,0,51.88-64.5,57.64-70.92,5.76-6.42,18.48-25.12,20.46-36.87,1.54-9.12.75-19-4-40.1Z"/>
      <g>
        <path class="cls-21" d="m129.48,439.14c-1.97,13.27-1.31,38.15-1.63,47.32-.29,8.59-.69,14.13,2.58,18.16,3.27,4.03,18.21,15,18.21,15-1.76,2.24-16.67.79-23.57-2.34-6.9-3.13-14.05-10.29-17.33-10.07-3.28.22-.35-7.61,2.58-14.1,2.94-6.49,2.2-22.98-.98-32.33-3.18-9.35-8.74-27.61-6.03-42.68l25.77-7.74s1.58,20.84.4,28.77Z"/>
        <path class="cls-4" d="m138.57,512.17c-2.13,3.07-11.9,3.36-15.79,2.47-3.89-.9-8.15-5.03-11.6-7.84-1.31-1.07-2.5-2.66-3.03-3.36-1.25-1.65-.56-3.91-.56-3.91,0,0-3.69,4.54-2.26,8.89,1.43,4.35,1.29,7.11,1.44,11.34.1,2.72-.23,5.82-.23,5.82h3.1l1.76-10.76s3.28,2.95,4.97,5.76c1.69,2.82,4.22,5.38,9.34,5.38h24.29c4.04,0,4.5-3.45.39-6.18-4.78-3.17-11.82-7.61-11.82-7.61Z"/>
      </g>
      <path class="cls-8" d="m138.48,298.92c-.49-27.57.67-49.32,1.1-56.15h-44.1c-2.04,5.65-5.53,14.92-8.7,21.66-5.44,11.53-8.13,21.28-6.89,37.93,1.24,16.65,18.77,68.1,20.85,82.88,1.05,7.47-2.39,17.8-1.05,40.77,1.34,22.97,8.53,43.12,11.3,64.37,0,0,4.34,2.6,16.12-2.57,0,0,8.56-85.39,7.03-100.32-1.53-14.93,4.73-66.94,4.34-88.58Z"/>
      <path class="cls-21" d="m117.78,107.01c-.26,2.87-4.7,17.61-7.37,22.4-1.33,2.38-11.36,17.91-11.36,17.91,0,0,6.79-.38,18.27-.12,11.48.26,18.12.71,18.12.71,0,0-3.21-11.65-2.71-16.73.49-4.92,2.32-9.81,2.32-9.81l-17.27-14.37Z"/>
      <path class="cls-6" d="m133.01,129.15c.69-4.15,2.04-7.77,2.04-7.77l-17.27-14.37c-.18,1.94-2.27,9.32-4.43,15.38,5.77,3.5,12.59,5.67,19.66,6.77Z"/>
      <path class="cls-18" d="m147.34,178.92c-3.61-12.7-8.14-42.59-14.21-42.33-16.81.72-19.68-3.25-26.24-4.37-5.62,7.03-13.5,27.02-14.56,31.71-2.9,12.83-17.97,86.06-19.1,91.53.48-.83,3.76-2.24,25,6.37,26.17,10.61,65.81-1.75,65.81-1.75,0,0-3.18-8.49-4.95-14.15-1.43-4.58-8.94-49.95-11.74-67.01Z"/>
      <g>
        <g>
          <path class="cls-7" d="m245.74,223.59c-1.25-1.01-8.5-4.34-10.68-5.05-2.18-.7-8.37-.17-11.14.44-.44.09-1,.24-1.63.41,1.73,1.49,3.56,2.88,5.46,4.18,1.23-.15,2.69-.34,3.31-.47,1.19-.24,3.85-.05,4.86.03,1.04.08,5.06,1.83,7.55,2.05,1.61.13,2.63-.16,2.78-.65h.01s0-.04,0-.04l.02-.21c-.05-.22-.22-.45-.53-.7Z"/>
          <path class="cls-7" d="m239.02,232.17c1.44,1.69,3.01,1.64,3.59.78.58-.86-3.89-6.09-5.71-8.02-.92-.97-4.1-3.05-5.69-4.28-3.46-2.67-8.91-1.88-11.71-1.27-4.32.95-6.7,1.33-11.35,1.15-.81-.03-19.06-4.59-19.43-4.62-5.52,2.18-3.16,10.6-4.54,12.39,0,0,15.33,1.37,17.76,2.45,2.63,1.17,4.74,6.02,13.42,2.71,2.86-1.09,5.82-1.5,7.64-1.35,1.83.16,4,1.4,5.61,2.84s3.05,1.03,3-.08c-.02-.42-.49-1.12-1.06-1.82-.38-.46-.8-.93-1.17-1.32-.54-.57-3.41-2.76-3.41-2.76,0,0,2.6,1.04,3.2,1.4.54.32,2.01,1.43,2.71,2.09.96.91,2.27,2.79,3.34,3.09.77.21,2.3-.2,1.32-1.85-.97-1.64-1.69-2.56-2.51-3.54-.53-.62-1.99-2.28-3.09-3.06-1.55-1.09-2.89-2.29-2.89-2.29,1-.04,4.42,1.86,5.17,2.19s4.36,3.48,5.8,5.17Z"/>
        </g>
        <path class="cls-18" d="m199.19,216.66s-9.42-1.63-13.77-2.86c-3.23-.91-26.84-8.41-26.84-8.41,0,0-6.2-18.44-9.8-29.92-.94-3.01-9.14-31.65-15.13-34.79-12.16-6.38-23,2.98-20.99,15.08.55,3.31,14.13,50.77,15.78,55.05,5.15,13.36,9.71,16.36,17.11,18.39,15.47,4.25,48.28,9.28,48.28,9.28.56-8.8,5.35-21.82,5.35-21.82Z"/>
        <path class="cls-14" d="m197.31,216.82s-7.53-1.79-11.88-3.02c-3.23-.91-26.84-8.41-26.84-8.41,0,0-6.2-18.44-9.8-29.92-.94-3.01-9.14-31.65-15.13-34.79"/>
        <path class="cls-14" d="m117.08,176.48c.98,3.21,9.35,30.21,11.37,34.33,3.97,8.08,5.11,15.72,17.11,18.39,15.66,3.49,48.28,9.28,48.28,9.28"/>
      </g>
      <path class="cls-12" d="m127.11,487.82s8.56-85.39,7.03-100.32c-1.53-14.93,4.73-66.94,4.34-88.58"/>
      <path class="cls-12" d="m99.58,416.49c1.56,28.54,8.64,52.65,11.41,73.9"/>
      <g>
        <g>
          <path class="cls-21" d="m148.68,81.04c3.96,6.37,2.12,13.26,1.52,17.62-.6,4.36.61,6.1-.1,11.26-1.01,7.28-3.22,11.7-6.2,14.79-1.65,1.71-7.97,1.87-13.59-.77-4.34-2.04-9.5-5.69-11.35-8.93-2.48-4.36-4.52-10.08-5.36-13.81-.84-3.73-3.78-12.42.97-17.84,4.75-5.41,13.87-13.35,22.8-12.14,8.93,1.21,9.65,7.13,11.32,9.82Z"/>
          <g>
            <path class="cls-29" d="m136.99,97.97c.02,1.29.65,2.32,1.41,2.31.76-.01,1.36-1.07,1.34-2.35s-.65-2.32-1.41-2.31c-.76.01-1.36,1.07-1.34,2.35Z"/>
            <path class="cls-29" d="m148.49,97.7c.02,1.29.47,2.32.99,2.31.53,0,.94-1.06.92-2.34-.02-1.29-.47-2.32-.99-2.31-.53,0-.94,1.06-.92,2.34Z"/>
          </g>
          <path class="cls-21" d="m115.49,97.6c-3.07-2.96-7.93-2.13-7.28,2.31.54,3.7,2.47,4.33,5.59,7.25,2.12,1.98,3.92.89,3.99-.15.21-2.94-.39-7.57-2.3-9.41Z"/>
          <path class="cls-6" d="m144.9,98.41c.85,1.07,1.63,2.19,2.39,3.32.77,1.12,1.49,2.28,2.21,3.43l.52.87.26.44c.08.19.16.37.24.56.03.21.07.42.05.63-.05.2-.05.42-.16.59-.16.37-.43.63-.71.84-1.14.81-1.77,1.01-3.08,1.13,0,0-.83-.17-.26-.46.57-.26,2.13-.87,2.59-1.23.59-.47.99-.82.82-1.31-.06-.12-.12-.24-.17-.37l-.27-.43-.54-.86c-.7-1.16-1.39-2.32-2.03-3.52-.65-1.19-1.29-2.39-1.85-3.63Z"/>
          <path class="cls-6" d="m113.14,98.19c-1.52-1.03-2.95-.33-3.2,1.05-.25,1.38-.02.3,1.14-.27.76-.37,1.91,1.2,2.38,2.43.77,1.97,1.36,3.98,2.6,4.03,1.59.07.61-1.43-.12-3.27s-1.5-3.08-2.8-3.97Z"/>
        </g>
        <path class="cls-10" d="m148.77,112.86c-1.68.78-5.38.14-7.88-.41,0,0,2.82,4.31,5.92,4.12.99-.06,1.97-3.7,1.97-3.7Z"/>
      </g>
      <path class="cls-29" d="m139.91,88.75s-1.11-1.63-1.75-1.74c-1.79-.29-3.27.16-4.69.3s-2.69,1.71-3.2,2.86c0,0,1.44-1.38,3.18-1.49,1.52-.09,2.61-.19,6.47.06Z"/>
      <path class="cls-29" d="m146.73,88.96s.84-1.74,1.22-1.92c1.08-.5,1.88-.22,2.69-.25.81-.02,1.37,1.37,1.53,2.45,0,0-.68-1.2-1.68-1.1-.87.09-1.49.11-3.77.81Z"/>
      <path class="cls-3" d="m82.88,107.01c.02-3.28,2.41-6.27,5.44-7.54-1.69-1.8-2.52-3.7-2.46-6.35.06-2.74,2.39-4.83,4.07-5.88-4.64-5,1.19-10.84,5.05-11.01.21-5.33,3.95-7.69,7.17-7.91,1.51-6.04,7.24-8.53,12.5-6.85,1-1.94,3.35-4.24,7.87-3.82,3.13.29,4.34,2.06,4.34,2.06,2.98-2.98,7.26-3.03,9.81.4,2.88-.48,5.96.19,8.31,1.94,2.72,2.02,4.06,5.04,2.53,8.09.64.58,1.11,1.32,1.26,2.17.26,1.45-.47,2.95-1.56,3.94-1.33,1.2-3.23,1.76-5,1.46-.89-.15-1.66-.52-2.36-1.01-2.77,3.77-6.74,3.74-9.01,2.08.2,4.65-.97,7.16-5.3,8.18,1.88,2.64.97,6.76-1.57,8.46.62.87,1.02,1.91,1.06,3.16.09,3.01-2.37,5.87-5.36,6.23,1.91,1.03,2.97,3.44,2.42,5.54-.55,2.1-2.64,3.69-4.82,3.65,2.48,2.36,2.66,6.72.38,9.28-2.17,2.43-6.2,2.82-8.86.96-1.35,1.05-2.94,1.72-4.72,1.62-3.5-.2-6.58-3.36-6.69-6.87-1.76,1.14-4.18,1.15-5.94.02-1.76-1.13-2.77-3.33-2.48-5.4-3.33-.01-6.12-3.28-6.1-6.61Z"/>
      <path class="cls-3" d="m128.98,89.94c.41,1.8.05,3.84-1.22,5.19,2.15,1.98,2.11,5.84-.07,7.78,1.24,1.19,2.25,2.68,2.57,4.37.32,1.69-.16,3.58-1.46,4.7,1.93,1.24,2.46,3.88,2.09,6.14-.56,3.41-2.88,6.48-6,7.97-3.12,1.48-6.97,1.33-9.96-.39-1.84,1.91-4.98,2.17-7.36,1-2.38-1.17-4.01-3.53-4.81-6.05-.8-2.53-.85-5.23-.72-7.87.31-6.46,1.92-13.41,6.91-17.53.29-.24.6-.48.76-.82.17-.38.13-.82.11-1.24-.11-2.35.76-4.67,2.1-6.62,1.54-2.24,4-4.14,6.7-3.92,2.14.17,5.01,1.43,6.94,2.42,1.79.91,2.99,2.97,3.43,4.89Z"/>
      <path class="cls-14" d="m144.8,208.1s6.73-2.76,13.79-2.71"/>
      <path class="cls-14" d="m165.31,197.88s5.29-3.7,12.7-5.29"/>
    </g>
    <g>
      <polygon class="cls-19" points="411.72 343.01 332.47 353.97 350.04 363.12 422.83 347.74 411.72 343.01"/>
      <g>
        <polygon class="cls-11" points="412.91 346.36 343.29 361.28 338.58 335.89 408.19 320.96 412.91 346.36"/>
        <polygon class="cls-19" points="411.18 337.02 341.56 351.94 341.33 350.7 410.95 335.78 411.18 337.02"/>
        <polygon class="cls-19" points="409.31 327.01 339.7 341.93 339.63 341.6 409.25 326.68 409.31 327.01"/>
        <polygon class="cls-19" points="345.84 358.6 371.87 351.82 345.12 355.94 345.84 358.6"/>
        <polygon class="cls-19" points="409.85 330.43 396.8 335.58 410.32 332.6 409.85 330.43"/>
      </g>
      <polygon class="cls-26" points="422.83 353.6 350.04 373.32 350.04 363.12 422.83 347.74 422.83 353.6"/>
      <polygon class="cls-25" points="191.57 251.82 191.57 322.55 358.75 322.55 358.75 322.55 358.75 251.82 191.57 251.82"/>
      <path class="cls-26" d="m191.57,251.82v-1.34c0-2.23,1.8-4.03,4.03-4.03h163.15v5.37h-167.18Z"/>
      <g>
        <rect class="cls-9" x="191.57" y="322.55" width="167.18" height="202.19"/>
        <rect class="cls-25" x="191.57" y="514.24" width="167.18" height="10.5"/>
        <path class="cls-26" d="m191.57,343.26v-50.49h24.44c4.71,0,8.53,3.82,8.53,8.53v33.44c0,4.71-3.82,8.53-8.53,8.53h-24.44Z"/>
        <line class="cls-13" x1="191.57" y1="257.68" x2="358.75" y2="257.68"/>
      </g>
      <polygon class="cls-19" points="237.38 480.4 230.72 467.89 319.6 467.89 319.6 467.89 312.94 480.4 237.38 480.4"/>
      <polygon class="cls-26" points="191.57 467.58 191.57 470.16 358.75 470.16 358.75 470.16 358.75 467.58 191.57 467.58"/>
      <polygon class="cls-19" points="237.38 437.39 230.72 424.88 319.6 424.88 319.6 424.88 312.94 437.39 237.38 437.39"/>
      <polygon class="cls-26" points="191.57 424.57 191.57 427.15 358.75 427.15 358.75 427.15 358.75 424.57 191.57 424.57"/>
      <polygon class="cls-19" points="237.38 395.83 230.72 383.31 319.6 383.31 319.6 383.31 312.94 395.83 237.38 395.83"/>
      <polygon class="cls-26" points="191.57 383 191.57 385.58 358.75 385.58 358.75 385.58 358.75 383 191.57 383"/>
      <rect class="cls-4" x="237.46" y="268.71" width="44.14" height="7.64"/>
      <rect class="cls-13" x="291.39" y="268.82" width="50.44" height="43.45"/>
      <rect class="cls-26" x="297.32" y="274.02" width="38.58" height="33.07"/>
      <polygon class="cls-4" points="264.01 242.79 233.4 244.38 233.09 239.21 260.15 234.82 264.01 242.79"/>
      <polygon class="cls-25" points="301.9 234.84 267.79 234.84 211.91 243.62 211.91 246.44 301.9 246.44 301.9 234.84"/>
      <path class="cls-26" d="m316.94,212.09h32.96c4.88,0,8.85,3.97,8.85,8.85v25.5h-61.31v-14.86c0-10.76,8.74-19.5,19.5-19.5Z"/>
      <path class="cls-25" d="m342.63,232.91c0,3.53-2.86,6.4-6.4,6.4s-6.4-2.86-6.4-6.4,2.86-6.4,6.4-6.4,6.4,2.86,6.4,6.4Z"/>
      <g>
        <rect class="cls-26" x="247.65" y="279.32" width="6.49" height="6.49" rx="1.27" ry="1.27"/>
        <rect class="cls-26" x="256.74" y="279.32" width="6.49" height="6.49" rx="1.27" ry="1.27"/>
        <rect class="cls-26" x="265.83" y="279.32" width="6.49" height="6.49" rx="1.27" ry="1.27"/>
        <rect class="cls-26" x="274.92" y="279.32" width="6.49" height="6.49" rx="1.27" ry="1.27"/>
        <rect class="cls-26" x="247.65" y="287.93" width="6.49" height="6.49" rx="1.27" ry="1.27"/>
        <rect class="cls-26" x="256.74" y="287.93" width="6.49" height="6.49" rx="1.27" ry="1.27"/>
        <rect class="cls-26" x="265.83" y="287.93" width="6.49" height="6.49" rx="1.27" ry="1.27"/>
        <rect class="cls-26" x="274.92" y="287.93" width="6.49" height="6.49" rx="1.27" ry="1.27"/>
        <rect class="cls-26" x="247.65" y="296.55" width="6.49" height="6.49" rx="1.27" ry="1.27"/>
        <rect class="cls-24" x="256.74" y="296.55" width="6.49" height="6.49" rx="1.27" ry="1.27"/>
        <rect class="cls-27" x="265.83" y="296.55" width="6.49" height="6.49" rx="1.27" ry="1.27"/>
        <rect class="cls-27" x="274.92" y="296.55" width="6.49" height="6.49" rx="1.27" ry="1.27"/>
      </g>
    </g>
  </g>
  <g>
    <rect class="cls-25" x="463.64" y="458.29" width="2.83" height="67.56"/>
    <g>
      <path class="cls-5" d="m505.09,178.77c-4.12,5.13-7.17,8.24-10.76,12.58-35.22,42.49-24.58,76.85-24.58,76.85.09,0,.18,0,.27,0-.07.24-.14.46-.2.7-6.42,23.22-4.25,98.41-4.24,98.97h.82c0-.56-2.18-75.64,4.21-98.75.09-.32.18-.63.27-.94,19.32-14.45,28.96-49.69,31.71-73.6,1.07-9.31,2.51-15.8,2.51-15.8Z"/>
      <path class="cls-15" d="m471,317.09s-.03,0-.04.01c0,0-6.63-30.45,26.22-59.55,2.87-2.54,8-5.87,10.93-9.4,0,0-1.36,4.06-2.15,9.79-1.97,14.21-9.28,51.09-34.11,58.87-.09.37-.18.74-.27,1.12-5,21.63-5.3,61.98-5.32,62.49l-.77-.03c.02-.52.32-40.93,5.34-62.64.05-.23.11-.45.16-.68Z"/>
      <path class="cls-17" d="m459.9,234.53s.01,0,.02,0c0,0,17.01-25.76-5.91-85.5-1.75-4.57-3.68-8.77-5.25-14.95,0,0-.08,5.49-1.54,14.38-3.73,22.81-8.89,67.06,11.73,85.93.04.36.09.7.13,1.06,3.02,26.58,5.13,133.08,5.16,134.15l.92-.03c-.03-1.06-2.14-107.61-5.16-134.22-.03-.28-.07-.55-.1-.82Z"/>
      <path class="cls-22" d="m455.31,317.19s.01,0,.02,0c0,0,7.31-24.93-25.77-51.52-4.94-3.97-10.32-7.26-10.32-7.26,0,0,3.09,6.12,5.36,13.7,4.04,13.48,11.16,44.55,29.7,45.06.1.24.2.47.3.7,6,14.65,8.45,51.86,8.47,52.21l.92-.06c-.02-.35-2.48-37.72-8.54-52.5-.05-.11-.1-.22-.14-.34Z"/>
      <path class="cls-16" d="m456.71,276.39s.03.01.05.02c0,0,3.25-41.05-33.06-73.89-3.78-3.42-6.62-5.75-11.91-10.01,0,0,2.43,6.25,5.28,16.63,5.59,20.36,11.44,43.32,38.62,66.93.11.45.22.89.32,1.35,6.02,26.07,6.73,87.03,6.76,87.66l.92-.03c-.02-.63-.74-61.67-6.78-87.83-.06-.28-.13-.55-.2-.82Z"/>
    </g>
    <path class="cls-1" d="m464.33,482.24c26.43,0,46.71-23.72,42.28-49.78-.77-4.53-1.82-9.03-3.16-13.45l-16.56-54.86c-.72-2.4-2.93-4.04-5.44-4.04h-34.25c-2.5,0-4.71,1.64-5.44,4.04l-16.56,54.86c-1.33,4.42-2.39,8.92-3.16,13.45-4.43,26.05,15.85,49.78,42.28,49.78h0Z"/>
    <path class="cls-20" d="m483.73,386.37l-4.03-13.35c-.6-1.99-2.43-3.35-4.51-3.35h-21.71c-2.08,0-3.91,1.36-4.51,3.35l-4.03,13.35c-.65,2.17-1.17,4.37-1.55,6.6-2.22,12.94,7.82,24.75,20.95,24.75h0c13.13,0,23.17-11.81,20.95-24.75-.38-2.22-.9-4.43-1.55-6.6Z"/>
    <path class="cls-25" d="m504.67,456.36c-27.48,3.54-80.84-.02-80.84-.02l-.23,2.57s53.49,3.57,81.25,0l-.18-2.55Z"/>
    <polygon class="cls-25" points="426.06 456.88 423.78 456.88 417.1 527.62 419.38 527.62 426.06 456.88"/>
    <polygon class="cls-25" points="502.39 456.88 504.67 456.88 511.34 527.62 509.07 527.62 502.39 456.88"/>
  </g>
  <g>
    <circle class="cls-31" cx="282.7" cy="95.34" r="40.39" transform="translate(15.39 227.83) rotate(-45)"/>
    <circle class="cls-2" cx="282.7" cy="95.34" r="35.39" transform="translate(15.39 227.83) rotate(-45)"/>
    <circle class="cls-31" cx="282.7" cy="95.34" r="3.89"/>
    <path class="cls-31" d="m298.83,83.66h0c-.46-.65-1.36-.81-2.02-.36l-14.1,9.45c-.69.46-.86,1.41-.38,2.08l.62.87c.48.68,1.43.82,2.09.31l13.47-10.32c.63-.48.76-1.38.3-2.03Z"/>
    <path class="cls-31" d="m282.64,65.83h0c-.48,0-.87.38-.88.86l-.81,28.57h3.39l-.81-28.57c-.01-.48-.41-.86-.88-.86Z"/>
  </g>
</svg>