<?xml version="1.0" encoding="UTF-8"?>
<svg id="Layer_1" data-name="Layer 1" xmlns="http://www.w3.org/2000/svg" viewBox="0 0 576 576">
  <defs>
    <style>
      .cls-1, .cls-2 {
        fill: #9bd2a5;
      }

      .cls-3 {
        fill: #5b5857;
      }

      .cls-2, .cls-4, .cls-5, .cls-6, .cls-7, .cls-8, .cls-9, .cls-10 {
        stroke-linecap: round;
        stroke-linejoin: round;
      }

      .cls-2, .cls-5, .cls-6, .cls-7, .cls-8, .cls-9 {
        stroke: #263238;
      }

      .cls-11 {
        opacity: .35;
      }

      .cls-4, .cls-5, .cls-7, .cls-8, .cls-10 {
        fill: none;
      }

      .cls-4, .cls-10 {
        stroke: #000;
      }

      .cls-12 {
        opacity: .7;
      }

      .cls-12, .cls-6 {
        fill: #fff;
      }

      .cls-5 {
        stroke-width: 6px;
      }

      .cls-13, .cls-10 {
        opacity: .3;
      }

      .cls-7 {
        stroke-width: .5px;
      }

      .cls-14 {
        fill: #474544;
      }

      .cls-9, .cls-15 {
        fill: #263238;
      }
    </style>
  </defs>
  <g>
    <path class="cls-1" d="m29.63,277.15c-13.5,63.96,12.04,126.78,52.7,169.64,45.08,47.52,102.6,69.24,165.31,57.97,24.85-4.47,49.47-11.34,74.59-13.09,43.2-3,89.07,4.2,131.74-4.94,53.97-11.55,100.77-64.89,96.79-127.55-1.38-21.73-7.73-42.56-15.6-62.3-19.35-48.54-48.05-91.69-80.31-130.62-36.36-43.88-78.8-83.71-130.04-102.83C211.74,21.25,97.7,120.18,45.74,229.95c-7.07,14.93-12.66,30.87-16.11,47.2Z"/>
    <path class="cls-12" d="m29.63,277.15c-13.5,63.96,12.04,126.78,52.7,169.64,45.08,47.52,102.6,69.24,165.31,57.97,24.85-4.47,49.47-11.34,74.59-13.09,43.2-3,89.07,4.2,131.74-4.94,53.97-11.55,100.77-64.89,96.79-127.55-1.38-21.73-7.73-42.56-15.6-62.3-19.35-48.54-48.05-91.69-80.31-130.62-36.36-43.88-78.8-83.71-130.04-102.83C211.74,21.25,97.7,120.18,45.74,229.95c-7.07,14.93-12.66,30.87-16.11,47.2Z"/>
  </g>
  <g class="cls-13">
    <g>
      <polygon class="cls-4" points="363.74 252.04 363.74 256.88 326.91 256.88 326.91 250.14 342.76 250.14 342.76 252.04 363.74 252.04"/>
      <path class="cls-4" d="m363.74,256.88v20.89c0,1.06-.86,1.92-1.92,1.92h-32.98c-1.06,0-1.92-.86-1.92-1.92v-20.89h36.83Z"/>
    </g>
    <g>
      <polygon class="cls-4" points="363.74 294.38 363.74 299.23 326.91 299.23 326.91 292.49 342.76 292.49 342.76 294.38 363.74 294.38"/>
      <path class="cls-4" d="m363.74,299.23v20.89c0,1.06-.86,1.92-1.92,1.92h-32.98c-1.06,0-1.92-.86-1.92-1.92v-20.89h36.83Z"/>
    </g>
    <g>
      <polygon class="cls-4" points="418.46 252.04 418.46 256.88 381.63 256.88 381.63 250.14 397.48 250.14 397.48 252.04 418.46 252.04"/>
      <path class="cls-4" d="m418.46,256.88v20.89c0,1.06-.86,1.92-1.92,1.92h-32.98c-1.06,0-1.92-.86-1.92-1.92v-20.89h36.83Z"/>
    </g>
    <g>
      <polygon class="cls-4" points="418.46 294.38 418.46 299.23 381.63 299.23 381.63 292.49 397.48 292.49 397.48 294.38 418.46 294.38"/>
      <path class="cls-4" d="m418.46,299.23v20.89c0,1.06-.86,1.92-1.92,1.92h-32.98c-1.06,0-1.92-.86-1.92-1.92v-20.89h36.83Z"/>
    </g>
    <g>
      <polygon class="cls-4" points="474.9 252.04 474.9 256.88 438.07 256.88 438.07 250.14 453.92 250.14 453.92 252.04 474.9 252.04"/>
      <path class="cls-4" d="m474.9,256.88v20.89c0,1.06-.86,1.92-1.92,1.92h-32.98c-1.06,0-1.92-.86-1.92-1.92v-20.89h36.83Z"/>
    </g>
    <g>
      <polygon class="cls-4" points="474.9 294.38 474.9 299.23 438.07 299.23 438.07 292.49 453.92 292.49 453.92 294.38 474.9 294.38"/>
      <path class="cls-4" d="m474.9,299.23v20.89c0,1.06-.86,1.92-1.92,1.92h-32.98c-1.06,0-1.92-.86-1.92-1.92v-20.89h36.83Z"/>
    </g>
    <g>
      <polygon class="cls-4" points="531.34 252.04 531.34 256.88 494.51 256.88 494.51 250.14 510.36 250.14 510.36 252.04 531.34 252.04"/>
      <path class="cls-4" d="m531.34,256.88v20.89c0,1.06-.86,1.92-1.92,1.92h-32.98c-1.06,0-1.92-.86-1.92-1.92v-20.89h36.83Z"/>
    </g>
    <g>
      <polygon class="cls-4" points="531.34 294.38 531.34 299.23 494.51 299.23 494.51 292.49 510.36 292.49 510.36 294.38 531.34 294.38"/>
      <path class="cls-4" d="m531.34,299.23v20.89c0,1.06-.86,1.92-1.92,1.92h-32.98c-1.06,0-1.92-.86-1.92-1.92v-20.89h36.83Z"/>
    </g>
  </g>
  <g>
    <g class="cls-13">
      <g>
        <polygon class="cls-4" points="314.64 410.87 314.64 413.01 298.36 413.01 298.36 410.03 305.36 410.03 305.36 410.87 314.64 410.87"/>
        <path class="cls-4" d="m314.64,413.01v9.23c0,.47-.38.85-.85.85h-14.58c-.47,0-.85-.38-.85-.85v-9.23h16.28Z"/>
      </g>
      <g>
        <polygon class="cls-4" points="314.64 429.59 314.64 431.73 298.36 431.73 298.36 428.75 305.36 428.75 305.36 429.59 314.64 429.59"/>
        <path class="cls-4" d="m314.64,431.73v9.23c0,.47-.38.85-.85.85h-14.58c-.47,0-.85-.38-.85-.85v-9.23h16.28Z"/>
      </g>
      <g>
        <polygon class="cls-4" points="338.83 410.87 338.83 413.01 322.55 413.01 322.55 410.03 329.55 410.03 329.55 410.87 338.83 410.87"/>
        <path class="cls-4" d="m338.83,413.01v9.23c0,.47-.38.85-.85.85h-14.58c-.47,0-.85-.38-.85-.85v-9.23h16.28Z"/>
      </g>
      <g>
        <polygon class="cls-4" points="338.83 429.59 338.83 431.73 322.55 431.73 322.55 428.75 329.55 428.75 329.55 429.59 338.83 429.59"/>
        <path class="cls-4" d="m338.83,431.73v9.23c0,.47-.38.85-.85.85h-14.58c-.47,0-.85-.38-.85-.85v-9.23h16.28Z"/>
      </g>
      <g>
        <polygon class="cls-4" points="363.78 410.87 363.78 413.01 347.5 413.01 347.5 410.03 354.5 410.03 354.5 410.87 363.78 410.87"/>
        <path class="cls-4" d="m363.78,413.01v9.23c0,.47-.38.85-.85.85h-14.58c-.47,0-.85-.38-.85-.85v-9.23h16.28Z"/>
      </g>
      <g>
        <polygon class="cls-4" points="363.78 429.59 363.78 431.73 347.5 431.73 347.5 428.75 354.5 428.75 354.5 429.59 363.78 429.59"/>
        <path class="cls-4" d="m363.78,431.73v9.23c0,.47-.38.85-.85.85h-14.58c-.47,0-.85-.38-.85-.85v-9.23h16.28Z"/>
      </g>
      <g>
        <polygon class="cls-4" points="388.73 410.87 388.73 413.01 372.45 413.01 372.45 410.03 379.45 410.03 379.45 410.87 388.73 410.87"/>
        <path class="cls-4" d="m388.73,413.01v9.23c0,.47-.38.85-.85.85h-14.58c-.47,0-.85-.38-.85-.85v-9.23h16.28Z"/>
      </g>
      <g>
        <polygon class="cls-4" points="388.73 429.59 388.73 431.73 372.45 431.73 372.45 428.75 379.45 428.75 379.45 429.59 388.73 429.59"/>
        <path class="cls-4" d="m388.73,431.73v9.23c0,.47-.38.85-.85.85h-14.58c-.47,0-.85-.38-.85-.85v-9.23h16.28Z"/>
      </g>
    </g>
    <g class="cls-13">
      <g>
        <polygon class="cls-4" points="314.64 450.93 314.64 453.07 298.36 453.07 298.36 450.1 305.36 450.1 305.36 450.93 314.64 450.93"/>
        <path class="cls-4" d="m314.64,453.07v9.23c0,.47-.38.85-.85.85h-14.58c-.47,0-.85-.38-.85-.85v-9.23h16.28Z"/>
      </g>
      <g>
        <polygon class="cls-4" points="314.64 469.65 314.64 471.79 298.36 471.79 298.36 468.82 305.36 468.82 305.36 469.65 314.64 469.65"/>
        <path class="cls-4" d="m314.64,471.79v9.23c0,.47-.38.85-.85.85h-14.58c-.47,0-.85-.38-.85-.85v-9.23h16.28Z"/>
      </g>
      <g>
        <polygon class="cls-4" points="338.83 450.93 338.83 453.07 322.55 453.07 322.55 450.1 329.55 450.1 329.55 450.93 338.83 450.93"/>
        <path class="cls-4" d="m338.83,453.07v9.23c0,.47-.38.85-.85.85h-14.58c-.47,0-.85-.38-.85-.85v-9.23h16.28Z"/>
      </g>
      <g>
        <polygon class="cls-4" points="338.83 469.65 338.83 471.79 322.55 471.79 322.55 468.82 329.55 468.82 329.55 469.65 338.83 469.65"/>
        <path class="cls-4" d="m338.83,471.79v9.23c0,.47-.38.85-.85.85h-14.58c-.47,0-.85-.38-.85-.85v-9.23h16.28Z"/>
      </g>
      <g>
        <polygon class="cls-4" points="363.78 450.93 363.78 453.07 347.5 453.07 347.5 450.1 354.5 450.1 354.5 450.93 363.78 450.93"/>
        <path class="cls-4" d="m363.78,453.07v9.23c0,.47-.38.85-.85.85h-14.58c-.47,0-.85-.38-.85-.85v-9.23h16.28Z"/>
      </g>
      <g>
        <polygon class="cls-4" points="363.78 469.65 363.78 471.79 347.5 471.79 347.5 468.82 354.5 468.82 354.5 469.65 363.78 469.65"/>
        <path class="cls-4" d="m363.78,471.79v9.23c0,.47-.38.85-.85.85h-14.58c-.47,0-.85-.38-.85-.85v-9.23h16.28Z"/>
      </g>
      <g>
        <polygon class="cls-4" points="388.73 450.93 388.73 453.07 372.45 453.07 372.45 450.1 379.45 450.1 379.45 450.93 388.73 450.93"/>
        <path class="cls-4" d="m388.73,453.07v9.23c0,.47-.38.85-.85.85h-14.58c-.47,0-.85-.38-.85-.85v-9.23h16.28Z"/>
      </g>
      <g>
        <polygon class="cls-4" points="388.73 469.65 388.73 471.79 372.45 471.79 372.45 468.82 379.45 468.82 379.45 469.65 388.73 469.65"/>
        <path class="cls-4" d="m388.73,471.79v9.23c0,.47-.38.85-.85.85h-14.58c-.47,0-.85-.38-.85-.85v-9.23h16.28Z"/>
      </g>
    </g>
    <rect class="cls-10" x="266.52" y="392.45" width="140.45" height="108.53"/>
    <line class="cls-10" x1="266.52" y1="401.72" x2="406.25" y2="401.72"/>
    <line class="cls-10" x1="290.95" y1="402.21" x2="290.95" y2="499.93"/>
  </g>
  <g>
    <g class="cls-13">
      <g>
        <polygon class="cls-4" points="76.91 304.9 76.91 307.04 60.63 307.04 60.63 304.07 67.63 304.07 67.63 304.9 76.91 304.9"/>
        <path class="cls-4" d="m76.91,307.04v9.23c0,.47-.38.85-.85.85h-14.58c-.47,0-.85-.38-.85-.85v-9.23h16.28Z"/>
      </g>
      <g>
        <polygon class="cls-4" points="76.91 323.62 76.91 325.76 60.63 325.76 60.63 322.79 67.63 322.79 67.63 323.62 76.91 323.62"/>
        <path class="cls-4" d="m76.91,325.76v9.23c0,.47-.38.85-.85.85h-14.58c-.47,0-.85-.38-.85-.85v-9.23h16.28Z"/>
      </g>
      <g>
        <polygon class="cls-4" points="101.1 304.9 101.1 307.04 84.82 307.04 84.82 304.07 91.82 304.07 91.82 304.9 101.1 304.9"/>
        <path class="cls-4" d="m101.1,307.04v9.23c0,.47-.38.85-.85.85h-14.58c-.47,0-.85-.38-.85-.85v-9.23h16.28Z"/>
      </g>
      <g>
        <polygon class="cls-4" points="101.1 323.62 101.1 325.76 84.82 325.76 84.82 322.79 91.82 322.79 91.82 323.62 101.1 323.62"/>
        <path class="cls-4" d="m101.1,325.76v9.23c0,.47-.38.85-.85.85h-14.58c-.47,0-.85-.38-.85-.85v-9.23h16.28Z"/>
      </g>
      <g>
        <polygon class="cls-4" points="126.05 304.9 126.05 307.04 109.77 307.04 109.77 304.07 116.77 304.07 116.77 304.9 126.05 304.9"/>
        <path class="cls-4" d="m126.05,307.04v9.23c0,.47-.38.85-.85.85h-14.58c-.47,0-.85-.38-.85-.85v-9.23h16.28Z"/>
      </g>
      <g>
        <polygon class="cls-4" points="126.05 323.62 126.05 325.76 109.77 325.76 109.77 322.79 116.77 322.79 116.77 323.62 126.05 323.62"/>
        <path class="cls-4" d="m126.05,325.76v9.23c0,.47-.38.85-.85.85h-14.58c-.47,0-.85-.38-.85-.85v-9.23h16.28Z"/>
      </g>
      <g>
        <polygon class="cls-4" points="151 304.9 151 307.04 134.72 307.04 134.72 304.07 141.73 304.07 141.73 304.9 151 304.9"/>
        <path class="cls-4" d="m151,307.04v9.23c0,.47-.38.85-.85.85h-14.58c-.47,0-.85-.38-.85-.85v-9.23h16.28Z"/>
      </g>
      <g>
        <polygon class="cls-4" points="151 323.62 151 325.76 134.72 325.76 134.72 322.79 141.73 322.79 141.73 323.62 151 323.62"/>
        <path class="cls-4" d="m151,325.76v9.23c0,.47-.38.85-.85.85h-14.58c-.47,0-.85-.38-.85-.85v-9.23h16.28Z"/>
      </g>
    </g>
    <g class="cls-13">
      <g>
        <polygon class="cls-4" points="76.91 344.97 76.91 347.11 60.63 347.11 60.63 344.13 67.63 344.13 67.63 344.97 76.91 344.97"/>
        <path class="cls-4" d="m76.91,347.11v9.23c0,.47-.38.85-.85.85h-14.58c-.47,0-.85-.38-.85-.85v-9.23h16.28Z"/>
      </g>
      <g>
        <polygon class="cls-4" points="76.91 363.69 76.91 365.83 60.63 365.83 60.63 362.85 67.63 362.85 67.63 363.69 76.91 363.69"/>
        <path class="cls-4" d="m76.91,365.83v9.23c0,.47-.38.85-.85.85h-14.58c-.47,0-.85-.38-.85-.85v-9.23h16.28Z"/>
      </g>
      <g>
        <polygon class="cls-4" points="101.1 344.97 101.1 347.11 84.82 347.11 84.82 344.13 91.82 344.13 91.82 344.97 101.1 344.97"/>
        <path class="cls-4" d="m101.1,347.11v9.23c0,.47-.38.85-.85.85h-14.58c-.47,0-.85-.38-.85-.85v-9.23h16.28Z"/>
      </g>
      <g>
        <polygon class="cls-4" points="101.1 363.69 101.1 365.83 84.82 365.83 84.82 362.85 91.82 362.85 91.82 363.69 101.1 363.69"/>
        <path class="cls-4" d="m101.1,365.83v9.23c0,.47-.38.85-.85.85h-14.58c-.47,0-.85-.38-.85-.85v-9.23h16.28Z"/>
      </g>
      <g>
        <polygon class="cls-4" points="126.05 344.97 126.05 347.11 109.77 347.11 109.77 344.13 116.77 344.13 116.77 344.97 126.05 344.97"/>
        <path class="cls-4" d="m126.05,347.11v9.23c0,.47-.38.85-.85.85h-14.58c-.47,0-.85-.38-.85-.85v-9.23h16.28Z"/>
      </g>
      <g>
        <polygon class="cls-4" points="126.05 363.69 126.05 365.83 109.77 365.83 109.77 362.85 116.77 362.85 116.77 363.69 126.05 363.69"/>
        <path class="cls-4" d="m126.05,365.83v9.23c0,.47-.38.85-.85.85h-14.58c-.47,0-.85-.38-.85-.85v-9.23h16.28Z"/>
      </g>
      <g>
        <polygon class="cls-4" points="151 344.97 151 347.11 134.72 347.11 134.72 344.13 141.73 344.13 141.73 344.97 151 344.97"/>
        <path class="cls-4" d="m151,347.11v9.23c0,.47-.38.85-.85.85h-14.58c-.47,0-.85-.38-.85-.85v-9.23h16.28Z"/>
      </g>
      <g>
        <polygon class="cls-4" points="151 363.69 151 365.83 134.72 365.83 134.72 362.85 141.73 362.85 141.73 363.69 151 363.69"/>
        <path class="cls-4" d="m151,365.83v9.23c0,.47-.38.85-.85.85h-14.58c-.47,0-.85-.38-.85-.85v-9.23h16.28Z"/>
      </g>
    </g>
    <rect class="cls-10" x="28.8" y="286.48" width="140.45" height="108.53"/>
    <line class="cls-10" x1="28.79" y1="295.76" x2="168.52" y2="295.76"/>
    <line class="cls-10" x1="53.22" y1="296.25" x2="53.22" y2="393.96"/>
  </g>
  <g>
    <g class="cls-13">
      <g>
        <polygon class="cls-4" points="306.27 53.93 306.27 56.07 289.99 56.07 289.99 53.09 297 53.09 297 53.93 306.27 53.93"/>
        <path class="cls-4" d="m306.27,56.07v9.23c0,.47-.38.85-.85.85h-14.58c-.47,0-.85-.38-.85-.85v-9.23h16.28Z"/>
      </g>
      <g>
        <polygon class="cls-4" points="306.27 72.65 306.27 74.79 289.99 74.79 289.99 71.81 297 71.81 297 72.65 306.27 72.65"/>
        <path class="cls-4" d="m306.27,74.79v9.23c0,.47-.38.85-.85.85h-14.58c-.47,0-.85-.38-.85-.85v-9.23h16.28Z"/>
      </g>
      <g>
        <polygon class="cls-4" points="330.46 53.93 330.46 56.07 314.18 56.07 314.18 53.09 321.19 53.09 321.19 53.93 330.46 53.93"/>
        <path class="cls-4" d="m330.46,56.07v9.23c0,.47-.38.85-.85.85h-14.58c-.47,0-.85-.38-.85-.85v-9.23h16.28Z"/>
      </g>
      <g>
        <polygon class="cls-4" points="330.46 72.65 330.46 74.79 314.18 74.79 314.18 71.81 321.19 71.81 321.19 72.65 330.46 72.65"/>
        <path class="cls-4" d="m330.46,74.79v9.23c0,.47-.38.85-.85.85h-14.58c-.47,0-.85-.38-.85-.85v-9.23h16.28Z"/>
      </g>
      <g>
        <polygon class="cls-4" points="355.41 53.93 355.41 56.07 339.13 56.07 339.13 53.09 346.14 53.09 346.14 53.93 355.41 53.93"/>
        <path class="cls-4" d="m355.41,56.07v9.23c0,.47-.38.85-.85.85h-14.58c-.47,0-.85-.38-.85-.85v-9.23h16.28Z"/>
      </g>
      <g>
        <polygon class="cls-4" points="355.41 72.65 355.41 74.79 339.13 74.79 339.13 71.81 346.14 71.81 346.14 72.65 355.41 72.65"/>
        <path class="cls-4" d="m355.41,74.79v9.23c0,.47-.38.85-.85.85h-14.58c-.47,0-.85-.38-.85-.85v-9.23h16.28Z"/>
      </g>
      <g>
        <polygon class="cls-4" points="380.36 53.93 380.36 56.07 364.08 56.07 364.08 53.09 371.09 53.09 371.09 53.93 380.36 53.93"/>
        <path class="cls-4" d="m380.36,56.07v9.23c0,.47-.38.85-.85.85h-14.58c-.47,0-.85-.38-.85-.85v-9.23h16.28Z"/>
      </g>
      <g>
        <polygon class="cls-4" points="380.36 72.65 380.36 74.79 364.08 74.79 364.08 71.81 371.09 71.81 371.09 72.65 380.36 72.65"/>
        <path class="cls-4" d="m380.36,74.79v9.23c0,.47-.38.85-.85.85h-14.58c-.47,0-.85-.38-.85-.85v-9.23h16.28Z"/>
      </g>
    </g>
    <g class="cls-13">
      <g>
        <polygon class="cls-4" points="306.27 93.99 306.27 96.13 289.99 96.13 289.99 93.16 297 93.16 297 93.99 306.27 93.99"/>
        <path class="cls-4" d="m306.27,96.13v9.23c0,.47-.38.85-.85.85h-14.58c-.47,0-.85-.38-.85-.85v-9.23h16.28Z"/>
      </g>
      <g>
        <polygon class="cls-4" points="306.27 112.71 306.27 114.85 289.99 114.85 289.99 111.88 297 111.88 297 112.71 306.27 112.71"/>
        <path class="cls-4" d="m306.27,114.85v9.23c0,.47-.38.85-.85.85h-14.58c-.47,0-.85-.38-.85-.85v-9.23h16.28Z"/>
      </g>
      <g>
        <polygon class="cls-4" points="330.46 93.99 330.46 96.13 314.18 96.13 314.18 93.16 321.19 93.16 321.19 93.99 330.46 93.99"/>
        <path class="cls-4" d="m330.46,96.13v9.23c0,.47-.38.85-.85.85h-14.58c-.47,0-.85-.38-.85-.85v-9.23h16.28Z"/>
      </g>
      <g>
        <polygon class="cls-4" points="330.46 112.71 330.46 114.85 314.18 114.85 314.18 111.88 321.19 111.88 321.19 112.71 330.46 112.71"/>
        <path class="cls-4" d="m330.46,114.85v9.23c0,.47-.38.85-.85.85h-14.58c-.47,0-.85-.38-.85-.85v-9.23h16.28Z"/>
      </g>
      <g>
        <polygon class="cls-4" points="355.41 93.99 355.41 96.13 339.13 96.13 339.13 93.16 346.14 93.16 346.14 93.99 355.41 93.99"/>
        <path class="cls-4" d="m355.41,96.13v9.23c0,.47-.38.85-.85.85h-14.58c-.47,0-.85-.38-.85-.85v-9.23h16.28Z"/>
      </g>
      <g>
        <polygon class="cls-4" points="355.41 112.71 355.41 114.85 339.13 114.85 339.13 111.88 346.14 111.88 346.14 112.71 355.41 112.71"/>
        <path class="cls-4" d="m355.41,114.85v9.23c0,.47-.38.85-.85.85h-14.58c-.47,0-.85-.38-.85-.85v-9.23h16.28Z"/>
      </g>
      <g>
        <polygon class="cls-4" points="380.36 93.99 380.36 96.13 364.08 96.13 364.08 93.16 371.09 93.16 371.09 93.99 380.36 93.99"/>
        <path class="cls-4" d="m380.36,96.13v9.23c0,.47-.38.85-.85.85h-14.58c-.47,0-.85-.38-.85-.85v-9.23h16.28Z"/>
      </g>
      <g>
        <polygon class="cls-4" points="380.36 112.71 380.36 114.85 364.08 114.85 364.08 111.88 371.09 111.88 371.09 112.71 380.36 112.71"/>
        <path class="cls-4" d="m380.36,114.85v9.23c0,.47-.38.85-.85.85h-14.58c-.47,0-.85-.38-.85-.85v-9.23h16.28Z"/>
      </g>
    </g>
    <rect class="cls-10" x="258.16" y="35.51" width="140.45" height="108.53"/>
    <line class="cls-10" x1="258.15" y1="44.78" x2="397.89" y2="44.78"/>
    <line class="cls-10" x1="282.58" y1="45.27" x2="282.58" y2="142.99"/>
  </g>
  <g>
    <circle class="cls-9" cx="446.95" cy="135.18" r="52.01" transform="translate(143.98 490.49) rotate(-66.37)"/>
    <circle class="cls-6" cx="443.07" cy="130.01" r="52.01" transform="translate(188.8 515.45) rotate(-72.94)"/>
    <circle class="cls-9" cx="443.07" cy="130.01" r="46.85" transform="translate(231 540.18) rotate(-79.01)"/>
    <g>
      <path class="cls-1" d="m437.58,94.8s-5.17-12.92-14.22-21.97c-9.05-9.05-45.88-14.86-45.88-14.86,0,0,7.75,7.11,16.15,18.74,8.4,11.63,36.18,38.12,36.18,38.12,0,0-13.57-11.63-25.85-12.92-12.28-1.29-43.29,5.17-45.23,5.17s11.63,5.17,21.32,9.69c9.69,4.52,47.17,8.4,47.17,8.4,0,0-16.15,4.52-27.14,8.4-10.98,3.88-21.32,32.31-21.32,32.31,0,0,14.22-12.92,26.49-16.15,12.28-3.23,29.72-9.05,29.72-9.05,0,0-10.98,12.28-13.57,20.68-2.58,8.4-.65,27.78-.65,27.78,0,0,5.82-18.09,12.92-25.2,7.11-7.11,14.86-19.38,14.86-19.38,0,0,4.52,7.11,9.69,18.09,5.17,10.98,8.4,27.14,8.4,27.14,0,0,8.4-18.09,7.75-27.14-.65-9.05-10.34-25.2-10.34-25.2,0,0,6.46-4.52,16.15-.65,9.69,3.88,26.49,20.03,26.49,20.03,0,0-3.88-21.32-10.34-29.72-6.46-8.4-34.25-10.98-34.25-10.98,0,0,15.51-9.05,25.2-10.98,9.69-1.94,22.62,2.58,22.62,2.58,0,0-14.86-20.68-26.49-21.97-11.63-1.29-29.08,16.8-29.08,16.8,0,0,3.88-19.38,5.17-25.85,1.29-6.46-1.29-22.62-1.29-22.62,0,0-7.11,3.88-15.51,16.15-8.4,12.28-5.17,24.55-5.17,24.55Z"/>
      <path class="cls-11" d="m437.58,94.8s-5.17-12.92-14.22-21.97c-9.05-9.05-45.88-14.86-45.88-14.86,0,0,7.75,7.11,16.15,18.74,8.4,11.63,36.18,38.12,36.18,38.12,0,0-13.57-11.63-25.85-12.92-12.28-1.29-43.29,5.17-45.23,5.17s11.63,5.17,21.32,9.69c9.69,4.52,47.17,8.4,47.17,8.4,0,0-16.15,4.52-27.14,8.4-10.98,3.88-21.32,32.31-21.32,32.31,0,0,14.22-12.92,26.49-16.15,12.28-3.23,29.72-9.05,29.72-9.05,0,0-10.98,12.28-13.57,20.68-2.58,8.4-.65,27.78-.65,27.78,0,0,5.82-18.09,12.92-25.2,7.11-7.11,14.86-19.38,14.86-19.38,0,0,4.52,7.11,9.69,18.09,5.17,10.98,8.4,27.14,8.4,27.14,0,0,8.4-18.09,7.75-27.14-.65-9.05-10.34-25.2-10.34-25.2,0,0,6.46-4.52,16.15-.65,9.69,3.88,26.49,20.03,26.49,20.03,0,0-3.88-21.32-10.34-29.72-6.46-8.4-34.25-10.98-34.25-10.98,0,0,15.51-9.05,25.2-10.98,9.69-1.94,22.62,2.58,22.62,2.58,0,0-14.86-20.68-26.49-21.97-11.63-1.29-29.08,16.8-29.08,16.8,0,0,3.88-19.38,5.17-25.85,1.29-6.46-1.29-22.62-1.29-22.62,0,0-7.11,3.88-15.51,16.15-8.4,12.28-5.17,24.55-5.17,24.55Z"/>
      <path class="cls-7" d="m450.31,75.13c.45-1.86.94-3.71,1.49-5.53"/>
      <path class="cls-7" d="m407.15,75.13c6.05,4.42,13.62,10.49,17.51,15.8,7.11,9.69,21.32,30.37,21.32,30.37,0,0-.95-20.49,3.28-41.42"/>
      <path class="cls-7" d="m398.16,68.95s1.89,1.2,4.71,3.14"/>
      <path class="cls-7" d="m445.98,121.29s24.55-24.55,34.89-26.49c10.34-1.94,19.38,5.82,19.38,5.82"/>
      <path class="cls-7" d="m402.09,141.83c-5.97,3.81-6.51,5.96-6.51,5.96"/>
      <path class="cls-7" d="m499.61,143.91s-3.88-9.69-17.45-14.22c-13.57-4.52-34.89-5.17-34.89-5.17,0,0-29.9,9.79-40.83,14.9"/>
      <path class="cls-7" d="m434.22,120.83c7.22,2.1,13.05,3.69,13.05,3.69"/>
      <path class="cls-7" d="m388.7,109.35c7.02.42,16.06,1.38,21.09,3.54,4.1,1.76,12.18,4.31,19.79,6.58"/>
      <path class="cls-7" d="m378.78,109.01s2.36,0,5.85.14"/>
      <path class="cls-7" d="m445.98,128.4s-18.09,27.14-19.38,33.6c-1.29,6.46-1.29,11.63-1.29,11.63"/>
      <path class="cls-7" d="m454.02,136.94c3.48,4.5,7.66,10.5,9.4,15.37,3.23,9.05,4.52,18.09,4.52,18.09"/>
      <path class="cls-7" d="m448.56,130.34s1.43,1.59,3.44,4.05"/>
    </g>
    <g>
      <path class="cls-1" d="m429.37,100.37s-3.34-13.51-1.27-26.14c2.07-12.62,28.6-38.83,28.6-38.83,0,0-2.15,10.3-2.19,24.64-.04,14.35-7.16,52.07-7.16,52.07,0,0,4.24-17.36,13.46-25.57,9.22-8.21,38.18-21.05,39.75-22.18,1.57-1.13-6.43,10.98-11.67,20.31-5.23,9.33-33.41,34.34-33.41,34.34,0,0,15.76-5.75,26.94-9.01,11.18-3.26,36.16,13.81,36.16,13.81,0,0-19.08-2.21-30.94,2.33-11.86,4.54-29.42,9.99-29.42,9.99,0,0,16.08,3.57,23.08,8.88,7,5.32,16.73,22.19,16.73,22.19,0,0-15.28-11.3-25.2-12.93-9.92-1.63-23.38-7.08-23.38-7.08,0,0,.47,8.41,2.68,20.35,2.21,11.94,9.01,26.94,9.01,26.94,0,0-17.38-9.8-22.13-17.52-4.75-7.72-6.3-26.5-6.3-26.5,0,0-7.89.09-13.5,8.9-5.61,8.8-9.84,31.72-9.84,31.72,0,0-9.29-19.58-8.94-30.17.35-10.59,21.41-28.9,21.41-28.9,0,0-17.87,1.7-26.88,5.78-9,4.08-16.86,15.29-16.86,15.29,0,0,.01-25.46,8.71-33.3,8.69-7.83,33.42-3.31,33.42-3.31,0,0-14.46-13.48-19.27-17.98-4.82-4.49-12.14-19.12-12.14-19.12,0,0,8.03-1,22.02,4.08,13.98,5.07,18.52,16.93,18.52,16.93Z"/>
      <path class="cls-7" d="m407.56,91.82c-1.45-1.25-2.93-2.46-4.43-3.63"/>
      <path class="cls-7" d="m442.61,66.64c-2.34,7.12-4.94,16.47-5.01,23.04-.12,12.02.39,37.11.39,37.11,0,0-11.18-17.2-26.82-31.73"/>
      <path class="cls-7" d="m446.31,56.38s-.84,2.07-1.99,5.29"/>
      <path class="cls-7" d="m438,126.79s-34.27-5.62-43.79-1.17c-9.53,4.46-12.35,16.03-12.35,16.03"/>
      <path class="cls-7" d="m485.62,117.87c7.07-.39,8.76,1.04,8.76,1.04"/>
      <path class="cls-7" d="m407.62,176.44s-2.5-10.13,5.88-21.72c8.38-11.59,25.33-24.55,25.33-24.55,0,0,29.99-9.49,41.86-11.72"/>
      <path class="cls-7" d="m447.28,119.56c-4.64,5.92-8.45,10.61-8.45,10.61"/>
      <path class="cls-7" d="m477.56,83.68c-5.46,4.44-12.24,10.49-15.07,15.18-2.31,3.82-7.38,10.61-12.24,16.89"/>
      <path class="cls-7" d="m485.42,77.62s-1.92,1.38-4.67,3.52"/>
      <path class="cls-7" d="m442.14,132.56s30.52,11.49,35.34,15.99c4.82,4.49,7.83,8.69,7.83,8.69"/>
      <path class="cls-7" d="m440.59,144.18c-.21,5.69-.1,13,1.33,17.97,2.65,9.23,6.88,17.33,6.88,17.33"/>
      <path class="cls-7" d="m441.17,135.64s-.24,2.13-.43,5.3"/>
    </g>
  </g>
  <g>
    <g>
      <path class="cls-5" d="m336.79,221.3h139.24c11.59,0,20.99,9.4,20.99,20.99h0c0,11.59-9.4,20.99-20.99,20.99h-22.02c-10.91,0-19.81,8.73-20.02,19.64l-.72,60.5"/>
      <polygon class="cls-9" points="438.92 344.63 438.92 331.62 427.87 331.62 427.87 344.63 422.92 349.95 422.92 373.18 443.87 373.18 443.87 349.95 438.92 344.63"/>
      <polygon class="cls-9" points="327.69 227.26 340.7 227.26 340.7 216.21 327.69 216.21 322.36 211.26 299.13 211.26 299.13 232.21 322.36 232.21 327.69 227.26"/>
    </g>
    <g>
      <rect class="cls-2" x="374.69" y="373.11" width="117.4" height="170.28" rx="7.88" ry="7.88"/>
      <path class="cls-2" d="m481.92,375.78h-34.22v-2.6h-28.27v2.6h-34.56c-4.77,0-8.63,3.85-8.63,8.61v148.15c0,4.76,3.87,8.61,8.63,8.61h97.05c4.77,0,8.63-3.86,8.63-8.61v-148.15c0-4.76-3.87-8.61-8.63-8.61Z"/>
    </g>
  </g>
  <g>
    <path class="cls-6" d="m287.39,170.47H85.52c-6.45,0-11.68,5.23-11.68,11.68v129.33c0,7.06,5.72,12.78,12.78,12.78h83.84l.24-2.28h30.33l.24,2.28h85.05c7.06,0,12.78-5.72,12.78-12.78v-129.33c0-6.45-5.23-11.68-11.68-11.68Z"/>
    <path class="cls-6" d="m154.1,269.71h63.5c1.59,0,2.89,1.29,2.89,2.89v38.96c0,1.59-1.29,2.89-2.89,2.89h-63.5c-1.59,0-2.89-1.29-2.89-2.89v-38.96c0-1.59,1.29-2.89,2.89-2.89Z"/>
    <g>
      <rect class="cls-15" x="146.18" y="185.6" width="12.68" height="8.33"/>
      <rect class="cls-15" x="106.02" y="236.98" width="11.77" height="11.68"/>
      <rect class="cls-15" x="157.93" y="195.93" width="11.86" height="11.68"/>
      <rect class="cls-15" x="131.5" y="185.6" width="12.68" height="8.33"/>
      <rect class="cls-15" x="171.79" y="195.93" width="11.86" height="11.68"/>
      <rect class="cls-15" x="160.87" y="185.6" width="12.68" height="8.33"/>
      <rect class="cls-15" x="88.37" y="223.3" width="22.31" height="11.68"/>
      <rect class="cls-15" x="130.2" y="195.93" width="11.86" height="11.68"/>
      <rect class="cls-15" x="88.37" y="236.98" width="15.65" height="11.68"/>
      <rect class="cls-15" x="175.55" y="185.6" width="12.68" height="8.33"/>
      <rect class="cls-15" x="102.47" y="195.93" width="11.86" height="11.68"/>
      <rect class="cls-15" x="102.14" y="185.6" width="12.68" height="8.33"/>
      <rect class="cls-15" x="116.82" y="185.6" width="12.68" height="8.33"/>
      <rect class="cls-15" x="116.34" y="195.93" width="11.86" height="11.68"/>
      <rect class="cls-15" x="144.06" y="195.93" width="11.86" height="11.68"/>
      <rect class="cls-15" x="234.28" y="185.6" width="12.68" height="8.33"/>
      <rect class="cls-15" x="248.96" y="185.6" width="12.68" height="8.33"/>
      <rect class="cls-15" x="241.11" y="195.93" width="11.86" height="11.68"/>
      <rect class="cls-15" x="254.98" y="195.93" width="11.86" height="11.68"/>
      <rect class="cls-15" x="271.31" y="236.98" width="17.47" height="11.68"/>
      <rect class="cls-15" x="263.64" y="185.6" width="12.68" height="8.33"/>
      <rect class="cls-15" x="88.37" y="195.93" width="12.1" height="11.68"/>
      <rect class="cls-15" x="190.23" y="185.6" width="12.68" height="8.33"/>
      <rect class="cls-15" x="204.91" y="185.6" width="12.68" height="8.33"/>
      <rect class="cls-15" x="199.52" y="195.93" width="11.86" height="11.68"/>
      <rect class="cls-15" x="227.25" y="195.93" width="11.86" height="11.68"/>
      <rect class="cls-15" x="185.66" y="195.93" width="11.86" height="11.68"/>
      <rect class="cls-15" x="213.39" y="195.93" width="11.86" height="11.68"/>
      <rect class="cls-15" x="219.6" y="185.6" width="12.68" height="8.33"/>
      <rect class="cls-15" x="202.44" y="236.98" width="11.77" height="11.68"/>
      <rect class="cls-15" x="264.2" y="223.3" width="11.77" height="11.68"/>
      <rect class="cls-15" x="250.42" y="223.3" width="11.77" height="11.68"/>
      <rect class="cls-15" x="257.54" y="236.98" width="11.77" height="11.68"/>
      <rect class="cls-15" x="243.76" y="236.98" width="11.77" height="11.68"/>
      <rect class="cls-15" x="216.21" y="236.98" width="11.77" height="11.68"/>
      <rect class="cls-15" x="229.99" y="236.98" width="11.77" height="11.68"/>
      <rect class="cls-15" x="236.65" y="223.3" width="11.77" height="11.68"/>
      <rect class="cls-15" x="222.87" y="223.3" width="11.77" height="11.68"/>
      <rect class="cls-15" x="278.33" y="185.6" width="10.45" height="8.33"/>
      <rect class="cls-15" x="88.37" y="185.6" width="11.77" height="8.33"/>
      <g>
        <rect class="cls-15" x="229.02" y="250.66" width="19.25" height="12.14"/>
        <rect class="cls-15" x="107.13" y="250.66" width="13.32" height="12.14"/>
        <rect class="cls-15" x="122.92" y="250.66" width="13.32" height="12.14"/>
        <rect class="cls-15" x="138.71" y="250.66" width="87.84" height="12.14"/>
        <rect class="cls-15" x="269.17" y="250.66" width="19.61" height="12.14"/>
        <rect class="cls-15" x="250.74" y="250.66" width="15.96" height="12.14"/>
        <rect class="cls-15" x="88.37" y="250.66" width="16.29" height="12.14"/>
      </g>
      <rect class="cls-15" x="268.84" y="195.93" width="19.93" height="11.68"/>
      <rect class="cls-15" x="277.97" y="223.3" width="10.81" height="11.68"/>
      <polygon class="cls-15" points="274.64 221.21 272.64 221.21 272.64 209.61 260.87 209.61 260.87 221.21 258.86 221.21 258.86 209.61 247.09 209.61 247.09 221.21 245.09 221.21 245.09 209.61 233.32 209.61 233.32 221.21 231.32 221.21 231.32 209.61 219.54 209.61 219.54 221.21 217.54 221.21 217.54 209.61 205.77 209.61 205.77 221.21 203.77 221.21 203.77 209.61 191.99 209.61 191.99 221.21 189.99 221.21 189.99 209.61 178.22 209.61 178.22 221.21 176.22 221.21 176.22 209.61 164.45 209.61 164.45 221.21 162.44 221.21 162.44 209.61 150.67 209.61 150.67 221.21 148.67 221.21 148.67 209.61 136.9 209.61 136.9 221.21 134.89 221.21 134.89 209.61 123.12 209.61 123.12 221.21 121.12 221.21 121.12 209.61 109.35 209.61 109.35 221.21 107.35 221.21 107.35 209.61 88.37 209.61 88.37 221.29 288.78 221.29 288.78 209.61 274.64 209.61 274.64 221.21"/>
      <rect class="cls-15" x="167.78" y="223.3" width="11.77" height="11.68"/>
      <rect class="cls-15" x="209.1" y="223.3" width="11.77" height="11.68"/>
      <rect class="cls-15" x="140.23" y="223.3" width="11.77" height="11.68"/>
      <rect class="cls-15" x="147.34" y="236.98" width="11.77" height="11.68"/>
      <rect class="cls-15" x="154" y="223.3" width="11.77" height="11.68"/>
      <rect class="cls-15" x="126.45" y="223.3" width="11.77" height="11.68"/>
      <rect class="cls-15" x="119.79" y="236.98" width="11.77" height="11.68"/>
      <rect class="cls-15" x="133.57" y="236.98" width="11.77" height="11.68"/>
      <rect class="cls-15" x="181.55" y="223.3" width="11.77" height="11.68"/>
      <rect class="cls-15" x="188.66" y="236.98" width="11.77" height="11.68"/>
      <rect class="cls-15" x="195.32" y="223.3" width="11.77" height="11.68"/>
      <rect class="cls-15" x="161.12" y="236.98" width="11.77" height="11.68"/>
      <rect class="cls-15" x="174.89" y="236.98" width="11.77" height="11.68"/>
      <rect class="cls-15" x="112.68" y="223.3" width="11.77" height="11.68"/>
    </g>
    <path class="cls-9" d="m311.93,53.58H59.76c-5.3,0-10.36,2.49-8.98,9.51l19.64,98.63c.95,4.83,4.14,8.19,7.78,8.19h25.73v6.49h165.04v-6.49h24.52c3.65,0,6.84-3.36,7.78-8.19l19.48-98.27c1.37-7.03-3.52-9.87-8.82-9.87Z"/>
    <polygon class="cls-2" points="283.41 161.61 88.28 161.61 68.77 65.21 302.93 65.21 283.41 161.61"/>
  </g>
  <g>
    <polygon class="cls-6" points="252.58 155.97 116.57 155.97 103.83 73.07 265.33 73.07 252.58 155.97"/>
    <polygon class="cls-6" points="252.58 155.97 151.86 155.97 145.73 73.07 265.33 73.07 252.58 155.97"/>
    <line class="cls-8" x1="114.87" y1="90.93" x2="139.21" y2="90.93"/>
    <line class="cls-8" x1="115.85" y1="98.05" x2="139.85" y2="98.05"/>
    <line class="cls-8" x1="116.8" y1="104.98" x2="140.47" y2="104.98"/>
    <line class="cls-8" x1="117.73" y1="111.71" x2="141.07" y2="111.71"/>
    <line class="cls-8" x1="118.63" y1="118.27" x2="141.66" y2="118.27"/>
    <g>
      <line class="cls-8" x1="124.77" y1="133.44" x2="143.01" y2="133.44"/>
      <path class="cls-8" d="m122.91,133.44c.09.66-.65,1.2-1.64,1.2s-1.88-.54-1.97-1.2c-.09-.66.64-1.2,1.64-1.2s1.88.54,1.97,1.2Z"/>
    </g>
    <g>
      <line class="cls-8" x1="125.39" y1="138.3" x2="143.45" y2="138.3"/>
      <path class="cls-8" d="m123.56,138.3c.09.65-.64,1.17-1.63,1.17s-1.86-.52-1.95-1.17c-.09-.65.64-1.18,1.63-1.18s1.86.53,1.95,1.18Z"/>
    </g>
    <g>
      <line class="cls-8" x1="126.01" y1="143.07" x2="143.87" y2="143.07"/>
      <path class="cls-8" d="m124.19,143.07c.08.64-.64,1.15-1.61,1.15s-1.84-.51-1.93-1.15c-.09-.64.63-1.15,1.61-1.15s1.84.52,1.93,1.15Z"/>
    </g>
    <g>
      <line class="cls-8" x1="126.61" y1="147.73" x2="144.29" y2="147.73"/>
      <path class="cls-8" d="m124.81,147.73c.08.62-.63,1.13-1.6,1.13s-1.82-.5-1.9-1.13c-.09-.62.63-1.13,1.6-1.13s1.82.51,1.91,1.13Z"/>
    </g>
    <g>
      <g>
        <polygon class="cls-2" points="160.11 90.51 160.05 89.33 152.73 89.33 152.8 90.51 153.31 98.58 153.42 100.37 172.55 100.37 172.32 90.51 160.11 90.51"/>
        <polygon class="cls-2" points="172.55 100.37 153.42 100.37 152.92 92.43 172.36 92.43 172.55 100.37"/>
      </g>
      <g>
        <polygon class="cls-2" points="186.99 90.51 186.99 89.33 179.67 89.33 179.68 90.51 179.76 98.58 179.78 100.37 198.91 100.37 199.2 90.51 186.99 90.51"/>
        <polygon class="cls-2" points="198.91 100.37 179.78 100.37 179.7 92.43 199.14 92.43 198.91 100.37"/>
      </g>
      <g>
        <polygon class="cls-2" points="213.87 90.51 213.94 89.33 206.62 89.33 206.57 90.51 206.22 98.58 206.14 100.37 225.28 100.37 226.08 90.51 213.87 90.51"/>
        <polygon class="cls-2" points="225.28 100.37 206.14 100.37 206.48 92.43 225.92 92.43 225.28 100.37"/>
      </g>
      <g>
        <polygon class="cls-2" points="240.75 90.51 240.88 89.33 233.56 89.33 233.45 90.51 232.67 98.58 232.5 100.37 251.64 100.37 252.96 90.51 240.75 90.51"/>
        <polygon class="cls-2" points="251.64 100.37 232.5 100.37 233.26 92.43 252.71 92.43 251.64 100.37"/>
      </g>
    </g>
    <g>
      <g>
        <polygon class="cls-2" points="160.93 107.62 160.88 106.52 153.8 106.52 153.87 107.62 154.34 115.16 154.45 116.83 172.95 116.83 172.73 107.62 160.93 107.62"/>
        <polygon class="cls-2" points="172.95 116.83 154.45 116.83 153.98 109.42 172.77 109.42 172.95 116.83"/>
      </g>
      <g>
        <polygon class="cls-2" points="186.91 107.62 186.91 106.52 179.84 106.52 179.85 107.62 179.92 115.16 179.94 116.83 198.44 116.83 198.71 107.62 186.91 107.62"/>
        <polygon class="cls-2" points="198.44 116.83 179.94 116.83 179.87 109.42 198.65 109.42 198.44 116.83"/>
      </g>
      <g>
        <polygon class="cls-2" points="212.88 107.62 212.95 106.52 205.87 106.52 205.82 107.62 205.5 115.16 205.43 116.83 223.93 116.83 224.68 107.62 212.88 107.62"/>
        <polygon class="cls-2" points="223.93 116.83 205.43 116.83 205.75 109.42 224.54 109.42 223.93 116.83"/>
      </g>
      <g>
        <polygon class="cls-2" points="238.86 107.62 238.98 106.52 231.91 106.52 231.8 107.62 231.07 115.16 230.91 116.83 249.42 116.83 250.66 107.62 238.86 107.62"/>
        <polygon class="cls-2" points="249.42 116.83 230.91 116.83 231.63 109.42 250.42 109.42 249.42 116.83"/>
      </g>
    </g>
    <g>
      <g>
        <polygon class="cls-2" points="161.7 123.62 161.65 122.59 154.81 122.59 154.87 123.62 155.31 130.68 155.41 132.24 173.32 132.24 173.12 123.62 161.7 123.62"/>
        <polygon class="cls-2" points="173.32 132.24 155.41 132.24 154.98 125.3 173.16 125.3 173.32 132.24"/>
      </g>
      <g>
        <polygon class="cls-2" points="186.83 123.62 186.84 122.59 179.99 122.59 180 123.62 180.07 130.68 180.09 132.24 198 132.24 198.25 123.62 186.83 123.62"/>
        <polygon class="cls-2" points="198 132.24 180.09 132.24 180.02 125.3 198.2 125.3 198 132.24"/>
      </g>
      <g>
        <polygon class="cls-2" points="211.96 123.62 212.02 122.59 205.18 122.59 205.13 123.62 204.83 130.68 204.76 132.24 222.67 132.24 223.37 123.62 211.96 123.62"/>
        <polygon class="cls-2" points="222.67 132.24 204.76 132.24 205.06 125.3 223.24 125.3 222.67 132.24"/>
      </g>
      <g>
        <polygon class="cls-2" points="237.09 123.62 237.2 122.59 230.36 122.59 230.26 123.62 229.58 130.68 229.43 132.24 247.34 132.24 248.5 123.62 237.09 123.62"/>
        <polygon class="cls-2" points="247.34 132.24 229.43 132.24 230.1 125.3 248.28 125.3 247.34 132.24"/>
      </g>
    </g>
    <g>
      <g>
        <polygon class="cls-2" points="162.42 138.6 162.38 137.64 155.75 137.64 155.81 138.6 156.23 145.23 156.32 146.7 173.67 146.7 173.48 138.6 162.42 138.6"/>
        <polygon class="cls-2" points="173.67 146.7 156.32 146.7 155.91 140.18 173.52 140.18 173.67 146.7"/>
      </g>
      <g>
        <polygon class="cls-2" points="186.76 138.6 186.76 137.64 180.14 137.64 180.15 138.6 180.21 145.23 180.22 146.7 197.58 146.7 197.81 138.6 186.76 138.6"/>
        <polygon class="cls-2" points="197.58 146.7 180.22 146.7 180.16 140.18 197.77 140.18 197.58 146.7"/>
      </g>
      <g>
        <polygon class="cls-2" points="211.1 138.6 211.15 137.64 204.52 137.64 204.48 138.6 204.2 145.23 204.13 146.7 221.49 146.7 222.15 138.6 211.1 138.6"/>
        <polygon class="cls-2" points="221.49 146.7 204.13 146.7 204.41 140.18 222.02 140.18 221.49 146.7"/>
      </g>
      <g>
        <polygon class="cls-2" points="235.43 138.6 235.54 137.64 228.91 137.64 228.82 138.6 228.18 145.23 228.04 146.7 245.4 146.7 246.49 138.6 235.43 138.6"/>
        <polygon class="cls-2" points="245.4 146.7 228.04 146.7 228.67 140.18 246.27 140.18 245.4 146.7"/>
      </g>
    </g>
    <g>
      <polygon class="cls-9" points="263.75 83.29 105.4 83.29 103.83 73.07 265.33 73.07 263.75 83.29"/>
      <path class="cls-6" d="m241.51,78c-.12,1.1-1.42,1.99-2.9,1.99s-2.59-.89-2.48-1.99c.11-1.11,1.41-2.01,2.9-2.01s2.6.9,2.48,2.01Z"/>
      <path class="cls-6" d="m250.18,78c-.14,1.1-1.45,1.99-2.93,1.99s-2.58-.89-2.45-1.99c.13-1.11,1.44-2.01,2.93-2.01s2.59.9,2.45,2.01Z"/>
      <path class="cls-6" d="m258.84,78c-.16,1.1-1.48,1.99-2.96,1.99s-2.56-.89-2.41-1.99c.15-1.11,1.47-2.01,2.96-2.01s2.57.9,2.41,2.01Z"/>
    </g>
  </g>
  <g>
    <rect class="cls-9" x="126.37" y="371.41" width="120.22" height="171.97"/>
    <path class="cls-3" d="m234.08,461.27v-48.47l-44.34-34.19-19.54,1.32-22.17-4.13s-4.51,2.07-4.88,3.19c-.38,1.13.38,1.69-1.88,3.95-2.25,2.25-7.33,3.76-7.33,3.76,0,0,.75,1.5-1.5,3.57-2.25,2.07-2.07,2.82-.38,3.19s3.19.94,2.63,2.44c-.56,1.5-4.13,1.69-3.76,3.38.38,1.69,1.5,2.07,2.63,2.07s7.14.38,7.14.38v55.04l-1.69,3.01s1.32,4.7-1.69,9.02c-3.01,4.32-6.39,6.2-6.39,6.2v44.71l16.53,17.85h32.82c.84-3.3,3.82-5.75,7.38-5.75s6.55,2.45,7.38,5.75h30.94l16.34-17.66v-48.28s-8.08-.38-8.27-10.33Z"/>
    <g>
      <polygon class="cls-6" points="133.11 371.41 126.37 371.41 126.37 378.15 133.11 371.41"/>
      <polygon class="cls-6" points="246.59 376.81 246.59 371.41 241.2 371.41 246.59 376.81"/>
      <polygon class="cls-6" points="126.37 536.31 126.37 543.39 133.45 543.39 126.37 536.31"/>
      <polygon class="cls-6" points="239.18 543.39 246.59 543.39 246.59 535.98 239.18 543.39"/>
    </g>
    <path class="cls-6" d="m223.95,393.25l7.84-4.86c3.1-1.92,7.18-.95,9.08,2.17h0c1.84,3.01.97,6.94-1.97,8.9l-7.05,4.7-7.91-10.9Z"/>
    <path class="cls-6" d="m141.28,464.84s0,1.32-2.25,4.32c-2.25,3.01-3.71,3.54-4.51,5.45-.86,2.04,1.82,5.04,4.13,4.13,3.06-1.19,4.7-6.2,6.39-6.58s2.44,3.19,4.32,3.57c1.88.38,3.57-2.07,3.57-2.07l-11.46-11.46-.19,2.63Z"/>
    <g>
      <circle class="cls-6" cx="186.48" cy="430.99" r="56.34"/>
      <circle class="cls-6" cx="186.48" cy="430.99" r="17.7" transform="translate(-93.42 53.92) rotate(-13.19)"/>
      <path class="cls-6" d="m192.41,430.99c0-3.28-2.66-5.93-5.93-5.93s-5.93,2.66-5.93,5.93,2.66,5.93,5.93,5.93,5.93-2.66,5.93-5.93Z"/>
    </g>
    <path class="cls-6" d="m243.85,463.9c0-1.04-.84-1.88-1.88-1.88s-1.88.84-1.88,1.88.84,1.88,1.88,1.88,1.88-.84,1.88-1.88Z"/>
    <path class="cls-6" d="m133.39,463.9c0-1.04-.84-1.88-1.88-1.88s-1.88.84-1.88,1.88.84,1.88,1.88,1.88,1.88-.84,1.88-1.88Z"/>
    <path class="cls-6" d="m243.85,536.23c0-1.04-.84-1.88-1.88-1.88s-1.88.84-1.88,1.88.84,1.88,1.88,1.88,1.88-.84,1.88-1.88Z"/>
    <path class="cls-6" d="m189.56,539.42c0-1.04-.84-1.88-1.88-1.88s-1.88.84-1.88,1.88.84,1.88,1.88,1.88,1.88-.84,1.88-1.88Z"/>
    <path class="cls-6" d="m133.39,536.23c0-1.04-.84-1.88-1.88-1.88s-1.88.84-1.88,1.88.84,1.88,1.88,1.88,1.88-.84,1.88-1.88Z"/>
    <circle class="cls-6" cx="241.97" cy="378.61" r="1.88"/>
    <circle class="cls-6" cx="131.51" cy="378.61" r="1.88"/>
    <path class="cls-6" d="m209.85,453c-1.25,0-2.25,1.01-2.25,2.25,0,.51.17.97.46,1.35l-3.46,1.66-41.33,31.94-4.88,1.88-.94,5.64s6.76.38,9.21,2.63c2.44,2.25,4.7,10.71,4.7,10.71l3.38.19,33.25-50.16.78-3.87c.33.18.7.3,1.1.3,1.25,0,2.25-1.01,2.25-2.25s-1.01-2.25-2.25-2.25Z"/>
    <path class="cls-6" d="m178.85,495.09c0-3.32-2.69-6.01-6.01-6.01s-6.01,2.69-6.01,6.01,2.69,6.01,6.01,6.01,6.01-2.69,6.01-6.01Z"/>
    <circle class="cls-6" cx="172.84" cy="495.09" r="1.03"/>
    <g>
      <path class="cls-6" d="m135.45,483.44v33.09c0,7.15,5.79,12.94,12.94,12.94h29.33l4.13-2.25h5.45v-17.47s-2.82-1.88-4.51-1.88-4.51.38-5.82,1.31c-1.32.94-2.44,1.69-4.13,1.32s-13.71-12.77-13.71-12.77l-.75-9.58v-5.07l-12.4-7.51-3.95,7.14-6.58.75Z"/>
      <path class="cls-6" d="m181.67,516.88c0,1.04-.84,1.88-1.88,1.88s-1.88-.84-1.88-1.88.84-1.88,1.88-1.88,1.88.84,1.88,1.88Z"/>
      <path class="cls-6" d="m152.74,486.82c0,1.04-.84,1.88-1.88,1.88s-1.88-.84-1.88-1.88.84-1.88,1.88-1.88,1.88.84,1.88,1.88Z"/>
    </g>
    <path class="cls-6" d="m227.69,471.98c.6-.58,1.28-1.12,2.07-1.39.79-.27,1.73-.23,2.4.28.81.61,1.05,1.77.84,2.76-.21.99-.79,1.87-1.35,2.71,1.39.51,2.62,1.37,3.99,1.92,1.37.54,3.03.73,4.25-.1,1.36-.92,1.7-3.04.7-4.34-.67-.87-1.75-1.3-2.71-1.83-2.59-1.41-4.01-3.53-5.57-5.9-1.88,1.56-2.85,4.18-4.62,5.89Z"/>
    <path class="cls-14" d="m227.69,471.98l-24.61,22.73,5.07,4.13-17.28,19.35,19.35,16.91,13.34-3.01,18.41-22.36-9.39-8.08,6.39-5.82-.19-15.22-8.45-4.32s2.18-4.11,1.84-5.44c-.34-1.32-4.1-.01-4.47,1.12Z"/>
  </g>
</svg>